<svg height="3496pt" preserveAspectRatio="xMidYMid meet" viewBox="0 0 2480 3496" width="2480pt" xmlns="http://www.w3.org/2000/svg"><g transform="matrix(.1 0 0 -.1 0 3496)"><path d="m4765 28794c-19-11-57-19-105-21-178-7-292-4-308 10-16 13-114 10-162-5-80-25-167-63-190-83-14-13-43-34-65-49-195-129-365-277-365-320 0-11-34-54-75-95-121-122-132-135-140-161-4-14-15-43-25-65-40-89-100-269-100-299 0-9-9-34-20-56s-20-57-20-78c0-22-7-53-15-68-8-16-15-41-15-56s-4-38-10-52c-7-18-5-37 5-66 16-46 6-131-20-159-24-28-55-105-55-140s-11-103-35-221c-8-36-16-92-20-125-6-63-40-250-49-275-3-8 1-44 8-80 12-54 12-70 1-95-7-16-16-64-19-105s-11-109-19-150c-18-102-21-524-4-775 13-205 13-273 2-408-5-49-3-95 5-125 11-44 10-48-12-65-13-10-47-37-77-60s-70-53-90-67-46-45-59-68-29-42-36-42c-18 0-47-78-54-143-10-92-6-379 7-472 7-49 14-137 17-193 2-57 11-127 19-155 10-31 18-108 21-187 4-81 13-166 25-214 10-44 19-102 19-128 0-32 10-70 30-115 18-39 30-82 30-108 0-23 5-77 10-121 6-43 14-137 19-209 5-71 19-197 29-280 11-82 25-213 31-290 24-295 38-329 136-331 339-8 433-6 495 9 36 9 80 17 97 17 45 0 139 66 122 86-15 18-2 108 21 154 10 19 25 73 34 120s28 110 41 140c41 94 93 243 100 290 3 25 14 77 24 115 10 39 24 97 31 130s18 76 25 95l13 34 10-54c6-30 16-102 22-160s15-141 21-185 15-123 19-175c18-205 54-392 91-477 11-24 19-47 19-53 0-29 109-32 141-4 18 16 139 9 151-9 4-7 30-3 75 11 37 11 91 23 118 27 28 4 77 19 110 35 33 15 67 30 76 33 23 8 43 131 30 188-5 24-12 96-15 160s-9 127-15 140c-31 80-43 146-48 269-3 74-10 143-15 153-5 9-13 70-18 135-5 64-14 153-20 197s-9 129-7 190c3 60 1 117-3 125s-10 74-12 147c-3 115-7 136-25 160-17 24-21 49-27 143-3 63-10 142-15 175s-14 92-19 130c-5 39-14 88-21 108-6 20-16 52-21 70-6 19-14 78-20 133-5 54-13 120-18 146-10 52-74 154-102 163-10 3-25 14-35 25s-28 20-41 20c-12 0-43 9-68 20-26 11-50 19-54 20-4 0-8 26-10 57-1 32-6 67-11 78-13 29-41 170-41 208-1 18-7 50-16 72-15 42-40 240-52 410-10 145-4 690 9 760 6 33 15 80 21 105s14 83 19 130c17 166 21 185 45 217 20 27 24 43 24 103 0 55 7 88 28 143 16 40 37 99 47 131 18 57 29 72 141 192 12 12 31 35 42 51 22 31 78 57 88 42 3-6 14-7 24-4s34-5 57-19c50-33 62-44 103-106 19-28 51-69 70-89 19-21 64-69 100-107s73-81 82-95 30-32 47-39c28-11 67-59 126-154 30-47 90-126 133-171 66-71 83-97 155-237 13-26 28-53 34-60s16-31 23-53c14-45 32-72 96-147 24-28 44-57 44-63 0-7 17-28 38-47 34-32 67-66 244-257 31-33 66-82 78-108 12-27 32-59 45-73 31-32 70-87 90-125 8-17 29-39 46-49 16-10 41-36 56-59 14-23 36-54 48-68s38-60 59-102c21-41 59-99 85-129 26-29 53-68 61-87 7-18 23-45 35-60 12-14 27-42 35-61 16-41 98-160 110-160 10 0 72-102 90-150 8-19 29-57 47-84 18-26 33-56 33-65s18-39 40-66c74-94 80-103 80-125 0-20 46-90 75-115 7-5 31-46 55-90s53-91 66-105c12-14 29-41 37-60s30-53 50-75 67-89 103-150c37-60 78-121 90-135 13-14 30-47 38-73 14-47 72-143 100-166 9-8 16-18 16-23 0-24 54-128 66-128 14 0 74-83 74-103 0-7 12-32 25-57 14-25 35-67 48-95 13-27 34-59 46-69 11-11 26-36 31-58 6-21 15-38 20-38 15 0 42-30 80-90 19-30 43-64 52-74 10-11 18-23 18-27 0-10 60-82 131-157 32-34 59-68 59-75s33-47 73-88c84-89 113-123 129-153 6-11 36-50 67-86s65-81 75-100c11-19 36-55 57-80 20-25 47-65 60-90 39-79 102-184 124-210 12-14 43-62 69-107 26-44 59-92 72-104 14-13 33-42 44-66 10-23 30-52 45-65s37-46 50-73c13-28 42-67 65-88 41-40 110-136 110-155 0-5 19-34 43-64 24-29 58-75 77-103 18-27 47-66 64-87 43-50 96-124 96-132 0-4 18-35 40-69 23-34 44-73 47-87s33-54 65-90 63-81 70-100c12-37 23-52 105-135 29-29 66-80 83-113 17-34 39-63 48-66 23-8 85-73 104-111 9-17 26-39 38-50 13-11 43-51 67-88 40-63 132-181 168-217 56-56 70-75 82-108 7-20 13-45 13-55s11-21 23-26c22-8 67-90 67-120 0-6 18-27 40-47s40-41 40-48c0-6 27-49 60-95 40-56 60-93 60-112 0-25 8-33 31-31 23 3 84-97 149-246 13-29 30-58 37-64 15-12 53-94 53-113 0-7 20-37 44-66 40-50 55-72 111-168 11-19 43-68 72-110s68-106 88-143c19-38 39-68 43-68 5 0 15-12 23-27s60-96 117-180c56-84 102-156 102-159s20-33 45-65c25-33 45-70 45-84 0-15 8-29 21-36 43-23 200-220 266-334 25-44 57-91 70-105 35-36 103-133 103-145 0-7 25-37 55-68 31-31 67-80 81-108 14-27 38-65 52-82 44-52 91-122 112-169 11-23 30-57 43-75 12-18 35-54 51-80s43-70 61-98c91-141 105-164 116-188 7-15 16-27 20-27s17-16 29-35c22-36 68-94 119-151 15-17 33-52 40-77 8-25 22-54 32-63 11-9 19-23 19-30s17-25 38-41c21-15 64-57 97-93 32-36 61-67 65-70 20-17 73-94 85-124 16-38 45-47 85-26 15 8 21 6 31-11 6-12 9-33 6-48-5-26 18-75 55-115 10-11 20-27 23-37 3-9 16-24 29-33 14-8 35-39 49-69 15-33 41-67 68-89 41-34 51-49 92-138 25-53 60-113 85-144 12-16 22-35 22-43 0-7 17-31 37-52 41-41 60-69 118-169 20-35 44-66 52-69 32-13 163-168 163-195 0-9 20-41 44-71 38-46 104-166 141-257 21-51 107-200 116-200 5 0 21-19 36-42 16-23 40-54 55-69 16-14 42-53 59-85s44-77 60-98c16-22 29-45 29-52 0-6 7-17 15-24 9-7 28-38 42-67 15-30 40-64 55-75 16-11 37-36 47-56 11-21 41-62 68-92 77-87 123-155 123-183 0-17 12-35 34-54 38-31 82-103 110-176 13-34 35-62 78-100 33-28 67-65 75-82 9-16 37-61 62-100 26-38 53-84 60-102 7-17 23-41 37-54 13-12 24-27 24-33 0-17 88-146 158-231 34-42 62-82 62-88 0-7 18-34 40-61s43-59 46-72c4-14 15-29 25-35 11-5 19-14 19-20s15-29 34-52 41-58 49-77 30-49 50-67c19-18 38-41 42-52 3-12 10-21 15-21 12 0 90-134 90-156 0-11 15-42 33-69 17-27 39-61 47-77 9-16 36-51 60-77 25-27 56-64 70-82 54-71 117-209 105-229-10-16 12-38 43-45 19-4 37-22 60-59 17-30 32-61 32-69 0-9 25-37 55-64 50-42 99-111 131-184 7-15 22-33 34-42 27-19 84-99 106-149 10-21 21-38 26-38s18-19 28-43c11-24 31-49 45-57 26-14 106-124 124-171 5-14 22-40 37-58 15-19 38-56 51-83 12-27 35-62 51-77 15-16 43-56 61-90s41-67 52-74 38-46 61-87 60-104 83-140 45-77 49-91c3-15 26-46 50-70s49-54 55-67c7-13 23-27 37-32 13-5 37-31 53-57 16-27 42-68 57-93s35-54 45-65c130-143 139-154 139-169 0-18 33-76 43-76 4 0 20-28 36-63 21-47 50-84 114-147 47-47 94-92 104-100s36-30 58-48c22-17 48-32 57-32 10 0 24-11 30-25s15-25 19-25 24-14 45-30c94-74 158-120 168-120 6 0 31-14 56-30s57-30 72-30c17 0 64-26 128-70 56-39 137-89 179-111 115-61 143-79 179-110 18-16 39-29 47-29 21 0 74-30 122-68 23-18 46-32 53-32 6 0 26-11 44-25s38-25 44-25 18-10 27-23c8-13 34-34 57-47 24-12 67-39 97-59s85-52 122-71c162-85 256-130 268-130 7 0 30-9 50-19 54-29 199-87 253-101 26-7 53-19 59-26 6-8 17-14 24-14 6 0 20-9 31-21 27-30 88-59 122-59 16 0 35-7 42-15s19-15 26-15c8 0 22-9 31-20 10-11 23-20 29-20s32-9 58-21c25-11 50-18 55-15s20-5 34-18c29-27 168-106 187-106 11 0 49-27 93-65 15-14 57-31 187-80 19-7 46-24 60-37s54-32 90-41c36-10 85-30 110-44 24-15 53-28 65-29 11-2 41-9 67-15 40-10 50-10 73 5 25 17 72 83 119 168 12 24 52 72 87 108s84 89 108 118c23 29 60 64 81 78s46 42 56 62c34 73 88 148 166 232 103 110 132 172 86 185-53 15-217 78-263 100-27 13-70 34-95 46-25 11-70 35-100 51-30 17-77 34-105 38-27 4-83 17-122 29-40 11-87 21-104 21s-52 11-78 24c-70 35-112 53-150 61-19 4-55 18-80 32-56 30-186 76-261 93-66 15-79 21-148 64-33 21-61 32-74 28-14-3-28 5-49 32-24 28-38 36-63 36-22 0-40 8-56 25-13 14-31 25-41 25s-21 5-24 10c-4 6-25 20-48 31-23 12-57 34-75 50-26 23-38 27-63 22-28-5-36-1-74 41-36 38-48 46-68 41-21-6-35 3-85 54-33 34-64 61-69 61s-15 11-21 25-17 25-23 25-22 9-36 20-32 20-39 20c-14 0-61 45-148 140-22 24-65 55-102 72-42 20-70 40-79 58-8 15-31 42-52 60-21 17-69 60-106 93-38 34-78 62-89 64-29 5-69 35-108 82-18 23-39 41-46 41-8 0-14 4-14 9 0 6-18 20-40 32-23 13-43 33-46 46-4 13-20 33-38 45-32 23-48 39-79 83-10 14-24 25-31 25s-20 16-29 35-38 51-64 72c-61 48-138 140-147 176-4 16-30 58-58 94s-68 98-88 136c-38 70-189 237-215 237-7 0-18 14-24 31-11 32-97 118-119 119-6 0-25 28-42 63-22 48-38 67-62 78-22 10-41 31-62 71-16 31-39 61-52 67-13 5-31 25-40 43s-29 43-45 56c-17 14-29 33-29 46s-9 35-21 50c-11 14-37 59-57 99-21 39-53 94-72 120s-50 69-69 95c-19 25-49 72-68 103-18 32-46 68-62 81s-42 50-59 83-44 73-61 89c-16 16-33 43-37 60-3 17-15 48-25 68-11 21-19 46-19 56s-13 31-29 47c-17 15-42 51-56 79-49 97-66 121-103 146-64 42-82 63-94 107-6 24-21 51-33 61-29 23-57 78-53 106 1 12-8 35-20 51-12 15-25 40-28 54-4 14-24 42-45 62-27 26-39 45-39 65 0 21-15 42-63 88-35 34-67 72-70 87-6 23-43 73-89 121-10 9-29 39-42 67-14 27-31 55-38 62-14 14-52 69-116 167-19 28-38 52-43 52-4 0-11 10-14 21-4 12-24 40-45 63-20 23-44 55-53 72s-35 55-60 85c-24 30-58 75-75 101-39 56-159 198-213 251-22 21-51 61-65 90-25 47-48 82-114 163-49 61-56 69-85 109-17 21-37 47-46 56-10 9-20 31-24 49-6 30-57 112-118 191-15 20-27 39-27 44 0 4-15 26-32 48-46 57-98 139-98 154 0 6-18 32-39 57-22 25-42 55-46 66-3 11-10 20-15 20s-19 22-31 50c-12 27-30 52-39 55-8 3-21 17-28 32-13 31-18 40-116 185-39 57-89 126-113 155-24 28-50 68-58 87-8 20-42 67-75 105-33 39-60 73-60 76 0 4-20 29-44 56s-57 70-72 97c-15 26-50 74-78 108-55 65-147 180-158 198-4 6-19 37-33 68-14 32-39 70-55 85s-39 50-51 77c-22 51-89 155-114 176-7 6-21 34-31 62-13 41-70 145-124 228-6 8-14 26-20 40-5 14-14 32-20 40-5 8-32 56-59 106-28 49-59 98-71 109-11 10-20 23-20 30s-8 21-17 33c-10 11-31 42-48 68-16 26-37 57-45 69-8 11-24 36-35 55s-51 67-90 106c-38 38-90 103-114 143s-55 79-67 88c-13 8-44 52-69 97-29 50-58 89-76 100-16 9-29 22-29 29 0 6-15 36-34 67-18 30-37 74-41 98-4 23-18 56-31 71-13 16-24 36-24 46 0 9-14 31-32 48-36 36-71 90-124 191-36 70-108 169-155 216-14 14-41 54-59 89-30 56-86 128-170 218-17 18-30 39-30 46s-12 24-26 38c-14 13-33 37-41 52-14 28-61 93-96 132-65 75-88 107-116 160-17 33-52 80-77 105-26 25-55 63-65 86s-35 59-55 80c-19 21-44 56-55 76-11 21-37 66-59 99-22 34-40 70-40 79s-9 25-21 36c-12 10-28 32-36 49-17 32-106 148-158 205-18 19-35 47-38 61-4 14-28 48-54 76-60 63-106 121-123 153-15 29-38 53-67 68-12 7-35 40-51 74-17 35-38 77-48 93-9 17-20 35-23 41s-18 30-33 52c-16 23-28 48-28 55 0 16-71 155-108 212-15 22-47 63-73 92-25 28-49 64-52 80-3 15-27 53-52 83s-52 70-61 88c-8 18-28 47-43 65s-40 54-56 82c-15 27-39 59-51 72-13 13-40 53-60 90-38 69-58 98-106 157-16 19-28 38-28 43 0 6-15 30-32 54-18 24-42 58-53 75-70 109-88 133-129 167-46 38-99 114-172 242-21 38-43 77-49 86-61 96-98 149-104 149-10 0-80 97-92 128-6 15-23 47-39 72-18 28-33 71-41 114-9 52-18 76-40 99-16 16-29 34-29 38s-18 29-40 54-40 54-40 63c0 18-72 101-101 118-9 5-37 45-64 89-26 44-55 89-65 100s-25 38-34 59c-9 22-43 67-75 101-32 33-61 70-65 83-4 12-11 22-17 22-5 0-32 32-60 70-28 39-54 70-58 70-5 0-19 21-32 47s-42 73-64 103-72 105-112 165c-80 123-87 132-230 325-18 25-47 65-63 90s-33 50-39 56c-5 6-16 25-25 42s-24 37-34 44c-11 7-27 28-36 46-9 17-21 32-26 32-9 0-93 118-146 206-12 19-38 52-58 73-20 20-36 41-36 46 0 6-23 32-50 58-32 32-56 67-69 103-19 50-132 204-151 204-4 0-13 15-21 33-7 17-28 50-46 73s-33 46-33 53c0 6-13 29-29 51s-32 55-35 73c-4 19-21 48-41 67-19 19-35 39-35 45 0 16-73 126-99 149-11 11-21 24-21 31 0 6-32 59-72 116-47 69-74 119-80 147-6 32-21 59-58 99-28 31-58 69-66 87-9 17-33 49-54 71-41 42-90 131-90 161 0 22-39 104-49 104-8 0-56 74-87 133-10 21-26 46-34 55-9 9-27 33-40 52s-30 41-37 48c-8 8-20 27-28 43-9 16-20 29-25 29-23 0-110 106-155 190-27 51-62 106-77 122-43 46-71 89-94 145-21 51-28 62-104 158-22 27-40 55-40 61s-12 21-26 35c-15 13-36 40-49 59-30 47-209 227-233 234-11 4-32 25-47 48s-32 47-37 52c-5 6-19 29-31 52-32 58-55 96-114 185-29 43-53 83-53 89 0 18-49 89-70 100-11 6-29 27-39 48-11 20-47 66-81 102-102 110-174 191-200 228-14 20-68 79-120 132s-113 121-134 152c-22 31-53 67-70 80-17 12-49 39-71 59-43 40-175 119-198 119-7 0-35 14-62 31s-71 38-98 46-65 23-86 33c-54 28-149 35-186 14zm-448-146c42-23 43-23 77-4 34 18 66 17 66-3 0-5-19-26-42-47-24-21-60-59-80-84-59-70-71-81-105-95-18-8-33-18-34-22s-2-23-4-41c-4-48-103-137-180-162-22-7-49-19-60-25-11-7-32-15-46-19-16-3-35-20-48-41-11-19-27-35-34-35-8 0-20-7-27-15s-33-24-58-35c-55-25-151-119-181-179-25-48-50-46-31 3 5 15 15 60 21 99 17 114 51 169 110 181 28 5 63 62 130 211 22 50 42 81 53 83 23 5 17-16-29-113-35-75-49-132-39-159 5-13 9-14 20-5 8 6 14 18 14 26 0 18 105 220 128 248 33 39 51 48 66 36 20-17 42-4 60 37 9 21 34 55 55 77 20 22 42 49 48 60 11 18 61 43 93 44 8 1 34-9 57-21zm377 7c51-1 73-18 37-28-23-6-61-63-61-91 0-10 9-34 21-52l21-34-34-31c-18-17-55-52-83-78-27-25-53-54-57-64-14-34-72-49-164-41-47 4-87 11-90 15-3 5-16 9-29 9-37 0-39 18-7 48 16 15 38 45 50 67 26 51 70 93 114 108 39 14 108 86 108 113 0 11 4 25 9 33 13 20 72 40 96 33 11-3 42-6 69-7zm295-40c22-13 42-29 45-34 4-5 20-12 36-16 25-6 30-11 30-36 0-51 25-94 99-167 39-39 71-78 71-86s-21-24-46-35c-52-24-132-103-141-140-3-14-21-55-39-90-24-47-30-69-24-81 17-31 47-30 90 3 50 39 51 67 3 79-18 5-33 12-33 17 0 18 30 65 56 88 28 24 35 26 72 23 12-1 22 2 22 7s16 15 35 22 35 17 35 22c0 6 4 9 9 7 13-5 121-135 121-146 0-6-22-27-50-47-55-40-63-67-28-86 36-19 88-12 118 16 32 30 47 32 55 5 3-11 10-20 15-20 4 0 21-21 36-47 15-27 52-76 81-111 29-34 53-67 53-73s15-29 34-52c64-80 72-116 29-136-75-35-78-37-75-62 2-28-47-93-99-129l-29-22-90 84c-56 52-89 91-90 104 0 32 90 141 128 154 39 14 71 55 54 72-13 13-114-57-188-129-45-44-58-50-69-33-10 16 12 45 49 65 36 20 53 46 41 65-12 20-77 11-111-15-18-14-36-25-39-25-18 0-113 93-161 157-36 47-68 78-89 87-19 8-44 31-57 50-13 20-43 46-68 59-47 24-130 98-130 117 0 6-15 17-34 25s-37 19-41 25c-3 5-26 15-50 21-62 16-73 32-52 72 22 40 115 137 131 137 7 0 26 15 43 33 17 17 51 49 77 70 50 42 54 52 30 78-20 22-13 34 34 59 48 25 55 25 101-5zm-738-467c1-13 2-20 14-86 3-18 3-42 0-53-6-19-8-19-25-4-19 17-38 124-25 144 9 15 35 14 36-1zm88-80c-1-60-2-61-10-23-11 55-11 85 1 85 6 0 10-27 9-62zm-205-48 5-75-30 65c-25 54-28 69-19 89 18 40 37 6 44-79zm416 60c22-11 40-22 40-25 0-2-18-24-39-49-22-25-45-62-52-83-14-44-45-88-53-75-9 15 30 219 47 240 12 15 11 16 57-8zm-551-70c9-25 34-80 55-123 39-77 48-84 96-77 8 1 21 9 27 17 10 13 13 14 17 2 19-68 61-189 73-212 19-38 46-32 54 13 3 19 7 40 9 45 5 21-1 43-18 63-10 12-24 47-31 78-12 53-12 59 5 70 11 7 27 21 37 30 16 17 17 15 17-35 0-48 3-56 35-85 19-18 35-42 35-53 0-23 43-63 66-63 8 0 14-8 14-19 0-10 6-24 14-30 8-7 17-23 20-36 7-29 20-31 59-11 32 17 31 18 11-22l-15-31-107 5c-59 2-127 9-152 15-28 6-63 6-93 1-40-8-51-7-71 9-13 11-28 19-33 19-20 1-50 68-67 151-8 38-118 149-148 149-18 0-27 8-36 33-17 47-15 65 8 77 11 6 20 17 20 25 0 19 41 46 64 43 13-2 25-18 35-48zm-502-24c-38-239-38-239-76-281-21-22-45-52-54-67-19-31-44-37-53-13-4 8 1 37 9 63 9 26 18 63 22 82 4 23 14 39 28 45 13 6 23 21 25 35 7 69 15 91 48 133 40 51 59 52 51 3zm1189 0c4-16-5-44-27-87-17-35-40-82-51-104-33-70-46-90-62-93-34-7-13 99 24 125 11 8 20 20 20 27s14 38 30 69c17 31 30 63 30 72 0 24 29 17 36-9zm112-112c2-11-6-28-17-38-19-17-21-18-27-2-9 22 13 69 29 64 6-3 13-13 15-24zm-1006-29c13-19 53-58 88-86 69-56 85-73 120-136 16-29 31-43 51-47 57-11 89-76 37-76-11 0-26-13-36-30-20-34-42-38-66-11-10 11-30 24-46 31-20 8-35 28-53 70-19 42-32 59-50 64-13 3-32 17-41 31-20 30-36 32-36 6 0-47-49-28-85 33-14 25-35 48-46 51-19 6-25 39-11 62 8 13 70 57 93 66 34 13 57 6 81-28zm1122-42c45-31 56-42 56-60 0-22-48-15-55 7-12 38-50 24-104-37-47-54-51-56-51-32 0 15 7 32 16 40 8 7 22 26 31 43 19 39 43 66 57 66 5 0 28-12 50-27zm179-190c42-46 77-89 77-97 0-22-77-86-105-86-33 0-32 15 4 36 49 29 66 85 32 104-29 15-33 14-97-35-110-84-157-155-121-182 13-11 151-10 210 2 48 9 49-6 4-66-52-68-68-129-34-129 16 0 103 93 152 163 22 31 44 57 50 57 17 0 35-22 35-42 0-21-74-78-102-78-13 0-18-7-18-26 0-39-21-104-47-146-13-21-25-38-27-38-5 0-66 88-66 95 0 2-42 46-92 97-70 70-104 97-138 108-49 16-64 46-35 70 8 7 15 24 15 37 0 18 27 52 100 124 55 54 100 104 100 110 0 23 30 0 103-78zm-1513 43c20-25 95-49 116-38 28 14 40 7 123-77 42-42 90-83 108-90 47-19 52-55 11-89-15-12-90 34-181 111-49 42-117 67-117 44 0-22 89-100 145-128 33-16 73-40 89-52 28-23 28-23 12-55-9-18-19-32-21-32s-37 16-77 36-91 41-113 48c-37 11-40 14-41 51-1 21-8 43-16 49-68 49-138 129-138 156 0 22 53 80 73 80 8 0 20-7 27-14zm1159-48c-19-36-59-62-59-38 0 11 51 60 63 60 4 0 2-10-4-22zm-23-130c16-31 9-35-24-12-13 9-22 26-22 41 0 22 2 24 16 12 8-7 22-25 30-41zm-1180-75c16-7 36-25 45-41s42-41 80-61c109-57 169-100 169-122s-15-24-50-4c-14 8-37 14-51 15-14 0-29 3-33 7-13 13-101 32-110 23-11-11 1-30 20-30 24 0 87-36 114-65 14-14 40-33 58-42 27-13 32-21 30-42-3-25-5-26-75-25-39 0-77 5-85 11-28 23-86 51-119 58-19 3-52 15-74 24-57 26-115 34-115 16 0-16 44-52 85-69 17-7 36-25 44-39 13-24 12-29-4-47-10-11-27-20-37-20-22 0-124 74-132 96-3 8 5 47 19 87 13 40 29 91 35 115 12 46 32 54 73 28 37-23 73-27 87-11 20 24 3 58-46 89-51 32-59 45-50 80l6 23 43-21c24-11 56-27 73-33zm2373 17c12-22 39-53 59-70 21-16 46-46 57-67s50-79 87-130c38-51 78-109 90-130s35-50 50-64c32-31 51-74 43-99-3-10-19-23-34-30-27-11-151-118-151-130 0-9 135-2 162 8 37 15 62 55 54 87-6 23-4 25 12 16 23-12 86-81 102-111 13-25-1-50-30-50-9 0-41-18-71-40s-68-49-85-60-37-31-44-44c-13-26-36-40-50-31-4 2-10 18-13 34-4 16-17 40-30 53s-37 46-53 75l-28 51 48 52c55 59 57 83 7 88-23 2-44-4-70-22-47-33-56-32-78 2-9 15-36 48-60 74s-43 54-43 62c0 19 127 156 144 156 7 0 27 16 46 35 28 29 31 35 17 41-11 4-30-5-52-25-23-19-47-31-65-31-16 0-41-5-55-10-22-8-25-13-15-24 9-11 6-23-15-55-14-23-31-41-39-41-18 0-146 147-146 167 0 6-9 18-20 28-33 30-25 64 30 125 28 30 52 62 55 71 3 8 29 23 59 32 30 10 59 24 66 32 20 24 35 18 59-25zm-509-190c0-10-6-23-13-27s-23-22-34-39c-22-31-98-73-110-60-18 18 16 64 77 104 73 48 80 50 80 22zm80-69c5-11 10-23 10-28 0-9-74-53-89-53-20 0-11 29 20 65 36 40 44 43 59 16zm-254-157c-6-24 13-38 39-28 10 4 18-3 25-22 6-16 19-35 28-42 12-9 17-27 17-60 0-41 3-47 23-50 18-3 22-10 22-36 0-25 6-35 25-44 17-8 25-20 25-36 0-40 44-42 105-4 11 7 23 16 26 21 9 12 139 96 160 102 24 8 44-7 76-58 22-35 23-57 3-57-5 0-32-14-61-31-53-31-64-30-71 6-4 23-49 51-70 43-8-4-35-33-59-67-24-33-49-60-56-60-6-1-22 14-34 32-13 17-37 44-55 59-17 15-48 52-67 81-20 29-43 60-52 67-9 8-25 31-36 51-10 21-31 50-45 66-58 61-66 93-24 93 10 0 22 5 25 10 12 19 37-11 31-36zm353 15c15-44 14-46-14-65-20-13-29-14-59-3-31 11-38 11-56-6-12-10-26-20-33-21s-20-5-29-9c-14-5-18-2-18 13 0 22 66 72 96 72 11 0 35 11 54 25s37 25 41 25 12-14 18-31zm-1921-18c9-5 25-12 35-15 11-4 17-16 17-37 0-31 0-31-42-24-58 9-92 26-96 48-5 27 52 46 86 28zm1992-97c0-7-6-15-12-18-53-26-74-46-86-82-9-28-23-45-52-61-49-29-52-29-40 3 15 38 65 97 115 134 27 20 45 42 45 54 0 20 0 20 15 0 8-10 15-24 15-30zm-2321 1c13-2 42-22 65-44l40-40-46-20c-51-22-58-32-50-78 5-38-7-42-63-19-46 20-59 48-51 112 9 80 24 107 55 99 15-3 37-8 50-10zm306-15c33-5 79-15 103-22 37-11 43-16 40-38-3-25-4-25-108-28-121-4-186 10-175 36 4 9 12 30 17 45 9 24 15 28 37 23 14-4 53-10 86-16zm35-160c30-11 62-20 71-20 22 0 31-24 22-58-11-46-11-46-138-5-47 15-62 25-69 46-11 31 6 57 38 57 12 0 46-9 76-20zm-391-79c67-46 101-52 150-26 32 16 86 12 144-12 30-13 37-21 37-45 0-25 7-31 60-55 55-23 70-39 54-56-3-3-27 2-53 12-25 10-96 26-158 35-96 14-117 15-145 3-18-8-39-12-47-9-24 8-2-17 30-33 21-11 43-14 77-9 37 5 51 2 61-10 11-13 9-18-18-33-45-26-39-39 19-35 39 3 55-1 76-17 15-12 39-21 55-21 31 0 80-19 91-35 4-5 8-30 8-54v-43l-35 6c-19 4-55 16-80 27s-77 23-115 26c-59 5-73 3-90-12-11-10-20-26-20-36 0-15 5-16 35-8 47 13 96 8 105-11 4-8 12-30 18-48 9-27 8-34-6-41-26-14-125-10-147 5-11 8-29 14-40 14s-29 7-39 15c-11 8-32 15-48 15-39 0-36-26 6-44 18-8 37-19 40-25 4-6 22-17 40-26 30-15 71-15 156 0 14 2 66 1 115-3l90-7v-30-30l-58 3c-52 4-59 2-64-17-6-25-48-28-77-6-27 20-110 20-130-1-9-8-16-25-16-36 0-17 4-19 28-14 43 11 92 7 162-14 36-10 84-21 107-25 44-7 55-22 46-69-5-22-8-24-20-14-17 13-56 17-183 18-92 1-116-10-148-63-17-28-17-29 15-57 17-15 33-36 35-47 2-14 16-20 58-25 30-3 94-12 143-19l87-12v-31c0-53-10-59-76-47-81 14-176 25-193 22-8-2-20 4-25 11-6 8-36 27-67 42-43 20-63 25-85 19-16-4-37-6-46-4-14 2-18-5-18-33 0-30 6-40 38-61 36-23 52-26 142-23 45 1 178-16 186-25 13-13-23-82-47-88-42-12-86-9-99 6-7 8-20 15-30 15s-23 7-30 15c-17 20-30 19-30-2 0-10 20-38 45-63l45-46 73 13c106 18 194 17 205-3 10-18 5-51-11-71-17-23-81-36-236-48-58-5-76-3-85 9-13 18-124 56-161 56h-27l6 78c3 42 6 84 7 92s-1 84-5 169c-6 145 5 291 24 314 3 4 20 1 36-7s45-16 64-18c32-3 35-1 35 22 0 22-5 26-40 30-22 3-55 12-73 20l-33 15 6 110c4 61 11 125 15 143 5 19 6 40 3 48s-2 25 1 39c6 23 10 25 49 19 23-4 46-10 52-15 5-5 17-9 28-9 26 0 20 52-7 56-10 1-23 7-29 13s-30 11-53 11c-34 0-44 4-49 20-3 11-4 24-1 28 3 5-1 28-8 53-13 43-12 54 15 152 9 33 13 37 32 31 12-3 33-13 46-23zm2591-31c0-12-28-37-82-73-97-63-191-117-206-117s-22 40-10 65c12 26 145 90 211 101 24 4 44 15 54 30 17 26 33 23 33-6zm648 4c13-4 31-23 43-46 11-21 26-41 34-44 8-4 24-25 35-47 12-23 52-73 90-112 38-38 75-82 81-98 15-37 2-49-79-72-38-11-67-29-94-56-21-21-43-39-49-39-5 0-15-11-21-25s-17-25-23-25c-7 0-25-10-40-22l-28-22-16 25c-9 13-28 37-43 52-49 50-70 87-64 110 7 28 142 167 163 167 8 0 24 11 35 25s25 25 33 25c23 0 37 26 21 39-21 18-138-54-196-120-25-28-56-63-69-77l-24-26-16 23c-9 12-29 38-44 56-22 26-28 45-29 83-1 46 1 52 43 88 24 21 55 52 70 67 29 32 113 76 144 77 11 0 30-3 43-6zm-2778-54c0-5-2-10-4-10-3 0-8 5-11 10-3 6-1 10 4 10 6 0 11-4 11-10zm2316-206c8-33 1-47-32-63-16-8-50-24-75-37-60-31-70-30-91 6-11 19-25 30-38 30-32 0-22 35 10 36 14 0 36 1 50 2s50 22 80 47l55 45 18-21c9-12 20-32 23-45zm-321-21c-13-36-38-63-61-63-16 0-28 34-14 38 7 3 23 17 38 33 37 42 53 39 37-8zm1180-210c18-32 18-33-1-54-10-11-31-27-46-35-55-28-228-198-228-223 0-20-68 46-76 73-3 12-13 35-21 53-14 30-13 34 6 61 22 32 84 82 100 82 5 0 33 5 61 11 41 9 53 16 66 42 9 18 28 42 41 54l25 22 27-27c15-15 36-41 46-59zm-735 25c39-53 38-72-2-88-18-8-52-26-76-42-62-41-75-38-67 15 4 23 17 56 30 72 23 31 75 85 81 85 2 0 17-19 34-42zm-231-12c13-20 19-41 15-51-6-16-101-65-125-65-10 0-39 59-39 80 0 6 10 15 23 20 12 5 36 18 52 29 41 28 50 27 74-13zm1053-103c15-15 28-32 28-38s14-27 30-47c17-20 38-54 46-74 9-21 27-54 40-73 33-49 30-67-15-96-22-13-55-41-74-61-46-48-46-48-93-89-42-35-77-92-67-107 6-10 118 93 187 171 29 34 64 62 87 70 37 14 40 14 64-9 14-13 25-28 25-33s16-27 35-50c37-43 44-67 21-67-8 0-41-14-73-31-54-29-84-57-248-231-24-27-48-48-53-48-9 0-82 160-82 179 0 5-18 31-40 56s-40 51-40 56c0 6-17 31-38 57-41 51-92 147-92 174 0 10 10 32 23 51 40 59 264 264 291 266 6 1 23-11 38-26zm-680-90c3-18-60-83-81-83-6 0-16-9-23-20-14-23-28-26-28-7 0 16 102 127 117 127 6 0 13-8 15-17zm-228-30c4-11-4-27-24-48-16-17-30-36-30-41 0-6-6-18-13-28-13-17-15-17-43 9-38 36-64 76-64 100 1 19 1 19 11 2 9-15 19-17 62-12 29 4 59 13 67 21 19 18 26 18 34-3zm276-57c0-17-54-76-70-76-19 0-1 43 28 67 31 26 42 29 42 9zm-2679-108c12-19 11-102-2-115-11-11-50-5-102 16-16 6-32 9-37 6-16-10-40 7-40 28 0 27-38 67-64 68-19 1-18 2 4 10 39 13 231 3 241-13zm2807-63c12-20 22-40 22-44 0-3-27-33-59-65l-59-59-12 42c-9 33-15 41-35 41-13 0-30-6-37-12-21-20-75-48-92-48-20 0-39 36-31 60 9 29 85 90 112 90 31 0 72 22 103 55l25 26 20-25c11-13 30-41 43-61zm-394 30c-4-8-12-15-20-15s-14 7-14 15 9 15 20 15c13 0 18-5 14-15zm1275-248c11-18 32-45 47-62 14-16 35-47 45-68 11-21 26-40 34-43s17-18 20-34c6-25-8-41-161-194-158-159-185-196-140-196 20 0 109 93 154 162 20 31 47 59 59 62 12 4 27 15 33 26s17 20 24 20 21 9 31 20c20 22 35 26 35 9 0-12 50-81 67-92 6-4 25-29 41-56 17-27 44-57 59-66 29-17 65-81 79-140 4-16 34-83 67-149l61-118-52-45c-50-43-130-149-120-159 3-2 18 9 34 25 109 109 194 160 194 116 0-8 11-31 25-51s25-41 25-45c0-12-21-31-117-109-44-35-91-80-104-99-39-57-107-123-121-119-7 3-25 23-41 45-15 23-40 46-56 51-24 8-30 17-35 54-7 45-16 62-85 158-22 30-52 80-67 110s-37 68-50 83c-13 16-24 35-24 43 0 20 82 142 100 149 15 6 82 85 88 105 2 6-5 10-15 9-10 0-38-25-63-55s-58-70-75-88c-16-18-35-41-41-51-15-27-60-13-69 22-3 16-19 48-34 73-16 25-37 64-47 88-10 23-21 42-26 42-16 0-68 120-62 144 9 36 139 186 238 275 27 24 35 36 27 44s-19 5-41-11c-61-46-192-178-210-213-28-54-48-57-87-12-39 46-40 59-8 92 14 14 47 54 74 88 72 90 170 170 203 165 9-2 22 6 28 17 13 26 34 18 59-22zm-731-22c22-48 10-71-61-118-15-9-36-35-47-57s-26-40-33-40-20-9-30-20c-23-27-45-15-58 32-11 41-3 57 27 58 6 0 17 7 24 15s25 15 40 15c19 0 33 8 45 28 10 15 29 38 42 51 12 13 23 32 23 42 0 27 15 23 28-6zm-2968-4c0-24-18-37-31-24s-1 43 17 43c8 0 14-9 14-19zm173-51c3-10-1-27-9-37-12-16-13-14-14 20 0 39 14 50 23 17zm2507-5c0-26-14-33-25-15-9 14 1 40 15 40 5 0 10-11 10-25zm398-105c4-35-46-80-111-101-29-9-56-15-60-12s16 30 45 60 59 62 67 70c21 22 55 12 59-17zm65-110c3-12-4-29-19-45-13-14-24-34-24-44 0-22-15-36-50-46-14-4-40-25-58-46-37-43-56-48-84-22-25 23-24 53 3 53 23 0 84 34 96 54 5 7 25 22 46 35s44 36 52 52c18 34 31 37 38 9zm-3542-51c42-7 65-6 74 1 6 5 47 11 90 13l77 2 17-43c22-54 33-62 98-62 48 0 53-2 59-25 10-40 0-49-68-62-82-16-122-6-126 29-2 15-9 31-15 36-19 15-118 45-125 38-12-13 14-41 61-66 72-38 60-60-32-60-34 0-66 9-108 31-60 31-61 32-67 82-4 28-12 57-18 64-12 15-3 47 12 38 5-3 37-11 71-16zm3640-116c18-27 44-61 60-78 15-16 33-41 38-55 6-14 20-36 31-50s21-36 22-49c3-21-2-24-41-28l-44-4 16 25c20 30 22 55 4 62s-87-23-93-41c-3-8-30-26-58-39-29-14-59-32-66-41-12-14-17-12-47 17-18 17-33 39-33 47 0 20 57 66 93 75 15 3 32 17 38 30 6 12 24 30 40 40 33 19 39 58 14 90-14 19-20 46-10 46 2 0 18-21 36-47zm-3844-175c-2-13-4-3-4 22s2 35 4 23c2-13 2-33 0-45zm593 47c0-21-18-37-51-45-19-5-54-16-78-25s-76-20-117-25c-60-8-78-6-105 7-17 9-45 16-60 15-26-1-29 3-29 29v31l78-2c42-1 131 4 197 12 144 16 165 16 165 3zm-570-116c0-6-4-7-10-4-5 3-10 11-10 16 0 6 5 7 10 4 6-3 10-11 10-16zm449-63c23-24 82-46 116-43 17 2 20-4 20-43 0-38-4-47-25-57-41-19-130-29-190-21-65 9-117 16-185 24-27 4-53 11-57 17-11 18 3 100 20 120 16 18 52 23 68 8 5-5 43-3 89 4 114 18 119 18 144-9zm3610-48c17-23 31-47 31-54 0-6 11-19 25-28 33-21 33-52 0-60-37-9-81-100-66-133 7-16 17-23 27-19 9 4 19-3 26-19 9-21 7-29-15-59-15-19-43-44-62-56l-36-22-24 22c-13 12-26 33-29 46-4 13-11 24-17 24-5 0-13 10-18 23-7 19 0 31 48 79 123 126 141 147 141 165 0 17-7 19-55 18-48-2-60-7-97-40-46-42-67-32-26 13 13 15 41 53 62 85 21 31 42 57 46 57 5 0 22-19 39-42zm-179 6c0-15-12-38-27-53-16-16-36-40-46-55-18-26-20-27-38-10-27 24-25 61 4 70 12 3 35 22 50 40 34 41 57 44 57 8zm-2680-158c11-14 9-16-11-16-13 0-34-3-46-6-18-5-23-2-23 11 0 42 48 49 80 11zm-1271-9c6-8 31-14 55-14 47-1 90-18 81-33-3-4-29-11-58-15-82-10-115-24-134-56-18-31-62-49-120-49-28 0-33 4-33 25 0 13 7 30 15 37 9 7 24 20 33 28 24 22 131 88 143 89 4 1 12-5 18-12zm4241-31c0-13-7-29-15-36-12-10-15-9-15 8 0 27 10 52 21 52 5 0 9-11 9-24zm-2905-6c3-5 1-10-4-10-6 0-11 5-11 10 0 6 2 10 4 10 3 0 8-4 11-10zm-1115-117c2-2-4-21-15-41-24-44-65-57-107-33-30 16-38 57-17 78 10 10 127 7 139-4zm4936-110c18-31 24-55 22-81-3-35-1-37 29-40s36-9 68-78c35-76 36-104 5-104s-141-80-237-173c-52-51-101-93-108-95-12-3-35 12-71 46-22 21-17 56 13 88 70 75 173 206 173 219 0 8 6 15 13 15 19 0 98 70 91 81-12 21-195-151-230-217-10-19-24-34-30-34s-24-16-38-35c-15-19-31-35-36-35-12 0-50 73-50 95 0 8-4 15-8 15-9 0-52 98-52 119 0 13 33 64 57 89 7 7 13 17 13 21 0 13 112 121 126 121 8 0 14 4 14 8s25 29 56 55l56 47 49-42c27-22 60-61 75-85zm-786 42c0-6 20-38 45-69 25-32 45-63 45-69 0-5-18-25-40-44-30-26-42-45-46-74-4-21-13-47-20-56-13-17-15-16-39 15-29 35-51 40-81 17-28-21-51-18-70 10-22 34-6 71 39 90 30 13 34 12 58-11l26-25 32 36c33 38 39 70 19 108-6 12-14 29-18 37-10 19-35 14-72-13-18-13-32-17-38-11-13 13 41 94 77 116 28 16 28 16 56-15 15-17 27-36 27-42zm-4243-51c53-14 7-75-74-97-80-22-335-20-331 3 2 9 15 15 31 16 15 1 38 11 50 23 13 11 34 21 48 21 13 1 44 12 69 26 40 21 53 24 114 19 38-3 80-8 93-11zm-339-206c13-40 12-42-16-71-17-16-35-26-41-23-6 4-11 31-11 61 0 41 4 56 18 64 29 17 37 13 50-31zm4772-40c14-25 35-54 47-64 11-11 28-42 37-70s28-62 41-74c14-13 25-32 25-42 0-25-42-24-58 2-9 15-19 19-37 14-29-7-34 12-12 47 10 18 9 23-10 36-16 11-23 25-23 48 0 18-7 39-16 46-14 11-18 10-30-6-8-10-14-25-14-32 0-16-14-17-40 0-17 10-26 9-52-6-22-13-34-15-42-7s8 29 57 76c37 36 67 70 67 75 0 26 37-1 60-43zm-4452 4c4-29-20-37-58-21-36 17-37 23-7 37 33 15 62 8 65-16zm5255-83c22-10 57-70 57-97 0-6-24-29-53-50-29-22-67-56-85-76-17-20-35-36-39-36-3 0-44-36-89-80s-90-80-100-79c-12 0-34 23-58 60-48 76-54 95-28 103 11 4 58 43 104 87 45 45 112 100 148 123 92 60 103 63 143 45zm-5263-77c0-49-14-119-25-130-3-3-36-9-73-13s-102-12-146-18c-43-6-82-8-87-5s-9 34-9 68c0 67 14 92 44 80 17-6 175 29 208 47 10 5 27 9 37 9 11 0 23 5 26 10 13 21 25-3 25-48zm4414-76c8-43 1-61-30-75-34-15-55-14-82 5-26 18-29 59-4 67 9 3 35 13 57 21 53 20 52 21 59-18zm978-21c20-23 46-65 57-95 11-29 34-66 51-81 19-17 28-34 24-43-3-9-10-16-14-16-7 0-67-52-120-105-14-14-29-25-32-25-15 0-178-166-178-181 0-46-39-17-68 51-11 25-27 51-36 59-26 21-19 34 35 66 28 17 79 62 113 100 33 39 67 74 73 78 18 11 16 27-3 27-15 0-124-107-124-122 0-13-109-88-127-88-20 0-44 30-55 69-6 20 0 32 30 62 20 20 43 43 51 50 7 8 35 35 62 62 26 26 52 53 56 60s19 20 33 30c14 9 47 33 74 52 27 20 52 34 56 33 3-2 22-21 42-43zm-707-85c3-11 10-20 14-20 20 0 61-81 61-120 0-46-3-47-37-20-20 16-29 17-46 9-19-11-20-9-12 22 4 19 8 48 9 64 1 26-2 30-23 27-13-1-50-20-82-42-33-22-70-40-83-40s-29-7-36-15c-19-23-30-18-30 13 1 27 40 61 89 77 12 3 21 10 21 14 0 5 20 6 45 3 40-4 47-2 66 22 25 31 36 33 44 6zm-4358-12c-3-8-6-5-6 6-1 11 2 17 5 13 3-3 4-12 1-19zm-376-68c29-16 23-47-13-66-25-13-47-15-102-10-38 4-72 9-74 11-8 8 21 37 48 47 24 11 82 25 108 27 7 0 22-4 33-9zm5690-165c39-44 82-99 96-122 14-24 29-43 34-43 4 0 13-9 19-20 15-29-4-84-33-97-34-16-155-102-169-121-15-20-74-62-85-62-4 0-23 16-41 34l-33 33 55 74c30 41 58 77 63 81 4 4 36 30 71 58 34 28 62 56 61 63 0 9-2 9-6 0-2-7-17-13-33-13-15 0-30-7-33-15-4-8-21-21-39-29-18-7-57-37-86-64-29-28-62-54-73-57-10-4-19-10-19-16 0-5-19-20-41-35-23-14-44-34-46-45-10-35-31-19-77 57-40 64-43 75-25 69 12-4 35-1 53 8 17 8 50 23 73 32 71 29 93 69 62 109-29 36-22 54 41 102 30 24 71 57 90 73 19 17 38 29 42 28s39-38 79-82zm-5815 24c11-18-17-29-73-29-46 0-53 3-53 20 0 18 7 20 59 20 33 0 63-5 67-11zm79 1c-3-5-13-10-21-10s-14 5-14 10c0 6 9 10 21 10 11 0 17-4 14-10zm4923-75c17-36 32-70 32-76s-13-21-29-35c-16-13-32-35-35-49-8-30-32-33-41-5-3 11-15 25-25 30-19 10-50 4-50-10 0-13-37-50-44-43-10 10-7 43 4 43 5 0 20 18 32 39 12 22 35 47 50 55 15 9 30 26 33 39 12 41 27 77 34 77 3 0 21-30 39-65zm-158 4c0-21-35-58-56-59-6 0-17-7-24-15s-18-15-24-15c-15 0-46 52-46 78 0 18 5 20 34 15 19-3 42 0 52 6 33 18 64 14 64-10zm-4713-180c-3-83-8-153-10-156-3-2-47-7-99-9-51-3-102-6-113-7-16-2-21 5-23 32-2 18 0 37 5 42s39 13 77 18c86 12 105 28 88 73-11 30-10 34 23 64 26 23 35 40 35 63 0 17 5 31 12 31 8 0 9-40 5-151zm4982-43 25-49-28-22c-17-14-36-20-55-17s-37-4-58-22c-37-31-53-33-53-5 0 25 117 171 134 167 6-2 22-26 35-52zm907-33c10-16 28-44 41-64 24-36 30-69 14-69-5 0-16-6-23-13-7-8-25-20-40-28-67-36-215-162-292-248-34-39-40-42-60-31-13 6-34 32-47 57-13 26-32 60-41 77-23 41-23 42 14 60 38 20 43 20 61 1 14-13 21-8 67 47 29 34 80 85 114 111 33 27 81 67 105 88 51 46 65 48 87 12zm-849-60c13-19 12-23-5-40-40-38-56-105-31-130 17-17 6-56-17-68-12-6-30-17-39-25-16-13-21-11-46 20-34 40-38 76-10 85 11 3 25 21 31 40s27 48 47 65c20 18 36 41 37 56 1 28 13 27 33-3zm363-93c0-16-27-48-33-39-35 61-35 67 3 61 20-3 30-10 30-22zm635-65c28-36 53-65 56-65s14-15 24-34c11-19 29-40 42-47s35-36 48-63c22-46 23-52 9-63-9-6-21-10-28-7-16 6-70-51-62-65 13-20 35-11 76 31l42 41 23-29c14-16 24-37 25-47 0-10-32-48-72-85-110-103-155-152-200-217-23-33-50-66-60-73-20-14-25-42-7-42 17 0 142 139 241 267 18 23 38 42 44 43 6 0 16 11 23 24 15 27 54 48 73 40 38-16 158-214 158-261 0-21-51-73-72-73-19 0-97-55-103-72-4-10-13-18-22-18-25 0-81-47-99-83-19-36-77-93-103-102-13-4-26 6-46 35-15 22-31 40-36 40-11 0-89 106-89 120 0 6-20 32-44 58s-46 58-49 72c-4 14-36 60-72 103s-79 106-96 139-41 71-55 85c-50 49-45 64 55 163 50 49 94 90 99 90s34 24 65 53c89 83 120 104 152 106 6 0 33-29 60-64zm-6060-86c0-126-6-143-53-157-54-16-95-3-103 34-4 16-12 50-18 77-24 105-12 127 76 127 26 0 55 5 63 10 29 19 35 3 35-91zm5185 29c27-56 25-75-8-92-27-14-30-13-51 7-22 21-23 21-34 3-28-46-54-69-70-63-24 9-21 24 8 50 70 63 96 90 111 112 9 14 18 25 20 25s13-19 24-42zm78-140c16-16 15-65-1-75-7-4-22-30-33-58-24-60-47-68-82-30l-26 28 26 46c15 25 36 51 49 58 12 6 26 19 31 27 11 19 20 20 36 4zm-5298-182v-54l-37 13c-33 11-38 18-41 48s0 36 20 40c58 11 58 11 58-47zm5310-136c-13-25-34-22-38 6-2 12 6 23 20 29 28 12 35-3 18-35zm200 37c0-7-5-18-12-25-6-6-11-26-10-44 1-38-14-62-46-72-18-6-22-4-22 13 0 25 20 71 31 71 4 0 16 16 25 35 16 35 34 46 34 22zm-5522-109c2-54-1-105-6-115-8-14-12-13-25 13-15 30-30 188-19 199 3 3 15 5 27 3 18-3 20-11 23-100zm5622-97c0-14-14-23-55-37-31-9-58-21-61-25-11-18-24-8-24 19 0 39 10 49 49 50 18 0 36 3 39 6s16 6 29 6c16 0 23-6 23-19zm1009-64c11-24 39-66 65-93 47-51 84-113 160-271 25-50 54-97 65-103 21-11 51-69 51-97 0-8 11-28 25-45 45-53 28-103-48-138-49-23-197-158-197-180 0-9-66-55-95-66-17-7-95 125-94 158 0 24 116 134 155 149 26 9 84 64 84 79 0 12-40 4-50-10-3-4-20-15-37-24-18-9-33-21-33-26s-10-12-21-15c-12-4-46-31-76-61-29-30-58-54-62-54-17 0-71 74-101 136-36 77-106 186-126 197-9 5-24 28-34 52s-30 51-44 61c-37 23-33 54 14 98 22 21 40 41 40 46 0 13 222 210 237 210 12 0 22 4 73 31 26 13 30 10 49-34zm-989-124c25-42 18-68-19-68-26 0-67 64-58 89 12 30 53 19 77-21zm161 11c10-13 10-20-4-44-9-15-17-42-17-58 0-30-6-39-49-74-12-10-21-30-21-44 0-22 3-25 22-21 26 7 68-26 68-54 0-30 82-40 100-11 10 15 11 15 5-3-13-41-17-73-9-77 32-18 61-16 89 8 37 31 52 28 78-17l20-35-23-32c-24-33-48-40-67-21-7 7-27 7-69-1-51-9-60-8-69 6-52 84-119 181-131 187-8 4-14 15-14 23s-7 25-16 39c-14 21-14 26 0 54 18 34 21 106 6 116-18 11-11 23 33 49 50 30 51 30 68 10zm103-150c11-27 7-37-9-24-16 14-20 40-6 40 5 0 12-7 15-16zm251-394 7-25-22 21c-13 13-19 27-15 34 9 14 20 3 30-30zm-71-36c7-19-5-41-38-72-14-13-26-33-28-45-3-21-5-20-39 13-31 30-69 87-69 104 0 5 54 12 121 14 35 2 48-2 53-14zm1007-36c6-13 22-34 35-48s30-44 38-67c15-41 14-44-10-73-14-16-31-30-38-30-16 0-71-58-63-66 5-6 114 55 148 83 14 12 20 9 43-22 15-19 40-60 56-91 17-30 50-80 75-109 26-29 45-60 43-67s16-30 38-51c23-20 44-49 47-65 3-15 22-53 41-86 20-32 36-64 36-70 0-7 12-21 28-33 15-11 45-55 66-98 33-64 70-116 156-222 5-7 21-37 34-67 19-43 22-58 13-70-17-23-73-86-140-157-64-69-85-99-66-99 6 0 55 44 109 98 53 53 108 107 122 118l25 22 42-64c23-35 48-79 57-99l14-35-41-41c-22-22-63-58-90-79-50-40-119-115-119-130 0-4-16-18-36-29-41-25-45-22-85 54-12 21-32 47-45 58-30 23-30 44-3 73 24 26 17 53-8 32-8-7-19-24-25-38l-10-25-24 30c-14 17-42 51-64 77-21 26-41 60-45 77-3 16-15 37-26 47-10 9-19 23-19 30s-13 23-28 36c-16 13-46 52-67 88s-69 102-107 146c-37 45-68 89-68 98 0 15 28 47 157 181 28 30 70 63 92 75 23 11 41 25 41 30 0 18-28 11-58-15-17-14-35-25-41-25s-56-44-111-97c-56-54-105-100-111-101-14-5-46 36-70 88-11 25-27 58-35 73-19 38-18 69 4 88 26 25 52 58 52 69 0 20-20 9-35-20-18-36-49-54-78-46-23 6-77 72-107 131-10 20-30 48-44 62-29 29-34 67-11 89 17 18 12 35-16 53-15 9-24 10-32 2-6-6-15-11-19-11-16 0-8 25 16 50 14 14 40 41 59 61 19 19 37 44 41 55 3 10 39 42 79 71 39 28 89 68 110 87 43 42 62 45 78 14zm-846-88c0-16-9-29-27-39-36-21-45-8-25 35 20 41 52 44 52 4zm162-207c17-32 17-33-7-58-13-14-43-35-66-47-41-20-42-20-68-2-32 24-32 37-2 77 14 18 34 55 46 82l21 50 29-35c16-19 37-49 47-67zm-239 35c-4-31-23-33-42-3-16 25-16 25 14 25 27 0 31-3 28-22zm352-176c0-17-37-48-138-116-48-33-62-27-62 26 0 40 43 66 102 60 44-4 49-2 58 22 11 29 40 35 40 8zm70-81c15-30 13-81-5-81-21 0-37 37-30 71 8 34 20 37 35 10zm-86-95c35-29 31-46-23-81-44-30-54-28-77 17-16 31-16 32 17 60 41 33 46 34 83 4zm200-44c32-47 33-77 4-93-13-7-38-25-57-42-46-39-92-59-108-45-20 17-16 55 7 61 15 4 20 14 20 39 0 26 9 44 40 76 23 23 47 42 54 42s25-17 40-38zm104-144c14-14 16-58 2-58-5 0-25-13-43-30-35-31-78-39-107-20-23 15 0 43 49 59 27 8 47 22 53 37 12 26 28 30 46 12zm77-123 19-34-36-35c-26-26-42-53-54-96-9-33-20-60-24-60-15 0-70 84-70 106 0 14 8 25 21 29 11 4 28 23 36 43 19 46 51 82 73 82 9 0 25-16 35-35zm148-200c15-31 27-60 27-65s-11-21-25-36-25-32-25-39c0-20-44-52-81-59-38-7-60 8-73 49-8 28 2 39 57 63 43 19 47 24 47 56 0 41 18 86 35 86 6 0 23-25 38-55zm144-190c24-33 64-90 89-126 24-36 58-76 74-88 45-32 40-64-11-81-42-14-59-34-59-69 0-12-7-21-14-21-12 0-13 6-4 30 15 46 5 62-39 58-20-2-38 2-40 8s20 35 48 63c48 48 51 53 36 68-15 16-18 16-34 0-66-63-115-86-143-67-13 9-13 11 0 20 8 5 23 10 32 10 28 0 58 48 58 94 0 80-39 86-117 20-51-44-55-45-68-28-18 23-16 29 30 93 36 50 77 81 104 78 8-1 34-29 58-62zm929-236c16-22 42-56 58-75 15-19 49-69 75-111 26-43 56-83 68-88 36-18 52-35 58-64 3-16 17-39 31-51 13-13 24-28 24-34s9-22 20-36c63-79 100-129 100-133 0-20 82-140 126-183 29-29 61-72 72-96 10-24 38-65 62-93 24-27 54-73 66-101 13-29 36-61 52-73 19-13 32-33 36-55 4-21 25-55 51-84 49-54 58-92 26-114-10-7-67-60-126-116-84-80-105-106-94-113 8-5 17-9 21-9s62 55 128 123l121 122 20-24c10-13 19-28 19-35 0-6 8-19 18-27 32-30 52-59 51-77 0-13-2-12-9 6-8 18-17 22-50 22-35 0-42-4-51-27-8-21-6-34 8-60 10-18 19-33 21-33 6 0 58 35 79 53 19 16 25 18 38 7 8-7 15-22 15-34 0-23 29-75 60-109 12-12 20-35 20-55 0-24 5-35 18-39 10-2 25-14 33-26 8-11 33-41 57-67 23-26 50-60 60-77 9-17 29-49 44-71s30-57 34-78c7-39 60-134 75-134 5 0 19-18 31-40 13-21 32-43 44-49 12-5 33-30 48-55 31-53 26-72-27-103-45-27-162-134-252-233-27-29-31-70-8-77 6-2 24 11 39 29 59 71 269 269 291 274 23 6 30 3 76-43 25-24 107-153 107-168 0-16-34-45-100-85-30-18-64-43-75-55s-66-61-122-110c-57-48-103-92-103-96 0-5-9-13-20-19-17-9-22-4-45 43-13 29-47 82-75 116-27 34-50 68-50 76 0 7-16 34-35 59-19 26-35 49-35 52 0 4-12 32-26 64-25 57-25 59-8 86 26 42 94 114 212 226 18 17 30 33 28 35-14 15-88-40-183-136-94-94-113-108-123-96-7 8-18 15-25 15-18 0-63 56-71 85-3 13-21 33-39 44-23 13-38 33-50 67-10 27-28 59-41 71-37 34-64 85-64 120 0 51-37 132-88 192-53 62-79 100-102 148-18 37-70 97-92 106-9 3-23 31-32 64-15 55-23 74-63 143l-18 31 40 36c74 65 166 158 187 186 10 15 27 27 36 27 24 1 52 24 52 44 0 26-28 18-66-18-20-19-60-51-89-71-52-36-53-37-79-20-22 15-31 16-52 6-24-11-25-14-19-64 6-43 4-56-10-67-14-12-18-12-25 1-21 37-120 157-162 198s-118 158-118 181c0 17 184 206 218 224 24 13 62 48 62 58 0 29-62-7-177-101-21-17-48-31-60-31-13 0-23-4-23-10 0-5-14-30-32-54-38-55-54-51-92 29-14 30-32 55-39 55-29 0-106 122-107 169-1 17-21 56-57 112-30 44-29 60 4 95 15 16 34 41 43 56 8 14 39 52 68 83 28 31 52 60 52 66 0 21-30 6-65-33-74-85-126-138-145-148-18-10-22-7-35 24-8 19-19 37-24 40s-26 36-45 72l-37 66 25 32c42 56 275 286 289 286 7 0 26-18 43-41zm-664-141c33-27 37-50 14-84-11-18-31-38-43-43-13-6-23-15-23-20s-16-19-36-32c-43-26-50-21-74 50-12 37-11 43 5 61 10 11 23 20 30 20 6 0 31 13 55 29 53 35 52 34 72 19zm101-160 21-36-27-41c-36-55-56-54-55 2 1 23-2 51-6 63-5 14-2 27 9 38 23 22 33 17 58-26zm80-169c7-11 3-23-16-43-14-15-29-32-34-37-4-5-24-23-43-40l-35-30-18 22c-46 57-30 90 53 108 25 5 49 17 55 25 11 18 24 16 38-5zm97-144c0-13-25-48-60-86l-60-63-23 22c-13 12-28 22-34 22-17 0-24 29-13 51 13 23 23 24 40 4 16-20 45-19 65 1 12 13 15 26 10 56-5 25-3 44 6 54 10 13 16 11 41-12 15-15 28-38 28-49zm194-250c26-32 28-38 16-60-7-14-21-27-32-31-10-3-34-21-54-39l-36-34-24 28c-28 34-29 46-3 86 35 56 41 77 28 107-6 15-8 36-4 45 7 19 27-1 109-102zm-226 42c2-10-3-17-12-17-10 0-16 9-16 21 0 24 23 21 28-4zm358-273c71-96 84-117 84-134-1-8-21-37-45-65l-45-50-24 30c-32 38-39 60-32 91 5 17 13 24 31 24 21 0 25 5 25 30 0 45-29 55-72 24-31-22-39-24-56-13-42 26-55 89-19 89 12 1 38 9 57 20s38 19 41 20c3 0 28-30 55-66zm149-223c11-18 37-53 58-77 49-60 47-92-10-122-43-23-55-16-48 27 8 48-12 59-51 29l-27-22-18 23c-18 22-18 23 16 56 30 28 35 39 35 80 0 54 14 56 45 6zm200-272c8-24 2-32-25-36-15-2-20 3-20 20 0 41 34 53 45 16zm-151-28c7-10-22-37-30-28-9 8 3 37 15 37 5 0 12-4 15-9zm261-138c24-27 34-63 16-63-5 0-25-14-45-32-35-31-48-68-23-68 15 0 88 48 104 69 10 14 18 9 62-34 28-27 51-53 51-58s-13-25-30-44c-16-18-30-38-30-44 0-16-83-109-97-109-17 0-17 35 0 49 8 6 19 28 25 49 7 21 21 47 32 57 24 22 25 38 4 56-14 11-18 11-29-4-7-9-17-17-22-17s-18-9-28-20c-11-12-31-20-49-20-26 0-35 7-57 44-45 74-45 79 6 132 25 26 45 53 45 60 0 11 14 21 32 23 4 1 19-11 33-26zm235-357c0-6-20-29-45-49-37-31-45-44-45-72 0-49-18-54-51-14-37 44-36 63 4 109 29 34 37 37 85 38 34 0 52-4 52-12zm85-109c10-34 27-64 48-84 29-27 79-137 66-146-2-1-23-16-47-31-53-36-65-71-31-97 28-21 38-23 73-9 24 9 26 15 26 65 0 61 10 68 47 33 31-29 29-48-11-111-27-42-42-56-67-61-37-7-73 19-84 61-3 13-18 35-32 47-33 28-27 56 22 111 56 63 43 85-57 100-45 7-46 15-13 87 14 29 25 61 25 71 0 35 20 15 35-36zm243-411c4-20-15-46-34-46-8 0-14 10-14 23 0 42 41 62 48 23zm55-107c49-75 31-119-35-86-38 19-42 19-53 4-7-9-17-17-22-17-15 0-36 47-30 64 6 15 92 76 107 76 4 0 18-18 33-41zm924-66c10-15 24-34 31-43 41-48 82-103 82-110 0-10 11 1-164-165-76-71-144-134-152-138s-20-20-28-35c-30-59-106-67-129-14-6 15-26 45-43 67s-37 57-45 77l-13 37 54 48c29 26 66 56 81 65s50 39 77 65c55 54 146 135 177 158 30 22 53 18 72-12zm-807-139c0-12-8-29-18-36-9-7-23-26-30-41-10-24-15-26-32-17-11 6-23 22-26 36-6 22 0 32 37 64 47 41 69 39 69-6zm990-100c17-20 46-66 65-103 18-36 42-84 54-106 11-21 21-44 21-50s12-22 26-36c31-29 54-71 54-98 0-11-17-34-40-52-22-18-49-46-59-63-11-17-34-49-50-71-17-22-36-50-43-63-6-12-22-25-34-28-13-3-30-17-40-31-16-26-16-26 12-19 50 13 122 86 159 161 33 69 135 154 135 113 0-14 81-136 134-202 18-22 47-66 65-97 17-32 37-59 45-62 7-3 23-31 36-64 13-32 28-65 35-73 6-8 33-50 59-93 27-43 61-92 78-110 16-18 38-49 49-69 10-20 23-40 29-43 6-4 32-39 57-78 26-40 62-90 80-111 40-47 41-61 8-92-14-13-25-32-25-43 0-21-188-221-207-221-5 0-22-13-38-30-37-39-49-38-69 8-10 20-24 49-32 64-9 17-12 34-7 42 7 13 74 67 112 91 14 9 38 27 154 115 29 23 36 50 13 50-7 0-20-7-27-16s-32-26-55-38c-86-44-121-65-133-80-8-9-18-16-23-16s-29-14-54-31c-40-28-48-29-78-19-35 11-46 26-46 60 0 25 14 32 60 32 36-1 38 1 45 41 5 23 7 58 6 77-2 30 4 42 36 72 80 76 97 98 85 110-9 9-23 2-59-30-27-23-76-61-110-83-33-23-66-53-72-66-15-33-75-60-96-43-8 7-15 24-15 37 0 14-8 47-17 73-13 38-14 50-4 61 7 8 26 37 42 64 47 80 52 87 95 130 44 43 61 75 41 75-18 0-30-12-46-42-8-15-22-30-31-33s-36-25-60-50c-36-37-46-42-62-34-24 13-28 9-37-33-6-28-11-33-36-33s-33 7-47 37c-10 20-26 42-37 47-10 6-22 26-25 45-4 19-13 39-21 46-22 18-19 49 4 43 13-3 29 11 62 56 24 33 54 65 66 72 12 6 39 44 59 83 25 49 30 65 16 51-11-11-45-42-75-68-32-27-60-62-66-80-11-32-47-64-59-52-3 3-1 25 6 49 16 60 7 86-30 86-24 0-31-6-47-43-10-23-25-48-33-55-13-11-17-8-22 13-4 17-17 30-35 36-21 7-34 23-48 57-11 26-43 77-72 114-28 38-55 78-60 91-10 26 3 57 23 57 7 0 45 27 84 60 40 33 74 60 78 60 10 0 106 84 115 103 17 30-1 39-30 15-16-13-37-29-47-35-20-14-75-52-111-79-13-9-53-24-90-33-62-16-68-20-73-47-6-28-6-29-18-7-7 12-12 27-12 33s-20 41-45 79-45 77-45 88c0 12 27 44 68 80 57 51 264 249 312 298 22 23 35 19 70-21zm-910-13c0-6 11-22 25-37 34-36 32-50-15-95-34-34-44-38-61-29-11 6-22 24-26 41-3 16-9 29-14 29-13 0-10 33 5 52 13 17 63 48 79 48 4 0 7-4 7-9zm96-147c8-31-8-51-24-31-12 14-5 57 9 57 5 0 12-12 15-26zm54-98c0-18-17-29-30-21-8 5-7 11 1 21 15 18 29 18 29 0zm150-224c0-24-31-44-38-24-7 23-22 12-22-16 0-16-6-36-13-46-12-16-14-16-26-2-10 11-11 32-6 71 6 48 9 55 28 55 12 0 28 4 36 9 18 12 40-14 41-47zm115-142c8-16 15-34 15-39 0-9-61-41-77-41-9 0 7 83 19 97 16 20 26 16 43-17zm79-128c13-27 32-54 40-61 21-18 20-37-2-53-10-7-35-35-57-61-36-45-40-47-52-31-18 25-16 40 8 74 12 16 19 36 16 44-8 20-41 21-57 1-19-23-50-19-50 8 0 14 19 40 57 74 32 29 61 53 65 53s19-22 32-48zm140-185c8-12 6-24-7-46-9-16-17-44-17-63 0-39-7-51-37-66-17-9-22-9-27 4-13 33-5 71 26 131 33 64 43 70 62 40zm133-211 26-54-39-46c-21-25-43-45-49-43-19 6-16 45 5 88 15 29 20 53 17 76-8 49 10 40 40-21zm165-172c73-79 76-116 16-174-39-37-88-54-88-30 0 6 18 30 40 52 42 45 49 68 25 88-12 10-19 7-41-17-15-15-32-40-38-55l-12-27-31 19c-23 13-34 29-39 54-9 50 0 66 35 66 22 0 37 8 53 30 12 17 28 30 35 30s27-16 45-36zm106-258c4-5-19-98-31-123-14-31-23-29-42 7-14 27-14 35 1 81 16 47 19 50 43 44 14-4 27-8 29-9zm923-43c16-9 35-34 44-56s36-63 61-91c50-58 57-86 20-86-40 0-56-11-76-51-24-45-25-72-6-88 12-10 23-7 56 14 44 28 45 30 55 88 3 20 10 37 15 37s18-17 28-37c11-21 35-65 56-97 20-33 36-64 36-69 0-4-54-61-121-125-66-64-136-138-156-164-19-27-39-48-45-48-13 0-78 70-78 84 0 6 16 28 36 50 19 21 46 55 59 75 12 20 37 49 54 65 32 31 41 56 19 56-7 0-38-28-68-61s-72-74-92-90c-32-26-39-28-57-17-12 7-21 17-21 23 0 5-9 21-20 35-30 39-24 63 33 126 71 79 77 85 121 120 29 25 36 36 29 48-8 15-11 15-28-4-10-11-24-20-31-20-15 0-148-127-155-147-8-24-51-19-72 10-18 23-19 31-9 48 16 25 7 56-19 64-10 4-19 10-19 13 0 17 44 72 157 193 41 44 99 91 132 106s28 16 62-4zm-746-98c22-45 51-87 71-103 19-15 34-34 34-42 0-22-95-89-141-99-21-5-39-6-39-2 1 3 21 26 45 51 49 49 58 87 29 128-18 25-32 28-48 8-6-8-37-28-69-45-48-26-59-29-63-16-14 35 6 81 54 123 40 35 83 70 88 72 1 0 18-34 39-75zm1065-166c0-6-4-7-10-4-5 3-10 11-10 16 0 6 5 7 10 4 6-3 10-11 10-16zm-842-125c15-32 3-57-55-108-41-37-42-37-53-15-17 31-4 79 32 116 38 40 61 42 76 7zm878-135c9-18 26-41 38-53 33-31 62-76 75-117 6-19 27-51 46-69 19-19 35-41 35-49 0-9 6-26 13-37 26-47 92-139 103-146 19-12 37-66 30-93-4-15-19-30-39-39-17-8-46-29-64-48-18-18-41-42-53-53-11-11-31-31-43-44-70-75-101-101-122-101-9 0-18 8-22 18-3 9-21 36-40 59-18 23-33 49-33 58s16 37 36 63c42 56 184 203 209 218 12 6 16 16 12 27-9 25-25 21-60-15-18-17-48-43-67-57-30-22-95-89-123-126-36-50-43-56-59-50-9 4-24 23-33 43s-26 54-39 75l-24 39 26 46c33 59 131 153 200 193 28 17 52 35 52 40 0 17-37 9-55-11-10-11-24-20-32-20-32 0-115-55-143-95-27-40-89-95-107-95-11 0-63 84-72 116-5 21-1 33 19 54 77 83 128 141 155 174 38 46 133 126 151 126 7 0 21-14 30-31zm-763-63c24-19 21-48-9-71-14-11-36-30-49-42-20-18-26-19-36-7-16 20-5 53 33 96 37 42 37 42 61 24zm142-196c14-22 25-44 25-50 0-16-81-100-96-100-7 0-15 10-19 23-3 12-13 39-22 60l-16 37 39 35c21 19 45 34 51 35 7 0 24-18 38-40zm92-140c11-16 9-23-10-40l-22-21-3 26c-7 51 13 71 35 35zm-37-75c0-16-26-55-37-55-18 0-16 20 4 42 15 17 33 24 33 13zm80-95c0-16-43-50-65-50-11 0-4 34 12 52 22 24 53 24 53-2zm118-55c18-40 15-58-17-88-34-31-47-33-73-10-27 25-22 52 19 89 44 41 56 42 71 9zm772 5c0-5-2-10-4-10-3 0-8 5-11 10-3 6-1 10 4 10 6 0 11-4 11-10zm51-67c20-21 41-48 47-60 15-28 15-63 0-63-14 0-118-88-180-154-36-38-45-53-36-63 21-25 46-12 94 50 27 34 53 64 58 66s21 16 35 31c36 38 83 45 109 17 31-34 48-92 36-124-8-24-48-54-104-79-8-4-35-23-60-44-25-20-64-49-87-63s-44-31-48-37c-12-19-41-10-72 23-38 38-133 177-133 193 0 6-9 19-20 29-21 19-27 60-10 70 6 4 21 23 34 43 13 21 44 58 69 83 40 42 51 48 117 60 54 9 76 18 88 35 10 13 19 24 22 24s22-17 41-37zm-691-135c-1-23-68-91-85-85-23 9-18 41 10 67 14 13 25 33 25 45s3 25 6 28c8 8 44-37 44-55zm104-135c13-26 12-30-17-70-17-24-33-43-36-43s-12 13-19 30c-12 25-11 32 1 45 9 8 20 15 26 15s11 8 11 18c0 17 8 32 16 32 2 0 10-12 18-27zm843-89c10-14 37-46 61-71 23-24 42-48 42-53 0-4 21-30 48-57 26-27 58-71 71-97 13-27 41-66 61-88 38-38 120-165 120-184 0-6-20-24-45-42-25-17-45-36-45-41s-15-14-32-22c-18-7-41-20-50-28-10-9-28-24-40-33-13-10-43-33-66-53-50-40-54-41-87-19-23 15-26 15-47-9l-23-25-32 46c-39 54-43 96-10 113 12 7 49 36 83 66 34 29 65 53 69 53s20 12 35 28c43 42 86 72 104 72s41 49 29 61c-4 4-44-20-88-53s-100-72-124-86c-24-15-65-46-91-69-57-52-94-57-112-15-7 15-23 40-36 56-12 16-22 35-20 42 2 8 53 64 113 126 102 104 157 148 187 148 17 0 48 31 48 48 0 21-55 8-96-23-18-14-36-25-41-25-4 0-55-43-112-96-96-88-106-94-135-88-17 3-32 9-34 13-1 4-20 37-42 75s-40 76-40 86c0 36 248 238 320 260 37 12 38 12 57-16zm-598-308c10-35 10-49 0-68-18-35-18-35-43-3l-24 30 22 42c11 23 23 43 26 43s11-20 19-44zm116-144c14-10 45-59 45-72 0-5-14-10-31-10s-43-9-57-21c-18-14-28-17-30-9-3 7 0 15 5 19 14 8 43 67 43 86 0 16 9 19 25 7zm110-154c16-31 17-38 6-52-13-15-16-14-32 11-22 32-26 87-6 81 6-3 21-20 32-40zm893-70c98-137 127-182 141-216 8-18 42-59 77-91 36-33 71-75 80-97 9-21 28-50 42-64 41-41 82-112 82-142 0-22-8-33-31-46-81-44-152-89-177-112-151-139-193-167-232-155-26 8-72 107-64 139 3 13 1 33-5 43-13 25 8 57 69 108 53 44 110 104 110 116 0 5 5 9 12 9 11 0 108 94 108 105 0 17-41-1-70-31-19-19-46-45-59-57s-39-35-57-52c-17-16-39-34-47-40-8-5-35-27-60-48s-60-40-79-43c-31-5-34-3-54 41l-22 47 30 44c36 53 31 80-15 87-35 5-47-5-47-40 0-13-4-23-10-23-5 0-10 12-10 26 0 19 23 48 89 114 49 48 113 106 143 127 29 22 59 47 67 56 29 35-42 12-85-28-6-5-55-46-108-89s-96-82-96-87c0-4-13-17-30-29-40-28-61-16-96 57-15 32-38 71-51 86-13 16-23 35-23 43 0 15 65 81 165 169 31 28 66 60 78 73 11 12 29 22 38 22 10 0 21 5 24 11 9 14 98 57 108 52 4-3 33-41 65-85zm-675-277c23-39 22-54-3-46-31 10-57-3-64-30-9-34-20-31-45 9-27 43-20 61 32 79 59 20 61 20 80-12zm89-118c10-9 18-26 18-37 0-49-89-110-104-71-4 11 3 28 19 47 14 16 28 40 31 54 7 28 12 29 36 7zm1074-310c15-27 39-60 53-75 14-14 42-47 61-72 19-26 47-61 61-79 14-17 35-46 47-64 13-17 30-34 40-37 18-6 52-59 52-82 0-8 5-14 10-14 6 0 20-21 31-47 11-25 33-61 49-80 17-18 30-40 30-47 0-17 116-178 164-228 20-20 36-44 36-51 0-8 16-38 35-66s35-55 35-60c0-6 13-25 28-43s36-50 47-71l20-38-60-58c-178-171-255-269-241-307 11-28 45-15 60 21 9 20 30 51 48 69s46 49 63 69c28 33 33 35 75 31 34-4 53 0 78 15 33 22 39 39 22 71-6 10-6 21-2 24 13 8 44-32 66-84 11-25 31-56 46-70 14-14 32-40 40-59 13-33 13-35-16-58-16-13-43-37-60-53-16-17-34-30-40-30-5 0-32-25-59-56-28-31-69-76-92-99-24-24-43-52-43-64 0-31 14-25 33 14 11 23 24 35 37 35 11 0 20 4 20 8 0 9 76 85 136 137 42 36 137 85 165 85 22 0 44-27 64-77 10-24 20-43 24-43 5 0 20-21 34-47 15-27 45-68 67-92 22-25 40-52 40-60-1-23-31-56-68-75-17-9-62-47-99-85-38-38-94-84-124-104-53-34-129-108-129-126 0-5 6-14 14-20 11-10 23-2 58 39 23 27 48 50 54 50s36 22 65 50c67 62 62 57 105 104 56 61 145 121 168 113 14-6 100-150 111-187 4-14 21-41 36-60 16-19 29-38 29-43 0-4 19-33 41-64 23-31 48-75 54-98 18-59 69-157 94-179 12-11 21-27 21-37 0-13-162-184-260-274-21-19-50-58-50-67 0-4-7-8-15-8s-15-4-15-9-15-11-32-14c-30-4-39 2-87 52-56 58-87 113-74 134 10 17 109 121 167 176 26 25 67 65 91 87 23 23 52 45 64 49 11 3 21 11 21 17 0 15-52 0-70-21-9-10-38-35-65-55-51-39-62-49-174-158l-63-63-22 27c-11 14-36 44-53 66-56 69-54 72 147 274 157 158 199 208 173 208-12 0-230-207-335-318-25-27-36-32-57-27-34 8-79 58-101 111-13 30-25 43-42 46-14 2-28 15-37 33-7 17-33 60-57 97s-44 76-44 86-14 31-31 48c-17 16-37 44-46 62s-35 54-58 80-49 61-58 77c-8 17-42 63-76 103s-61 77-61 81c0 5-16 35-35 67-45 75-47 119-5 162 16 17 40 53 54 81 14 27 32 54 39 58 16 9 137 149 137 157 0 9-30 7-30-1 0-5-26-35-57-68-109-117-173-196-173-215 0-15-7-20-25-20-19 0-36 17-82 83-32 46-64 94-72 108-17 29-66 92-104 132-15 16-40 46-55 66s-30 38-33 41-9 19-13 35c-4 17-23 55-42 86s-34 65-34 76c0 10 32 52 70 93 39 41 89 94 111 118 21 23 43 42 48 42s32 29 60 64c29 36 57 66 63 68 9 3 9 6 1 11-6 4-33-15-61-41s-81-74-118-107c-38-33-96-88-131-123-81-81-96-81-140 8-39 77-40 83-10 107 12 10 45 47 74 83 28 36 81 93 118 128s65 65 62 68c-9 9-76-26-93-50-11-13-47-48-81-76-52-43-65-49-82-41-14 8-29 7-55-4-46-19-43-20-61 14-8 16-23 32-32 36-25 8-83 87-83 113 0 12 17 33 43 53 23 17 65 55 92 83 102 105 235 202 282 205 6 1 24-20 39-46zm-977 18c17-13 22-24 17-37-7-18-8-18-22 1-41 54-39 70 5 36zm151-70c0-6-4-13-10-16-5-3-10 1-10 9 0 9 5 16 10 16 6 0 10-4 10-9zm33-81c10 0 25-15 34-35 16-33 15-36-2-55-18-20-60-26-81-12-5 4-18 18-27 31-15 22-15 26 4 63s22 39 38 24c10-9 25-16 34-16zm61-202c21-40 20-60-1-56-18 3-35 51-26 74 7 20 9 18 27-18zm116-172c0-18-27-39-40-31-5 3-10 15-10 26 0 14 7 19 25 19 15 0 25-6 25-14zm98-52c36-25 45-60 26-99-15-32-15-35 6-63 12-16 20-40 18-53-3-21-11-13-60 56-61 84-64 94-47 144 12 35 24 38 57 15zm162-340c0-24-4-34-12-32-18 6-22 36-8 53 18 21 20 19 20-21zm60-98c21-12 29-12 52 0 25 13 28 12 38-6 19-35-24-83-45-50-3 6-15 10-25 10-19 0-60 36-60 52 0 11 11 9 40-6zm217-212c8-21-9-86-23-91-10-3-70 75-62 81 34 28 76 33 85 10zm138-185c34-53 31-90-10-101-35-9-41-1-50 64-7 47 4 78 26 78 5 0 20-18 34-41zm120-219c4-12 4-38 0-59-5-33-3-41 17-55 12-9 33-16 45-16 27 0 28-3 7-35-31-48-55-29-122 92-17 32-15 43 11 68 28 29 34 30 42 5zm152-253c5-5-27-67-34-67-4 0-15 7-25 17-19 17-24 44-11 57 7 7 62 1 70-7zm73-56c-1-13-3-13-15 3-19 26-19 42 0 26 8-7 15-20 15-29zm44-96c-4-8-8-15-10-15s-4 7-4 15 4 15 10 15c5 0 7-7 4-15zm86-64c0-20-17-37-27-28-7 8 7 47 18 47 5 0 9-9 9-19zm-73-67c3-8 0-21-6-27-10-9-16-8-27 7-8 11-14 23-14 28 0 15 41 8 47-8zm171-24c12-16 22-36 22-43 0-24-28-40-56-33-20 5-24 11-18 24 4 9 7 32 7 50-2 41 16 42 45 2zm97-170c3-5-1-10-10-10s-13 5-10 10c3 6 8 10 10 10s7-4 10-10zm-50-140c3-5 1-10-4-10-6 0-11 5-11 10 0 6 2 10 4 10 3 0 8-4 11-10zm225-128c0-44-56-165-73-159-6 2-14 10-18 18-56 108-57 124-10 106 36-13 57 0 66 44 10 44 35 37 35-9zm906-17c7-19 14-42 14-52 0-19-38-63-54-63-16-1-51-32-58-52-4-10 1-27 13-41 10-14 19-33 19-42 0-25-189-220-239-247-21-11-25-11-35 6-6 10-26 38-43 61-37 49-41 74-15 98 89 83 132 127 132 136 0 6 4 11 9 11 9 0 63 53 161 159 30 33 61 60 68 60 7 1 20-15 28-34zm-802-56c43-25 74-66 113-149 17-36 48-83 67-104 40-42 44-73 10-68-11 1-29-7-39-18-16-18-17-27-9-59 7-26 7-48-1-72l-12-34-12 24c-8 15-10 36-6 60 4 20 9 47 10 61s6 48 10 75c6 41 4 54-9 64-9 7-16 23-16 35 0 16-9 25-33 34-46 17-54 15-91-13-25-19-35-22-44-13-17 17-15 25 13 62 31 40 31 51 3 70-19 13-20 19-10 41 14 30 12 30 56 4zm903-131c36-41 47-71 44-128-2-51 0-56 30-81l33-27-109-103c-60-57-137-132-171-167-39-40-67-60-76-57-9 4-30 29-49 58-18 29-46 64-61 79-15 14-28 33-28 41s49 64 108 124c60 60 117 121 127 136 10 16 30 34 45 42 16 8 38 35 50 60s25 45 29 45 17-10 28-22zm217-271c13-17 34-54 46-82l21-50-20-16c-12-10-29-15-39-12-40 10-67-55-48-118 6-20 3-30-9-40-40-34-143-139-179-182-27-33-46-47-63-47-26 0-63 37-93 93-9 18-24 46-33 62-19 35-22 75-6 75 7 0 39 26 73 59 58 56 71 68 134 136 16 17 49 48 75 70s47 47 47 56c0 43 60 41 94-4zm-880-3c7-19-2-37-15-29-12 8-12 45 0 45 5 0 12-7 15-16zm81-15c13-20 16-101 4-115-22-27-29-13-29 56 0 65 9 86 25 59zm924-148c12-16 21-34 21-39s26-37 58-70c64-66 121-167 104-184-6-6-19-15-30-22-41-23-136-91-166-118-23-21-40-28-73-28-31 0-48-6-65-24-24-24-140-106-152-106-3 0-6 14-6 30 0 22-5 30-17 30-22 0-53 52-53 90 0 21 15 43 61 89 33 34 65 61 70 61s9 4 9 9c0 11 126 142 151 157 8 5 25 24 38 42 19 27 22 41 17 73-7 47 5 50 33 10zm-865-33c9-34 7-78-3-78-9 0-21 47-21 81 0 26 16 24 24-3zm16-200c7-35 20-66 36-83 27-29 28-34 14-55-9-13-12-12-26 5-23 31-94 163-94 175 0 7 10 24 23 39l22 28 7-26c4-14 12-51 18-83zm180-100c19-35 21-43 9-52-8-6-19-22-26-36-13-29-15-24-31 64-7 32-9 62-6 67 9 15 31-2 54-43zm911-8c10-6 27-27 37-48 10-20 25-47 33-60 12-19 12-24 0-31-8-5-20-7-26-5-7 3-33-11-59-30-25-20-52-36-59-36-8 0-26-13-40-30-15-16-32-30-38-30-18 0-153-115-218-186-35-38-65-63-69-58-5 5-17 28-27 52l-18 42 67 69c36 38 74 87 84 109 23 52 153 176 217 208 27 14 54 30 60 35 12 12 32 11 56-1zm79-195c0-8-4-15-10-15-5 0-10 7-10 15s5 15 10 15c6 0 10-7 10-15zm104-47c16-27 36-45 57-52 23-8 39-24 57-58 17-31 34-49 51-53 38-10 51-24 51-57 0-29-48-82-157-175-55-47-83-77-83-90 0-7-18-24-40-38s-40-29-40-35c0-14-62-70-89-81-21-8-28-5-52 21-15 16-36 30-47 30-20 0-114 93-148 145-10 17-24 36-31 43s-13 21-13 30c0 22 54 70 89 79 30 7 34 11 154 127 48 47 87 90 87 96s11 15 25 20 25 14 25 19c0 16 51 71 65 71 8 0 25-19 39-42zm-1074-23c0-8-7-15-15-15s-15 7-15 15 7 15 15 15 15-7 15-15zm130 0c0-8-4-15-10-15-5 0-10 7-10 15s5 15 10 15c6 0 10-7 10-15zm-65-64c-3-12-13-21-21-21-9 0-12 5-8 13 23 40 41 46 29 8zm112-106c-9-18-13-20-15-9-5 21 6 46 17 40 5-4 4-16-2-31zm1197-162c14-34 26-68 26-75-1-12-56-66-141-137-20-17-45-31-55-31-11 0-28-7-38-15-11-8-32-15-47-15-21 0-38-12-66-45-44-53-67-59-61-15 4 24 1 30-13 30-10 0-20 4-23 9-6 10 61 84 193 214 46 45 104 103 130 128 53 52 52 53 95-48zm-1054-12c0-52-7-65-28-52-17 10-18 39-4 74 18 42 32 32 32-22zm1340-151c9-17 8-20-8-20-23 0-42 19-42 42 0 16 3 17 20 8 11-6 24-19 30-30zm-133-52c44-46 83-93 87-105 10-31-15-72-69-113-25-19-59-45-74-57-45-36-51-30-51 45v69l-34 1c-29 1-44-9-113-76-43-42-88-90-99-106-19-27-23-28-41-15-11 8-39 36-62 63-40 46-41 49-25 67 9 11 21 19 26 19 6 0 35 23 66 50 61 55 68 57 92 35 14-12 21-12 58 1 58 20 102 53 102 78 0 12 9 35 20 51 11 17 20 40 20 53 0 12 4 22 8 22 5 0 45-37 89-82zm235-45c23-43 71-107 105-143 35-36 63-71 63-77 0-26-29-12-69 35-22 26-56 63-74 82-38 40-110 164-100 174 17 17 36-1 75-71zm-1212-19c6-14 10-31 10-37-1-17-40 32-40 49 0 23 20 16 30-12zm1140-94c19-17 39-30 46-30 13 0 174-153 174-166s-43-54-57-54c-21 0-93-72-109-109-8-18-14-46-14-62 0-41 37-39 77 4 88 92 164 157 185 157 7 0 21-15 31-32 10-18 45-62 77-97 33-35 60-68 60-72 0-5-11-9-26-9-27 0-94-63-94-90 0-8-3-25-6-37-5-20-2-23 20-23 14 0 26 5 26 11s20 30 45 55c25 24 45 50 45 59 0 17 25 21 35 5 3-5 14-10 23-10 10 0 37-25 61-55s52-57 63-60c10-4 37-32 60-63s51-63 62-71 27-22 36-30c8-9 28-22 43-28 57-26 59-101 2-123-26-10-54-49-103-145s-54-101-91-86c-34 15-39 32-16 51 8 7 15 22 15 34 1 53 41 124 118 203 35 37 41 60 16 70-28 10-94-30-143-86-53-62-81-123-81-176 0-19-5-35-10-35-16 0-109 50-172 93-64 43-69 57-35 109 12 18 30 50 40 69 10 20 50 62 88 93 54 44 70 62 67 79-2 17-9 21-28 19-14-2-35-10-47-18s-29-14-37-14-23-12-33-26-26-33-35-42-34-50-55-91c-20-42-38-78-40-80-1-2-14 4-27 13-14 9-32 16-40 16s-21 8-28 18-30 28-51 41c-50 31-74 66-57 86 6 8 17 13 23 12s22 19 37 44c44 81 63 105 128 158 64 53 77 82 44 100-23 12-106-25-140-63-45-49-92-129-121-208-14-37-42-36-85 5-19 17-53 49-75 71-47 44-51 70-19 112 30 38 69 74 79 74 5 0 25 23 45 50 20 28 42 50 49 50 8 0 14 17 17 46 3 47-5 65-19 41-4-7-26-21-48-31-49-23-102-68-133-112-12-18-33-45-47-60s-28-38-31-51c-7-27-6-26-37-12-15 7-29 25-36 50-7 24-25 49-48 66-52 40-93 85-93 101 0 5 11 14 24 21s33 26 45 42 30 33 42 39c16 9 14 3-10-31-44-61-41-118 4-69 10 11 28 20 41 20 24 0 77 41 161 125 45 45 53 59 52 87-2 35 15 88 28 88 5-1 24-14 43-30zm606-136c35-15 59-34 73-58 12-19 38-45 57-56 18-12 34-26 34-31s6-12 13-15c7-2 40-30 73-61 32-30 86-73 118-94 33-22 73-54 90-73 31-33 87-66 112-66 8 0 21 11 30 24l16 25 44-22c28-13 44-28 44-39 0-23-11-23-44 3-14 11-30 17-36 14-15-9-12-48 6-84 16-32 98-100 122-101 6 0 12-4 12-9s19-18 43-30c23-11 48-30 55-41 18-29 40-25 44 8 5 40-17 79-62 107-41 26-77 71-66 82 3 3 14-1 23-9 10-9 32-23 49-31 17-9 57-41 89-72 32-30 64-55 71-55s22-12 33-26c22-28 100-84 117-84 6 0 24-11 40-25s33-25 37-25 34-25 65-55 62-55 68-55c7 0 14-7 18-15 3-8 17-20 31-25s25-14 25-20c0-5 7-10 15-10s15-5 15-11c0-11-29-5-69 14-31 15-71 51-71 63s-47 39-83 48c-15 4-44 21-65 39-20 18-56 41-79 51s-50 27-59 37c-10 11-22 19-28 19-5 0-25 14-42 31-39 38-64 34-64-11 0-21 6-33 19-38 55-21 157-151 130-167-5-4-15-2-22 3s-24 12-38 15c-14 4-31 18-37 32s-17 25-25 25c-7 0-34 20-61 45s-56 45-64 45c-18 0-83 38-99 57-7 9-19 12-32 8-27-8-28-59-3-96 28-42 136-149 150-149s58-26 80-47c7-7 19-13 27-13 7 0 20-12 30-26 9-14 31-32 49-39 46-20 130-115 100-115-10 0-47 22-90 55-24 18-56 36-72 40-16 3-39 19-51 35-12 17-28 30-36 30s-28 14-45 30c-17 17-33 30-36 30s-22 13-42 30c-20 16-53 36-74 44-20 9-59 38-88 66-28 27-56 50-62 50-7 0-26 15-43 33-39 39-125 114-183 159-34 26-131 120-234 226-7 7-37 35-65 61-56 51-70 84-32 74 12-3 28-18 38-33 25-41 82-87 119-95 18-3 36-15 42-24 5-10 39-38 75-62s68-52 71-61c3-10 13-18 23-18s24-7 31-15 21-15 31-15 26-14 36-31c23-40 77-66 98-49 21 18 19 64-5 85-10 9-26 39-35 65-18 53-27 64-65 75-14 4-47 32-73 61-28 31-57 54-69 54-11 0-45 23-76 50-32 29-66 50-79 50-14 0-29 11-40 28-23 38-75 92-87 92-17 0-106 89-106 105 0 19 30 13 106-21zm-205-97c6-15 9-30 6-33-8-8-57 37-57 53 0 7-9 21-20 30-35 30-21 34 19 5 22-15 45-40 52-55zm639-739c28-38 29-43 15-62-9-12-22-35-30-53-8-17-19-34-25-38-11-7-50-91-50-109-1-33-16-36-76-16-98 34-114 43-114 66 0 11 10 31 23 44 12 13 34 41 48 63 15 21 48 62 75 92 64 69 92 72 134 13zm1234-89c23-18 36-49 20-49-8 0-94 60-94 65 0 13 51 2 74-16zm-1117-19c60-36 60-51 7-156-48-95-64-118-72-96-2 7-12 12-22 12-16 0-45 12-77 33-10 6-8 14 6 35 24 35 54 85 86 145 14 26 29 47 33 47s21-9 39-20zm994-124c76-55 127-79 189-90 37-6 79-20 95-31 17-11 43-26 58-32 37-17 31-33-23-59l-44-22-30 22c-17 11-52 40-78 62-26 23-60 44-75 47-28 6-143 100-143 118 0 15 15 10 51-15zm-821-11c46-29 48-37 17-74-13-16-29-53-37-84-11-49-17-57-36-57-12 0-29 6-36 13-7 8-24 19-37 26-27 15-23 48 9 93 11 15 20 31 20 35 0 15 40 73 50 73 6 0 28-11 50-25zm646-112c-4-4-16 3-26 17-29 37-24 49 7 18 15-15 23-31 19-35zm-470-19c45-21 74-41 74-51 0-8-13-31-30-50-21-23-30-44-30-68 0-19-2-35-5-35-2 0-34 14-71 32l-66 32 5 51c5 51 30 125 42 125 4 0 40-16 81-36zm367-52c25-26 35-52 21-52-10 0-84 63-84 72 0 18 38 6 63-20zm246-9c31-18 42-43 18-43-12 0-67 46-67 55 0 10 19 5 49-12zm-462-39c6-17-16-94-27-94-10 0-23 87-15 100 9 15 35 12 42-6zm326-38c16-12 24-36 11-36s-42 21-48 35c-7 18 13 19 37 1zm-152-64c49-46 50-49 50-106 0-32-2-60-4-62-2-3-25 6-49 19-25 13-55 26-67 30-17 4-21 13-21 47 0 28-6 47-16 55-12 8-15 20-10 38 5 22 12 27 37 27 23 0 43-12 80-48zm-211-38c0-8-5-12-10-9-6 4-8 11-5 16 9 14 15 11 15-7zm399-87c8-11 6-18-8-31-22-20-36-7-26 24 7 23 18 25 34 7zm241-119c0-20-79-81-95-74-30 11-17 41 30 68 35 21 65 23 65 6zm258-97c7-43-72-95-93-61-7 12 64 92 79 87 6-2 12-14 14-26z"/><path d="m4978 28483c-16-8-28-18-28-24 0-5-6-9-13-9s-23-7-35-16c-18-12-20-19-12-35 13-24 49-25 89-2 38 22 55 57 41 84-6 10-12 19-13 18s-14-8-29-16z"/><path d="m4827 28202c-38-39-35-102 4-102 22 0 77 57 86 89 12 47-49 56-90 13z"/><path d="m5239 27877c-68-46-100-125-59-147 38-20 69-2 100 61 35 68 37 85 11 98-14 8-27 5-52-12z"/><path d="m5837 27324c-25-34-19-70 11-67 59 7 93 61 53 83-30 15-44 12-64-16z"/><path d="m6285 26480c-20-38-19-53 4-74 17-16 20-15 49 9 55 46 50 95-9 95-21 0-32-7-44-30z"/><path d="m7020 25842c-14-9-27-20-30-23s-14-9-25-13c-11-3-35-20-54-36-18-17-37-30-42-30-4 0-15-14-23-32-19-38-20-42-3-28 69 59 142 110 156 110 23 0 68 47 55 59-5 5-19 2-34-7z"/><path d="m7550 24925c-7-9-11-18-8-20 3-3 11 1 18 10s11 18 8 20c-3 3-11-1-18-10z"/><path d="m7733 24720c-29-17-59-43-67-58-8-16-33-41-55-55-22-15-48-39-58-54-10-16-23-32-30-36-18-11-16-38 2-31 8 4 15 10 15 16 0 13 20 32 64 62 21 14 54 41 74 60 20 20 56 54 80 76 63 61 56 66-25 20z"/><path d="m8002 24238c-7-7-12-18-12-25 0-16 40-53 57-53 18 0 17 55-3 74-19 19-26 20-42 4z"/><path d="m8476 23618c-16-13-27-30-24-38 3-9 12-6 32 12 16 13 27 30 24 38-3 9-12 6-32-12z"/><path d="m8992 22589c-29-28-51-53-48-56 8-8 106 79 106 94 0 7-1 13-2 13-2 0-27-23-56-51z"/><path d="m9070 22442c-8-3-29-19-47-37-17-18-47-42-66-53-39-25-64-67-43-75 7-3 26 3 42 13 32 20 154 133 154 142 0 10-24 15-40 10z"/><path d="m9671 21830c-18-10-43-28-55-39-12-12-27-21-34-21-6 0-17-8-24-17-20-27-109-97-140-111-30-13-36-29-14-38 19-7 62 17 112 63 23 21 72 62 109 92 36 30 71 63 76 73 12 22 13 22-30-2z"/><path d="m10195 20940c-25-22-51-40-56-40-10 0-32-50-25-57 3-3 26 15 53 41 26 25 62 56 78 70 22 19 26 25 13 26-9 0-38-18-63-40z"/><path d="m10555 20590c-3-6 1-7 9-4 18 7 21 14 7 14-6 0-13-4-16-10z"/><path d="m10465 20537c-16-12-42-33-57-47-14-14-39-35-55-46-15-12-37-37-47-55-20-34-20-34 0-20 10 8 30 26 44 41 14 14 58 52 98 84 39 32 72 60 72 62 0 10-28 0-55-19z"/><path d="m10740 20300c-6-11-17-20-24-20-21 0-118-80-123-101-3-11-16-22-29-25s-24-12-24-19c0-6-9-22-20-35-21-24-26-50-10-50 5 0 14 10 21 23 15 30 199 207 227 218 25 10 30 29 7 29-8 0-19-9-25-20z"/><path d="m11170 19599c0-5 5-7 10-4 6 3 10 8 10 11 0 2-4 4-10 4-5 0-10-5-10-11z"/><path d="m11130 19570c0-5 5-10 10-10 6 0 10 5 10 10 0 6-4 10-10 10-5 0-10-4-10-10z"/><path d="m11296 19370c-20-22-43-40-51-40s-15-6-15-12c0-7-29-44-65-83-36-38-65-75-65-82 0-6-7-19-16-28-10-10-13-20-7-26 9-9 83 55 83 72 0 5 16 23 35 40 19 18 35 37 35 43s30 37 65 70c62 56 80 86 52 86-8 0-30-18-51-40z"/><path d="m11632 18889c-35-28-67-61-72-74s-18-26-30-30c-46-15-128-125-92-125 4 0 51 45 105 100s115 111 137 125c38 24 54 55 28 55-7-1-41-23-76-51z"/><path d="m11736 18862c-32-34-39-79-14-95 14-10 24-5 53 23 41 40 43 49 12 78l-23 22z"/><path d="m12200 18155c-18-22 0-38 34-29 29 7 35 28 10 38-23 9-30 8-44-9z"/><path d="m12212 17975c-88-61-124-93-144-126-9-15-26-30-37-34-18-5-31-35-16-35 23 0 147 99 248 198 15 15 35 30 45 34 13 5 11 7-8 7-14 0-53-20-88-44z"/><path d="m12414 17786c-16-14-42-37-59-51-16-14-34-29-40-33-27-20-98-102-92-108 3-4 12 0 20 7 8 8 41 37 73 64 87 75 144 129 144 138 0 13-17 7-46-17z"/><path d="m12595 17549c-4-6-5-13-2-16 7-7 27 6 27 18s-17 12-25-2z"/><path d="m12550 16996c0-28 24-41 40-21s5 45-20 45c-14 0-20-7-20-24z"/><path d="m13318 16511c-20-19-23-31-9-31 5 0 16 11 25 25 19 29 9 32-16 6z"/><path d="m15494 12706c-3-9-3-23 0-31 8-22 48 0 44 23-4 22-36 28-44 8z"/><path d="m16483 12005c-18-8-33-19-33-25 0-15 46-12 60 5 20 25 7 34-27 20z"/><path d="m16742 11567c-11-12-44-45-73-73-30-28-82-81-116-118-44-47-69-66-87-66-34 0-79-40-71-62 5-13 14-16 38-11 52 10 80 29 122 83 38 49 136 157 206 226 24 24 28 32 16 37-8 3-23-4-35-16z"/><path d="m16844 11347c-28-28-68-77-90-107-21-30-47-63-56-72-10-10-18-22-18-27s-17-16-37-26c-21-9-44-24-50-33-18-22-16-52 2-52 19 0 65 29 81 50 7 8 20 25 30 37 21 24 46 60 98 139 19 28 50 69 70 90 35 38 44 54 29 54-5 0-31-24-59-53z"/><path d="m16905 11301c-38-26-51-59-31-80 13-13 20-12 55 4 49 22 74 47 69 72-5 26-56 28-93 4z"/><path d="m17000 11130c-7-13-7-20-1-20s15 9 21 20c7 13 7 20 1 20s-15-9-21-20z"/><path d="m17444 10482c-6-4-16-17-23-29-6-13-17-23-23-23-5 0-27-17-47-37-20-21-70-67-111-102-75-65-91-93-57-99 12-3 48 27 111 92 52 53 98 96 103 96 6 0 22 11 36 24s30 26 36 27c6 2 12 15 13 29 3 25-17 37-38 22z"/><path d="m18359 8504c-12-14-11-16 5-13 11 2 21 10 24 17 5 17-13 15-29-4z"/><path d="m19085 8272c-23-8-59-33-110-74-18-16-36-28-39-28-29 0-146-132-146-164 0-28 21-28 49-2 21 20 40 28 74 30 37 2 54 10 89 42 24 21 55 49 71 61 18 14 27 30 27 50 0 16 7 38 15 49 28 37 17 51-30 36z"/><path d="m18990 7760c0-5 5-10 10-10 6 0 10 5 10 10 0 6-4 10-10 10-5 0-10-4-10-10z"/><path d="m20229 6845c-23-12-49-59-49-86 0-23 29-4 58 36 45 65 43 78-9 50z"/></g></svg>