<svg height="3496pt" preserveAspectRatio="xMidYMid meet" viewBox="0 0 2480 3496" width="2480pt" xmlns="http://www.w3.org/2000/svg"><g transform="matrix(.1 0 0 -.1 0 3496)"><path d="m12315 27224c-5-2-55-10-110-18s-118-19-140-25-61-11-87-11-73-7-105-16c-79-22-137-33-144-28-4 2-44-7-89-21-46-14-121-32-168-40s-93-22-102-30c-10-9-58-22-110-29-85-13-96-17-133-53-23-21-45-42-49-48-5-7-14-6-28 3-30 19-84 15-105-8-14-16-16-30-11-72 3-29 10-102 16-163 6-60 21-146 35-191s25-87 25-94 17-49 37-94c34-74 37-92 45-211 5-71 13-145 19-162 14-44 6-53-52-53-37 0-60-7-92-27-33-22-58-29-122-33-44-3-105-15-135-27s-75-27-100-34c-24-8-69-32-100-55-41-32-59-40-72-33-39 21-98-2-98-39 0-7-15-18-32-25-18-8-39-21-47-30-7-10-24-17-36-17s-34-9-48-20-31-20-39-20c-7-1-33-18-58-40-35-31-44-46-45-72 0-25-7-37-31-53-16-11-42-39-56-62-18-28-43-50-76-67-71-36-80-48-87-118-9-87 31-457 62-567 8-31 21-101 28-156 15-117 18-134 53-243 23-75 30-86 74-119 26-21 51-45 54-55s9-18 14-18c15 0 120-110 149-155 14-22 36-53 49-70 31-37 26-95-12-134-14-15-26-35-26-44 0-30 69-190 93-216 13-15 39-53 57-86s41-75 52-93c25-45 23-69-10-100-16-15-39-42-51-60s-35-39-51-47c-43-22-66-109-51-192 6-34 10-66 9-70-3-14 14-106 27-148 7-22 18-62 25-89 8-27 28-69 47-93 18-24 33-54 33-68 0-16 11-32 30-47 30-22 30-22 30-125 0-56 4-122 9-145 6-24 15-68 22-98 6-30 25-74 40-98 33-49 34-52 15-52-7 0-24-9-38-19-13-11-41-23-62-27-23-4-53-20-73-39-19-18-62-46-95-64-33-17-71-41-84-53-58-56-84-75-286-214-54-37-98-71-98-76 0-4-17-19-37-32-21-14-87-72-147-130s-112-106-115-106c-10-1-51-38-51-47 0-4-49-31-108-60s-125-68-147-88c-22-19-52-45-68-58-15-12-49-42-75-67-67-64-202-183-222-197-10-7-25-31-34-53-11-27-22-40-35-40-12 0-28-15-42-37-12-21-34-52-49-69-26-30-34-47-63-139-16-50-64-244-74-300-3-16-9-34-13-40-4-5-14-39-23-75-43-177-44-213-6-225 23-8 26-55 5-88-34-53-46-149-57-435-7-200-7-293 0-315 13-36 14-124 1-187-5-27-4-97 3-175 8-98 8-163-2-265-13-144-16-427-6-680 9-218 9-227 0-306-6-52-3-95 9-160 12-69 14-102 6-149-5-33-10-130-10-215-1-85-9-218-18-295-19-147-16-288 7-510 11-96 26-645 26-920 0-71-4-238-9-370-8-210-7-249 8-313 15-66 16-110 6-435-6-199-15-389-20-422s-10-154-10-270c0-115-5-244-11-285-21-151-26-256-17-325 5-38 11-182 13-320 2-140 11-305 19-375 26-209 31-414 12-486-18-69-21-244-6-309 5-22 9-85 10-140 1-135 27-314 61-420 10-33 24-80 31-105 8-29 21-48 35-54 26-12 38-84 28-173-4-32-2-69 3-83 11-30 361-384 415-420 20-14 37-28 37-32 0-5 4-8 10-8 5 0 40-19 77-42 38-23 95-51 128-63 92-34 335-147 360-167 42-35 229-128 256-128 8 0 45-18 83-40 37-22 71-40 75-40 10 0 155-91 166-104 22-27 115-85 225-139 90-44 137-61 215-76 95-18 130-29 165-50 28-17 94-40 170-60 239-63 351-97 413-121 37-16 91-33 120-40 29-6 61-15 72-20s47-16 80-25c103-30 160-52 272-109 59-30 137-68 173-84s97-43 135-60c84-37 153-56 260-72 44-7 107-21 140-33 66-22 187-77 195-89 11-15 226-90 324-113 115-27 203-32 261-16 22 6 56 8 75 5 33-4 31-3-16 20-29 13-70 27-93 31-22 4-51 15-63 25-13 9-43 21-68 24-25 4-107 28-183 53s-141 42-144 39c-6-6-52 17-92 46-13 10-37 18-53 18-20 0-40 12-68 40-30 31-47 40-72 40-99 0-400 85-449 126-8 8-20 14-25 14s-70 31-144 68c-133 67-161 92-128 114 16 11 85 2 141-19 23-8 78-18 122-22 53-5 99-17 136-35 68-32 192-50 252-37 59 13 120 15 208 6 49-4 96-3 130 4 48 11 59 9 126-15 57-21 75-32 79-50 4-14 0-29-9-39-38-38 28-111 123-135 52-14 136-39 165-50 44-17 84-30 175-56 52-14 100-30 105-34 12-8 102-34 175-51 30-6 78-18 105-26 28-8 93-26 145-39s118-33 145-43c118-46 193-64 239-57 27 4 46 12 46 20 0 7-25 37-56 65-75 70-61 84 37 38 73-33 127-57 305-136 50-22 115-47 145-56s68-20 85-25c35-11 94-13 94-4 0 4-12 25-26 48-20 31-44 49-94 74-38 18-74 39-80 47-7 8-19 15-28 15s-25 9-36 19c-43 39-514 275-584 292-26 7-92 33-147 59-55 27-129 61-165 78-36 16-72 37-80 47-13 16-11 20 15 41 17 13 33 24 37 24 3 0 25-16 48-35s48-35 56-35 37-11 66-25c28-14 58-25 67-25 8 0 22-6 30-14 16-13 295-146 308-146 3 0 14-7 23-15 20-18 156-85 173-85 6 0 38-13 69-29s100-43 153-60c52-17 124-46 160-66 36-19 73-35 83-35 9 0 47-17 83-39 37-21 78-41 92-45 15-3 35-15 46-27 30-33 178-98 351-155 25-8 77-28 115-44 127-52 269-106 330-124 33-11 67-21 75-24 42-15 126-29 133-23 8 8-31 41-98 81-22 14-47 32-55 41s-35 21-60 28c-56 15-155 53-235 91-33 16-100 44-150 63-126 49-188 82-241 128-25 21-50 39-55 39-6 0-33 15-62 33-51 33-218 117-232 117-4 0-19 8-33 18-15 10-58 31-97 46-38 15-88 36-110 46s-65 25-96 34-64 23-75 30c-10 7-55 28-99 46-44 19-96 43-115 55-50 30-156 81-215 103-87 34-61 82 44 82 45 0 127 38 139 65 11 23-19 75-42 75-8 0-19 7-26 15-11 13-8 25 16 72 16 31 48 92 71 137s42 92 42 106c1 14 5 41 11 60 5 19 14 78 19 130 14 124 31 210 42 210s4-187-14-340c-12-105-13-264-2-309 5-18 10-22 28-16 12 3 40 11 62 16 51 13 71 32 79 73 7 38 59 92 98 101 15 4 33 14 40 22s36 26 66 39 75 41 100 62c26 20 59 44 74 51 15 8 46 34 68 58 23 23 49 43 60 43 10 0 43-27 73-60s76-75 103-92 60-38 74-48c14-9 35-20 46-24 11-3 29-14 40-24 34-31 102-82 109-82s195-141 229-172c11-10 27-20 37-23 9-3 20-12 22-19 3-8 30-29 59-48 88-57 101-66 143-98 22-16 47-33 55-37 8-3 33-18 55-33s50-30 63-34c12-4 22-11 22-15 0-9 113-81 128-81 5 0 15-6 21-14 7-8 23-17 37-20 14-4 35-16 47-26 11-11 29-20 38-20 10 0 31-5 46-11 62-25 90-38 143-62 30-14 69-29 85-32 17-4 94-39 173-77 78-39 145-68 149-64 11 11-31 48-88 77-32 15-68 41-80 57-13 15-55 42-94 59-159 70-183 83-248 132-37 28-74 51-82 51-7 0-25 14-38 30-14 17-30 30-36 30s-11 4-11 8c0 5-16 16-35 25s-81 47-138 84c-56 37-112 73-125 80s-31 21-40 32c-17 19-60 46-133 82-20 10-44 30-53 44s-22 25-28 25c-7 0-28 11-47 24-20 13-65 42-101 64-36 23-83 55-105 71s-51 34-65 40-50 29-80 51c-30 23-73 53-95 68s-42 29-45 32c-15 18-81 50-101 50-14 0-32 11-43 26-18 26-18 27 2 63 19 34 45 56 132 115 31 21 80 65 197 177 34 33 92 52 114 38 8-5 24-9 36-9s28-9 35-19c21-30 126-108 177-132 25-12 53-28 61-34 31-26 397-205 442-217 37-9 50-9 62 1 9 8 16 17 16 21 0 11-74 90-84 90-4 0-26 13-49 28-23 16-54 32-68 35-14 4-43 19-65 33-21 15-97 56-169 91-71 36-150 76-175 89-25 14-69 36-97 49-29 14-53 27-53 31 0 9 49 87 73 116l22 26 75-44c41-24 158-85 260-136 102-50 193-95 203-99 9-5 25-13 35-18 54-28 154-60 205-66 53-6 57-5 57 14 0 11-7 26-16 33s-28 26-43 41c-14 15-46 37-71 49s-58 31-75 43c-16 12-48 30-70 40-22 9-47 23-55 30s-44 27-80 46c-36 18-76 41-89 51s-32 18-42 18-29 10-43 23c-13 12-37 29-53 37-49 25-83 51-83 64 0 7 14 22 30 35l30 22 43-21c23-11 57-31 76-45s42-25 52-25c11 0 19-4 19-9 0-8 194-106 435-220 82-39 149-61 186-61 56 0 51 29-11 65-103 58-174 95-204 106-20 7-45 20-54 29-23 22-92 57-123 64-14 3-41 16-60 28-19 13-67 34-107 47-41 13-86 34-100 46-15 12-41 27-59 34-38 15-51 45-31 69 8 9 27 42 42 72 16 30 33 61 38 68 13 15 54 16 63 2 4-6 39-26 78-46 39-19 85-43 102-53 29-18 59-28 242-85 134-42 167-31 97 33-45 42-82 61-115 61-35 0-160 52-202 84-19 14-37 26-40 26s-29 13-56 29c-43 26-53 28-79 19-16-6-38-8-48-4-17 7-15 9 13 21 17 7 34 23 38 34 8 26-3 105-21 149-7 18-14 70-15 115-2 101 17 339 31 387 5 19 10 66 10 105 0 63 14 162 40 285 6 25 8 131 5 239-4 155-2 205 10 245 12 38 15 98 14 236 0 102 4 196 9 210 5 15 5 37-1 60-5 19-10 118-11 220-1 173-2 187-23 221-20 32-23 50-23 147 0 94 4 122 26 182 24 67 25 78 18 199-5 94-3 133 6 151 17 32 25 183 12 228-30 108-33 137-17 176 13 30 16 70 14 190-1 83-6 187-11 231-15 150-50 580-54 685-3 58-5 214-5 347-1 260-4 312-39 528-25 159-26 174-17 765 4 299 3 468-5 540-6 58-10 179-9 270 2 152 0 173-24 265-26 95-27 108-20 241 5 102 4 148-5 164-22 42-30 141-18 245 9 76 8 141-1 275-12 156-14 270-9 425 1 28-4 84-11 125-15 85-16 277-2 313 12 31-22 374-38 390s-14 55 8 112c35 91 44 157 37 262-6 77-12 105-30 133-13 19-32 60-44 91-11 31-32 73-46 94s-26 51-26 67c0 40-25 90-61 122-16 14-29 35-29 45 0 26-87 133-152 185-29 25-79 74-111 110s-63 66-69 66c-38 0-133 48-177 89-89 83-122 106-241 162-106 50-199 112-296 198-17 16-58 43-90 61-33 19-78 52-100 74-119 117-192 184-214 198-26 16-138 59-143 55-1-1-16 8-32 20-30 21-30 22-31 125-1 89-4 111-27 162-33 72-33 77-1 115 42 50 80 176 104 346 6 38 22 94 35 123 14 30 25 65 25 78s16 48 35 78 35 65 35 76c0 47-104 318-156 407-20 34-23 47-14 63 6 11 17 20 24 20s21 9 31 20c24 27 16 86-24 179-21 46-31 82-27 96 7 29 67 65 108 65 18 0 41 9 53 20 12 12 43 29 69 39 46 17 81 52 146 146 14 20 46 59 72 87 25 28 49 62 53 75 3 14 14 37 25 52 28 39 43 191 46 471 4 431 4 422-17 456-10 17-19 39-19 48 0 25-41 76-62 76-37 0-51-45-57-178l-6-126-32-8c-17-5-40-19-51-32-10-13-34-31-53-40-54-25-162-94-187-122-13-13-51-37-85-52-34-16-68-36-76-45-7-9-19-17-25-17s-28-16-50-35c-21-19-42-35-47-35-15 0-31-42-24-67 5-20 11-24 28-20 112 27 168 44 179 55 6 6 24 12 39 12s46 15 72 35c25 19 50 35 56 35s35 25 65 55 61 55 70 55c8 0 34 25 56 55 63 85 70 78 70-72-1-119-8-219-28-370-7-52-14-69-48-105-64-72-82-90-147-151-34-31-116-109-182-173s-132-122-146-130c-18-9-29-25-33-47-8-43 11-134 35-169 26-36 25-41-21-71l-41-26-11 24c-7 17-19 25-35 25-27 0-151-40-199-64-48-25-167-66-189-66-10 0-37-6-60-14-120-41-176-56-230-60-34-3-86-16-120-31-40-18-88-30-142-35-66-6-99-15-167-48-47-22-107-44-133-47-26-4-68-15-93-25s-58-21-73-25c-22-4-28-11-25-28 3-19 10-22 58-25 30-2 86 2 124 9 54 10 71 10 74 1 2-7 21-12 42-12 31 0 46 7 72 34 18 18 48 41 65 50 18 9 40 27 48 40 18 28 53 40 71 25 7-6 32-9 56-8 82 3 173-2 208-11 19-6 65-10 103-10 37 0 67-4 67-10 0-19-113-63-291-114-31-9-62-22-68-30-7-8-32-23-57-32-59-23-58-46 3-69 87-33 332-19 423 25 24 11 80 22 80 15 0-3-8-9-17-13-38-16-83-48-88-62-9-21 23-40 57-33 21 4 32 1 42-13 21-28 144-25 210 4 27 12 57 22 67 22s29 10 43 23c32 29 93 74 134 98 17 10 32 27 32 37 0 9 7 28 16 40 15 22 17 22 35 6 24-22 52-106 42-130-4-10-28-51-53-90-31-48-51-93-64-144-9-40-28-94-42-119-13-25-24-55-24-67s-7-27-15-34-15-26-15-42-14-61-30-99c-31-70-31-78 1-114 29-33 81-167 69-179-5-5-10-24-10-41 0-16-10-64-21-105-37-133-40-154-34-202l7-47-74-35c-40-20-78-36-85-36s-22 18-33 39c-25 50-29 52-102 56-33 2-62 6-65 8-2 3 0 14 6 25 13 24-6 48-45 58-33 9-124-4-158-21-16-8-32-12-37-9s-26-4-45-15c-19-12-41-21-49-21-7 0-37-11-66-24-32-15-62-23-78-20-19 4-32-1-45-15-21-23-36-27-36-10 0 15 26 39 42 39 7 0 31 11 53 25 22 13 52 25 66 25 45 0 75 38 57 73-12 24-65 22-130-5-39-16-78-22-149-24-64-1-107-7-127-18-51-26-105-30-156-11-52 20-79 17-154-16l-53-23-47 25c-33 19-68 28-119 32-71 6-73 5-79-19-10-37 11-54 68-54 36 0 58-6 81-23 53-39 90-49 154-43 90 9 104 9 158-4 40-10 63-10 115 0 36 7 74 19 85 26 44 31 114 4 84-33-25-30-83-46-214-58-71-7-143-19-160-26-16-7-41-14-54-15-13-2-31-10-40-19-14-13-14-17 2-32 18-18 30-19 195-14 24 0 59-6 79-14 19-8 55-15 79-15 46 0 152 32 192 58 13 8 53 21 90 28s79 16 95 20c60 14 82-53 24-74-18-7-40-12-49-12s-18-7-22-15c-3-8-12-15-21-15-18 0-20-26-4-36 35-22 349-22 444 0 201 45 299 85 337 136 32 44 107 100 134 100s64 44 64 76c0 17-6 24-20 24-36 0-21 17 21 23 46 6 45 7 180-127 49-49 89-94 90-100 0-16 74-70 144-107 78-42 118-71 186-141 44-44 79-68 165-108 60-29 123-62 139-75 17-12 59-36 95-53s83-49 105-71c29-30 57-46 106-61 39-12 75-30 90-46 13-14 42-39 65-55 42-29 58-57 68-119 5-27 25-54 86-115 44-44 80-85 80-91 0-7 6-25 14-41 12-24 41-115 77-243 5-19 12-80 14-135 6-140 24-349 35-420 6-33 12-152 14-265 3-113 14-311 26-440s19-255 16-280-10-81-16-125c-5-45-10-130-11-190-1-136 18-432 28-448 11-16 19-298 15-525l-2-123-36 7c-34 6-40 4-78-39-39-41-105-74-120-59-13 12-5 48 14 60 34 21 78 132 52 132-4 0-24-11-45-25-46-32-53-21-43 61 5 43 2 63-14 96-11 23-20 47-20 52 0 14 85 96 99 96 18 0 26-24 26-80 0-44 3-55 18-58 28-6 47 17 47 56 0 19 9 60 19 91 17 49 39 228 33 271-1 8-6 47-12 85-5 39-14 120-20 180-5 61-15 155-21 209-9 79-9 113 1 168 11 56 11 99 1 231-7 89-16 221-21 292-4 72-10 137-14 145-4 9-13 128-21 265-21 351-21 350-63 510-15 57-22 71-40 73-32 5-52-43-52-125 0-37 4-129 9-203s12-182 16-240c3-58 10-157 15-220s10-160 10-215c0-122 17-477 29-600 5-49 7-104 4-122-5-30-7-32-37-26-17 3-59 19-93 35-52 25-78 30-155 34-51 2-133 5-183 8-49 2-98 5-107 5-28 1-42 40-49 131-4 47-12 121-18 165s-15 139-20 210c-9 128-20 191-47 270-8 22-11 56-8 75 7 41-9 90-30 90-47 0-58-197-34-585 13-211 10-316-8-336s-18-43 0-58c20-17 29-60 16-76-21-25-127 22-135 60-11 47-35 268-35 317-1 29-7 82-15 118s-14 119-15 184c0 138-13 218-46 297-13 31-24 73-24 93s-5 36-12 36c-8 0-9-30-3-112 4-62 7-153 6-203-1-49 3-124 9-165 18-117 36-419 29-483-4-32-11-63-17-69-14-14-173 19-208 44-7 5-13 73-18 175-3 93-13 193-21 223s-22 82-30 115c-9 33-21 77-26 98-5 20-13 37-18 37-8 0-26-173-23-225 3-34 14-465 16-570l1-69-117-2c-65 0-119 2-119 5-1 3-3 93-4 200-3 156-1 201 11 223 12 23 14 61 10 188-3 88-9 174-15 192-23 75-31 118-31 162 0 26-5 79-12 117-13 82-31 89-63 24-16-32-21-69-25-190-10-246-6-312 26-511 4-26 0-68-10-113-9-39-18-112-20-160-2-53-10-101-19-118-35-68-61-257-54-401 3-59 13-170 23-247 14-113 18-218 18-545 1-285 5-420 13-455 47-192 66-274 67-304 1-41 20-51 37-19 11 19 37 226 41 318 1 14 5 57 9 95 21 171 17 659-5 715-3 8-2 21 3 29 7 11 16 10 47-10 22-13 43-23 48-21 4 1 14-2 22-9 7-6 64-22 125-35s122-30 135-38c12-9 30-13 39-10 9 4 26 2 38-4s38-13 58-17c21-3 42-12 48-19 16-19 35-185 27-229s-35-61-85-54c-138 20-232 42-269 62-75 42-129 12-103-57 15-39 40-50 245-103 49-13 93-28 99-34 13-13-16-52-95-126-108-101-201-176-245-198-35-17-43-26-43-49 0-15 3-28 8-29 4 0 22-2 41-5 24-3 46 3 77 21 23 14 51 25 62 25 10 0 34 11 53 24 65 47 122 76 147 76 13 0 48 13 76 29s62 31 76 35c55 14 126 100 116 141-7 27-17 30-47 15-25-14-25 1 1 57 19 43 65 92 155 168 26 22 71 61 99 87 69 63 88 69 201 61 80-5 95-9 101-25 7-24-36-76-85-100-46-23-101-70-101-87 0-9 10-11 33-6 53 11 101 28 112 41 6 6 24 18 42 27 39 20 43 12 42-71-2-103-4-107-101-126-16-4-35-20-48-41-30-49-185-136-248-140-106-7-174-27-209-62-10-10-68-43-128-72-155-75-208-102-225-116-8-6-53-29-100-50-117-53-132-73-78-101 30-16 36-16 88 1 30 10 69 24 87 31 17 8 40 14 51 14 12 0 24 4 27 10 8 13 93 50 115 50 10 0 23 7 30 15s27 15 44 15c21 0 44 10 66 30 19 16 41 29 48 30 17 0 15-74-4-135-12-35-18-108-23-242-3-105-10-195-14-200-5-4-44-10-87-14-62-4-92-12-147-40-37-19-72-34-78-34-5 0-13 27-17 60s-10 78-14 101c-4 28-2 43 8 50 16 13 99 44 117 44 7 0 24 9 38 20s35 20 46 20c35 0 95 32 106 57 23 49 15 63-33 63-25 0-57-5-72-10-15-6-64-13-108-16-45-3-107-7-138-9-35-2-77-13-108-29-29-14-58-26-65-26s-27-11-43-25c-17-14-37-25-46-25s-25-9-36-20-40-22-70-26c-71-9-95-57-45-90s156-27 243 14c29 13 35 13 43 1 16-26 15-206-2-223-5-6-24-15-41-20-22-8-34-18-36-33-3-21 1-23 40-23 52 0 62-6 75-46 17-50 5-84-34-101-20-8-33-16-30-19 2-3 30-7 60-9 51-4 84 1 130 20 12 5 17 2 17-9 0-23 23-20 56 9 16 14 36 27 44 30 17 6 60 76 60 99 0 22-33 20-82-4-56-27-65-25-73 10-9 41 13 80 58 106 54 30 234 87 252 80 13-4 15-32 15-169 0-90 3-204 6-253l7-90-27-12c-14-6-31-22-37-35-10-22-85-62-222-121-55-23-60-21-52 23 5 29 1 52-14 87-12 25-21 52-21 58 0 21-30 55-44 50-8-3-22-24-32-47-14-35-17-69-15-207 2-220 7-295 21-355 7-29 13-136 14-255l2-205-53-50c-58-55-63-72-33-100 11-10 20-23 20-30 0-16-33-45-52-45-9 0-21-7-28-15-10-12-9-16 4-21 9-3 24-3 33 1 10 4 39 9 66 12l47 4v-114c0-122-11-173-39-182-31-10-111-94-111-116 0-20 4-21 43-15 23 4 57 16 76 27 18 11 35 19 36 17 2-2 10-20 18-40 24-58 30-118 17-187-11-63-9-100 21-313 12-88 2-112-58-141-67-33-132-75-159-103l-22-25-11 34c-9 25-8 42 1 68 36 99-9 965-71 1369-7 40-8 161-3 320 10 372 7 782-7 808-6 12-11 71-11 139 0 121-7 150-33 140-16-6-27-61-48-246-11-91-10-114 5-187 13-64 15-92 7-122-7-25-8-95-3-202 11-212 6-366-13-404-8-16-15-52-15-81 0-28-7-74-15-101-11-35-13-70-9-121 5-48 3-77-4-86-13-15-68-11-79 6-11 19-24 490-13 522 14 44 14 170 0 430-24 459-42 625-72 663-13 15-28 16-28 1 0-6-8-23-19-37-18-27-44-194-44-292-1-216 24-625 41-682 6-18 13-62 16-98s13-87 22-113c10-31 14-60 9-85-3-20-9-89-12-152-2-63-10-121-16-128-13-17-73-8-139 20-44 19-48 23-48 54 0 19-9 67-19 107-23 89-31 150-76 652-8 88-20 178-26 201-18 67-10 88 34 95 20 3 40 8 42 11 7 7-54 53-82 62-36 11-73 63-73 102 0 51-15 41-26-18l-9-53-50 2-50 2 41-19c67-32 77-49 85-153 3-51 11-114 17-142 22-111 32-186 37-305 3-69 13-205 21-303 9-99 13-190 9-204-5-23-9-25-43-19-20 3-81 9-135 13-92 6-99 8-108 30-11 31-12 253 0 272 5 7 30 15 57 18 27 2 59 9 71 15 21 10 22 12 5 23-9 7-43 15-74 19-65 8-83 25-94 86-4 19-10 42-15 51s-9 66-11 125c-2 109 8 153 35 155 7 1 28 2 47 4 48 3 113 32 108 47-10 29-52 38-145 32-65-5-97-3-107 5s-16 9-21 1c-3-5-30-10-58-10-75 0-283 27-307 40-21 11-60-1-60-19 0-5 24-27 53-49 59-46 157-72 269-72 105 0 108-4 108-173 0-161-4-183-31-190-34-9-284 33-384 64-33 10-71 18-85 18s-42 3-62 7c-80 13-45-59 48-100 35-15 214-53 259-55 17-1 44-5 60-10 17-4 59-9 94-10 86-3 98-11 106-69 3-26 11-78 16-117 18-127-5-151-131-137-77 8-94 29-86 102 6 51 0 64-31 67-18 2-23-5-32-48-6-27-11-59-11-69 0-13-9-22-26-26-41-10-135 2-184 25-54 25-113 27-134 5-21-20-20-27 7-52 30-28 110-62 177-73 140-24 149-28 160-67 5-21 13-81 17-134 5-87 4-98-10-98-19 0-35-47-21-60 26-24 137-58 212-65 61-5 85-11 91-24 14-25 32-276 38-501 2-113 6-223 8-245 11-108 21-160 30-159 6 1 20 18 32 40 25 45 41 52 106 53 63 1 58 16-16 53-70 36-80 54-73 126 16 164 18 264 6 435-15 214-13 222 57 220 72-1 188-24 204-41 23-23 35-264 15-281-9-8-37-9-92-2-87 10-124-2-124-39 0-28 56-60 105-61 22 0 58-3 80-7 38-7 41-10 53-57 17-65 8-164-20-210l-21-36 36-52 36-52 3-272c2-149 0-274-4-278s-35 2-70 14-108 32-163 46c-55 13-111 27-124 31-19 6-22 4-20-11 4-18 47-36 164-69 73-21 162-55 193-74 22-15 30-46 13-57-19-11-346-7-407 5-68 13-104 4-104-28 0-30 51-69 105-80 51-11 232-24 365-26l75-1 9-100c11-130 12-173 3-182-4-4-39-2-78 5-38 7-93 12-122 12-28 0-83 10-122 21-38 11-106 23-150 26-44 2-105 14-135 25-97 36-237 63-254 49-6-5-32-12-58-16l-47-7 39-38c30-29 54-41 112-55 79-19 130-43 125-60-4-10-410-10-428 0-9 6-157 34-224 42-22 3-51 15-65 28-47 42-67 48-110 31-32-13-50-14-96-5-31 6-65 9-74 6-9-2-24 0-33 5-19 10-13 33 16 65 19 21 19 24 3 48-18 27-27 30-54 16-9-5-40-18-67-29-29-12-75-44-106-74-30-29-73-69-95-89-60-55-104-110-126-156-10-24-23-43-28-43s-17-14-25-30c-9-17-35-44-58-61-38-28-47-30-97-24-120 13-138 27-77 58 64 34 174 124 267 218 52 53 129 117 170 144 84 53 90 59 90 95 0 34-17 50-54 50-17 0-36 4-42 8-15 9-42 190-50 337-6 95-10 118-26 132-34 31-40 2-35-178 5-159 6-167 36-229 17-35 31-67 31-72 0-4-17-19-37-32-21-13-58-42-83-65-25-22-48-41-52-41-3 0-9 18-13 39-8 46-19 58-60 63-20 2-29 8-27 17 2 8-2 27-9 43-9 23-17 28-33 24-12-4-34-9-51-13-30-6-94-45-150-91-28-23-33-24-125-17-52 4-135 7-184 7-49-1-119 5-155 13-36 7-127 21-201 30s-144 20-156 25c-11 4-56 13-100 19-43 7-101 16-129 21-105 20-127 21-140 10-12-10-12-16 0-39 31-61 82-81 310-121 213-37 241-42 300-57 33-8 92-18 130-22 67-6 70-7 73-34 3-22-3-31-28-45-18-9-44-28-60-42-15-14-50-43-78-65-37-29-55-51-62-79-7-24-31-58-63-90-28-28-60-68-72-88-11-20-48-58-82-83-35-26-63-51-63-55 0-5-16-24-36-43-30-28-36-39-30-60 5-23 9-25 38-16 17 5 34 7 36 4 3-3-6-25-19-51-27-52-111-142-168-180-34-22-46-25-85-19-38 6-50 13-62 36-17 33-53 39-75 13-11-14-27-16-94-10-92 7-110-1-93-40 10-20 6-29-25-63-20-22-43-54-52-71-39-75-73 10-54 135 38 260 40 298 22 350-10 28-31 68-45 90-15 22-34 59-43 83-21 51-35 54-35 7 0-24-6-38-16-42-24-9-115 15-130 35-8 10-13 44-14 80 0 35-7 91-15 125-22 91-58 332-63 413-4 90 2 96 83 77 33-8 72-16 88-20l27-5-1-104c-1-58 1-107 4-110 10-10 47 87 48 125 1 20 4 47 8 61 7 23 11 25 64 22 53-4 56-3 63 22 9 38 0 53-43 66-21 7-54 22-73 34-20 13-60 26-95 30-100 11-163 36-184 70-24 40-32 78-22 95 7 12 33 13 138 7 122-6 130-5 148 14 15 16 16 25 7 44-8 19-30 30-99 51-48 15-119 39-158 55l-70 28 2 49c2 26 4 97 5 158 3 101 5 110 25 120 27 14 202 10 217-5 6-6 10-34 9-63-2-49-12-66-47-81-6-3 3-17 21-33 37-32 53-68 53-121 1-35 1-36 16-17 8 11 21 40 27 64 9 34 19 47 40 55 34 13 32 36-6 54-15 7-27 19-27 26 0 20 20 77 40 116 19 37 15 65-14 89-22 18-23 173-1 191 10 9 40 10 110 5 52-4 95-8 95-9 6-20 32-209 41-286 6-58 17-117 25-132 17-32 18-68 2-68-19 0 1-14 72-51 36-18 91-57 123-86s63-53 69-53c5 0 29-13 53-29s53-32 64-36c24-7 45-40 36-55-3-6-18-10-33-10-36 0-157 25-212 43-79 27-172 40-203 28l-28-11 18-31c16-29 28-36 88-59 199-75 209-78 397-90 81-6 179-17 217-25s131-19 205-25c129-11 137-10 163 9 15 11 49 25 75 31 56 12 115 45 123 69 5 18 45 41 69 41 8 0 31 15 52 34s57 39 79 46 60 25 83 40c24 16 47 30 51 32s36 55 71 118 71 126 80 140c18 25 36 66 84 194 40 102 39 280-3 536-11 68-22 103-50 156-12 23-28 79-36 126-9 47-22 108-30 134-29 96-16 124 47 102 20-7 104-12 213-12l180-1 3 23c7 50-25 62-173 65-11 0-72 11-135 23-63 13-129 24-146 24-40 0-60 25-108 130-21 47-47 101-57 120-42 77-109 227-109 245 0 20 10 19 40-2 13-10 41-27 61-38 54-29 117-75 158-115 20-19 59-50 87-70 28-19 75-57 104-83s66-54 84-61c17-7 67-39 111-71 44-31 90-61 103-66s47-35 77-68c45-48 62-59 95-64 28-3 49-15 69-36 32-34 68-51 111-51 21 0 39 12 69 47 51 57 58 83 35 121-16 29-16 31 3 58 37 52 53 104 63 207 5 56 17 152 25 212 8 61 15 135 15 165s7 91 15 135 20 152 26 240 15 177 20 198c9 33 13 37 43 37 19 0 39 7 47 16 11 13 8 19-16 38-29 23-29 24-29 137 0 183 12 609 19 674 6 56 21 151 44 289 7 37 18 66 31 78 20 19 40 58 40 78s-53 70-86 80c-34 11-42 9-132-36-54-27-121-63-151-81-29-18-85-41-125-53-39-12-79-26-90-31-10-6-33-19-50-28s-47-23-66-31c-19-7-53-25-75-40s-56-33-75-40c-19-8-55-24-79-37s-50-23-57-23c-8 0-14-4-14-9 0-7-106-78-134-90-16-6 2 68 23 98 12 16 21 34 21 39 0 20 74 164 87 169 7 3 37 8 66 12 50 6 52 7 52 36 0 19-5 30-15 32-71 9-90 15-90 29 0 9 17 61 39 117 92 242 102 295 80 397-5 25-14 95-19 155-15 175-51 364-81 433-34 77-32 81 69 77 48-1 107-10 132-19s59-16 75-16c17 0 59-7 95-16 36-8 94-19 130-24s85-14 110-20 59-13 75-15c17-3 36-7 43-10 9-3 12 1 10 13-2 9-12 18-24 20-11 2-35 16-54 32-42 36-183 87-292 106-46 8-90 16-98 19-8 2-64 11-123 20-60 8-129 24-154 35s-54 20-64 20c-27 0-126 39-139 55-6 8-49 28-96 46-70 26-87 37-104 67-26 42-20 67 12 56 35-12 93-11 93 3 0 6-30 27-66 46-57 30-76 35-132 35-66 0-66 0-56-25 5-13 9-28 9-32s-46-6-102-3c-172 8-297 2-348-18-25-9-85-20-134-23-71-5-96-11-125-30-20-14-48-27-62-31-14-3-55-25-90-49s-95-61-132-81c-63-35-71-37-115-29-64 11-65 32-5 61 27 12 53 22 59 22s21 12 35 26c22 23 133 82 187 98 12 4 43 23 67 42 25 19 49 34 53 34s15 8 23 18c9 10 41 26 72 36 33 10 71 31 88 48 45 45 86 71 199 124 101 48 122 67 141 129 14 47-33 72-76 41-11-7-49-23-85-34-84-26-122-49-192-116-42-40-70-59-110-71-29-8-89-40-133-70s-109-65-145-78-111-54-167-90c-55-36-114-69-130-73-15-4-73-28-128-54s-122-55-149-64c-74-25-123-58-201-134-51-50-95-81-165-116-52-26-104-57-116-67-11-10-29-19-40-19s-62-28-114-62c-97-63-104-67-224-113-128-48-239-117-251-156-12-36 9-43 51-16 98 61 282 137 334 137 39 0 118 54 154 104 27 38 29 38 76 33 43-5 53-2 89 24 23 16 45 29 51 29 36 0 186 105 264 186 27 28 148 84 195 91 20 3 54 14 77 24 58 27 71 25 78-16 4-19 16-39 26-45 27-14 25-27-9-66-36-40-118-202-133-261-5-23-16-47-23-53-8-7-68-7-190 0-194 11-206 9-189-37 10-30 42-42 119-44 100-3 245-22 246-33 1-6 1-47 0-91s5-140 12-213 10-138 6-143c-6-11-22-7-95 27-43 20-66 23-150 22-54 0-111 4-126 10-32 13-168 15-187 2-9-5-11-17-8-32 5-20 24-30 117-62l111-38 83 12c82 11 85 11 132-14 27-14 57-26 67-26s27-5 37-10c11-6 34-12 51-14 39-5 59-29 59-71 0-17 11-54 25-81 80-155 130-313 105-329-4-2-31 11-61 30-29 19-60 35-67 35-8 0-34 14-59 30-25 17-66 41-92 54-49 26-113 99-105 121 3 7 16 16 29 19 23 6 38 36 26 53-6 10-128 43-178 48-15 1-54 10-86 19s-76 16-98 16-49 5-60 10c-25 14-89 2-89-16 0-7 9-22 21-32 23-22 41-121 32-177-3-19 0-77 7-129 7-51 13-185 15-297 1-112 5-253 10-312l8-109-59 5c-51 4-270 57-292 71-14 8-202 38-215 33-6-2-22 0-35 4-28 11-72-24-72-55 0-36 17-50 72-62 29-6 94-20 143-32 50-11 104-23 120-26 17-2 57-12 90-21s93-19 133-22c61-5 75-3 92 12 11 10 22 16 24 14s6-101 9-219c7-266 31-414 78-472 33-42 35-65 19-196-9-73-8-90 10-148 21-68 28-218 11-228-5-3-30 5-55 19-71 38-126 30-126-17 0-21 88-81 140-96 93-27 116-36 132-49 14-12 31-13 115-3 166 19 186 32 182 122-2 43 1 54 20 69 13 11 28 19 35 19 14 0 87 37 143 73 55 35 67 35 58 0-3-15-10-59-15-98-5-40-19-91-34-120-14-27-26-56-26-64 0-13-67-259-97-356-9-27-26-70-38-95-13-25-36-85-53-135-17-49-40-110-51-135s-21-54-21-65-16-37-35-58c-39-42-52-42-134-3-48 23-53 29-72 94-18 60-29 62-29 3 0-27-4-53-10-56-5-3-40-8-77-11-38-3-78-12-91-20-21-14-21-17-8-42 20-38 46-59 84-67 18-4 37-15 42-25 13-25 13-167 0-175-6-4-64-7-130-7-140 0-156 6-145 62 3 19 13 82 20 140 8 58 17 120 21 138 5 27 2 38-17 58-12 13-28 24-34 24-16 0-35 59-35 106 1 57 16 71 89 80 59 6 64 9 88 47 32 51 21 62-63 61-35-1-64 2-64 7 0 4-10 17-21 28-27 25-36 77-29 166 5 67 6 70 30 68 14-2 101-3 193-3 132 0 175-4 198-16 17-9 48-14 72-12 34 2 43 7 45 24 7 50-80 92-208 100-160 9-322 23-327 28-3 2-7 23-10 45-8 57-13 55-70-18-19-23-20-23-66-7-60 20-231 23-225 4 3-7 43-26 90-43 47-16 97-38 112-48 16-10 35-15 46-12 15 5 25-2 41-27 19-30 20-43 15-137-6-106-14-126-46-116-8 3-46 9-85 15-38 5-104 21-145 34-91 31-175 34-188 9-11-20-1-53 19-70 16-13 136-59 189-73 19-5 82-20 139-34s108-31 113-38c17-27 21-62 12-127l-9-66-40 1c-56 2-219 30-284 49-53 16-56 16-103-6-38-18-48-27-46-43 4-29 82-66 138-66 25 0 65-10 90-21 26-12 83-24 138-29 52-5 97-11 100-15 11-11 29-190 21-206-7-15-19-13-116 13-59 17-112 30-118 30-5 0-34-4-63-8-48-6-57-11-79-45-14-21-22-43-18-48 3-6 25-11 48-11 55 0 262-48 344-80 29-12 37-55 38-210v-125l-80 2c-44 2-107 5-140 9-97 9-146-25-97-68 21-19 118-59 197-83 129-38 139-48 133-136l-3-44-95 3c-52 2-106 6-120 8-14 3-56 8-93 11-67 6-69 5-65-17 4-29 50-54 154-81 43-11 88-26 99-33s37-16 57-20c74-14 77-22 79-191 0-92 8-195 19-265 10-63 22-148 26-189 7-70 6-74-12-67-87 34-149 48-229 52-74 4-94 2-104-10-18-22-5-53 32-71 37-19 125-44 153-44 28 1 146-41 166-58 19-17 42-105 37-143-4-23-8-25-48-23-46 2-149 30-165 45-19 16-74 9-78-9-6-30 15-72 42-82 42-16 137-41 157-41 39 0 89-21 102-42 8-13 17-39 21-58 9-57 34-45 38 18 2 39 8 55 20 59 36 13 40 36 12 60-12 10-20 30-20 48 0 41 41 127 58 120 8-3 26-5 41-5 55 0 65-18 62-116-1-49 5-123 13-164s17-121 21-177l8-103h-27c-23 0-66 18-126 52-8 5-23 11-34 15-10 3-39 17-65 29-25 13-55 24-65 24-22 0-104 22-266 72-62 19-198 47-249 51-35 3-50-26-31-60 10-18 35-34 80-50 36-14 74-33 85-43 25-23 124-49 159-43 14 3 44-4 69-16 28-13 70-23 116-26 86-5 178-23 187-36 3-5 21-16 40-24s34-20 34-27c0-31-88-148-140-187-60-45-79-48-96-12-15 28-155 103-204 107-19 2-83 13-143 25-86 17-110 19-122 9-48-40 21-96 248-198 28-13 68-22 97-22 44 0 50-3 56-24 7-30 37-39 72-21 15 7 40 19 56 27 16 7 59 43 95 80 36 38 70 68 74 68 5 0 26 14 48 32 31 25 42 29 52 19 13-13 33-135 43-258 6-65 4-73-14-84-18-12-19-16-7-39 7-14 21-55 30-90 20-76 29-90 61-90 22 0 24 4 24 54 0 74 12 82 92 62 111-27 161-37 228-46 36-4 75-11 88-15 18-6 21-4 16 9-3 9-17 16-30 16s-54 12-91 26c-57 21-172 50-234 58-55 7-74 26-91 89-20 72-33 247-22 301 7 41 8 42 77 51 57 8 66 23 42 69-18 33-18 33 10 71 19 24 53 49 99 71 61 29 73 32 91 21 11-7 45-19 75-26s69-17 85-21c17-5 93-23 170-40s167-37 200-45 112-19 175-25 144-15 179-20c69-10 91-2 91 29 0 45-57 76-165 91-54 8-256 57-330 80-16 6-57 11-90 12-85 4-87 26-9 95 33 29 64 53 69 53 13 0 76 60 91 85 10 18 12 18 47-4 28-17 67-26 152-36 121-14 198-28 280-50 49-13 119-25 180-31 17-2 57-10 90-18 33-9 88-16 122-16s112-7 173-15c61-9 141-15 178-13 63 3 67 4 70 28 2 14-3 33-10 42-18 25-156 58-268 64-52 3-113 9-135 15-22 5-68 11-101 13-34 2-70 8-80 14-25 13-139 40-175 41-9 1-27 9-39 19l-22 18 38 40c22 22 65 59 96 82 32 23 62 52 68 63 10 18 18 20 63 14 29-3 76-11 105-17l54-12-6-36c-4-28-1-41 12-53 16-15 21-14 61 18 23 19 53 37 64 40 12 4 32 11 45 17 17 9 49 7 141-10 66-12 138-22 161-22 57 0 140 30 140 51 0 34-33 47-135 54-121 9-180 33-169 68 6 19 74 97 171 195 18 18 33 37 33 42 0 17 39 21 72 7 18-8 50-17 71-21s52-20 69-37c30-28 43-34 63-29 13 4 235 21 310 24 33 2 68 6 77 10 20 9 41-1 33-15-4-5-17-9-31-9-13 0-24-4-24-8s-13-15-29-25c-49-29-131-108-131-127 0-10 12-23 29-30 24-9 34-9 59 4 17 9 41 16 53 16 19 0 150 96 171 125 4 5 8 24 8 41 0 55 16 52 182-38 17-9 34-21 37-25 13-17 180-93 205-93 5 0 17-6 25-14 9-7 59-30 111-51s126-53 164-72c38-18 77-33 88-33 10 0 31-6 46-14 15-7 49-17 75-20 55-8 167-61 168-79 0-7 6-70 12-142 11-121 13-130 34-133 31-4 35-38 14-107-15-47-23-61-41-63-33-5-190 18-214 31-12 6-43 12-71 14-27 1-57 3-65 4s-70 1-137 1c-102-2-123-5-123-17 0-8-4-15-10-15-26 0-6-19 28-25 20-3 48-14 62-23s54-24 90-33c125-33 140-46 140-125 0-40-24-55-97-60s-102-32-65-61c27-21 99-53 120-53 36 0 41-19 32-128-4-57-11-106-14-109-3-4-23-1-43 6-21 6-101 18-178 26s-159 18-183 21-64 0-90-6c-26-7-126-14-224-15-98-2-182-6-188-10-12-7-13-45-2-63 23-36 77-62 128-62 29 0 56-4 59-10 7-11-72-93-122-127-33-22-34-22-66-4-19 10-63 21-107 24-41 3-93 9-115 12s-59 8-82 11c-24 3-43 11-43 17 0 13 106 105 200 174 60 44 162 134 254 225l60 59 70-3c85-3 179 21 184 46 6 31-27 56-73 56-51 0-56 5-44 39 12 32 46 68 122 132 52 44 63 49 108 49 52 0 63 12 28 31-19 9-21 17-15 55 6 49-6 56-47 29-37-24-108-41-157-37-115 7-176 15-184 22-17 16 5 56 65 120 34 36 79 88 100 117 46 62 51 65 152 88 42 9 80 21 83 26s10 7 15 4c14-9 49 5 49 19 0 33-132 89-240 102-30 3-80 13-110 20-67 17-109 18-177 2-57-13-68-28-57-72 7-30 96-86 136-86 13 0 33-6 43-14 18-13 18-16-20-57-21-24-68-74-105-110-36-36-78-83-95-103-16-20-40-48-52-62-13-14-23-29-23-34s-9-11-19-15c-11-3-37-23-59-43-21-20-63-55-92-77s-70-55-90-72c-51-45-64-43-56 7 7 46 1 48-50 20-80-45-129-58-186-48-53 9-137 3-139-10-1-4-3-17-4-29-3-28-45-81-70-88-19-5-75-84-75-103 0-20-53-77-73-79-48-3-195 19-274 41l-83 24-6-24c-16-61 77-103 246-110 50-2 95-6 100-9 4-2 29-7 56-10 62-8 124-26 124-36 0-5-12-33-27-63-38-77-30-88 46-63 47 15 71 31 108 70 139 148 267 267 288 267 7 0 15 14 19 30 3 17 11 30 18 30 6 0 24 12 39 26 26 25 30 26 73 15 25-6 71-11 103-11 75 0 103-8 103-29 0-10-51-62-112-117-137-120-266-252-274-279-4-11-18-30-33-42-21-17-34-21-68-16-25 3-62-1-95-11-29-9-90-18-134-20-114-5-128-18-76-68 27-25 36-27 148-31 116-6 191-15 286-36 46-10 122-17 265-26 40-2 81-8 91-14 14-7 30-6 58 4 22 7 52 16 67 20 16 3 43 20 61 38s58 50 89 72c32 22 57 45 57 51 0 11 75 77 123 109 25 16 32 16 70 5 23-8 82-16 131-19 59-4 91-10 94-19 2-7-25-43-60-80-69-73-98-113-98-137 0-21 27-19 57 5 14 11 40 20 57 20 23 0 46 13 86 47 30 27 60 51 65 55 6 5 25 22 44 38 49 45 66 37 66-30v-54l-38-8c-22-4-50-17-64-28s-34-20-43-20c-36 0-90-30-90-50 0-41 126-113 256-145 14-4 28-155 15-168-6-6-43-4-103 7-362 61-418 64-490 27-27-14-48-29-48-35 1-6 16-21 34-32 28-18 61-24 178-33 195-16 431-58 464-83 7-5 14-25 17-46 3-20 10-55 15-77 6-22 14-57 17-77 3-21 10-38 14-38 11 0 59 109 67 151 15 75 27 86 104 94 39 4 74 4 78 0s9-145 12-313c5-307 5-307 28-317 19-8 22-17 22-66 0-69 16-119 38-119 10 0 28 13 42 30s35 32 48 35c18 3 22-1 22-22 0-38-58-108-110-132-25-12-60-33-79-46-19-14-46-25-60-25-34 0-118-24-156-43-33-18-66-20-170-13-38 3-88 0-110-6s-62-12-90-14c-27-1-74-11-103-20-50-18-54-18-100 0-26 10-65 22-87 26s-67 17-100 29c-72 25-109 26-171 5-32-11-64-14-103-10-144 16-186 17-226 6-39-11-45-10-107 25-55 30-82 37-160 46-51 5-104 14-118 19-52 20-176 50-211 50-20 0-42 6-48 14-7 8-24 17-39 21-45 11-224 96-252 120-8 7-40 23-70 35-30 11-77 32-105 45-27 13-75 33-105 45s-72 36-94 52c-40 32-87 47-148 48-20 0-57 9-83 20s-54 20-63 20c-8 0-24 8-34 17-18 17-56 24-226 43-51 6-108 18-127 26s-45 14-58 14c-14 0-30 7-37 15s-23 15-36 15c-12 0-26 5-29 10-3 6-19 10-34 10s-31 4-37 9c-20 18-172 60-244 66-41 4-80 11-86 16-7 5-42 16-78 24-37 7-72 18-79 23-23 18-108 62-120 62-7 0-28 13-47 28-31 25-99 62-114 62-3 0-45 19-93 41-138 65-183 85-251 113-38 15-85 45-118 76-31 27-65 50-77 50-26 1-79 44-97 80-7 14-27 39-44 56l-31 30v213c0 203-1 214-21 230-37 29-52 64-59 136-4 39-13 81-20 95-20 40-27 95-33 245-7 199-7 242 2 315 6 49 4 78-7 117-12 40-14 78-10 163 5 87 3 118-10 148-20 49-37 239-28 326 4 38 4 94 0 125s-8 70-8 88c-1 30 0 31 27 23 15-5 43-13 62-18s67-19 105-30c119-34 264-58 283-46 20 13 26 36 18 70-5 20-12 24-46 24-39 0-78 12-260 81-47 17-102 36-122 42-33 10-39 16-44 47-3 19-12 67-20 105-18 92-18 174 2 243 18 62 15 209-7 270-13 38-7 115 15 212 9 36 16 96 16 133 0 43 6 80 16 100 21 39 23 134 5 207-12 49-23 227-19 320 2 60 2 127-2 350-3 126 1 263 8 330 18 174 9 897-12 1010-9 47-19 128-22 180s-11 147-17 210c-9 77-10 142-4 195 12 115 12 124-5 190-33 128-41 224-30 361 6 71 11 253 10 404-1 233 2 281 15 313 14 31 18 94 23 330 4 161 5 321 4 357-5 90-4 104 10 193 11 73 10 83-10 148-23 71-23 73-1 229 6 43 6 82-1 115-7 31-8 84-3 145 5 52 10 156 11 230 3 164 8 270 22 417 9 96 15 123 46 187 19 41 45 108 57 148s28 82 36 93c7 11 13 36 13 57s14 71 30 113 30 85 30 96c0 16 4 19 20 14 11-3 20-3 20 2s13 14 29 20c18 6 43 32 65 64 35 55 124 139 173 164 16 8 46 15 68 15 33 0 52 9 106 53 36 28 74 67 85 85 16 30 36 58 63 87 5 6 30 26 55 45 26 19 70 53 99 76 29 22 70 51 92 64 22 14 54 36 70 51 17 14 89 78 161 142 120 106 192 157 220 157 6 0 19 9 29 20s37 29 61 41c24 11 44 24 44 28 0 5 18 16 40 26s40 21 40 26c0 4 15 17 33 28s55 48 82 81c27 34 56 60 67 60 26 0 58 36 58 64 0 15 7 27 19 31 23 7 46 58 37 81-4 10-11 93-16 186-7 135-13 175-27 197-56 87-75 111-88 111-9 0-15 10-15 25 0 14-12 37-26 52-17 17-24 32-20 47 3 11 1 90-5 175-7 114-7 167 1 202 11 43 67 138 106 176 8 8 14 24 14 36 1 12 7 33 15 47 21 37 18 77-10 118-14 20-25 42-25 49s-4 13-8 13-20 24-35 53c-14 28-40 65-56 80-47 44-58 94-38 175 9 37 19 88 23 114 3 26 12 53 20 59 18 15 18 30-1 65-15 29-49 53-76 54-9 0-24 11-33 25-9 13-29 39-45 57s-53 60-83 94c-29 33-72 77-95 98-24 21-43 44-43 51 0 6-13 26-29 42-40 42-53 68-46 95 3 13 1 52-4 88-14 87-50 340-61 417-4 34-11 66-14 72-4 6-11 73-16 148-5 76-11 147-15 158-7 25 32 88 58 93 25 5 101 81 121 120 9 17 24 32 34 33 28 1 116 54 126 76 8 17 16 20 42 16 24-4 37 0 53 16 11 11 21 27 21 35 0 15 29 26 70 26 14 0 39 8 55 18 17 10 50 22 74 26 37 6 109 40 261 122 14 8 38 14 53 14s41 7 58 15c20 11 35 13 47 6 26-14 94-11 119 5 12 8 24 14 27 14 7 0 17-30 43-125 37-136 39-154 17-161-11-3-28-11-39-17s-38-20-61-32c-22-11-63-40-90-63-47-42-49-46-48-97 0-31 7-63 16-77s18-45 20-69c3-40 7-46 45-67 33-18 47-21 62-13 11 6 34 11 51 11 30 0 162-45 226-76 24-12 37-13 52-5 32 17 62 13 96-12 17-13 58-31 91-39 33-9 74-21 90-26 120-40 177-54 202-49 18 3 46-3 78-18 71-33 149-53 230-60 39-3 95-12 125-20 70-19 139-19 164 0 24 18 63 19 138 4 52-11 57-10 116 20 70 35 101 38 169 15 31-11 61-14 87-9 23 3 55 7 71 9 17 1 66 20 110 43s98 44 120 48 45 10 50 15c6 4 28 11 50 14 62 11 119 33 160 60 21 15 43 26 50 26 6 0 19 8 29 19 9 10 34 26 55 36 41 18 51 36 51 96 0 28 7 40 30 57 41 31 40 71-2 117-30 31-39 35-103 40-124 11-115 3-114 103 0 78 3 92 30 132 15 25 45 80 66 122l38 77 75-6c55-4 90-13 132-34 32-16 88-36 124-45 37-8 81-22 98-31s78-24 136-34c114-18 272-62 307-85 12-8 30-14 40-14s54-11 98-24c78-22 81-24 102-69 14-28 34-52 52-62 31-16 81-21 81-8 0 4-12 38-26 75-28 73-93 143-143 154-14 3-34 9-43 15-10 5-23 9-30 9-6 0-46 13-87 29-42 16-104 37-138 47-35 9-63 20-63 24 0 3-23 14-51 24-45 16-56 17-91 5-37-12-44-11-82 9-22 12-63 26-91 31-27 5-99 31-158 56-101 44-112 46-150 37-23-6-43-9-46-7-2 3 1 22 7 42 20 66 41 155 67 283 14 69 30 145 36 170 41 168 49 213 49 300 0 72-5 108-21 150-25 67-40 80-96 80-30 0-49 6-63 20-15 15-33 20-69 20-43 0-51 4-74 34-34 44-78 63-173 77-56 8-92 20-122 40-52 34-95 40-292 41-36 0-94-1-130-3-51-2-76 2-110 18-70 33-138 51-220 58-92 8-231 13-245 9zm235-165c36-6 92-21 125-34 124-48 183-58 257-44 69 12 82 11 220-23 20-4 50-19 66-33 22-18 45-25 98-30 85-7 98-11 151-44 30-18 42-32 40-46-2-20-5-21-147-45-97-16-192-46-224-71-13-10-28-19-34-19-5 0-22-10-37-22-19-15-55-26-117-35-49-7-101-19-116-27-53-26-508-40-553-16-24 13-93 13-139-1-30-9-75-7-221 10-101 12-209 26-239 31s-81 14-112 19c-32 6-71 20-87 32-16 11-62 32-102 46-124 41-219 90-219 112 0 27 58 61 92 54 15-3 64 0 110 6 64 9 87 16 99 32 12 17 32 23 90 29 41 5 90 14 109 20 19 7 69 18 110 25s95 19 120 25 65 13 90 15c25 1 70 8 100 14s93 16 139 21c47 6 86 11 87 13 7 6 183-4 244-14zm1190-495c-5-47-14-92-21-100-13-15-119-57-127-50-2 3 3 17 12 30 21 33 22 134 1 142-24 10-58-3-93-35-18-17-52-35-75-41s-57-16-76-22-48-11-65-12c-24-1-32-7-34-25-2-13 1-28 7-34s11-19 11-28c0-20-31-27-155-34-252-13-303-18-355-37-63-22-164-25-215-7-26 10-49 10-107 0-85-15-189-38-195-44-2-3-34 1-71 8-67 13-127 9-167-12-11-6-58-13-104-17s-99-13-118-21c-20-8-49-15-66-15-32 0-67-24-67-47 0-11 12-17 31-15 3 1 19-12 34-28 28-29 32-30 117-30 48 0 88-2 88-4s3-12 7-21c5-16-2-17-78-11-46 3-113 8-149 10-118 6-194 18-234 38-32 16-41 17-52 6-10-10-10-22-1-59 14-53 32-79 56-79 9 0 30-9 46-20 17-11 44-20 60-20 34-1 120-21 183-45 24-8 82-18 130-21s125-16 172-29 98-25 114-27c33-3 49-28 19-28-11 0-23 3-27 8-4 4-76 8-159 8-84 1-166 2-183 3-17 0-80 17-140 37-105 36-114 37-259 38l-150 1-21 44c-17 35-20 52-13 75 5 17 7 44 4 61-3 16-7 53-9 80-4 54-31 148-53 180-7 11-13 29-13 41 0 22 0 22 53-6 29-16 85-33 125-40 66-11 75-10 93 6 43 39 4 114-60 114-15 0-31 4-37 9-5 4-39 16-77 26l-67 18-24-22-23-22-17 36c-31 64-34 195-5 195 6 0 24-9 39-20 16-11 48-27 72-36 59-20 179-82 203-105 12-10 36-21 55-25 19-3 53-12 75-19 22-8 78-19 125-25 120-16 210-29 284-41 48-8 83-8 136 1 52 9 83 9 118 1 26-6 72-12 102-14 30-3 81-12 113-21 58-18 58-18 130 8 60 21 89 25 172 24 75-1 107 3 130 16 17 9 53 16 85 16 30 0 75 6 100 14 44 13 133 66 145 87 11 17 69 42 99 41 16 0 101 20 190 44 223 63 220 62 229 48 4-7 3-52-3-100zm-84-338c3-8-2-41-11-73s-23-84-32-117c-14-52-20-60-52-72-20-8-43-19-51-24-33-21-107-53-179-77-64-22-93-26-181-25-58 0-127 4-155 8l-50 7 55 18c30 10 70 18 88 18 19 1 83 18 143 38 85 28 120 45 150 74 46 43 49 66 13 108-28 33-26 60 3 62 48 2 161 32 199 52 36 20 53 21 60 3zm-556-104c0-4-12-9-27-10-16-1-52-7-82-12-59-11-67-9-58 15 5 12 24 15 87 15 44 0 80-4 80-8zm-815-40c33-5 62-8 65-7 19 11 235 24 243 16 14-14-8-18-253-57-118-18-268-15-337 7-48 15-52 23-24 39 51 27 130 27 306 2zm632-225c-4-14-95-27-208-30-42-1-82-7-90-13-16-13-222-27-215-15 5 8 51 17 122 26 18 2 42 8 54 15 11 6 33 9 48 6s49 0 75 8c65 17 220 19 214 3zm-1480-77c17-16 42-31 55-35s41-15 63-25 65-24 95-30c30-7 69-18 85-25 17-8 46-16 65-20s50-13 68-22c19-8 43-12 55-9 40 10 80-36 44-50-13-5-156 20-187 33-8 3-100 7-205 9-104 1-199 3-211 3-18 1-24 14-42 97-12 53-19 101-16 106 12 19 97-2 131-32zm890 13c4-12-61-25-83-16-26 10-15 22 24 26 47 4 55 3 59-10zm1197-11c9-14-24-52-45-52-24 0-24 11 1 38 22 23 35 27 44 14zm-467-129c4-11-152-55-282-78-132-24-325-21-325 6 0 5 12 11 28 14 15 3 43 11 62 17 131 43 507 73 517 41zm399-108c-14-28-21-70-43-248-4-37-11-51-26-56-38-14-54-3-53 37 1 31-3 38-21 40-12 2-40-6-64-18-31-16-51-20-78-16-20 4-54 8-76 11-22 2-67 8-101 12-35 5-72 5-87 0-25-8-138 1-282 23-76 11-116 17-187 25-38 4-58 11-58 20 0 20 14 22 205 19 234-3 390 23 450 76 11 10 58 27 105 38 131 31 243 61 267 72 12 5 30 24 40 42l18 33 3-39c2-21-4-53-12-71zm-1210 41c17-13 18-15 2-21-21-8-90 13-83 26 9 14 59 11 81-5zm-818-83c44-26 51-27 176-25 124 2 132 0 190-27 103-48 131-54 225-47 126 9 160 7 195-12l31-17-105-8c-58-5-127-17-155-27-27-10-77-22-110-25-33-4-87-15-120-26l-60-18-35 24c-20 14-39 25-43 25s-20 9-35 20-54 25-87 31c-66 12-85 23-85 48 0 10-11 32-25 51-47 63-30 76 43 33zm7-291c-21-5-40 12-30 28 5 8 13 6 27-7 18-16 19-18 3-21zm2234-26c9-10 8-16-4-26-13-11-19-10-33 4-15 15-15 18-2 26 20 13 26 12 39-4zm-1440-16c18-5 43-20 56-34 14-15 43-29 79-37 31-7 59-16 62-20 3-5-11-15-31-23-28-12-41-13-63-4-16 7-93 12-192 13-130 1-172 4-200 17l-35 17 40 17c44 19 198 62 230 63 11 1 35-3 54-9zm2081-1774c0-6 11-32 25-58s25-63 25-81c0-32-3-35-37-42-46-8-80-26-115-59-15-14-66-46-114-71-49-25-92-49-98-55-5-5-18-10-28-10-35 0-17 30 44 75 34 25 82 70 106 101 24 30 52 64 62 74s32 47 49 83 37 67 44 70c14 5 37-11 37-27zm525-5106c6-4 48-20 93-35 77-25 86-31 110-71 29-47 42-53 63-28 21 26 65 9 119-45 48-48 65-91 41-105-9-6-61 17-103 46-14 10-33 18-41 18-9 0-28 11-44 24-33 28-93 44-93 26 0-25-174 14-192 43-9 14-11 131-2 140 6 6 32-1 49-13zm1130-25c51-10 63-15 69-30 3-9 8-93 11-188l6-172-30-47c-34-52-146-141-201-159-19-6-48-25-64-41-27-26-36-29-90-28-137 3-134 4-142-36-5-28-2-42 16-66 20-27 21-33 9-56-8-13-30-35-49-47s-43-32-54-43c-24-28-115-49-144-33-11 6-37 11-56 11-58 0-93 57-84 136 3 28 4 29 55 26 29-2 56-1 62 2 17 11 0 45-28 54-14 5-42 25-62 45l-36 35-6 124c-3 67-2 127 2 131 5 5 28-5 52-21 24-17 60-37 79-46s48-24 65-33c16-9 80-22 142-29s122-18 132-24c25-13 87-13 112 0 14 8 19 21 19 48 0 45-5 52-50 79-28 17-59 23-150 28-91 6-124 12-160 30-66 34-71 42-48 94 18 38 22 42 46 37 15-3 70-13 122-22s120-25 150-36 84-24 120-29 90-17 120-28c58-20 80-15 80 19 0 25-27 43-95 65-77 23-105 41-105 64 0 13-18 26-59 45-32 14-64 33-71 41s-18 15-24 15c-23-1-146 66-146 79 0 11 12 12 58 6 100-13 253-7 270 10 7 7 100 1 157-10zm-1455-190c14-1 51-6 83-10 64-7 97-30 97-67 0-13 9-52 20-88 22-72 25-122 10-150-9-16-15-17-47-8-21 5-71 26-111 46-60 29-78 34-100 26-20-7-28-17-30-41-3-25 3-36 31-57 19-14 39-26 45-26 16 0 140-39 181-56 49-22 240-84 256-84 28 0 45-43 45-110 0-80-10-98-42-83-62 30-134 53-162 53-45 0-197 29-210 39-12 10-82 25-108 23-10 0-21 5-25 11-24 37-32 375-12 502 15 95 16 98 37 90 9-4 28-8 42-10zm390-99c28-13 41-62 54-200l7-79-48 5c-64 6-120 34-127 63-3 12-1 47 4 75 6 29 10 68 10 87 0 53 15 74 48 67 15-4 38-12 52-18zm-3773-198c9-7 24-31 33-53 10-22 27-49 38-61 21-22 49-90 40-99-3-3-17 0-32 6-18 9-33 9-48 2-15-6-47-6-94 0-83 12-124 5-124-22 0-28 19-39 113-61 121-28 162-27 192 6l23 25 9-52c4-29 5-93 2-143-21-286-21-290-45-336-14-25-28-58-32-75-8-30-9-30-103-39-64-6-112-5-150 3-30 6-76 11-101 11-26 0-58 4-72 10-14 5-55 12-91 16l-65 7v-36c0-34 2-37 38-43 20-4 63-17 94-30 32-13 90-28 130-33 40-6 86-13 101-17 17-4 49 0 83 11 30 9 58 14 61 11 4-4-1-39-12-79-14-57-27-83-65-127-62-72-94-124-116-185-9-27-27-61-39-75-28-31-90-196-136-360l-12-45-10 35c-5 19-10 64-12 100-1 44-9 79-25 109-20 40-21 48-10 82 10 31 10 56 0 130-7 56-8 95-3 100s38 14 74 20c35 6 74 17 87 25 23 15 29 52 12 83-8 16-15 17-59 8-31-6-76-6-118-1l-68 9-12 70c-7 39-17 104-23 145-18 131-38 242-60 335-39 164-43 211-20 258 50 103 96 167 120 167 5 0 16 15 25 34 18 38 85 96 110 96 9 0 29 9 45 20 66 47 286 72 327 38zm4733-361c19-9 27-23 32-57 4-25 4-57 2-72-5-24-11-28-38-28-17 0-42 7-54 16-12 8-26 12-32 9-15-9-87 13-93 29-3 7 16 39 41 70 44 53 49 56 82 51 19-4 46-12 60-18zm-646-223c6-17-19-54-36-54-11 0-10 27 2 51 13 23 26 24 34 3zm910-231c3-49 7-155 8-238l2-150-28-15c-25-14-28-14-42 4-8 11-14 37-14 57 0 21-4 49-10 63-13 36-40 207-40 259 0 49 12 68 55 91 57 29 62 25 69-71zm-232-31c14-54-33-96-52-47-13 35-13 41 5 59s41 12 47-12zm3-164c3-24 5-108 3-187-3-122-6-145-20-155-28-17-31 0-13 68 17 62 17 67 1 91-21 31-24 188-5 211s27 16 34-28zm-165-122c0-65-4-88-16-101-29-28-39-12-42 68-3 84 8 117 38 117 18 0 20-7 20-84zm-152-100c5-61-4-80-49-104-52-28-59-28-59 2 0 14-5 37-10 51-6 15-6 33-2 41 14 26 66 54 92 52 21-3 25-9 28-42zm-164-25c3-5-1-31-10-57-37-120-42-173-26-289 5-38 13-162 16-275 5-177 4-208-9-228-9-12-22-22-29-22s-22-12-35-26c-12-14-30-24-39-22-15 3-17 17-17 110 1 104 2 107 28 128 34 27 61 76 47 85-6 4-16 2-23-3-7-6-23-12-37-14-24-3-25 0-30 62-3 36-11 75-18 88-9 16-12 65-11 170 2 102-1 154-10 170-15 29-11 73 9 83 28 14 145 48 167 49 12 0 24-4 27-9zm733-246c3-120 3-125-17-125-14 0-27-15-45-50-14-27-28-50-32-50-12 0 5 320 18 336 18 22 52 34 63 23 5-5 11-65 13-134zm-427 31c0-80-9-126-25-126-7 0-15 19-18 48-9 76 4 142 29 142 11 0 14-15 14-64zm172-8c8-15 14-79 16-180l4-157-26-25c-29-30-51-33-60-10-3 8-9 91-12 183l-7 167 28 22c35 28 41 27 57 0zm-312-89c0-54-5-80-21-109l-21-38 22-30c18-24 25-52 32-128 8-97 8-98-17-123-24-24-26-25-42-8-15 14-19 47-26 195-14 283-14 282 8 298 10 8 29 14 42 14 22 0 23-3 23-71zm-5775-1c18-34 46-68 69-85 22-15 53-43 70-62 59-64 230-231 237-231 4 0 16-15 28-32 77-121 109-155 210-222 81-54 88-73 46-141-14-22-25-51-25-63 0-13-7-39-16-58-13-27-25-36-69-49-51-14-59-21-133-118-44-56-95-114-113-129-120-97-246-181-262-175-26 10-36 181-16 280l12 57 41 2c22 1 52 1 66 0 41-2 194 20 208 31 15 12 15 38-1 60-10 15-35 18-160 21-130 3-150 6-162 22-19 25-23 158-7 176 4 4 43-3 87-16 142-42 400-62 458-35 21 10 27 19 27 44 0 18-6 38-14 44-8 7-75 13-177 15-90 2-183 9-207 15-23 7-75 11-115 9l-72-3-8 60c-5 33-17 80-27 105-15 36-20 82-24 226-3 100-11 204-17 232-23 99 18 111 66 20zm2564 23c17-11 27-147 14-206l-9-40-84-12c-47-6-146-15-220-19s-143-11-152-16c-18-9-24-44-10-65 24-38 199-45 352-13 52 11 98 16 101 12 4-4 3-36-1-72-5-36-12-127-15-203-7-127-10-143-36-193-16-30-36-84-45-121-24-105-38-131-71-135-69-8-346 47-412 82-57 30-183 55-210 41-28-15-27-49 2-62 12-5 29-22 38-37 16-27 40-39 169-80 66-21 151-38 205-41 17-1 66-3 110-6 44-2 88-4 98-4 23-1 22-28-8-130-14-47-25-107-25-133 0-27-7-63-16-79l-15-30-32 20c-18 12-68 39-112 61-109 54-178 102-305 209-19 16-51 43-71 60-19 16-77 51-127 76-57 29-100 58-113 77-25 34-140 111-184 122-16 4-35 12-42 18-16 13-5 38 18 38 11 0 38 17 62 39 23 21 61 50 84 64 49 31 58 45 68 107 11 69 43 117 82 125 18 3 45 16 60 29s44 33 63 44c19 12 64 50 100 86 79 78 236 185 346 236 44 20 87 46 95 57s46 32 84 46c39 14 84 32 100 41 34 18 44 19 64 7zm3374-237c6-45 5-79-2-96-21-54-31-30-31 73 0 76 3 100 13 97 7-3 16-34 20-74zm318-126c0-7 2-78 4-158s9-215 16-300c17-213 17-228 19-545 1-154 5-347 9-430 8-160 4-181-34-227-35-42-33-66 7-70 28-3 34-8 44-43 7-22 13-85 13-140 1-134 11-206 28-212 8-3 16-3 19 0 8 8 45 252 53 352 8 94 16 125 34 125 6 0 19 7 29 16 19 18 17 21 37-46 15-53 20-146 27-480 3-168 9-345 14-395 4-49 4-182 0-295-6-158-4-237 8-345 30-277 26-416-11-423-31-6-46 52-46 188-1 165-16 357-30 374-16 19-32 158-30 261 2 54-2 99-9 112-7 12-12 44-12 72 0 64-18 76-78 55-23-7-50-18-60-23-41-21-94-41-107-41-8 0-17 12-21 28-3 15-10 43-15 62s-9 65-9 101c0 62 2 68 36 103 42 43 44 79 4 84-14 2-31 11-37 20-17 20-17 181-1 234 9 32 8 48-5 91-9 30-16 90-16 141-1 48-4 92-7 97s-9 75-14 156c-4 82-11 156-15 165-5 13 7 32 45 70 58 58 79 97 72 134-3 20-10 24-37 24-20 0-45-9-62-23-98-79-153-98-153-52 0 18 12 32 48 56 26 18 66 50 89 71 24 21 47 38 51 38 11 0 59 87 52 94-12 11-79 9-110-4-19-7-65-33-101-57-37-23-71-43-77-43-5 0-32-21-58-46-50-47-145-114-163-114-10 0-17 27-27 113-4 36-11 57-19 57-18 0-25-23-25-83 0-62-38-144-88-191-52-48-77-93-62-111 11-13 17-11 46 15 56 49 61 39 71-143 4-89 7-202 6-252-3-85-4-91-30-110-15-11-51-41-80-67-29-27-58-48-63-48-24 0-32 55-40 283-9 246-18 325-46 400-9 23-19 61-21 84-6 53 12 64 64 39 39-18 63-9 63 25 0 9 7 24 15 32 24 24 38 106 24 139-7 18-9 48-5 81 4 29 8 57 8 62 0 23-22 385-28 446-7 71 6 99 47 99 11 0 28 5 38 12 31 19 47 3 60-61 13-68 5-98-30-103-12-2-27-11-33-20-16-26 19-49 54-36 54 20 61 37 95 215 7 35 64 79 89 70 13-5 23-59 32-172 3-33 9-64 14-69 24-25 43 38 59 202 11 100 29 142 61 142 18 0 20-7 20-78 0-51 5-85 14-97 13-18 15-17 31 16 11 20 20 65 23 112 4 72 7 79 34 99 26 18 31 19 45 6 8-8 20-51 27-94 8-53 16-79 25-79 16 0 61 140 68 213 3 28 9 52 14 52s9-6 10-12zm221-520c2-57 11-164 20-238 10-74 22-239 28-367 16-310 5-380-55-357-12 5-15 29-15 126 0 67-7 166-16 222-11 68-14 125-10 176 4 41 8 174 9 295s6 226 10 233c19 28 26 6 29-90zm-1154-240c15-111 23-297 16-326-8-28-27-23-34 9-3 13-11 33-17 44-13 19-13 19-27 1-8-10-18-44-21-75-4-31-9-64-11-73-6-20-106-77-142-80-23-3-26 2-39 57-30 126-29 128 16 164 23 18 41 37 41 42 0 6-20 7-49 3l-48-6-12 45c-12 50-14 87-5 110 7 20 139 85 187 92 24 4 52 19 75 40 20 19 42 35 48 35 7 0 16-33 22-82zm-4318-360c24-112 74-206 180-342 16-21 30-47 30-59 0-19-4-20-125-14-127 7-175-1-175-26 0-8 8-21 18-30 25-23 79-31 239-35 62-2 62-1 98-137 14-55 30-104 34-110 13-17 39-107 46-161l6-51-68 3c-187 8-303 29-385 70-54 28-110 31-128 8-20-23-1-66 38-86 18-9 41-23 51-32 11-10 43-19 77-22 33-3 72-9 88-15 16-5 58-9 93-9s72-5 82-12c15-9 25-9 46 0 14 7 41 12 60 12 18 0 41 7 50 16 15 15 17 15 34 0 28-26 39-85 47-257l7-155-26-41c-15-23-31-44-36-47-5-4-25-33-43-66s-41-63-51-66c-9-3-44-32-77-64-52-51-70-62-133-80-39-12-79-24-87-27-35-13-137-9-184 9-56 20-126 86-126 119 0 19 4 20 41 16 22-2 46-10 52-16 13-13 98-13 182 0 33 6 85 13 115 17 69 9 76 29 25 68l-37 28h-214c-207 1-215 2-219 21-2 11-6 70-9 130-4 94-1 126 20 214 20 82 23 110 15 134-16 45-13 75 10 107 19 25 21 37 16 88-4 33-2 74 3 92s15 81 21 139 19 126 30 150c10 24 19 54 19 66s16 68 35 124 35 112 35 125 8 34 18 47c11 13 24 40 31 59 16 46 90 160 105 160 7 0 18-28 26-62zm4848-161c3-23-5-37-42-70-77-72-77-121 2-109l32 4v-141c0-125-2-143-19-160-29-29-90-56-102-44-6 6-11 109-12 251l-3 241 56 30c66 36 84 35 88-2zm-614-329c4-204 3-329-3-333-18-10-29 29-36 130-6 77-12 106-28 127-27 36-33 35-46-5-12-36-32-46-131-67-30-6-68-16-85-21-38-12-52 2-37 36 6 14 16 25 21 25 12 0 161 149 161 160 0 13-44-1-57-17-14-18-33-9-33 15 0 9 9 31 20 47 11 17 20 45 20 63 0 45 11 62 66 107 46 38 143 79 155 66 4-3 10-153 13-333zm-1690-78c33-12 48-66 34-117-6-21-7-57-4-81 9-68-4-82-75-82-33 0-79 5-103 11l-43 11 4 96c2 53 6 111 9 129l5 32 72 4c40 1 73 4 74 5s13-2 27-8zm403-13c17-9 33-24 37-32 10-28 7-275-4-296-8-14-21-19-49-19-40 0-71 11-178 61l-63 29v124c0 68 3 132 7 142 5 15 18 16 113 12 69-4 117-11 137-21zm266-85c46-3 61-8 72-25 18-29 50-189 42-210-5-14-23-17-112-17-117 0-117 0-116 67 2 186 7 211 39 197 9-4 43-10 75-12zm895-9c6-10 13-41 17-70 10-76-17-133-80-163-33-16-50-19-57-12-14 14-33 170-25 203 5 20 17 28 64 41 32 8 61 16 65 17 4 0 11-7 16-16zm-631-218c1-134-1-174-13-190-14-19-15-19-32 5-34 49-53 264-28 323 13 33 19 38 43 35l28-3zm1364-2c1-71 3-179 5-242 4-128-2-147-63-205-28-26-41-32-50-24-7 6-13 16-13 23s-9 24-20 38c-28 35-28 140 0 182 23 35 26 65 6 65-30 0-40 31-37 108 1 42 6 83 11 92 7 13 130 84 153 89 4 0 8-56 8-126zm-241-23c14-27 24-112 17-142-4-16-24-34-55-51-26-14-56-35-67-47-22-25-42-26-49-2-13 46-28 161-24 192 2 29 8 35 33 40 17 4 40 12 50 18 33 19 83 15 95-8zm-345-201c0-137-3-180-14-193-9-10-18-13-24-7-5 5-11 83-14 173-6 172 1 213 35 206 15-3 17-22 17-179zm-946 63c18-44 21-556 3-574-8-8-39-13-85-13-69 0-72 1-86 29-9 19-17 85-21 180-4 83-13 167-19 186-12 39-15 179-3 196 9 14 35 19 128 22 70 2 72 2 83-26zm793-37c23-207 27-255 22-268-6-16-56-30-78-21-8 3-20 21-26 40s-18 38-26 42c-25 14-30 61-17 141 11 66 17 80 45 104 52 44 72 34 80-38zm493-188c-3-23-10-89-16-147-6-57-10-229-10-381 1-226-2-279-14-295-20-26-18-54 5-84 26-33 27-90 2-90-10 0-28 7-41 16-22 16-23 20-16 99 4 47 2 115-4 157-16 111-42 475-44 633l-2 140 25 1c14 0 39 8 55 17 29 15 31 15 47-4 13-15 16-32 13-62zm-1128-9c-2-13-4-5-4 17-1 22 1 32 4 23 2-10 2-28 0-40zm806-153c8-40 27-253 30-350 2-46 0-50-26-59-17-6-31-6-36 0-11 11-27 415-17 439 11 30 40 12 49-30zm560 20c10-24-3-96-21-121-17-24-58-42-69-31-3 3-8 35-10 70-6 74 2 82 88 96 4 1 9-6 12-14zm-689-41c8-20 9-411 2-423-3-5-30-23-59-39-69-40-137-105-137-130 0-16 8-23 34-27 19-4 42-2 53 3 10 6 41 12 69 14l49 3 6-125c4-69 3-128 0-132-4-5-26-1-49 9-31 12-44 23-48 42-26 120-53 136-69 40-5-34-8-37-46-42-22-3-43-8-46-11-10-10 18-35 52-46 38-12 51-44 35-85-5-14-10-42-10-61 0-31-4-37-35-50-33-13-35-17-30-47 8-44-5-59-59-67-55-8-53-12-59 130-3 79-8 107-34 165-28 64-31 82-37 221-7 150-7 150 16 162 13 6 37 14 54 17s62 26 100 51c52 34 74 43 94 39 47-10 53 10 54 183 2 192 11 216 77 221 9 0 20-6 23-15zm1201-115c0-40-3-45-31-54-17-6-38-16-47-23-9-8-24-12-34-10-15 3-9 12 28 49 26 26 50 56 54 68 11 36 30 18 30-30zm-318-31c-3-7-5-2-5 12s2 19 5 13c2-7 2-19 0-25zm-197-83c0-18 5-56 11-83 21-90-14-138-66-90-19 18-26 37-31 84-6 60-6 61 32 97 21 19 42 33 46 31 4-3 8-20 8-39zm535-107c4-46 5-107 3-137-3-53-5-56-48-82-25-15-50-28-57-28-22-2-33 36-39 136l-7 99 34 35c27 28 69 52 101 58 3 0 9-36 13-81zm-338 40c-3-8-6-5-6 6-1 11 2 17 5 13 3-3 4-12 1-19zm-1672-30c13-64 18-398 5-413-16-19-149-14-160 6-20 38-45 329-32 373 9 35 20 41 87 54 87 16 92 15 100-20zm1440-159c9-27-13-69-36-69-20 0-31 23-22 48 16 45 47 56 58 21zm283-55c8-32 16-80 19-106 4-42 3-48-14-48-10 0-29 7-41 16-27 19-30 69-5 96 14 16 15 23 5 38-13 22-16 53-5 64 15 15 28-4 41-60zm-753 24c2-13 6-61 7-108 3-81 2-85-19-88-12-2-24-10-27-17-6-16 19-45 39-45 28 0 34-73 8-102-9-10-28-18-43-18-32 0-35 10-50 172-14 157-13 185 10 208 28 28 68 26 75-2zm1055-188c0-62-3-74-25-95-31-32-38-31-69 6-36 42-34 80 3 97 15 7 39 23 52 36s27 24 32 25c4 1 7-31 7-69zm-1793-52c-2-13-4-3-4 22s2 35 4 23c2-13 2-33 0-45zm1523-69c0-5-9-9-20-9-19 0-27 20-13 33 7 8 33-11 33-24zm-552-55c29-20 29-67 0-94-37-34-55-26-62 29-10 78 11 101 62 65zm-1168-15c7-11 16-57 21-102s15-122 21-172c11-90 13-285 2-317-4-13-12-16-37-11-57 10-59 16-58 147 1 178-6 314-20 373-10 40-10 58-1 77 15 33 56 35 72 5zm196-207c1-226 1-229 28-285 29-62 34-127 15-203-16-62-33-57-26 7 4 33 2 59-6 73-26 46-39 636-14 636 1 0 2-103 3-228zm532 152c27-19 29-50 3-64-11-5-22-10-24-10-10 0-29 61-23 75 7 19 16 19 44-1zm948 2c19-15 19-15-1-30-17-12-22-13-34-1-14 13-9 45 7 45 4 0 17-6 28-14zm-190-102c9-37 1-57-35-81-45-31-67-29-86 7-19 38-19 75 1 110l17 28 49-21c33-13 50-27 54-43zm-510-25c7-14 9-44 5-74-5-40-10-51-27-53-41-6-86 86-63 130 7 13 17 26 22 30 17 10 51-7 63-33zm1020 20c29-24 26-209-3-209-7 0-25-7-38-16-30-20-43-12-51 32-5 26-2 40 11 54 16 18 16 21 1 44-16 26-22 97-9 110 9 9 74-2 89-15zm168-97c-4-23-10-42-15-42-11 0-12 83-2 94 14 14 23-13 17-52zm-396 10c15-20 16-176 1-219-12-36-106-94-118-74-10 15-6 265 4 281 11 17 66 39 84 33 9-3 22-13 29-21zm-573-9c14-13 16-28 12-70-7-64-12-73-41-73-33 0-46 20-48 75-2 39 2 51 21 66 29 23 35 24 56 2zm-415-94c0-23-28-25-36-4-4 8-3 22 0 31 5 13 9 14 21 4 8-7 15-21 15-31zm-350-10c0-19 4-20 39-14 47 8 117-9 125-31 3-9 6-37 6-64 0-46-2-50-43-76-23-16-52-42-62-59-21-30-117-95-143-95-25 0-11 118 21 181 18 34 30 76 34 116 3 35 10 63 14 63 5 0 9-9 9-21zm548-35c17-11 22-24 22-59 0-40-4-47-32-65-57-35-64-29-72 55-4 42-4 80 0 86 7 13 49 4 82-17zm532-38c0-57-11-116-21-116-5 0-14 12-22 26-12 22-15 24-26 10-10-12-18-13-39-5-34 13-39 23-34 58 3 22 15 34 60 58 67 36 82 30 82-31zm-741-5c16-10 30-76 31-143 0-39-3-48-17-48-46 1-68 54-42 102 8 15 8 27 0 44-10 23-6 54 8 54 3 0 12-4 20-9zm-3677-51c-4-35-49-89-80-96-103-23-204-82-286-168l-30-31-7 30c-11 47-10 65 2 65 6 0 29 16 50 35 22 19 46 35 55 35s32 14 51 30c18 17 43 30 54 30 25 0 57 16 89 45 30 27 81 54 95 50 6-1 9-13 7-25zm228-79c-23-33-53-64-68-70-70-28-165-90-188-124-19-29-31-37-54-37-49 0-69-18-63-57 5-29 1-39-31-71-21-20-44-51-53-70-9-18-25-38-37-44-29-16-45-39-46-67 0-23-1-23-72-17-40 4-77 11-82 16-17 17 5 60 43 84 21 14 49 40 62 58s48 59 78 90c30 32 60 71 67 88 15 34 64 67 114 76 80 14 162 49 201 86 21 20 39 42 39 47s10 13 23 17c12 4 35 17 50 30 52 44 60 28 17-35zm4674 23c13-34 5-79-20-116-15-21-31-38-35-38-5 0-9 29-9 65 0 52 4 69 20 85 24 24 36 25 44 4zm-798-26c-2-7-10-31-16-53s-17-61-25-86c-9-29-15-88-15-152 0-63-4-108-10-112-18-11-41 16-34 38 4 12 6 90 6 176 0 177 7 200 66 201 23 0 32-4 28-12zm202-10c18-18 14-73-6-91-25-23-32-13-32 43 0 59 12 74 38 48zm-2118-18c23-16-6-30-52-25-44 4-61 13-53 26 8 12 86 11 105-1zm1726-32c4-18 8-58 10-88 1-30 5-87 9-127 9-86 4-108-24-93-24 12-45 103-39 164 4 34 0 46-24 74-29 34-33 48-19 70 6 11 46 28 73 31 3 1 10-14 14-31zm-401-7c9-30 23-155 18-168-8-21-80-16-103 7-11 11-22 15-25 10-4-6-15-10-25-10-31 0-33-19-6-51 40-47 33-69-43-134l-55-47-18 24c-14 18-18 41-17 108 0 94 6 107 59 135 19 10 69 46 112 81s83 64 88 64 11-8 15-19zm-1235-45c41-9 98-21 125-26 28-5 68-16 90-24s48-15 57-16c22 0 38-30 38-72 0-54-10-59-59-37-24 10-50 19-57 19-8 0-25 6-37 14s-53 16-91 19c-68 5-71 4-99-26-32-34-51-36-101-10-15 8-53 21-83 29s-74 25-96 38c-56 32-158 66-200 66-34 0-64 21-54 37 3 4 115 7 249 7 187-1 260-5 318-18zm2393 1c2-7 3-43 2-81-2-66-4-70-41-102-46-39-60-42-67-11-8 33 0 151 11 155 5 1 24 14 42 27 38 28 46 30 53 12zm-989-8c15-7 26-23 30-41 9-47 7-138-3-138-17 0-23 20-11 35 19 23 4 48-24 41-19-5-25-1-30 17-11 43-6 97 10 97 2 0 14-5 28-11zm-4124-114c0-8-11-20-24-27s-81-75-150-150c-131-142-161-167-178-150-15 15 5 45 57 88 25 20 45 43 45 50 0 21 121 135 181 172 61 36 69 38 69 17zm3563-35-7-25-6 25c-8 28-2 46 11 33 5-5 5-20 2-33zm-179 14c9-23 7-114-4-154-26-102-45-160-52-160-4 0-10 21-13 48-4 26-11 71-16 101-11 63-12 165-2 174 14 14 81 7 87-9zm1360-53c-4-17-10-31-15-31-11 0-12 74-2 84 12 12 23-21 17-53zm-1178-53c-3-23-5-71-5-106s-3-71-6-81c-7-23-78-71-105-71-18 0-20 6-20 55 0 72 17 146 44 193 13 22 14 20 18-32 3-31 8-59 11-63 13-13 29 14 33 58 10 93 15 112 26 101 6-6 8-29 4-54zm422-113c2-93-1-125-12-140-23-31-33-9-46 96-10 86-9 100 7 133 10 23 23 36 33 34 12-3 15-24 18-123zm752 62c0-10-4-15-10-12-5 3-10 18-10 33 0 21 2 24 10 12 5-8 10-23 10-33zm574-27c-1-30-8-89-16-130l-15-75-7 122c-8 127-5 146 22 141 14-3 17-15 16-58zm-1148 28c7-5 15-25 19-44 5-27 2-41-12-56-24-27-71-50-84-42-11 6-7 133 5 152 6 10 55 4 72-10zm-1168-21c2-10-3-17-11-17-16 0-30 24-19 34 10 10 27 1 30-17zm1449-62c21-9 41-21 45-28s8-49 8-94c0-90-8-103-64-103-15 0-31-8-38-20-23-36-36-22-48 51-16 93-9 178 15 195 24 18 37 17 82-1zm669-11c7-26 0-111-9-121-3-3-12 0-19 6s-26 21-42 34c-26 21-28 27-19 53 9 27 43 54 70 54 7 0 16-12 19-26zm-1286-118c0-40-6-91-14-112-14-42-11-64 10-77 22-13 17-81-6-102-11-10-23-15-28-11-4 4-12 58-19 119-6 62-14 128-18 148-6 31-3 41 25 72 18 21 36 37 41 37s9-33 9-74zm384-32c3-9 6-29 6-45 0-26-6-32-45-49-47-20-70-18-79 6-9 23 10 50 52 79 43 29 58 31 66 9zm885-47c21-18 7-102-24-143-43-57-53-44-56 71-2 102-4 98 34 90 17-4 38-12 46-18zm-1534-24c4-10 11-85 15-168 4-82 11-160 15-173 14-43-55-134-76-100-5 7-9 49-9 94 0 55-5 86-15 100-8 10-15 30-15 44s-9 42-20 62c-10 20-22 59-26 87l-7 51h29c16 0 36 5 44 10 24 15 57 12 65-7zm624-129c8-7-12-24-30-24-13 0-19 7-19 21 0 16 4 19 23 13 12-3 24-8 26-10zm80-98c33-67 41-182 15-213-11-12-31-25-46-29-24-5-28-3-33 23-3 15-15 51-25 78-10 28-22 68-26 89-7 37-5 42 32 73 21 18 44 31 49 30 6-2 21-25 34-51zm-2260-16c51-5 98-13 104-19 10-10-43-67-109-119-12-9-38-30-58-46-34-27-41-28-161-32-108-4-126-3-131 11-8 20 45 77 103 112 24 14 53 39 65 56 37 53 33 52 187 37zm2501-35c10-12 9-20-4-40-24-36-46-32-46 8 0 48 24 64 50 32zm588-57c18-18 16-179-2-204-10-12-18-16-24-9-11 11-24 209-15 219 10 10 28 7 41-6zm-2038-119c0-33-2-59-5-59s-24 9-46 21c-31 15-50 19-84 14-64-10-85 0-85 39 0 19 6 38 13 44 16 14 177 20 195 8 7-5 12-32 12-67zm1476-78c-4-80-9-184-13-230-6-83-6-84-21-56-11 22-13 48-8 113 3 46 2 100-3 120-5 21-11 71-13 111-3 71-2 76 21 87 14 7 29 10 34 7s7-66 3-152zm-1309 102c-3-10-5-4-5 12 0 17 2 24 5 18 2-7 2-21 0-30zm651-34 3-44-21 21c-16 16-20 27-14 48 10 40 29 26 32-25zm-68-29c0-5-4-10-10-10-5 0-10 5-10 10 0 6 5 10 10 10 6 0 10-4 10-10zm-2591-138c-35-37-78-85-95-106-30-39-30-39-86-32-31 4-63 13-73 20-16 11-13 17 25 62 52 60 67 69 85 54 12-10 20-8 41 6 57 40 149 83 158 74 6-6-15-36-55-78zm3073-52c3-119 2-125-17-125-15 0-21 8-23 30-1 17-7 48-12 70s-12 61-15 87c-6 44-4 48 22 62 15 8 31 11 35 8 3-4 8-63 10-132zm-1231-26c18-243 28-347 38-418 13-96 11-100-62-93-33 3-66 12-74 19-20 21-48 302-48 493v59l42 9c33 6 46 15 63 44 11 19 23 34 25 31 3-2 10-67 16-144zm1701-29c-2-22-9-48-14-58-30-58-39 78-10 164l17 54 6-60c4-33 4-78 1-100zm-1136 127c6-4 14-20 16-37 3-16 13-67 23-113 14-66 15-91 6-126-6-25-11-71-11-103 0-61-19-103-45-103-8 0-17 11-20 25s-7 36-10 50c-6 30 10 65 30 65 10 0 15 10 15 31 0 44-17 69-46 69-33 0-44 32-44 123 0 96 6 115 39 120 14 2 28 5 31 5 3 1 10-2 16-6zm-352-106c8-52-13-152-25-120-9 23-11 136-3 158 10 25 21 10 28-38zm2210-22c22-83 21-125-3-131-11-3-22-11-25-19s-11-14-17-14c-9 0-10 28-6 103 8 155 21 171 51 61zm-732-226c3-21 16-31 51-42 33-10 12-126-23-126-12 0-30 58-30 99 0 20-7 45-15 55-8 11-15 29-15 39 0 16 3 17 14 7 8-6 16-21 18-32zm-2025-5c-3-10-5-4-5 12 0 17 2 24 5 18 2-7 2-21 0-30zm2360-156c-8-19-20-38-26-41-9-6 10 51 26 77 13 21 13-5 0-36zm-1058-115c-14-26-14-25-17 32-4 80 8 106 21 43 7-37 6-55-4-75zm790-79c0-27-9-73-19-103l-19-55v83c-1 80 9 122 29 122 6 0 10-21 9-47zm217-41c-12-11-18 7-10 30l8 23 4-23c2-13 1-26-2-30zm-1918-44c16-16 16-123 0-136-7-5-44-9-83-8l-70 1-3 54c-6 96-2 101 76 101 40 0 73-5 80-12zm702-154c0-51-13-57-29-13-7 21-7 37 0 50 15 30 29 13 29-37zm608 14c18-18 14-67-7-94-17-21-20-22-31-8-16 18-15 81 1 100 14 17 22 17 37 2zm-864-134c11-4 16-18 16-43-1-44-25-138-32-125-3 5-9 46-13 92-7 83-5 89 29 76zm862-206c-13-95-46-117-46-31 0 29 6 53 17 65 28 31 36 21 29-34zm-282-194c3-9 6-42 6-73 0-52-2-59-25-69-49-22-55-17-55 48 0 51 4 65 25 85 28 29 40 31 49 9zm-734-69c27-33-2-126-57-183l-22-24-6 35c-7 34 9 134 27 170 11 21 41 22 58 2zm-3595-106c38-5 85-6 104-3 26 5 50-1 110-29 42-19 96-41 121-47 25-7 55-16 68-21s37-9 54-9c18 0 42-10 60-25 16-14 37-25 47-25 9 0 21-4 27-9 5-5 50-26 99-46 119-49 175-77 175-87 0-5 19-18 43-29 23-11 60-30 82-42 22-13 45-24 50-25 30-7 45-14 45-23 0-11-52-4-120 16-25 7-70 19-100 26-52 11-67 16-152 53-20 9-46 16-57 16-12 0-52 14-89 31-163 77-221 103-282 126-73 28-203 63-238 63-12 0-30 4-40 9-9 6-46 24-82 41-77 38-74 36-65 50 5 8 19 10 39 5 17-3 62-11 101-16zm4225-8c0-6-10-27-22-48l-23-38-3 33c-2 18 2 40 9 48 13 16 39 19 39 5zm-1263-608-2-38 70-22c39-13 79-27 90-32s48-19 83-30c73-25 150-60 158-72 3-5 13-9 23-9s34-11 54-24c19-13 38-22 41-18 3 3 6-2 6-11 0-18-38-24-56-9-17 15-78 30-144 37-81 9-173 29-270 60-41 13-88 27-105 29-52 9-119 24-140 31-52 19-105 48-105 59 0 27 172 83 262 85 37 1 37 1 35-36zm-362-32c10-17-11-21-31-6-18 14-18 14 3 15 12 0 24-4 28-9z"/><path d="m10636 17231c-12-20 8-41 48-51 22-6 49-15 59-21 10-5 38-7 63-4 36 4 55 0 105-26 64-32 102-35 107-8 3 19-54 56-139 90-58 23-232 38-243 20z"/><path d="m11663 15623c-14-2-23-12-23-23 0-18 35-30 140-46 24-3 61-15 81-26 65-34 139-24 185 23 39 41 21 52-71 45-43-4-102 0-155 10-118 21-132 23-157 17z"/><path d="m15900 15353c-29-4-187-71-210-88-8-7-44-28-80-47-194-103-263-147-280-178-14-26-12-40 5-40 20 0 201 86 209 99 4 5 19 12 35 16 16 3 35 13 42 21 6 8 18 14 26 14s27 8 41 19c15 10 50 26 77 36 28 10 62 30 78 44 15 14 42 30 60 36 22 7 33 17 35 34 4 29-6 38-38 34z"/><path d="m11726 24743c-3-3-6-33-6-65v-59l65-65c56-54 95-81 212-143 39-21 112-40 188-50 73-9 129-6 274 13 32 4 84-17 121-50 9-7 41-16 73-20 65-8 113 9 161 58 46 45 142 88 215 94 21 2 43 12 59 29 13 14 35 30 48 35 20 8 24 16 24 50 0 32-4 40-18 40-10 0-22-4-27-9-16-14-105-39-178-50-39-6-88-21-115-37-63-35-199-84-217-78-22 9-27 34-7 40 97 32 191 83 206 115 7 13 20 39 29 57 28 55 17 110-16 84-7-5-37-17-67-27s-64-24-75-30c-11-7-67-23-124-35-95-20-112-20-215-10-134 14-149 16-205 25-32 6-45 4-52-6-18-29-9-54 24-71 102-52 142-68 197-79 33-6 67-17 77-24 15-11 14-14-16-29-45-24-190-25-206-2-7 9-19 16-27 16s-17 3-21 6c-3 4-36 17-74 30-42 15-80 36-100 56-17 18-46 47-63 63-18 17-42 46-55 65-23 36-77 74-89 63z"/><path d="m14695 24582c-6-5-28-14-50-20-22-7-70-36-107-64-110-87-219-149-310-178-35-11-69-20-76-20-8 0-50-16-93-35-57-25-95-35-132-35-29 0-90-12-136-25-47-14-105-25-129-25s-56-6-70-14c-55-29-101-46-124-46-13 0-49-12-79-27l-54-26 90-14c70-10 101-11 139-2 26 6 70 9 97 6 26-3 63-1 81 4 46 14 156 31 195 30 20-1 52 11 84 30 28 17 85 43 127 56s88 32 102 41c31 20 51 31 165 90 50 25 109 63 132 83 24 20 57 39 73 43 17 3 42 17 56 31s28 25 33 25c12 0 31 47 31 75 0 25-25 34-45 17z"/><path d="m14060 24540c-36-10-92-22-125-26-33-3-107-22-165-41s-125-38-150-43-70-14-101-20c-32-7-66-20-78-31-11-10-25-19-31-19-14 0-13-47 3-53 6-2 26 0 42 5 17 5 87 11 158 13 119 2 133 5 205 36 42 18 84 38 92 44 27 21 131 55 167 55 51 0 140 28 147 47 4 9-1 24-10 34-22 24-68 24-154-1z"/><path d="m13300 24060c0-5 7-10 16-10 8 0 12 5 9 10-3 6-10 10-16 10-5 0-9-4-9-10z"/><path d="m13519 23896c-65-18-153-69-158-91-5-27 25-46 56-34 33 12 80 11 89-2 4-8 22-9 53-4 25 4 57 8 71 10 98 14 170 52 170 89 0 16-4 17-111 35-81 13-111 13-170-3z"/><path d="m13065 23850c-27-4-70-12-95-18-25-7-89-19-143-28s-104-23-112-30c-7-8-25-18-40-24-21-8-26-16-23-38 2-22 8-27 33-29 17-1 67-6 111-12 45-5 98-6 118-1 46 10 123 55 136 79 6 12 30 24 62 31 47 11 78 31 78 50 0 9-48 30-63 29-7-1-34-5-62-9z"/><path d="m10812 23801c-20-12-20-81 0-92 10-5 23-15 30-23 8-7 30-18 51-25 20-7 39-16 42-20 2-5 29-21 59-36 51-26 57-27 79-12 29 19 56 92 39 109-6 6-26 11-44 11-40-1-176 33-194 48-7 6-16 19-19 30-7 20-22 24-43 10z"/><path d="m11798 23703c-10-3-18-13-18-23 0-20 50-40 100-40 14 0 35-6 46-14s49-15 85-17c50-1 77 4 124 24 92 40 87 55-22 63-101 7-296 11-315 7z"/><path d="m10812 23114c-39-27-16-89 25-66 12 7 25 6 43-3 14-7 46-16 71-20 37-6 47-4 52 9 7 17 72 23 81 7 8-12 130-24 156-16 15 5 20 14 18 28-3 20-10 22-73 25-43 2-86 10-113 22-35 17-46 18-62 8s-25-9-49 5c-37 21-119 22-149 1z"/><path d="m11845 23101c-32-7-40-29-15-41 68-34 87-37 180-31s95 7 95 31c0 23-5 26-58 34-45 7-62 5-81-7-21-14-26-14-55 4-17 10-32 18-34 18-1-1-15-4-32-8z"/><path d="m13435 22795c-126-42-148-45-267-46-72 0-144-6-177-15-38-9-102-13-205-12-91 1-165-3-186-10-19-6-57-19-85-28-27-9-63-17-80-19-16-1-36-3-42-3-19-3-16-38 4-57 15-15 33-17 142-12 69 3 155 9 191 12 36 4 110 1 165-5 93-11 104-10 160 10 44 16 93 23 188 27 70 3 130 10 133 14 3 5 14 9 24 9s31 16 46 35c14 19 32 35 39 35s18 6 24 14c10 12 9 20-4 40-20 29-16 29-70 11z"/><path d="m13990 22721c-19-4-45-13-57-19-12-7-32-12-44-12s-30-6-38-14c-18-16-132-58-236-87-38-11-78-24-87-29-10-6-27-10-37-10-11 0-22-4-25-9-6-10-97-28-176-35-30-3-100-12-155-21-55-8-121-18-146-20-50-5-116-21-219-54-45-14-92-21-153-21-68 0-106-6-163-25-76-25-144-28-259-10-22 3-53 2-70-3-24-7-30-14-30-38 0-28 1-29 43-25 24 1 83-3 133-10 77-10 99-10 162 4 83 19 125 25 257 37 52 4 130 17 172 28 42 12 105 24 140 28s72 11 83 17c22 11 226 37 295 37 37 0 143 12 220 24 8 2 38 7 65 11 69 11 144 38 221 80 36 19 72 35 79 35 15 0 115 82 127 104 22 40-16 54-102 37z"/><path d="m14105 22524c-378-136-400-143-443-137-69 9-263-44-340-93-21-14-21-16-7-44 18-35 15-34 51-15 16 8 38 15 49 15s54 7 95 16 93 13 115 10c30-3 57 3 111 25 40 17 113 38 162 48 57 12 114 31 154 53 34 19 82 40 105 46 44 13 93 66 77 82-21 20-63 18-129-6z"/><path d="m10777 22503c-19-19-5-59 28-82 32-21 168-67 225-76 14-2 50-12 80-23 128-46 171-56 181-41 16 25 10 58-13 73-13 8-57 26-99 40-42 13-85 29-95 35-21 12-101 34-204 57-36 8-72 17-81 19-8 3-18 2-22-2z"/><path d="m13880 22185c-36-25-72-45-80-45-9 0-20-4-25-8-20-18-162-60-240-72-44-6-107-23-141-36-33-13-67-24-75-24-20 0-39-20-39-41 0-27 58-47 140-50 88-2 146 17 200 66 22 21 53 36 85 43 176 39 191 44 220 73 17 16 36 29 41 29 6 0 21 11 34 25 20 21 22 30 14 53-16 45-57 41-134-13z"/><path d="m12988 22104c-3-3-109-9-234-14-126-6-258-15-293-21-47-9-80-9-130-1-138 24-304 22-349-4-1-1 3-14 10-29 12-27 14-27 76-21 51 5 82 2 159-19 52-15 102-24 110-21s29 0 47-8c34-14 78-12 376 16 128 13 164 22 250 67 8 5 16 20 18 35 3 20-1 26-16 26-10 0-21-3-24-6z"/><path d="m10783 22036c-4-11-7-33-5-47 2-21 7-25 27-21 13 2 47-5 77-16 130-49 202-66 376-92 61-8 81-7 123 6 48 16 79 44 79 72 0 11-16 12-77 7-76-7-110-2-263 36-74 18-144 41-166 56-12 8-53 15-92 17-64 4-71 2-79-18z"/><path d="m10897 21633c-27-26 32-144 78-158 11-3 36-10 55-15s62-16 96-24c33-9 72-16 87-16 29 0 174-45 192-60 6-5 48-12 93-16 65-5 89-4 115 9 68 33 114 40 194 32 136-15 233-12 246 6 7 9 36 29 65 44 28 15 52 31 52 36v17c0 9-18 11-155 14-98 3-117 6-164 31-46 23-64 27-141 27-56 0-98-5-115-14-55-29-117-29-196-2-49 16-96 25-139 25-36 0-77 4-91 9-14 6-63 14-108 18-56 4-89 12-105 25-25 19-48 24-59 12z"/><path d="m14580 21342c0-86 95-262 175-325 72-57 167-151 182-181 9-17 28-45 44-63 15-17 33-48 40-68 21-56 43-43 47 29 2 47-1 63-16 80-11 11-25 32-32 46-21 40-104 140-116 140-7 0-29 17-50 38-22 21-60 51-85 65-25 15-54 37-66 49-23 27-93 153-93 171 0 7-7 21-15 31-14 19-15 18-15-12z"/><path d="m14731 21325c2-10 28-33 58-50 63-37 132-110 198-210 26-38 64-88 86-109 21-22 44-51 52-65 7-14 32-41 55-59 22-19 53-53 68-76 40-63 126-136 152-129s51-15 101-90c46-68 48-86 14-115-22-19-24-27-19-74 3-29 10-78 16-108 5-30 13-100 18-155 12-143-8-175-114-186-35-3-88-19-124-36-52-24-67-37-80-67-19-42-57-62-148-76-28-4-61-13-72-19s-30-11-42-11c-46 0-105-99-67-113 6-2 28 4 49 14 45 23 104 38 183 48 88 11 128 38 144 97 10 39 43 54 120 54 57 0 73 5 130 39 37 21 85 59 108 82 68 71 111 109 138 121 22 10 29 8 51-13 21-20 27-21 34-9 5 8 10 25 10 37s5 34 10 48c13 33-6 150-29 181-9 12-23 32-31 45s-33 43-56 68c-77 87-214 264-214 278 0 4-14 23-31 41-24 26-38 32-70 32-27 0-39 4-39 14 0 8-8 17-19 21-20 6-86 81-115 130-10 17-41 46-69 65-53 36-121 116-158 185-12 22-24 42-28 45-3 3-19 22-34 42-34 46-116 88-186 95-48 5-53 4-50-12zm990-1097c21-43 39-84 39-91 0-15-63-38-77-28-11 7-35 86-54 176-7 33-16 64-21 70-4 5-8 13-8 18 0 26 87-79 121-145z"/><path d="m14167 21295c-16-40 124-227 199-266 17-9 44-37 60-63s43-68 60-94 47-80 68-120c38-76 121-182 144-182 7 0 17 12 22 26 11 27 4 74-11 74-5 0-17 17-26 38-10 20-25 48-34 62s-40 71-69 127c-40 78-67 116-114 161-33 32-103 102-154 155-93 96-132 118-145 82z"/><path d="m13298 21205c-9-21-9-30 0-43 7-9 15-24 18-32s21-46 39-85c18-38 36-82 39-96 6-27 90-148 113-162 7-4 25-29 40-55s42-68 60-93c18-26 33-50 33-54 0-5 20-38 44-74s65-99 90-139c34-52 62-82 99-106 57-37 83-63 115-116 11-19 39-53 61-74 28-27 45-56 56-91 8-29 23-63 33-76 11-13 24-40 31-59 6-19 21-46 33-60 42-46 94-115 114-148 21-37 57-51 85-33 31 19 43 13 69-37 28-52 73-82 99-65 19 12 26 49 13 66-5 7-15 30-22 52-12 35-40 78-111 166-11 14-24 41-28 60-5 19-18 69-30 111-11 43-21 89-21 102 0 14-9 41-21 60-16 27-29 37-57 41-81 13-84 17-121 161-11 41-33 60-53 48-6-4-7-31-3-70 4-35 4-64 1-64-10 0-58 31-94 62-18 15-39 28-47 28-13 0-25 17-69 100-8 14-33 66-57 115-48 101-110 201-166 268-90 107-105 130-119 176-8 28-25 63-38 78-12 15-29 42-36 59-17 39-91 89-149 100-26 6-32 3-43-21zm967-1109c45-35 100-196 67-196-10 0-32 44-32 62 0 13-66 114-80 123s-12 35 2 35c6 0 25-11 43-24z"/><path d="m13850 21173c0-31 37-75 82-97 13-6 42-41 64-76 23-36 54-80 69-98s40-56 55-85 41-74 59-101c17-28 31-58 31-67s14-32 31-50c16-18 37-48 45-68s26-47 39-61 30-43 37-65c9-29 19-40 33-40 42 0 16 109-51 209-25 39-49 89-53 113-5 24-20 60-33 81-24 35-87 148-132 238-25 49-94 134-109 134-6 0-18 7-28 16s-38 20-61 25c-24 4-51 11-60 14-15 6-18 2-18-22z"/><path d="m13633 21164c-9-25 43-124 99-184 27-30 57-68 65-85 9-16 30-44 47-60 50-49 100-110 118-144 22-40 52-39 56 2 4 36-40 113-80 137-38 23-93 94-155 201-26 45-65 96-88 115-48 39-53 40-62 18z"/><path d="m15608 20854c-16-15-7-36 30-73 67-70 142-182 142-214 0-8 7-20 15-27s15-20 15-30 20-59 45-110c53-106 69-112 97-35 10 28 18 57 18 66 0 26-37 103-59 123-11 10-27 38-35 63-20 58-77 138-128 179-7 5-20 20-28 33-11 16-28 24-60 28-25 3-48 1-52-3z"/><path d="m11415 20698c-11-6-24-17-28-25-4-7-14-13-21-13-15 0-55-44-79-87-22-40-44-123-57-214-5-37-17-87-26-111-8-24-22-74-30-113-8-38-18-90-23-115s-7-90-4-145c8-136 5-201-10-260l-12-50-55 1c-113 3-296 37-365 68-42 19-159 40-179 33-33-13-18-45 30-67 26-11 52-20 58-20s22-6 36-13c49-26 137-52 315-93 39-9 88-21 110-28l40-11v-98c1-54-3-137-8-185-5-57-5-99 2-123 10-32 16-37 47-41 25-3 38 0 43 11 5 9 11 70 14 136 3 70 12 137 21 160 8 22 15 56 16 76 0 26 5 39 17 44 18 6 186-9 278-25 28-5 91-12 140-15 130-8 202-14 270-25 78-11 163-19 305-25 63-3 140-12 170-19 95-24 279-40 445-40 178 0 230 10 245 50 6 14 25 30 50 40 48 19 65 58 35 81-29 20-54 16-127-21-80-41-164-55-304-51-137 5-125 4-264 22-69 9-181 18-250 19-69 2-154 7-190 13-72 12-102 16-241 31-54 5-146 19-205 31-60 11-156 25-214 31-58 5-111 15-118 22-10 10-10 37-2 131 8 88 7 139-2 198-9 61-9 85 1 112 6 19 9 49 6 67-4 23 8 80 40 193 82 287 85 300 75 333-7 25-4 41 16 79 33 66 31 75-11 51z"/><path d="m15180 20517c0-2 13-30 29-63 16-32 34-77 41-99 16-51 28-80 79-186 22-47 41-90 41-96 0-19 29-23 65-7 19 8 35 21 35 29 0 18-19 63-41 95-9 14-20 36-23 50-10 35-39 90-48 90-3 0-25 33-47 73-54 95-74 117-105 117-14 0-26-2-26-3z"/><path d="m14580 20420c0-5 11-26 25-46s25-47 25-60c0-12 4-26 10-29 5-3 19-37 31-76 12-38 27-76 35-84 8-7 14-18 14-23 0-12 98-108 136-133 16-10 39-19 52-19 41 0 21 31-40 64-46 25-63 42-93 94-20 34-39 81-42 105-9 66-76 180-118 200-19 9-35 12-35 7z"/><path d="m14913 20365c-16-42 5-126 56-229 29-57 58-109 64-114 7-5 28-9 49-9 51-1 53 22 9 90-54 84-73 118-92 164-22 54-58 113-70 113-5 0-12-7-16-15z"/><path d="m14635 20150c-14-15-16-28-11-62 4-24 11-65 16-93 17-106 39-152 66-140 11 4 26 9 34 9 24 2 25 64 2 90-11 11-34 65-52 119-17 53-33 97-34 97-2 0-11-9-21-20z"/><path d="m9207 20095c-15-14-27-28-27-31 0-17 43-63 67-72 16-5 37-14 48-18s32-9 48-11c15-1 46-12 69-24 58-30 225-89 250-89 12 0 66-15 122-34 199-66 339-95 392-82 53 14 14 86-45 86-26 0-75 14-127 36-18 7-49 16-70 19-22 4-60 15-86 26-25 10-78 23-117 29-38 5-85 16-103 24-18 7-59 22-92 32-32 10-69 26-81 36-13 10-29 18-37 18-25 0-96 29-133 55-21 14-41 25-44 25s-19-11-34-25z"/><path d="m15753 19747c-18-28-29-84-22-117 13-59 33-260 34-345 2-80 17-211 35-314 6-30 10-76 10-102 0-52 11-62 60-53 57 12 87 85 76 186-3 35-11 117-16 183-6 66-20 150-30 187-11 36-24 92-29 125-26 165-88 296-118 250z"/><path d="m11462 18772c-13-4-23-10-23-14 1-5 1-12 1-17 0-17 136-52 275-71 167-23 248-39 255-50 5-8 111-54 165-71 17-6 74-14 128-19s124-17 156-26c41-11 77-14 122-10 110 11 132 9 194-14 59-22 61-22 115-5 77 24 85 29 85 56 0 31-41 37-100 15-50-19-80-12-119 31-22 23-33 27-71 25-25-1-55-7-66-13-26-14-79-4-110 20-53 40-148 52-220 27-58-21-82-20-121 4-18 11-42 20-53 20s-30 6-41 14c-30 21-101 38-182 42-41 2-82 9-92 14s-49 12-86 15c-61 4-98 11-169 28-11 3-30 2-43-1z"/><path d="m13158 18529c-10-5-47-12-83-16-36-3-68-11-72-16-9-15 45-57 74-57s97 17 131 33c26 12 29 35 5 53-21 16-32 17-55 3z"/><path d="m12120 18382c0-10 6-25 13-33 19-24 86-59 112-59 14 0 48-11 77-24s70-27 91-31c20-3 60-17 88-32 47-23 129-39 235-46 28-1 39 2 41 13 6 32-295 160-377 160-20 0-40 4-45 9-16 14-174 61-206 61-21 0-29-5-29-18z"/><path d="m13603 18323c-20-7-15-31 10-46 26-17 142-16 159 1 18 18-1 30-60 37-31 3-66 8-77 9-11 2-26 2-32-1z"/><path d="m13238 18084c-11-3-18-15-18-28 0-25 19-35 135-77 72-26 211-49 249-42 15 3 30 12 33 20 11 28-33 51-167 87-141 37-203 48-232 40z"/><path d="m12663 17807c5-15 37-22 37-9 0 5-9 12-21 15-13 3-19 1-16-6z"/><path d="m12891 17611c-13-8-13-12 0-27 27-33 82-48 199-55 126-7 157-14 318-64 17-6 21-4 17 7-7 17-96 63-197 102-99 39-299 61-337 37z"/><path d="m12480 17486c0-36 35-52 175-79 209-40 375-57 478-48 35 3 15 28-35 45-59 19-247 48-260 40-4-3-23-1-41 5-45 14-180 38-254 46-54 6-63 5-63-9z"/><path d="m9092 17443c-35-7-25-44 17-64 19-9 80-22 135-29 56-6 115-16 133-22 17-5 44-11 60-14 15-2 45-11 65-19 63-24 170-38 179-23 18 28 9 58-23 78-46 27-162 61-203 58-19-1-37 1-40 4-4 3-22 2-41-4-26-7-57-4-127 11-131 29-130 29-155 24z"/><path d="m8727 17193c-4-3-7-19-7-35 0-34 28-48 99-48 26 0 51-4 57-9 16-16 176-53 268-62 96-10 106-7 106 39 0 26-18 35-105 51-33 7-87 21-120 32s-76 24-95 29c-40 11-193 13-203 3z"/><path d="m12307 17063c-12-11-8-70 6-81 22-19 155-60 214-67 32-4 76-13 98-20 42-14 78-19 260-37 112-11 191-12 206-2 5 3 9 14 9 25 0 14-7 19-25 19-14 0-37 7-50 16s-53 18-87 21c-35 2-99 15-143 28s-107 29-140 35-107 25-165 41c-101 28-169 36-183 22z"/><path d="m15407 16917c-41-35-49-67-17-67 23 0 100 66 100 86 0 24-44 14-83-19z"/><path d="m8880 16900c-56-12-87-27-94-46-17-45 44-50 276-24 92 11 138 23 138 39 0 11-29 23-40 16-4-2-47 2-96 10-96 16-130 17-184 5z"/><path d="m13760 16896c0-7 12-16 28-19 15-3 37-8 49-12 27-9 45 21 22 36s-99 11-99-5z"/><path d="m14546 16774c-11-29-6-35 27-32 24 2 33 8 35 26 3 18-1 22-26 22-18 0-32-6-36-16z"/><path d="m12958 16603c-25-6-31-35-11-53 10-9 43-27 73-39 30-13 69-29 85-37 30-13 136-20 430-27 107-3 149-7 174-20 19-9 44-17 57-17 12 0 35-5 50-10 18-7 36-8 53-1 14 5 38 12 53 15 34 8 53 39 39 65-8 15-20 18-59 16-27-1-54-5-60-9-5-3-23-2-38 3-89 26-150 34-266 33-120-2-130 0-180 26-47 24-63 27-166 29-62 0-126 6-140 11-37 14-74 20-94 15z"/><path d="m8863 16513c-54-10-5-38 72-42 28-1 85-6 127-12 56-7 83-7 99 1 27 15 17 23-46 42-47 14-203 21-252 11z"/><path d="m8993 16268c-9-10-7-21 9-46 23-37 84-58 186-64 72-5 89 6 75 48-7 21-21 31-63 45-78 25-193 35-207 17z"/><path d="m13393 16233c-13-3-23-9-23-14 0-37 81-54 330-68 147-9 190-5 190 18 0 20-34 34-88 37-31 1-70 5-87 7-98 13-293 25-322 20z"/><path d="m12776 16204c-9-25-7-72 4-79 6-4 10 13 10 44 0 53-4 62-14 35z"/><path d="m12902 15885c-16-12-22-25-20-43 4-32 33-41 163-47 315-14 361-19 530-50 119-23 129-24 207-26 85-2 118 16 118 64s-12 54-93 50c-41-3-110 2-162 11-271 48-300 51-346 27-41-22-103-28-113-12-6 9-43 17-111 25-142 17-150 17-173 1z"/><path d="m8840 15653c-41-5-50-16-50-61 0-28 5-35 35-48 48-20 157-44 224-50 31-3 90-9 132-14 100-12 190-5 206 17 12 16 8 60-7 76-4 5-48 10-99 13-118 5-261 28-333 54-32 11-61 19-65 18-5 0-24-3-43-5z"/><path d="m8810 15173c-30-3-60-9-67-15-14-11-17-56-5-74 4-7 66-14 155-18 88-3 187-15 245-27 121-26 189-29 202-9 14 22 12 76-2 88-7 5-47 15-88 21s-111 17-155 26c-75 14-160 16-285 8z"/><path d="m8719 14846c-6-13-9-32-6-40 9-24 105-73 156-81 25-3 78-15 116-25 92-25 259-48 313-42 49 5 65 25 60 75-3 30-6 32-43 34-66 2-336 53-397 74-31 11-86 22-122 25-63 5-66 5-77-20z"/><path d="m11784 13939c-16-18-16-20 2-41 28-33 36-38 70-38 16 0 34-4 40-9 11-10 123-33 133-26 4 2 32-2 62-10 30-7 83-16 119-20 36-3 102-13 147-22 97-18 130-13 139 23 12 48-15 60-196 89-91 14-187 32-215 40-44 13-124 22-247 30-26 1-43-4-54-16z"/><path d="m9767 13894c-3-3-53-6-110-5-100 2-104 1-116-23-29-53 16-86 127-93 74-5 83-4 131 23 72 41 78 73 19 93-36 13-42 13-51 5z"/><path d="m11821 13594c-31-39-24-57 26-68 24-6 43-16 46-25 2-9 0-70-4-136-5-66-8-199-7-295 3-178-5-220-37-220-17 0-28-33-20-60 3-11 19-28 34-39 19-14 30-33 35-58 3-21 12-50 19-64 21-38 27-72 33-168 3-47 7-99 8-114 4-31 42-77 63-77 25 0 72 30 78 50 7 23 63 28 83 8 16-16 15-80-2-103-12-17-11-22 13-45 14-14 34-40 43-58 20-38 40-40 83-8l32 25 104-53c134-68 224-91 324-81 41 4 75 10 75 14s-15 21-33 39c-25 24-58 39-137 62-151 44-238 63-293 64-56 1-62 8-71 87-8 80 0 85 111 64 152-28 251-28 448 0 11 1 32 3 48 4 31 1 39 31 8 31-10 0-42 11-70 24-35 16-61 22-84 18-17-3-82-6-144-5-86 0-118 4-137 16-24 16-25 18-10 54 11 26 14 52 9 88-3 29-1 63 5 79 12 31-1 31 160 0 47-9 108-18 136-19s70-6 93-10c24-4 94-1 157 6 126 14 143 27 81 64-53 32-65 35-196 45-69 6-146 17-171 25-66 20-231 49-390 68l-105 13-3 83c-2 48 2 89 7 94 6 6 57 11 113 12 57 1 145 3 196 4 82 1 92 3 92 19 0 11-8 26-17 34-47 41-89 50-303 64-41 3-106 12-145 20-38 8-92 14-120 14-27 0-56 4-63 9-16 10-51 152-59 238-7 78 3 84 96 56 36-12 89-24 118-27 63-8 263-9 270-2 12 12-8 53-31 64-27 12-98 26-221 42-43 6-109 19-145 29-36 11-97 22-136 26-69 7-72 6-93-21zm300-545c26-13 39-151 19-190-8-14-21-19-54-19-51 0-52 3-62 116-8 91 4 118 49 108 18-3 39-10 48-15zm23-371c18-30 29-221 13-242-10-13-16-13-44-1s-32 20-38 62c-3 26-10 67-15 90-20 84-9 113 42 113 18 0 33-8 42-22zm231 9c56-15 54-10 70-183l7-81-27-5c-14-3-46-3-71 0-55 6-57 11-74 144-18 138-8 151 95 125z"/><path d="m13116 13447c-10-7-15-19-11-29 8-21 35-32 49-18 5 5 36 10 69 10 42 0 58 3 55 13-10 30-129 48-162 24z"/><path d="m12853 13043c-3-8 3-24 15-35 25-26 55-17 50 14-4 27-56 45-65 21z"/><path d="m9336 12922c-2-4-1-14 5-22 7-12 9-10 9 8 0 23-5 28-14 14z"/><path d="m11635 12553c-10-26-19-206-12-235 11-42 90-65 102-30 3 11 1 49-4 85s-7 83-4 104c4 29 0 44-17 66-24 31-55 35-65 10z"/><path d="m9571 11863c-8-18-6-30 9-56 19-32 26-35 137-60 65-15 130-27 145-27 16 0 54-8 85-19 173-57 349-95 401-89 67 9 97 29 100 66 4 45-12 62-60 62-21 0-50 7-63 16s-29 13-34 9c-6-3-23 1-38 8-15 8-53 18-83 22-85 11-276 52-297 64-11 5-30 7-41 4-12-3-43 0-70 7-26 7-77 13-114 15-61 2-67 0-77-22z"/><path d="m9993 10817c-26-11-31-42-9-50 20-8 50 28 39 46-6 11-13 12-30 4z"/><path d="m10385 10600c-4-6 5-26 18-44 25-32 37-37 183-75 23-6 58-11 78-11 19 0 64-11 98-24 73-28 128-39 152-30 17 6 21 40 8 62-8 12-82 34-162 47-56 9-255 60-293 74-36 14-74 14-82 1z"/><path d="m9844 10395c-9-22 41-71 101-101 36-17 67-24 110-24 66 0 243-26 259-38 56-40 306-102 437-107 56-3 125-12 154-21 30-8 78-14 107-13s87-2 128-6c93-9 86 8-13 35-36 10-75 28-86 39-12 12-29 21-38 21-25 0-199 38-253 55-25 8-109 24-187 35-94 13-161 28-199 45-91 40-161 54-259 51-69-1-100 2-131 16-61 26-123 32-130 13z"/><path d="m9044 10185c-7-17 12-45 31-45 7 0 18-7 26-16 35-42 119-85 215-108 54-13 124-33 154-44 164-60 192-65 303-53 5 1 7 8 5 17-3 16-113 65-207 90-29 9-78 26-108 40-31 13-64 24-75 24-26 0-143 37-194 61-33 15-129 48-142 49-1 0-5-7-8-15z"/><path d="m10430 10074c0-9 68-34 95-34 31 0 33 25 3 34-29 7-98 8-98 0z"/><path d="m8865 9924c-38-39-18-104 39-128 18-8 36-19 40-24 10-16 183-102 205-102 11 0 23-4 26-10 3-5 16-10 28-10 22 0 147-39 229-71 57-23 168-26 168-5 0 7-12 19-27 25-16 6-35 24-44 39-9 16-32 36-51 45s-41 23-47 31c-11 13-40 30-123 73-15 8-30 18-33 24-4 5-15 9-25 9-11 0-34 9-52 20s-40 20-49 20-24 9-33 19c-17 19-57 30-126 36-19 2-52 8-73 13-29 8-41 7-52-4z"/><path d="m10596 9731c-22-24-21-31 12-69 23-29 42-37 137-62 61-16 130-36 154-44 24-9 53-16 65-16s27-5 32-10c6-6 37-15 69-20 33-5 89-18 125-29 107-31 186-42 242-35 84 11 103 40 47 70-17 9-46 31-65 49-27 27-45 35-106 46-40 7-84 18-98 24-14 7-47 17-75 23-27 5-88 18-135 28-47 9-97 23-113 31-15 8-76 16-144 19-64 3-120 7-124 9-3 3-14-4-23-14z"/><path d="m11743 9744c-9-4-5-16 14-40 43-57 159-98 278-99 57 0 70 3 73 17 2 12-7 18-40 23-24 4-58 15-76 26-18 10-38 19-44 19s-35 12-64 26c-52 26-118 38-141 28z"/><path d="m9652 9533c4-21 45-30 62-13 14 14-8 30-42 30-17 0-23-5-20-17z"/><path d="m17382 9518c4-13 75-52 141-77 20-8 37-18 37-22s29-19 65-35c36-15 69-32 73-38 14-22 161-106 185-106 20 0 144-57 152-71 12-19 108-58 194-79 47-12 102-29 121-37 38-17 120-30 120-18 0 4-8 20-17 36-14 23-34 34-117 60-106 34-246 99-282 131-21 19-40 27-229 97-60 23-131 53-157 67s-71 32-100 41c-29 8-65 26-81 39-31 26-112 35-105 12z"/><path d="m9880 9466c0-8 25-26 56-41 58-27 195-75 217-75 7 0 38-18 70-40 32-23 73-43 90-47 18-3 52-16 77-28 25-13 72-30 105-40s77-24 99-32c46-17 169-8 187 13 9 10 5 21-16 46-24 29-26 33-10 36 25 5 91-3 157-20 58-15 99-8 68 12-8 5-21 10-28 10s-37 11-65 24c-67 31-139 53-203 61-45 6-53 5-66-13-13-19-18-20-59-10-24 6-67 24-96 39-28 15-68 31-90 35-21 3-92 24-158 46-113 37-123 38-182 29-39-6-75-6-95 0-45 13-58 11-58-5z"/><path d="m12293 9343c-10-27 51-70 147-105 131-46 213-62 483-93 71-8 157-20 190-26 118-20 132-22 232-23 112-1 211 18 225 44 11 21 4 30-26 30-12 0-24 6-27 14-12 30-53 45-136 51-47 3-89 9-95 13-6 3-33 10-61 14-121 18-222 37-247 47-15 5-87 13-160 16-73 4-193 13-266 21-185 19-251 19-259-3z"/><path d="m15773 9253c-58-29-55-62 10-108 55-38 77-50 124-65 21-7 74-30 118-50 44-21 101-46 127-55 26-10 53-24 59-31 6-8 20-14 30-14s45-13 76-29c74-37 138-61 164-61 11 0 33-7 49-15 32-17 89-10 97 11 3 8-9 31-26 52-22 29-45 44-85 56-30 10-60 24-67 32-6 8-18 14-26 14s-27 8-41 19c-49 33-436 218-494 235-32 9-63 18-70 21-7 2-27-3-45-12z"/><path d="m18515 9209c-7-10 34-39 54-39 8 0 24-8 35-18 12-10 49-29 84-43 34-13 62-27 62-30 0-4 21-12 47-20 34-9 64-28 101-64 52-51 141-105 174-105 9 0 19-4 22-9 8-13 172-121 184-121 5 0 15-7 22-15 11-14 211-115 226-115 3 0 49-24 103-53 105-58 171-83 195-74 26 10 19 21-40 52-30 17-63 38-71 48-9 9-22 17-28 17-7 0-32 16-56 35s-52 35-63 35c-19 0-137 56-146 69-3 4-27 23-55 41-27 19-52 38-53 42-2 5-32 23-65 40-34 17-75 42-91 55-17 14-53 36-80 49-55 25-98 49-143 80-69 46-91 57-153 75-25 7-56 18-70 25-39 19-190 52-195 43z"/><path d="m11282 9161c-9-5-5-13 10-27 56-49 103-68 253-101 39-8 84-25 100-38 17-12 51-29 75-38 50-16 182-16 187 0 4 12-90 53-119 53-11 0-37 9-57 19-36 19-102 45-196 76-163 53-232 69-253 56z"/><path d="m17166 9138c-15-21-14-24 10-49 14-14 37-32 52-40s47-25 72-40c25-14 56-29 70-32 14-4 50-14 80-23s87-24 125-34c104-28 123-35 202-75 40-21 85-37 100-37 16 0 46-9 67-19 22-11 46-19 53-19s21-8 31-18 52-29 93-42 90-34 109-47 41-23 50-23c8 0 28-7 44-15s54-18 85-21c31-4 64-11 75-16 10-6 51-12 90-14 41-2 103-14 146-29 96-33 182-57 187-52 2 3-16 25-40 50-37 40-57 50-147 81-58 19-128 46-155 60-28 14-91 34-140 45-82 18-124 28-254 61-24 6-64 23-90 37-73 42-201 103-251 120-25 8-70 27-100 42-30 16-91 36-135 46s-91 26-105 35-41 20-60 23c-87 16-118 25-153 45-49 29-91 28-111 0z"/><path d="m13849 9096c16-19 44-21 39-3-3 6-15 14-28 15-21 3-22 2-11-12z"/><path d="m12007 8900c18-16 45-32 60-35 16-4 37-11 48-17s36-15 55-19 76-16 125-27c50-11 117-23 150-27 71-8 152-29 216-55 35-15 67-19 137-18 58 1 96-3 105-10 55-46 284-87 322-58 26 20 83 20 170 0 177-40 280-44 345-10 38 19 45 27 45 52v29l-120 12c-261 27-357 34-535 37-173 3-255 13-307 38-12 6-36 8-55 5-29-5-97 5-293 43-27 6-113 20-190 31-77 12-164 30-194 40-30 11-68 19-85 19l-31-1z"/><path d="m15232 8713c2-18 15-35 38-51 37-25 72-50 128-94 19-16 39-28 43-28 5 0 9-6 9-13s41-37 90-66c50-29 93-57 96-62s13-9 23-9 24-7 32-16c7-8 29-24 48-35 20-11 54-31 76-44 22-14 72-41 110-61 39-20 79-45 90-55 21-18 182-119 191-119 3 0 20-11 37-24 36-26 152-86 168-86 18 0-10 38-38 52-15 7-37 28-49 45-12 18-41 48-65 67s-58 46-75 61c-18 14-47 31-65 39-19 8-54 29-79 47-25 19-66 43-91 55s-75 40-111 63c-36 22-68 41-72 41s-35 19-68 43c-34 23-100 68-146 100s-93 69-104 82c-11 14-25 25-31 25s-22 11-36 24c-30 27-81 46-123 46-26 0-29-3-26-27z"/><path d="m11950 8701c0-13 34-38 60-44 14-3 43-10 65-16 146-36 545-75 545-53 0 26-51 41-191 56-80 9-178 23-218 32-41 8-76 13-79 10-2-3-13-1-22 4-23 12-160 22-160 11z"/><path d="m17131 8661c-18-12 17-48 56-57 16-4 55-20 89-35 34-16 65-29 70-29s63-25 129-56c210-99 242-114 250-114 5 0 31-11 59-24s78-32 111-41c33-10 78-25 100-35s63-25 90-34c256-83 329-105 364-109 34-3 39-2 30 10-6 7-17 13-24 13s-24 13-38 30c-14 16-45 37-69 45-53 20-152 56-238 87-36 13-70 27-77 31-6 4-38 16-70 27-32 10-80 28-108 38-27 11-66 26-85 33-19 8-54 26-77 41-23 16-47 28-54 28s-65 25-130 55c-64 30-122 55-128 55s-44 11-85 25c-76 25-140 32-165 16z"/><path d="m19120 8603c0-13 56-53 115-83 45-24 103-60 251-156 78-52 213-118 284-139 36-10 70-22 75-26 6-3 37-14 70-23s84-28 113-43c45-22 56-24 80-14l29 12-27 29c-39 42-167 90-239 90-45 0-198 75-386 189-33 20-69 42-80 49-11 6-38 21-60 33s-47 28-56 36c-15 12-74 33-146 50-13 3-23 1-23-4z"/><path d="m16588 8582c-10-2-18-7-18-12 0-13 51-50 69-50 9 0 43-14 75-30 32-17 63-30 68-30 19 0 83-34 118-62 19-15 44-28 55-28s49-9 85-20c80-24 90-25 89-2 0 23-75 82-105 82-13 0-49 12-81 26s-89 36-127 50c-38 13-74 28-80 34-19 15-129 46-148 42z"/><path d="m14915 8510c-6-19 0-30 34-59 23-20 63-45 89-55 26-11 75-32 109-48 34-15 64-28 68-28 3 0 72-31 151-70 80-38 171-78 203-89 31-10 75-28 97-38 21-11 61-23 87-25 47-6 48-5 29 13-11 10-22 22-23 26-8 18-123 85-186 108-38 14-85 37-105 50-21 14-43 25-50 25-7 1-38 14-68 30-30 17-62 30-70 30-9 0-22 6-28 12-7 7-29 19-50 28-20 8-69 34-108 58-48 29-87 45-122 49-46 5-50 4-57-17z"/><path d="m14605 8460c-9-14 4-50 17-50 6 0 32-20 59-45 26-24 60-47 76-51 15-4 41-16 58-28 31-22 191-96 207-96 5 0 62-25 126-56s135-64 157-74 74-34 115-53c146-67 340-115 340-83 0 15-32 46-46 46-6 0-19 8-30 18-27 25-135 88-164 97-23 7-171 76-283 131-27 13-56 24-65 24s-44 13-77 30c-33 16-102 45-154 65s-106 45-119 56c-14 10-32 19-42 19-9 0-44 13-76 30-62 31-89 37-99 20z"/><path d="m20100 8368c0-16 122-75 175-84 48-8 190-67 298-123 44-23 84-41 91-41 6 0 28-9 49-20 20-11 43-20 50-20s46-16 87-36 124-54 185-76c60-22 115-44 121-49s35-18 65-28 100-39 155-64c132-58 284-103 295-86 4 7 2 21-4 32-11 18-54 40-317 164-52 24-120 57-150 73-73 38-245 94-349 115-47 9-97 23-112 31-16 8-39 14-52 14s-66 21-118 46c-90 45-111 52-223 75-27 6-72 22-100 36-40 19-129 52-143 53-2 0-3-6-3-12z"/><path d="m17230 8310c0-14 40-32 57-26 12 5 13 9 3 21-14 17-60 21-60 5z"/><path d="m20300 8058c0-8 12-26 28-39 43-40 152-109 172-109 10 0 31-10 47-22 25-21 50-36 118-72 11-6 27-16 35-22 8-5 49-25 90-44 41-18 83-39 92-47 24-21 88-34 110-22 10 5 18 18 18 28 0 20-53 71-74 71-7 0-57 23-112 52-54 28-126 65-159 81-32 16-73 40-90 53-18 13-37 24-44 24s-43 15-80 34c-79 39-151 56-151 34z"/><path d="m19016 7951c-7-11 183-140 234-160 77-29 130-26 130 8 0 18-29 51-46 51-10 0-116 43-207 84-59 27-101 33-111 17z"/><path d="m17676 7849c3-5 9-9 14-9s21-11 36-25 33-25 40-25 33-9 56-19c24-11 68-29 98-42 30-12 71-35 90-50 19-16 38-29 43-29 4 0 36-17 70-39 34-21 80-44 102-51s45-16 50-20c14-12 184-58 225-62 25-2 35 1 38 13 4 19-80 74-128 83-41 7-238 94-262 116-9 8-39 23-65 33s-61 25-76 32c-16 8-33 15-39 15-5 0-24 6-41 14-18 7-48 19-67 26s-48 18-65 25c-37 15-127 26-119 14z"/><path d="m19690 7851c0-15 23-28 120-66 52-21 102-42 110-49 45-33 206-100 225-92 28 10 16 35-27 57-24 12-68 37-98 55-103 63-330 128-330 95z"/><path d="m7871 7705c1-93 2-98 14-70 18 39 18 69 1 125l-15 45z"/><path d="m18390 7753c0-5 28-25 63-45 63-36 147-59 147-39 0 10-50 51-86 69-29 15-124 27-124 15z"/><path d="m13582 7711c4-13 18-16 19-4 0 4-5 9-11 12-7 2-11-2-8-8z"/><path d="m13655 7685c17-8 38-14 49-15 15 0 16 3 6 15-7 9-28 15-49 14l-36-1z"/><path d="m16074 7629c9-13 35-31 58-41 46-18 128-24 128-9s-101 57-154 65l-48 8z"/><path d="m16598 7580c-28-17-21-30 15-30 45 0 168-27 180-39 18-18 49-13 45 6-8 44-193 92-240 63z"/><path d="m18940 7539c0-9 127-72 170-84 14-4 62-25 107-46 46-21 87-39 93-39s34-13 63-29c70-40 202-91 233-91 25 0 25 0-8 28-18 16-64 43-101 60-38 17-81 41-96 52-54 38-256 137-295 144-64 12-166 15-166 5z"/><path d="m16918 7503c-43-10-8-36 109-81 45-18 119-39 165-48 46-10 92-23 103-30 22-16 65-19 65-5 0 18-31 33-102 50-68 17-247 87-258 101-7 10-62 18-82 13z"/><path d="m21637 7433c-13-12-7-43 8-43 9 0 42-13 75-30 33-16 66-30 74-30s16-5 18-11c6-17 117-49 150-42 23 4 28 11 28 34 0 34-25 53-95 70-27 6-54 15-60 20-5 4-27 10-48 14-20 4-40 11-43 16-6 10-97 12-107 2z"/><path d="m16690 7365c0-29 188-150 206-133 2 3-2 21-10 40-10 24-26 40-48 49-18 7-44 21-58 30-36 24-90 33-90 14z"/><path d="m20680 7297c0-22 30-43 86-61 28-9 69-31 90-50 21-18 55-41 74-50 38-20 176-72 225-85 33-9 99-45 130-71 11-9 45-30 75-47 30-16 69-37 85-46 100-54 313-138 321-126 6 11-33 59-47 59-4 0-47 18-94 40-48 22-105 44-127 49s-49 17-60 28c-12 10-31 27-43 38-13 11-57 31-99 43-42 13-91 35-108 48-18 13-60 37-93 53s-80 44-105 62c-62 46-152 88-202 95-24 4-53 13-65 20-28 18-43 18-43 1z"/><path d="m18290 7292c0-14 22-30 53-37 15-4 27-10 27-14s19-18 43-30l42-24-35 31c-42 37-130 87-130 74z"/><path d="m14710 7283c0-9 180-104 196-103 13 0 170-85 194-105 15-12 198-101 258-125 17-7 32-16 32-20 0-17 68-49 130-61 36-6 86-23 112-35 26-13 59-24 73-24 38 0 30 40-10 59-16 7-41 23-55 36-22 18-234 115-255 115-4 0-36 14-72 30-35 17-69 30-75 30-11 0-70 31-78 41-17 20-169 91-245 113-49 15-105 34-123 42-35 15-82 19-82 7z"/><path d="m16180 7252c0-5 12-17 28-28 32-24 247-129 282-139 14-3 79-33 145-65 134-65 405-177 454-186 23-5 31-3 31 8 0 23-22 45-70 71-58 32-304 137-321 137-6 0-35 11-63 25-67 32-129 54-196 69-30 7-69 20-87 29-18 10-41 17-51 17-11 0-22 7-26 15-3 8-14 15-25 15s-35 9-53 20c-36 22-48 25-48 12z"/><path d="m15330 7217c0-26 31-45 215-133 44-21 94-48 110-60 81-58 365-180 465-199 38-8 102-32 196-75 33-15 87-33 120-40 93-19 205-50 233-65 27-14 251-85 331-105 66-16 209-59 253-76 43-16 77-18 77-5 0 10-97 57-139 68-14 3-46 19-71 34s-94 43-155 63c-157 51-251 84-320 110-33 13-86 27-118 31-66 7-98 19-211 77-70 36-207 78-254 78-15 0-115 48-337 163-38 19-124 57-190 82-66 26-124 51-129 56-16 14-76 11-76-4z"/><path d="m16965 7200c3-6 45-36 93-67s102-72 120-90c37-38 264-150 357-177 80-22 155-46 180-56 11-4 40-14 64-21 45-13 123-51 271-131 96-52 172-67 178-35 2 10-4 20-15 23-10 4-38 26-63 50-25 23-76 59-115 79-38 20-74 40-80 44-5 4-41 21-80 36-38 16-80 35-92 43s-26 11-31 8c-6-3-29 1-53 10-24 8-73 22-109 30-68 16-270 109-270 124 0 5-9 12-20 15-11 4-34 18-51 32-28 24-96 47-174 60-16 2-44 11-62 19-36 16-57 18-48 4z"/><path d="m18465 7180c3-5 13-10 21-10s12 5 9 10c-3 6-13 10-21 10s-12-4-9-10z"/><path d="m19940 7167c-38-19-38-64 0-111 16-21 30-43 30-47 0-5 6-9 14-9s34-15 59-34c58-44 172-103 335-172 72-31 132-61 132-66s19-18 43-29c23-11 60-33 82-49s57-34 78-41c32-11 40-10 53 3 33 33 11 54-160 155-39 24-75 49-81 56-11 14-157 87-174 87-46 0-286 147-300 183-9 22-69 87-80 87-3 0-17-6-31-13z"/><path d="m18856 7153c-8-19 27-59 58-69 12-3 49-19 82-35 34-16 69-29 77-29 20 0 209-65 262-90 22-10 47-21 55-24s22-10 30-15 40-19 70-31 79-33 109-48c29-14 78-28 109-30 54-5 55-4 40 16-8 12-25 30-39 40-32 26-121 72-136 72-7 0-13 4-13 9s-22 17-49 26-69 29-92 44c-24 16-84 41-134 55-159 47-220 68-237 84-19 16-116 42-159 42-16 0-29-7-33-17z"/><path d="m18117 6974c-11-11 17-44 37-44 11 0 27-7 37-16 11-10 19-12 23-5 4 6-8 18-26 27s-40 23-49 30c-9 8-18 11-22 8z"/><path d="m18810 6642c0-11 50-38 93-50 49-14 47-7-7 18-25 11-48 24-51 30-7 12-35 14-35 2z"/><path d="m18975 6571c-5-10 88-57 134-68 14-3 33-12 42-19 8-8 31-17 50-21 32-6 33-5 17 10-9 9-19 17-22 17s-29 11-58 24c-29 12-60 26-68 29s-32 12-52 21c-21 9-39 12-43 7z"/><path d="m20144 6455c11-8 24-15 29-15 26 0 278-132 314-165 23-20 55-44 70-53 68-36 103-52 139-60 37-9 105-38 269-117 39-19 82-39 97-44 50-19 11 23-50 54-30 15-69 40-86 55-31 27-138 80-161 80-20 0-229 106-244 123-28 34-328 158-380 157-13-1-13-3 3-15z"/><path d="m21405 6310c-6-10 61-44 112-56 14-4 46-18 72-32 83-44 115-59 216-103 55-23 109-48 120-56 26-18 65-17 65 2 0 8-19 27-42 42-74 46-232 123-254 123-18 0-46 9-149 50-80 32-132 43-140 30z"/><path d="m18195 6129c17-4 41-19 55-32 29-26 64-41 165-67 74-19 81-19 72 3-6 15-136 67-168 67-11 0-37 9-59 20s-52 20-67 19l-28-1z"/><path d="m18510 6012c0-4 15-13 33-20 17-6 50-26 71-44 36-30 74-53 213-123 28-14 83-32 121-39s101-28 138-45c84-40 100-46 143-60 44-14 51-14 51 3 0 13-57 61-139 115-20 13-47 32-61 41-14 10-65 27-112 39-48 11-131 42-185 67-112 53-273 92-273 66z"/><path d="m20346 5991c-4-5 24-26 61-46 38-20 79-47 93-60 33-31 145-89 242-125 154-58 86 14-97 103-66 33-129 64-140 70-58 33-129 67-141 67-7 0-15-4-18-9z"/><path d="m21100 5986c0-10 74-47 89-44 10 2-2 12-30 26-44 22-59 26-59 18z"/><path d="m19701 5881c-17-11-6-18 61-38 29-8 87-35 129-59s80-44 85-44 23-7 39-16c17-9 64-24 105-34s83-22 93-25c10-4 17-3 17 4 0 6-11 16-24 21s-27 14-31 20c-13 21-89 52-147 60-57 8-144 46-179 77-10 8-41 21-70 29-63 16-60 16-78 5z"/><path d="m21445 5820c8-13 126-91 186-123 26-13 57-31 70-40 25-18 49-22 49-9 0 8-31 31-145 111-68 47-177 89-160 61z"/><path d="m20425 5554c22-15 42-30 45-34 6-8 102-42 185-65 33-10 69-23 80-30 29-18 164-59 171-52 7 6-61 37-82 37-7 0-15 4-18 8-7 12-118 66-201 97-38 15-85 33-103 41-18 7-51 17-75 20l-42 6z"/><path d="m20950 5356c14-9 32-15 40-15 13 0 13 1 0 8-8 5-26 12-40 15l-25 7z"/></g></svg>