<svg height="549pt" preserveAspectRatio="xMidYMid meet" viewBox="0 0 145 549" width="145pt" xmlns="http://www.w3.org/2000/svg"><g transform="matrix(.1 0 0 -.1 0 549)"><path d="m1 4120c1-864 5-1367 11-1363 6 3 5-3-1-14-7-14-10-444-11-1382v-1361h725 725v2745 2745h-726-725zm845 1315c9-19 20-33 24-30 5 3 12 0 16-6 5-8 3-9-6-4s-10 1-6-16c4-15-1-11-13 12-11 19-27 41-35 48-14 12-16 5-18-60l-2-74-5 70c-8 97 13 126 45 60zm84-225c11-16 26-44 32-62s20-45 30-61c11-15 23-39 28-55 5-15 21-58 36-97 57-151 106-292 114-325 5-19 15-60 24-90 41-146 75-299 82-370 3-30 10-82 15-115s12-105 14-160c3-55 9-131 14-170 9-78 6-366-8-605-12-215-49-618-60-660-5-19-12-55-15-80s-12-92-20-150-18-134-21-170c-4-35-8-67-10-70-4-6-33-172-40-230-2-14-6-38-9-55-3-16-8-52-12-80-3-27-10-68-15-90-11-55-3 76 11 165 12 80 13 99 2 83-5-8-13-9-22-3-8 6-23 10-34 10-16 0-17-2-5-17 13-15 12-15-8-5-14 8-20 18-16 32 6 24-13 51-32 44-7-3-16 0-20 6-4 7 2 14 14 17s21 9 21 14c0 13-13 11-36-6-12-8-25-11-29-7s-5-4-2-18c4-14 7-34 7-45 1-17 3-17 12 5 6 15 12 20 15 12 3-6 8-10 13-7 4 3 11-10 14-29 6-33 36-56 73-56 13 0 13 3 3 15s-9 15 5 15c15 0 17-6 11-48-18-139-21-148-37-119-6 9-14 15-20 12-5-4-9 1-9 9 0 14 11 20 31 18 8-1 21 79 14 86-3 3-5-4-5-16 0-15-5-20-20-17-11 2-20-1-20-7 0-5-6-8-14-5s-17 1-20-6-5 2-5 18c2 74 0 88-14 76-8-6-16-8-19-6-3 3-8-13-12-36-6-38-8-40-20-24-7 10-18 15-24 11-7-4-12-2-12 3 0 6-5 11-10 11-13 0-2-50 14-66 6-6 24-14 39-18 24-6 30-3 34 14 5 20 6 19 19-6 17-31 9-98-10-87-23 15-37 11-54-15-9-15-21-30-26-34-13-9-7-15 19-20 16-2 19 2 18 20-2 13 1 21 7 17 6-3 10 1 10 9 0 9 5 16 10 16 6 0 10-11 10-25s-6-25-12-25c-9 0-8-4 2-11 11-8 12-12 3-16-7-2-13-9-13-14 0-14 28-11 33 4 3 6 6 2 6-10 1-15-4-21-13-17-7 3-16-3-20-12-7-20 2-33 12-18 4 6 15 13 24 17 10 3 18 13 18 22s8 27 17 41c12 19 13 28 4 33-6 4-14 25-16 47-2 21-2 30 1 20 10-32 29-47 44-33 10 10 11 5 6-22-15-81-19-174-8-167 8 4 12 0 11-11-1-24-17-71-18-55-2 23-21 12-21-13 0-26 15-34 23-12 3 6 6 0 6-15 1-42 21-33 22 10 0 20 3 31 6 23 4-10 7-10 13-1 14 23 19-6 5-33-11-22-11-27 0-27 7 0 15 7 19 15 10 27 21 16 32-30 10-44 9-46-13-51-15-4-22-12-19-20s0-11-9-8c-8 3-17 14-20 24-14 43-70 30-77-19-3-23-1-28 11-24 14 4 14 4 1-6-16-12-118-15-145-5-9 4-21 17-25 30-12 31-57 43-74 19-14-19-36-13-36 11 0 8-4 14-10 14-23 0 4-48 33-60 16-6 18-9 5-9-9-1-20 4-24 10-4 8-9 7-16-2-7-11-9-11-7 1 3 27-1 44-8 37-3-4-15 1-26 10-10 10-22 16-25 13-4-3-8 4-9 15-2 16-1 17 5 4 4-9 15-15 25-13 9 1 15-2 12-6-3-5-1-11 4-14 13-8 21 20 9 32-7 7 1 21 26 46 19 20 37 36 40 36s6-10 8-22c2-13 9-22 16-21 6 2 11-2 9-8-3-17 17-21 36-7 15 12 18 32 18 166 0 84-3 157-5 161-3 4-7 30-10 57s-8 77-12 112c-8 74 4 212 18 212 6 0 8-28 5-70-2-38 0-70 5-70 4 0 8 9 8 20s5 20 10 20c12 0 8 119-4 139-6 9 26 17 56 12 4 0 29-2 54-3 38-1 51 3 66 22 10 12 22 20 26 16s-6-19-21-32c-27-23-27-24-6-24 22 0 22 0 3-19-13-12-21-15-26-7-5 6-8 1-8-12 0-21 1-22 28-8 26 13 29 13 39-4 7-10 9-20 6-23-3-4-6-24-7-47-2-32 1-40 13-38 10 2 16 14 16 30 1 15 4 30 8 34 23 23-6 95-33 79-16-10-12 5 10 32 11 14 20 38 20 54 0 15 5 31 11 35 9 5 10-3 5-30-4-23-3-36 4-36 10 0 12 14 15 150 1 41 5 86 9 100 6 23 19 100 47 285 6 39 11 74 12 79s-4 11-10 13c-9 3-13-6-13-29-1-41-8-97-21-165-8-42-14-51-30-50-10 1-19 6-20 12 0 5-4-1-10-13-5-13-6-29-2-35s0-8-10-4c-11 4-17 1-17-8 0-8 4-15 10-15 15 0 40-56 40-90 0-42-17-30-31 23-7 23-18 47-24 52-6 6-14 15-16 22-3 8-9 9-19 3-13-8-12-12 7-25 22-15 53-118 40-132-10-9-34 27-41 61-5 24-9 27-19 17-9-9-9-14 2-21 10-5 15-30 17-73 4-82-2-102-32-116-42-19-54-14-50 18 4 39-6 54-37 53-14 0-28 7-31 14-8 20 4 44 22 44 13 0 13 2-1 18-22 24-21 32 2 32 16 0 18 5 14 40-4 31-2 40 9 40 10 0 18-15 23-43l8-42 10 33c8 25 14 31 29 27 10-4 18-2 18 5 0 6-14 13-30 17-17 3-33 10-36 14-7 12-44-9-44-25 0-8-8-16-18-18-15-4-19-16-21-64-1-32-3-60-6-62-11-11-25 13-25 44 0 37-14 45-29 15-8-15-7-20 6-25 12-5 14-9 5-18-7-7-12-23-11-38l1-25 8 25c8 25 8 25 10-5 1-16 5-39 10-50 7-17 9-14 9 14 1 27 3 31 15 22 8-7 17-22 20-34s18-30 33-39l28-17-26-1c-15 0-32 7-39 15-7 9-15 13-18 11-2-3-13-1-23 5-16 8-19 6-19-10 0-11 5-23 10-26 6-3 10-17 10-31 0-13-4-24-10-24-5 0-10 6-10 14 0 16-26 46-40 46-5 0-16-7-24-16-12-11-13-20-6-34 15-27 12-33-10-27-14 4-24-1-31-16-11-20-12-20-30 4-13 17-26 23-44 21l-27-4 21 21c16 16 20 28 15 49-8 34-31 61-52 60-10 0-48 12-87 27-128 49-264 76-291 57-17-12-23-39-11-51 14-14 30-14 21 1-5 7-3 8 6 3 10-6 9-11-5-22-13-8-14-13-5-13 7 0 11-2 8-6-3-3-21 5-39 17-19 11-26 19-16 15 16-5 16-4 1 19-9 14-14 32-10 40 3 10-1 15-13 15-10 0-29 9-42 20-24 20-24 20-5 35 11 8 35 15 54 15 31 0 34 2 28 23-4 16 1 28 15 40 11 10 17 22 13 28-3 6 5 3 20-6 29-19 30-23 15-45-8-12-9-10-4 8 4 13 2 22-4 22-14 0-14-67 0-75 27-17 179-3 274 25 118 36 135 43 149 65 20 31 21 64 1 71-21 9-19 24 4 24 10 0 21 9 24 20 6 23 27 27 27 6 0-7 9-16 20-19 12-3 20-14 20-26 0-30 39-44 63-23 33 29 46 106 52 305 3 106 8 219 11 252 4 33 8 188 9 344 2 156 8 288 13 293 13 13 62-37 63-64 1-13 0-34-1-47-1-16 2-21 10-16 18 11 7 112-13 133-14 13-17 14-17 2-1-12-3-12-13 2-12 16-47 20-94 12-15-3-23-11-23-24 0-11-4-20-9-20-13 0-35 29-28 37 4 3-1 18-10 34-15 26-15 30-1 46 8 10 18 31 22 46 8 32 26 27 26-7 0-18 9-26 40-36 46-15 73-3 52 23-8 9-14 88-17 223-3 115-7 227-10 249-9 72-17 188-20 285-2 52-6 129-9 170-4 41-9 104-11 140-3 36-8 85-11 110s-7 72-8 105c-6 96-26 325-35 382-4 29-6 55-3 58s22-31 43-75 47-94 59-110zm-7 89c3-10 1-17-4-13-5 3-9 10-9 16s-8 21-17 32c-18 21-18 21 4 3 11-10 23-27 26-38zm-106-56c-3-10-5-4-5 12 0 17 2 24 5 18 2-7 2-21 0-30zm176-56c4 3 7 1 7-5 0-21-16-21-30 1-12 19-11 21 2 10 8-7 18-10 21-6zm26-92c0-5-6 1-14 15s-14 30-14 35c0 6 6-1 14-15s14-29 14-35zm-182-37c-3-8-6-5-6 6-1 11 2 17 5 13 3-3 4-12 1-19zm10-125c-2-21-4-6-4 32 0 39 2 55 4 38 2-18 2-50 0-70zm235 20c3-16 8-37 12-48 4-12 1-10-7 5-18 32-31 84-19 76 6-3 12-18 14-33zm46-78c-3-3-9 2-12 12-6 14-5 15 5 6 7-7 10-15 7-18zm-288-30c0-5-5-3-10 5s-10 20-10 25c0 6 5 3 10-5s10-19 10-25zm17-17c-3-8-6-5-6 6-1 11 2 17 5 13 3-3 4-12 1-19zm294-51c-10-9-11-8-5 6 3 10 9 15 12 12s0-11-7-18zm-284-84c-3-10-5-4-5 12 0 17 2 24 5 18 2-7 2-21 0-30zm316-11c8-23 11-42 7-42s-11 12-14 28c-4 15-10 36-13 47-10 36 5 11 20-33zm-315-47c-1-20-4-31-8-25-7 11-2 60 6 60 2 0 3-16 2-35zm9-142c-2-16-4-3-4 27s2 43 4 28c2-16 2-40 0-55zm373-57c0-39-6-30-13 19-4 27-3 35 3 25 5-8 10-28 10-44zm-373-38c-3-7-5-2-5 12s2 19 5 13c2-7 2-19 0-25zm10-105c-2-16-4-5-4 22 0 28 2 40 4 28 2-13 2-35 0-50zm390-5c-3-8-6-5-6 6-1 11 2 17 5 13 3-3 4-12 1-19zm16-33c4-8 2-17-3-20-6-4-10 3-10 14 0 25 6 27 13 6zm-396-32c-3-10-5-4-5 12 0 17 2 24 5 18 2-7 2-21 0-30zm400-25c-3-8-6-5-6 6-1 11 2 17 5 13 3-3 4-12 1-19zm10-85c-3-10-5-2-5 17s2 27 5 18c2-10 2-26 0-35zm-400 5c-3-7-5-2-5 12s2 19 5 13c2-7 2-19 0-25zm0-100c-2-18-4-6-4 27s2 48 4 33 2-42 0-60zm411 31c-3-20-5-19-9 9-3 20-2 29 4 23 5-5 7-19 5-32zm9-101c-3-7-5-2-5 12s2 19 5 13c2-7 2-19 0-25zm-420-70c-2-13-4-5-4 17-1 22 1 32 4 23 2-10 2-28 0-40zm420-30c-2-13-4-3-4 22s2 35 4 23c2-13 2-33 0-45zm-420-30c-3-7-5-2-5 12s2 19 5 13c2-7 2-19 0-25zm-42-68c-3-5-1-11 5-15 5-3 10-1 10 5s5 8 11 4c8-4 7-9-2-15-11-7-11-9-1-9 9 0 10-5 3-19-6-10-7-21-4-25 3-3 1-6-6-6s-9 9-5 24c4 18 0 28-17 40-13 9-18 16-11 16 8 0 10 5 6 12s-3 8 5 4c6-4 9-11 6-16zm482-52c-3-8-6-5-6 6-1 11 2 17 5 13 3-3 4-12 1-19zm-548-32c-22-20-22-20-6 0 9 11 17 27 18 35 0 11 2 11 6 0 3-7-5-23-18-35zm548-23c-3-10-5-4-5 12 0 17 2 24 5 18 2-7 2-21 0-30zm-577 23c0-2-8-10-17-17-16-13-17-12-4 4s21 21 21 13zm22-64c10-7 18-17 18-22s-11 1-25 14-25 30-24 37c0 11 2 11 6-1 4-8 14-21 25-28zm570-46c-6-48-12-46-12 5 0 22 4 38 8 35s6-21 4-40zm-462-6c0-5-2-10-4-10-3 0-8 5-11 10-3 6-1 10 4 10 6 0 11-4 11-10zm17-12c-3-8-6-5-6 6-1 11 2 17 5 13 3-3 4-12 1-19zm-67-38c5 0 14 8 19 18 14 23 14 6 0-19-10-19-10-19-40 1-16 12-29 26-29 31s9 0 20-11 24-20 30-20zm67-12c-3-7-5-2-5 12s2 19 5 13c2-7 2-19 0-25zm445-1c3-13 1-32-3-43-5-13-8-7-8 24-1 46 4 55 11 19zm-446-43c-4-9-9-15-11-12-3 3-3 13 1 22s9 15 11 12c3-3 3-13-1-22zm431-106c-3-7-5-2-5 12s2 19 5 13c2-7 2-19 0-25zm-430-45c-3-10-5-2-5 17s2 27 5 18c2-10 2-26 0-35zm430-5c-3-8-6-5-6 6-1 11 2 17 5 13 3-3 4-12 1-19zm-427-54c0-8-5-12-10-9-6 4-8 11-5 16 9 14 15 11 15-7zm417-46c-3-8-6-5-6 6-1 11 2 17 5 13 3-3 4-12 1-19zm-420-70c-2-13-4-3-4 22s2 35 4 23c2-13 2-33 0-45zm424-18c0-34-2-65-5-68-4-3-6 28-6 68s3 71 6 68c3-4 5-34 5-68zm-1324-12c-3-7-5-2-5 12s2 19 5 13c2-7 2-19 0-25zm900-40c-3-8-6-5-6 6-1 11 2 17 5 13 3-3 4-12 1-19zm419-128c-1-16-4-30-8-30-10 0-10 22-2 44 9 23 11 20 10-14zm-439-152c-2-24-4-5-4 42s2 66 4 43c2-24 2-62 0-85zm420 5c-3-10-5-4-5 12 0 17 2 24 5 18 2-7 2-21 0-30zm-10-80c-3-10-5-4-5 12 0 17 2 24 5 18 2-7 2-21 0-30zm-410-135c-2-24-4-7-4 37s2 63 4 43c2-21 2-57 0-80zm400 80c-3-8-6-5-6 6-1 11 2 17 5 13 3-3 4-12 1-19zm-10-130c-2-18-4-6-4 27s2 48 4 33 2-42 0-60zm-400-45c-3-10-5-4-5 12 0 17 2 24 5 18 2-7 2-21 0-30zm-129 23c-2-1-12-8-22-16-11-8-17-10-13-3 4 6 1 13-5 16-7 2 0 4 15 4s27 0 25-1zm32-44c0-8-1-13-3-11-1 2-9 12-16 22-12 15-12 17 3 11 9-3 16-13 16-22zm491-9c-12-20-14-14-5 12 4 9 9 14 11 11 3-2 0-13-6-23zm-586-19c-18-15-26-28-22-39 4-9 3-13-3-10-10 6-10 54 0 53 22-2 31 4 27 16-4 11-1 13 10 9 13-5 11-10-12-29zm151 1c4-8 10-12 15-9 15 9 10-13-6-26-13-11-18-11-28 0-9 10-9 14 1 17 10 4 10 8 1 19s-9 14 0 14c6 0 14-7 17-15zm427-25c3-11 1-18-4-14-5 3-9 12-9 20 0 20 7 17 13-6zm-16-52c-3-8-6-5-6 6-1 11 2 17 5 13 3-3 4-12 1-19zm-69-16c4-14 0-15-22-6-9 3-16 10-16 14 0 12 33 5 38-8zm-504-7c-4-8-11-15-16-15-6 0-5 6 2 15 7 8 14 15 16 15s1-7-2-15zm-471-40c-7-21-12-19-10 4 0 11 5 18 9 15s5-11 1-19zm377-4c0-5-16-11-35-13-36-4-36 6 0 15 32 8 35 7 35-2zm657-43c-3-7-5-2-5 12s2 19 5 13c2-7 2-19 0-25zm-754 15c-7-2-19-2-25 0-7 3-2 5 12 5s19-2 13-5zm-350-12c21 10 21 9 3-5-20-16-37-13-35 7 0 9 2 9 6 0 3-10 10-10 26-2zm222 0c34-7 35-9 10-9-16 0-43 4-60 8-42 11-1 11 50 1zm-264-30c-7-5-10-14-6-21 5-8 0-7-14 2-19 12-19 13-3 20 25 10 39 9 23-1zm1136-48c-3-10-5-2-5 17s2 27 5 18c2-10 2-26 0-35zm-1067-17c0-1-9-2-20-2-10 0-17 2-15 5 3 2-1 11-8 19-9 11-4 11 16-2 15-10 27-19 27-20zm150-10c0-2-7-6-15-10-8-3-15-1-15 4 0 6 7 10 15 10s15-2 15-4zm-45-16c3-5 1-10-4-10-6 0-11 5-11 10 0 6 2 10 4 10 3 0 8-4 11-10zm75 2c0-15-11-21-27-15-12 5-12 7-1 14 17 11 28 11 28 1zm200-54c10-6 7-7-10-2-14 3-32 11-40 16-10 6-7 7 10 2 14-3 32-11 40-16zm677 0c-3-8-6-5-6 6-1 11 2 17 5 13 3-3 4-12 1-19zm-271-15c-10-10-19 5-10 18 6 11 8 11 12 0 2-7 1-15-2-18zm-381-3c-3-5-12-10-18-10-7 0-6 4 3 10 19 12 23 12 15 0zm29-9c3-5-1-14-8-20-12-10-14-9-11 6 2 10 4 19 4 21 2 5 10 2 15-7zm47-38c13-14 18-23 12-19-7 4-13 3-13-3 0-5 5-11 10-13 6-2 0-9-12-17-18-10-20-10-11 0 10 10 9 16-4 31-16 18-16 18 3 12 17-7 17-6 5 9-7 9-18 14-24 10-6-3-7-1-3 5 9 16 9 16 37-15zm419 7c0-5-7-10-16-10-8 0-12 5-9 10 3 6 10 10 16 10 5 0 9-4 9-10zm-50-16c0-2-7-4-15-4s-15 4-15 10c0 5 7 7 15 4 8-4 15-8 15-10zm194-18c-3-15-8-25-11-23-2 3-1 17 3 31 3 15 8 25 11 23 2-3 1-17-3-31zm-289 14c8-13-5-13-25 0-13 8-13 10 2 10 9 0 20-4 23-10zm-85-29c5-11 9-30 9-43-2-23-2-23-6-1-3 13-10 20-18 17-16-7-29 12-21 31 8 21 23 19 36-4zm-217-6c-3-9-8-14-10-11-3 3-2 9 2 15 9 16 15 13 8-4zm573-60c-1-44-16-66-16-22 0 22 10 67 15 67 1 0 2-20 1-45zm-526 9c0-2-9 0-20 6s-20 13-20 16c0 2 9 0 20-6s20-13 20-16zm145 6c-3-5-15-10-26-10-13 0-18-4-13-12 4-6 3-8-4-4-5 3-13 0-15-6-4-8-6-9-6-2-1 14 18 30 44 37 11 2 21 5 23 6 2 0 0-3-3-9zm-97-25c17-19 18-25 7-25-8 0-15 7-15 15 0 9-6 12-15 9-15-6-21 7-8 19 9 9 6 10 31-18zm119-82c-3-10-5-2-5 17s2 27 5 18c2-10 2-26 0-35zm346 8c2-10 1-25-4-32-6-10-9-4-9 19 0 36 5 42 13 13zm-16-73c-3-8-6-5-6 6-1 11 2 17 5 13 3-3 4-12 1-19zm-330-20c-3-7-5-2-5 12s2 19 5 13c2-7 2-19 0-25zm320-40c-3-7-5-2-5 12s2 19 5 13c2-7 2-19 0-25zm-308-58c-2-48-10-62-25-38-5 7-3 8 5 4 8-5 12-3 10 5-3 25 1 79 6 79 2 0 4-22 4-50zm298 8c-3-8-6-5-6 6-1 11 2 17 5 13 3-3 4-12 1-19zm-10-105c-3-10-5-2-5 17s2 27 5 18c2-10 2-26 0-35zm-280-15c-3-7-5-2-5 12s2 19 5 13c2-7 2-19 0-25zm270-45c-3-10-5-4-5 12 0 17 2 24 5 18 2-7 2-21 0-30zm-33-32c-4-22-10-41-14-41s-4 17 1 38c5 20 9 41 9 46s2 7 5 4 3-24-1-47zm-229 29c3-6-1-7-9-4-18 7-21 14-7 14 6 0 13-4 16-10zm258-50c-3-11-7-20-9-20s-4 9-4 20 4 20 9 20 7-9 4-20zm-256-62c-3-7-5-2-5 12s2 19 5 13c2-7 2-19 0-25zm254 23c-8-6-12-20-9-39 2-17 1-29-4-26-10 6-11 58-1 67 3 4 11 7 17 7s5-4-3-9zm-361-92c0 8 3 12 6 8 9-8-17-43-52-68-28-21-28-21 3 10 21 20 30 37 27 49-5 14-4 15 5 2 9-12 11-13 11-1zm79-3c9-11 8-15-4-20-10-4-14-2-9 5 4 6 0 15-7 20-8 5-9 9-3 9s17-6 23-14zm322 5c-11-7-9-10 8-16 13-4 20-9 18-12-3-2-15 0-26 7-22 11-20 30 2 30 8 0 7-3-2-9zm16-63c-3-8-6-5-6 6-1 11 2 17 5 13 3-3 4-12 1-19zm-96-92c-10-12-8-15 11-19 20-4 20-4-4-6-19-1-28 4-28 14 0 8 5 15 11 15s8 7 4 18c-5 13-4 14 6 5 10-10 10-15 0-27zm-227-10c10-17 12-27 5-31-6-4-13-4-16-1-4 3 0 6 8 6s3 6-10 13c-28 14-39 37-18 37 8 0 22-11 31-24zm216-48c0-6-6-5-15 2-8 7-15 14-15 16s7 1 15-2c8-4 15-11 15-16zm-30-19c7-11 9-24 5-27-13-13-138-11-169 3l-31 13 53 1c33 1 51 5 47 11s-9 9-13 6c-4-2-16 0-27 5-13 5 5 8 52 8 63 1 74-2 83-20zm-200-4c0-8-4-15-10-15-5 0-7 7-4 15 4 8 8 15 10 15s4-7 4-15zm236-30c-4-14-12-25-18-25-9 0-9 3 0 12 7 7 12 21 12 32 0 10 3 17 6 13 4-3 4-18 0-32zm-226 1c0-2-7-7-16-10-8-3-12-2-9 4 6 10 25 14 25 6zm153-68c6-20 4-36-6-56-8-16-12-43-9-60 3-23 0-33-12-38-23-9-20-34 4-29 15 3 20-2 20-16 0-26-26-35-61-22-16 6-29 7-29 3 0-9 36-24 59-25 26 0 23-25-3-35-30-11-34-37-9-55 16-12 14-16-19-53-38-42-41-69-12-93 8-6 14-22 14-36v-24l-25 27c-14 15-26 36-26 48-4 53 4 112 18 133 8 12 12 27 9 32-4 5-2 12 3 16 13 8 2 35-14 35-20 0-15 121 6 140 24 22 30 123 8 118-6-2-14 3-16 10-4 10 7 12 43 10 42-3 49-6 57-30zm-136-15c-3-10-5-4-5 12 0 17 2 24 5 18 2-7 2-21 0-30zm183-47c8-11 10-17 3-13s-13 0-16-10c-2-10-4-3-4 15s1 31 1 30c1-2 8-12 16-22zm-40-26c0-5-4-10-10-10-5 0-10 5-10 10 0 6 5 10 10 10 6 0 10-4 10-10zm-143-107c-2-21-4-4-4 37s2 58 4 38c2-21 2-55 0-75zm176 67c-3-12-8-19-11-16-5 6 5 36 12 36 2 0 2-9-1-20zm-6-87c-3-10-5-4-5 12 0 17 2 24 5 18 2-7 2-21 0-30zm-169-130c-1-73-3-94-7-63-6 46-3 170 5 170 2 0 3-48 2-107zm174 82c-2-14-6-25-8-25s-4 11-4 25 4 25 9 25c4 0 6-11 3-25zm-42-37c0-28-15-37-35-22-17 13-18 16-5 24 21 14 40 12 40-2zm43-33c-3-9-8-14-10-11-3 3-2 9 2 15 9 16 15 13 8-4zm-62-58c-8-8-11-7-11 4 0 20 13 34 18 19 3-7-1-17-7-23zm-24-75c4-35 3-36-11-17-16 21-20 47-9 58 10 11 16 0 20-41zm80-4c-3-7-5-2-5 12s2 19 5 13c2-7 2-19 0-25zm-170-20c-3-7-5-2-5 12s2 19 5 13c2-7 2-19 0-25zm186-25c-7-2-14-23-15-46-1-39-2-39-5-9-5 41 2 62 19 61 10 0 10-2 1-6zm-73-44c0-6-4-7-10-4-5 3-10 11-10 16 0 6 5 7 10 4 6-3 10-11 10-16zm-83-11c-3-8-6-5-6 6-1 11 2 17 5 13 3-3 4-12 1-19zm-40-25c-3-10-5-4-5 12 0 17 2 24 5 18 2-7 2-21 0-30zm70-25c-3-7-5-2-5 12s2 19 5 13c2-7 2-19 0-25zm35-9c5-3 3-9-6-12-12-5-16 0-15 21 0 16 3 21 6 12 3-8 10-18 15-21zm-65-26c-3-10-5-4-5 12 0 17 2 24 5 18 2-7 2-21 0-30zm105 12c3-13 1-22-3-19-9 5-13 44-5 44 2 0 6-11 8-25zm-145-32c-3-10-5-2-5 17s2 27 5 18c2-10 2-26 0-35zm63-27c-4-11-13-22-21-24-11-4-12-2-1 9 6 7 12 27 13 44 0 25 2 27 8 10 5-11 5-29 1-39zm47 22c-3-7-5-2-5 12s2 19 5 13c2-7 2-19 0-25zm-23-30c-5-9-2-9 9 1 15 12 17 10 17-19 0-21-4-30-12-27-7 2-12 10-10 16 1 6-2 11-8 11-5 0-10 7-10 15s5 15 11 15c5 0 7-6 3-12zm64-35c-1-47-1-47-5-9-3 29-7 36-14 25-7-12-9-11-9 3s7 21 28 27c1 1 1-20 0-46zm34 2c3-14 1-25-3-25-5 0-9 11-9 25s2 25 4 25 6-11 8-25zm-147-56c5-8 4-10-3-5-7 4-12 1-12-9 0-20-32-16-37 5-4 13-3 13 6 0 14-21 24-6 24 37-1 34 0 35 7 11 4-14 11-32 15-39zm88-3c17 5 19 4 10-6-17-18-43-4-42 22l2 23 4-23c4-18 9-22 26-16zm34-38c-3-7-5-2-5 12s2 19 5 13c2-7 2-19 0-25z"/><path d="m996 3825c9-37 9-82 0-118-4-16-2-27 4-27 25 0 26 139 1 163-10 9-11 5-5-18z"/><path d="m1161 3240c3-32-1-38-23-33-21 6-21 4 4-16 28-23 28-40 0-74-14-16-14-17 0-12 43 17 62 93 33 131-11 14-15 15-14 4z"/><path d="m1185 3045c-27-14-57-25-65-26-10 0-11-2-2-6 6-2 10-9 6-14-9-15 4-10 54 21 27 17 54 30 61 30 6 0 11 5 11 10 0 14-9 12-65-15z"/><path d="m1123 2923c-29-9-53-20-53-25s4-7 9-4c5 4 11 0 14-6 3-10 8-10 21 1 15 13 19 13 26 1s10-11 16 5c4 11 15 25 23 32 21 16 8 15-56-4z"/><path d="m1144 2858c5-17-5-22-41-21-7 1-13-5-13-13s-8-14-17-15c-11 0-13-3-5-6 6-2 12-16 12-30 0-17-4-23-13-20-10 4-13-7-14-37-1-22 1-33 4-23 2 9 9 17 14 17 11 0 12-30 1-46-12-18-45-26-55-12-5 9-7 3-3-14 4-18 2-28-5-28-8 0-10 27-6 90 3 53 2 90-4 90-5 0-9-15-10-32-1-61-10-122-21-141-8-16-7-22 6-29 17-10 22-43 7-53-5-3-12 3-14 12-4 15-5 15-6 2 0-9 6-30 14-45 11-21 15-24 15-11 0 10 4 16 8 13 5-3 20 1 35 9s27 10 27 5c0-4-6-10-13-13-7-2-14-19-15-36-2-25 2-31 17-31 11 0 23 9 26 21 8 25-3 39-15 19-6-10-10-11-10-3 0 7 9 17 19 22 25 14 47-9 28-29-7-8-8-11-1-7 14 8 37-17 26-28-4-5-1-5 6-1 8 5 12 0 12-16 1-51 18 8 22 76 3 49 9 71 21 77 10 6 16 22 15 47 0 22 3 54 6 73 6 31 6 32-8 15-8-10-19-15-25-11-6 3-11 0-12-7 0-7-4-4-8 7-7 18-8 17-14-6-8-33-47-35-47-2 0 18 7 25 30 30 38 7 43 16 35 55l-7 32-12-25c-10-23-36-34-36-16v26c0 13 11 23 33 30 17 6 38 21 46 33 13 21 13 22-3 9-15-13-19-13-28 0-8 11-9 11-4-3zm37-223c-7-22-10-25-11-10l-1 20-9-20c-8-19-9-19-9 3-1 25 20 54 31 43 4-3 3-20-1-36zm-51 3c0-5 0-15 0-23 0-20-26-19-34 1-10 26-7 31 14 30 11 0 20-4 20-8zm-71-35c-1-17-3-21-6-10-2 9-9 17-14 17s-9 5-9 10c0 6 7 10 15 10 10 0 15-9 14-27zm71-17c0-3-4-8-10-11-5-3-10-1-10 4 0 6 5 11 10 11 6 0 10-2 10-4zm30-6c0-5-4-10-10-10-5 0-10 5-10 10 0 6 5 10 10 10 6 0 10-4 10-10zm-120-11c0-7 11-9 30-5 17 3 30 1 30-4 0-6 5-10 11-10 15 0 41-28 37-40-2-6-14-4-30 4-14 8-42 19-62 26-32 10-51 40-26 40 6 0 10-5 10-11z"/><path d="m1032 2785c0-16 2-22 5-12 2 9 2 23 0 30-3 6-5-1-5-18z"/><path d="m1025 2730c-4-12-5-24-2-27 3-2 8 5 12 17s5 24 2 27c-3 2-8-5-12-17z"/><path d="m1181 2550c-1-8-4-42-6-75-4-59-4-59 6-15 5 25 8 59 6 75-2 17-5 23-6 15z"/><path d="m915 2414c-12-19-14-29-5-39 7-8 9-28 4-49-5-31-4-35 10-30 9 3 16 16 16 29s7 26 16 29c21 8 33-2 15-13-9-6-1-10 23-13 39-4 49 6 15 15-14 4-20 11-16 20 6 17-29 31-39 16-8-13-24-1-24 17 0 9 5 12 13 8 6-4 9-4 5 1-4 4-3 14 3 22 9 10 8 13-4 13-8 0-22-12-32-26z"/><path d="m1038 2423c-13-3-18-14-17-36 2-31 2-31 6-4 4 25 7 28 34 22 30-7 41 8 13 19-9 3-16 5-17 5-1-1-10-3-19-6z"/><path d="m1111 2354c0-11 3-14 6-6 3 7 2 16-1 19-3 4-6-2-5-13z"/><path d="m883 2253c-3-10-8-22-11-27s0-6 5-3c11 7 25 47 17 47-3 0-7-8-11-17z"/><path d="m720 2226c0-14-4-28-10-31-5-3-10-2-10 2 0 12-70 37-78 28-4-4-1-10 6-12 6-3 10-9 6-14-3-5 2-9 10-9 10 0 16-9 16-21 0-14-5-19-14-16-24 10-28-24-6-46 12-10 24-16 28-12s-2 13-12 21c-11 7-17 17-13 20 12 12 35-23 42-64 8-51 22-56 19-6-3 31-1 34 11 24 11-9 15-9 15-1 0 6-7 14-15 17-8 4-15 11-15 16 0 6 7 8 14 5 10-4 13-1 9 9-3 7-9 14-14 14s-9 7-9 16c0 8 5 12 11 8 6-3 15 0 20 7 12 19 11 56-1 64-6 3-10-5-10-19zm-33-61c0-8-4-15-9-15-10 0-11 14-1 23 9 10 10 9 10-8z"/><path d="m820 2220c0-5-8-10-17-10-26-1-63-35-62-57 0-10 3-13 6-5 2 6 13 12 24 12 10 0 19 4 19 9s8 11 18 13c15 4 30 48 16 48-2 0-4-4-4-10z"/><path d="m520 2190c0-5-7-7-15-4-11 5-15-1-14-22 1-16 3-21 6-12 2 9 10 15 16 12 7-2 13 4 14 16 1 11 0 20-3 20-2 0-4-4-4-10z"/><path d="m548 2194c-5-4-8-21-7-38 0-30 0-30 10-7 11 27 8 57-3 45z"/><path d="m1030 2172c0-11 22-32 32-32 5 0 4 9-2 20-11 20-30 28-30 12z"/><path d="m440 2160c19-13 30-13 30 0 0 6-10 10-22 10-19 0-20-2-8-10z"/><path d="m986 2161c-4-7-5-15-2-18 9-9 19 4 14 18-4 11-6 11-12 0z"/><path d="m570 2129c0-5 5-7 10-4 6 3 10 8 10 11 0 2-4 4-10 4-5 0-10-5-10-11z"/><path d="m740 2095c0-20 5-25 25-25 14 0 25 4 25 9s-11 16-25 25c-24 16-25 16-25-9z"/><path d="m832 2095c0-16 2-22 5-12 2 9 2 23 0 30-3 6-5-1-5-18z"/><path d="m1010 2091c0-19 4-30 10-26 6 3 10-1 10-9 0-10 6-13 16-9 21 8 14 43-13 61-22 14-23 13-23-17z"/><path d="m832 2030c0-14 2-19 5-12 2 6 2 18 0 25-3 6-5 1-5-13z"/><path d="m811 2024c0-11 3-14 6-6 3 7 2 16-1 19-3 4-6-2-5-13z"/><path d="m962 1921c1-23 7-31 26-36 14-3 30-1 35 4 8 8 7 11-3 11-11 0-11 3-2 12 17 17 15 31-4 24-8-3-24-1-34 4-16 9-19 6-18-19z"/><path d="m920 1891c0-6 4-12 8-15 5-3 9 1 9 9s-4 15-9 15c-4 0-8-4-8-9z"/><path d="m1075 1871c-3-5-1-12 5-16 5-3 10 1 10 9 0 18-6 21-15 7z"/><path d="m1071 1804c0-11 3-14 6-6 3 7 2 16-1 19-3 4-6-2-5-13z"/><path d="m900 1766c0-8 4-17 9-21 6-3 9 4 8 15-1 23-17 28-17 6z"/><path d="m881 1724c0-11 3-14 6-6 3 7 2 16-1 19-3 4-6-2-5-13z"/><path d="m914 1590c-21-8-39-38-30-48 3-2 13-1 23 3 10 5 21 7 26 7 4-1 7 3 7 9s7 9 15 5c8-3 15-1 15 4s7 7 15 4c11-5 13-2 9 10-7 17-45 20-80 6z"/><path d="m895 1431c-3-17-1-39 5-50s14-53 18-93l7-73 47-2c53-2 58 6 58 90 0 48-13 60-38 35-9-9-12-9-12 0 0 7 5 12 12 12 9 0 9 3 0 12-13 13-21 9-27-18-2-11-8-32-14-49-9-30-9-29-10 12-1 23-6 43-12 45s-11 25-11 51c0 54-13 71-23 28zm84-205c-9-8-10-3-5 23 3 18 7 43 8 55 1 11 3 1 5-23 3-26-1-48-8-55zm38 27c-3-10-5-2-5 17s2 27 5 18c2-10 2-26 0-35z"/><path d="m1037 1439c-3-13-1-19 6-16 15 5 22 37 9 37-5 0-12-9-15-21z"/><path d="m931 1394c0-12 6-27 14-34 12-10 15-10 15 4 0 9-4 16-9 16s-12 8-14 18c-4 13-5 13-6-4z"/><path d="m927 1165c-20-15-20-46 1-53 7-2 12 7 12 25 1 23 3 26 13 13 12-16 47-23 47-10 0 10-35 40-46 40-5 0-17-7-27-15z"/><path d="m810 1945c0-8 4-15 8-15 5 0 9 7 9 15s-4 15-9 15c-4 0-8-7-8-15z"/><path d="m969 930c-2-23-3-29-13-52-4-10-6-23-3-30s6-3 6 8c1 12 8 24 16 28 9 3 15 18 15 36 0 33-19 42-21 10z"/><path d="m960 818c0-10-9-18-22-20-17-2-23-10-24-30-1-16 3-28 8-28s8 10 6 22c-2 16 3 24 17 26 28 5 36 15 25 32-8 13-10 13-10-2z"/></g></svg>