<?xml version="1.0" standalone="no"?>
<!DOCTYPE svg PUBLIC "-//W3C//DTD SVG 20010904//EN"
 "http://www.w3.org/TR/2001/REC-SVG-20010904/DTD/svg10.dtd">
<svg version="1.0" xmlns="http://www.w3.org/2000/svg"
 width="825.000000pt" height="1125.000000pt" viewBox="0 0 825.000000 1125.000000"
 preserveAspectRatio="xMidYMid meet">
<metadata>
Created by potrace 1.16, written by Peter Selinger 2001-2019
</metadata>
<g transform="translate(0.000000,1125.000000) scale(0.100000,-0.100000)"
fill="#000000" stroke="none">
<path d="M4560 8400 c-8 -5 -31 -10 -50 -10 -19 0 -64 -14 -98 -30 -37 -17
-80 -30 -102 -30 -21 0 -41 -4 -44 -9 -4 -5 -40 -26 -82 -47 -42 -20 -78 -43
-81 -51 -3 -7 -13 -13 -22 -13 -10 0 -46 -22 -82 -50 -35 -27 -67 -50 -71 -50
-4 0 -36 -29 -71 -65 -35 -36 -68 -65 -72 -65 -4 0 -17 -10 -29 -22 -12 -13
-36 -34 -55 -48 -18 -14 -42 -33 -52 -42 -11 -10 -23 -18 -27 -18 -4 0 -31
-21 -58 -47 -118 -112 -240 -210 -296 -239 -37 -19 -83 -52 -142 -101 -22 -18
-43 -33 -48 -33 -4 0 -35 -21 -68 -47 -34 -27 -78 -61 -98 -76 -20 -15 -41
-33 -47 -40 -17 -20 -139 -113 -158 -120 -10 -4 -25 -19 -34 -34 -9 -16 -66
-65 -127 -110 -111 -83 -124 -94 -246 -202 -36 -32 -79 -65 -95 -74 -17 -8
-90 -74 -163 -146 -73 -72 -137 -131 -142 -131 -5 0 -36 -23 -70 -50 -33 -28
-78 -61 -99 -73 -49 -27 -247 -177 -322 -243 -31 -27 -85 -66 -120 -87 -35
-21 -93 -63 -129 -93 -36 -30 -79 -61 -95 -69 -17 -8 -65 -48 -108 -88 -58
-54 -76 -77 -71 -90 5 -14 0 -17 -23 -17 -24 0 -33 -7 -46 -32 -29 -62 -47
-106 -47 -120 0 -15 -25 -99 -40 -133 -5 -11 -11 -72 -14 -135 -3 -63 -5 -115
-6 -115 -5 0 -11 -50 -16 -118 -4 -63 -2 -78 11 -83 8 -3 12 -10 9 -15 -8 -14
8 -129 20 -142 16 -17 44 -78 51 -110 4 -21 10 -27 22 -23 10 4 14 2 10 -8 -9
-24 53 -137 98 -181 128 -122 175 -155 264 -185 35 -12 83 -34 107 -50 45 -32
189 -100 209 -100 7 0 23 -8 36 -18 32 -25 229 -112 253 -112 11 0 27 -6 35
-14 9 -7 39 -21 68 -30 28 -10 57 -24 63 -32 7 -7 20 -14 30 -14 10 0 23 -7
30 -15 7 -8 20 -15 29 -15 9 0 34 -11 56 -23 42 -24 133 -57 158 -57 8 0 31
-13 52 -30 21 -16 44 -30 52 -30 8 0 44 -16 80 -35 36 -19 74 -35 83 -35 9 0
25 -9 35 -20 9 -10 34 -25 54 -31 20 -6 44 -20 54 -30 10 -11 24 -19 31 -19
22 0 136 -40 196 -69 33 -16 61 -26 64 -23 3 3 17 -7 30 -21 14 -15 32 -27 41
-27 8 0 32 -9 52 -20 21 -11 47 -20 58 -20 12 0 25 -4 31 -9 5 -5 45 -24 89
-41 79 -32 118 -49 313 -141 56 -27 104 -49 107 -49 2 0 27 -14 55 -30 28 -17
55 -28 60 -25 5 3 19 -4 30 -15 14 -14 32 -20 58 -19 46 3 74 17 136 68 27 23
59 44 72 47 13 3 24 9 24 13 0 3 23 20 51 36 28 17 66 42 86 58 20 15 40 27
45 27 5 0 34 20 65 45 30 25 58 45 63 45 4 0 22 13 40 30 17 16 55 40 83 54
29 13 68 38 87 55 19 16 53 40 74 53 21 13 49 33 62 45 13 12 38 30 56 40 18
10 37 24 41 31 4 7 29 24 55 38 43 23 120 73 167 109 10 8 24 15 30 15 5 0 24
15 41 33 46 47 134 110 190 136 11 5 34 21 51 35 19 16 37 24 47 20 10 -4 31
5 53 22 110 86 189 144 198 144 5 0 23 13 40 29 33 32 191 141 204 141 4 0 17
11 29 25 12 14 32 25 44 25 30 0 70 26 136 88 30 28 74 58 98 67 24 9 44 20
44 24 0 4 39 32 86 62 48 30 101 66 119 81 18 16 37 28 43 28 5 0 27 17 49 38
65 61 93 83 142 109 41 21 73 44 161 113 14 11 30 20 37 20 6 0 13 3 15 8 4 9
102 72 113 72 4 0 29 16 55 35 26 19 53 35 59 35 6 0 27 15 47 34 20 19 57 45
83 58 25 13 52 29 59 36 7 6 19 12 26 12 7 0 20 8 29 18 9 10 32 24 52 32 22
9 35 20 35 32 0 10 7 18 15 18 24 0 47 68 41 125 -3 27 -6 93 -7 145 l-1 95
-37 33 c-20 18 -64 46 -98 63 -35 17 -63 34 -63 38 0 5 -22 18 -50 30 -27 12
-50 25 -50 29 -1 4 -5 41 -11 82 -16 120 -14 202 4 240 10 18 17 37 17 41 0
22 73 117 106 139 21 14 58 44 83 68 24 24 57 46 72 49 25 5 28 10 33 57 3 28
7 109 9 179 4 123 3 129 -20 153 -13 14 -21 30 -18 35 4 5 -2 12 -12 15 -10 3
-45 18 -78 33 -33 15 -96 43 -140 61 -44 18 -87 39 -96 47 -9 7 -38 20 -65 29
-27 9 -53 20 -59 24 -5 4 -28 13 -50 20 -48 16 -165 79 -165 89 0 8 -71 45
-110 56 -14 5 -49 21 -78 36 -29 16 -61 29 -71 29 -10 0 -24 6 -30 14 -7 8
-25 18 -41 21 -16 3 -34 12 -40 20 -6 7 -22 16 -35 19 -14 4 -46 20 -72 36
-26 17 -54 30 -62 31 -9 0 -29 9 -46 20 -16 10 -43 24 -60 31 -25 10 -116 55
-190 95 -11 6 -31 15 -45 21 -14 5 -41 17 -62 26 -20 9 -42 16 -50 16 -7 0
-22 6 -33 14 -11 7 -56 27 -100 44 -116 44 -184 74 -235 103 -25 14 -64 31
-88 39 -24 7 -59 30 -79 51 -23 23 -52 42 -78 48 -23 6 -48 17 -55 26 -7 8
-22 15 -34 15 -11 1 -37 10 -56 20 -40 22 -60 32 -145 70 -33 15 -85 39 -115
53 -96 45 -110 49 -110 29 -1 -15 -2 -15 -13 -2 -12 15 -110 50 -138 50 -8 0
-21 -5 -29 -10z m103 -126 c18 -9 40 -23 49 -31 9 -8 21 -12 26 -9 5 3 31 -5
58 -18 27 -13 65 -26 85 -30 21 -4 42 -12 48 -20 6 -7 37 -21 68 -31 32 -11
65 -24 73 -31 8 -6 32 -17 52 -23 21 -7 40 -17 43 -22 4 -5 17 -9 31 -9 13 0
32 -4 42 -10 9 -5 58 -25 107 -44 78 -30 260 -117 305 -146 8 -5 51 -26 95
-46 44 -20 107 -48 140 -64 33 -15 76 -34 95 -41 19 -7 42 -18 50 -24 8 -7 33
-19 55 -26 22 -8 42 -17 45 -20 3 -4 28 -16 55 -28 89 -39 276 -139 286 -154
4 -5 28 -13 55 -18 26 -5 50 -13 53 -18 9 -13 370 -191 389 -191 6 0 17 -6 24
-13 7 -7 43 -27 79 -45 37 -18 72 -39 79 -47 7 -8 18 -15 25 -15 18 0 103 -39
110 -50 3 -6 13 -10 22 -10 9 0 45 -17 80 -37 59 -35 77 -53 53 -53 -6 0 -38
-18 -70 -40 -33 -21 -75 -46 -93 -55 -17 -9 -83 -54 -146 -100 -63 -47 -118
-85 -123 -85 -10 0 -132 -83 -168 -114 -14 -12 -43 -34 -65 -49 -22 -15 -52
-37 -67 -49 -14 -13 -41 -34 -58 -48 -18 -14 -44 -37 -59 -52 -29 -30 -93 -82
-136 -113 -15 -11 -42 -31 -59 -46 -17 -14 -55 -42 -84 -63 -28 -21 -58 -45
-65 -54 -13 -18 -28 -29 -165 -122 -51 -34 -104 -75 -119 -91 -16 -16 -32 -29
-37 -29 -4 0 -30 -16 -56 -35 -26 -19 -52 -35 -56 -35 -5 0 -28 -18 -52 -40
-23 -22 -45 -40 -50 -40 -4 0 -24 -16 -45 -35 -21 -19 -42 -35 -47 -35 -10 0
-74 -45 -142 -100 -20 -17 -40 -30 -43 -30 -8 0 -109 -82 -113 -92 -2 -4 -19
-15 -38 -24 -19 -9 -62 -44 -97 -78 -54 -54 -94 -88 -204 -173 -15 -12 -40
-32 -55 -45 -15 -13 -42 -34 -59 -48 -38 -29 -108 -86 -160 -130 -20 -16 -41
-30 -46 -30 -5 0 -34 -18 -64 -40 -30 -21 -74 -54 -99 -71 -25 -18 -50 -38
-55 -43 -18 -19 -74 -56 -85 -56 -5 0 -18 -8 -28 -17 -34 -34 -107 -90 -142
-109 -19 -10 -75 -47 -124 -82 -48 -35 -101 -66 -117 -69 -16 -3 -33 -11 -39
-18 -8 -10 -30 -4 -103 27 -50 22 -99 46 -108 54 -8 8 -23 14 -32 14 -9 0 -55
16 -101 35 -47 19 -91 35 -97 35 -18 0 -268 116 -361 167 -43 23 -89 45 -104
49 -15 4 -55 23 -88 41 -34 19 -90 48 -126 65 -36 16 -85 40 -110 52 -25 13
-69 31 -98 40 -28 10 -73 29 -98 42 -25 13 -53 24 -62 24 -9 0 -52 18 -95 40
-42 22 -86 40 -96 40 -10 0 -30 9 -44 20 -14 11 -45 29 -68 40 -24 10 -78 38
-119 61 -137 76 -265 137 -310 149 -25 6 -62 22 -82 36 -21 13 -64 38 -95 55
-147 79 -209 128 -217 171 -11 62 -63 102 -133 102 -18 0 -33 2 -33 6 1 20
282 240 307 240 5 0 37 18 71 40 33 22 66 40 71 40 5 0 20 13 33 29 13 16 43
41 68 57 25 16 47 32 48 37 2 4 10 7 17 7 7 0 16 14 20 30 5 21 13 30 26 30
11 0 38 17 62 38 23 21 55 44 71 52 16 8 33 25 39 37 6 13 13 23 16 23 3 0 24
16 46 35 22 19 45 35 51 35 6 0 17 7 24 15 7 9 34 25 61 36 27 12 60 37 78 60
18 21 38 39 45 39 13 0 42 27 48 45 7 24 243 225 263 225 7 0 34 24 62 53 27
28 70 67 96 84 30 21 47 40 47 53 0 11 7 20 15 20 9 0 44 24 78 53 34 29 76
58 93 65 17 8 36 24 42 37 6 13 44 46 84 73 66 44 198 150 271 216 16 14 30
26 33 26 2 0 57 40 122 89 65 49 142 103 170 121 29 17 52 35 52 39 0 4 15 12
34 19 18 7 62 38 97 70 54 48 117 101 177 147 7 5 21 17 31 25 10 8 25 20 34
25 35 22 104 71 144 103 38 30 114 64 188 82 56 15 164 11 198 -6z m2798
-1426 c0 -18 3 -56 5 -84 l5 -50 -57 -49 c-31 -28 -69 -58 -85 -67 -15 -9 -46
-35 -68 -56 -39 -38 -148 -117 -214 -156 -18 -10 -33 -22 -35 -27 -2 -5 -10
-9 -17 -9 -8 0 -19 -9 -25 -20 -6 -12 -21 -25 -33 -31 -38 -16 -82 -45 -113
-74 -16 -15 -60 -48 -98 -73 -38 -26 -78 -59 -89 -74 -12 -16 -26 -28 -33 -28
-7 0 -14 -3 -16 -7 -5 -12 -120 -106 -148 -122 -14 -8 -41 -27 -60 -42 -57
-46 -279 -213 -308 -231 -42 -27 -63 -42 -76 -53 -6 -5 -26 -18 -44 -28 -18
-10 -43 -29 -57 -41 -13 -12 -40 -31 -61 -42 -20 -10 -57 -38 -83 -62 -25 -24
-63 -52 -83 -63 -21 -11 -38 -24 -38 -29 0 -5 -21 -21 -47 -34 -27 -13 -61
-36 -76 -50 -15 -14 -33 -26 -38 -26 -6 0 -25 -14 -42 -30 -92 -87 -350 -267
-386 -269 -7 -1 -21 -9 -30 -19 -9 -10 -51 -40 -94 -68 -43 -27 -117 -77 -163
-111 -46 -35 -86 -63 -89 -63 -3 0 -51 -35 -108 -78 -56 -42 -119 -88 -139
-102 -21 -14 -38 -29 -38 -34 0 -12 -111 -96 -127 -96 -3 0 -14 -11 -25 -25
-11 -14 -36 -34 -56 -44 -21 -10 -46 -28 -56 -40 -11 -12 -24 -21 -30 -21 -6
0 -22 -9 -36 -20 -14 -11 -37 -20 -52 -20 -25 0 -28 4 -30 33 -3 67 3 82 45
120 23 21 51 42 62 48 11 5 34 18 50 29 17 11 40 24 53 30 12 5 22 14 22 20 0
5 5 10 11 10 6 0 36 19 67 43 31 23 77 56 102 72 25 16 66 48 91 71 25 23 55
45 67 48 12 4 22 12 22 17 0 5 5 9 11 9 6 0 29 16 52 35 22 19 46 35 52 35 6
0 27 15 46 34 19 18 41 37 50 42 19 11 91 69 132 107 17 15 36 27 43 27 7 0
26 16 41 35 15 19 34 35 40 35 7 0 21 8 31 18 9 9 53 46 97 82 44 36 88 75 98
87 10 13 23 23 28 23 5 0 25 16 45 35 19 19 39 35 42 35 4 0 18 10 32 23 14
13 57 45 95 71 39 27 75 53 80 60 6 6 34 26 63 45 28 18 52 37 52 41 0 4 59
47 132 96 72 48 142 100 156 116 14 15 30 28 35 28 5 0 32 16 58 35 27 19 52
35 57 35 4 0 27 18 52 41 25 22 70 58 100 78 30 21 64 49 75 61 11 12 40 36
65 53 38 26 64 47 153 125 4 4 18 18 32 32 34 35 64 60 71 60 3 0 18 10 33 23
15 12 40 31 55 42 15 11 64 49 109 84 45 35 98 70 117 78 19 8 53 28 75 44 22
17 76 53 119 80 43 28 88 60 100 71 12 11 30 24 41 29 11 5 43 22 70 38 28 17
53 30 58 31 4 0 7 -15 8 -32z m-326 -515 c-5 -10 -12 -40 -18 -68 -14 -73 -15
-75 -33 -75 -16 0 -58 -31 -139 -104 -21 -19 -52 -38 -68 -42 -35 -7 -134 -80
-142 -104 -6 -17 -77 -68 -130 -92 -16 -7 -39 -21 -50 -31 -11 -10 -40 -30
-65 -45 -25 -14 -54 -33 -65 -42 -11 -10 -32 -21 -47 -26 -29 -9 -43 -20 -178
-139 -49 -43 -101 -80 -122 -87 -21 -6 -38 -15 -38 -20 0 -4 -7 -8 -15 -8 -8
0 -29 -18 -46 -40 -18 -22 -43 -43 -55 -46 -13 -3 -28 -12 -35 -20 -6 -8 -21
-14 -32 -14 -11 0 -47 -28 -84 -65 -35 -36 -68 -65 -72 -65 -4 0 -20 -11 -35
-25 -30 -27 -46 -32 -46 -12 0 20 14 35 43 46 15 6 33 22 39 37 17 38 65 82
149 139 41 28 85 60 99 73 14 12 28 22 31 22 3 0 26 16 50 35 24 19 49 35 55
35 6 0 19 9 30 21 10 12 44 34 75 50 42 20 58 35 63 55 4 14 12 32 19 38 21
21 164 126 171 126 4 0 31 16 61 35 30 19 77 46 105 60 34 17 50 32 50 44 0
24 59 75 144 125 36 21 66 45 66 52 0 7 8 18 18 23 10 5 36 26 57 46 50 46
166 124 184 125 9 0 11 -6 6 -17z m-35 -229 c0 -16 -14 -37 -41 -62 -23 -20
-53 -47 -67 -59 -14 -13 -29 -23 -33 -23 -5 0 -9 -6 -10 -12 0 -11 -64 -59
-137 -103 -20 -12 -95 -70 -114 -88 -7 -7 -35 -30 -62 -51 -26 -22 -62 -52
-78 -67 -17 -15 -42 -29 -57 -32 -15 -3 -62 -33 -105 -66 -43 -34 -83 -61 -89
-61 -16 0 -123 -57 -168 -90 -23 -16 -47 -30 -53 -30 -6 0 -38 -29 -71 -65
-33 -36 -64 -65 -69 -65 -5 0 -23 -11 -40 -24 -17 -13 -61 -37 -98 -55 -37
-17 -70 -35 -73 -41 -11 -17 -215 -150 -255 -166 -21 -9 -41 -21 -43 -29 -3
-7 -27 -21 -54 -31 -55 -20 -123 -69 -123 -89 0 -21 27 -25 52 -7 23 17 31 22
107 64 20 11 48 29 63 39 14 11 31 19 37 19 6 0 11 4 11 9 0 5 15 15 34 21 19
6 40 18 47 26 11 13 124 84 134 84 17 0 -18 -38 -81 -87 -41 -32 -74 -61 -74
-65 0 -5 -6 -8 -14 -8 -8 0 -16 -4 -18 -8 -1 -5 -34 -23 -72 -41 -38 -18 -116
-66 -172 -107 -57 -41 -110 -74 -118 -74 -20 0 -107 -46 -181 -95 -46 -31
-155 -82 -155 -73 0 9 79 68 90 68 4 0 52 29 105 65 54 36 104 65 112 65 7 0
13 9 13 20 0 13 7 20 20 20 15 0 20 7 20 24 0 14 -4 28 -10 31 -14 9 -50 -13
-50 -30 0 -8 -15 -21 -32 -29 -18 -7 -44 -25 -57 -40 -14 -14 -29 -26 -35 -26
-6 0 -37 -18 -70 -40 -32 -22 -63 -40 -68 -40 -5 0 -35 -25 -66 -56 -32 -30
-73 -62 -92 -70 -19 -8 -44 -24 -56 -35 -11 -11 -38 -29 -60 -40 -132 -71
-178 -86 -113 -38 17 13 57 49 88 80 52 53 136 109 164 109 7 0 27 16 46 35
18 18 45 36 59 40 14 3 37 15 51 26 53 41 97 69 138 89 51 25 60 37 40 57 -17
18 -9 22 -145 -69 -72 -49 -82 -54 -82 -40 0 8 105 92 115 92 4 0 24 12 44 28
37 28 45 32 134 81 100 55 116 66 126 88 6 12 25 30 43 39 18 9 48 27 66 41
41 31 202 115 202 105 0 -8 -110 -82 -160 -107 -19 -10 -53 -34 -76 -54 -22
-20 -66 -58 -97 -86 -59 -53 -66 -65 -43 -84 11 -9 19 -7 38 11 22 21 90 82
148 132 37 32 77 56 93 56 8 0 29 16 48 35 19 19 45 37 59 40 39 9 209 139
210 161 0 14 44 44 64 44 8 0 21 6 28 14 8 7 28 21 45 29 16 9 38 27 47 41 9
15 21 26 27 26 6 0 23 8 37 19 15 10 43 28 63 39 70 39 81 47 132 98 49 49
214 164 235 164 5 0 12 6 15 14 3 7 27 24 54 37 26 13 57 31 68 42 11 10 33
21 48 24 30 6 67 38 107 91 13 18 42 42 65 53 22 11 69 42 105 69 126 97 140
102 140 54z m14 -116 c10 -39 7 -44 -41 -68 -27 -12 -59 -35 -73 -49 -14 -14
-49 -41 -77 -60 -29 -18 -53 -37 -53 -41 0 -4 -17 -15 -38 -23 -22 -9 -77 -54
-129 -105 -78 -77 -201 -174 -264 -207 -11 -5 -19 -15 -19 -22 0 -21 21 -26
39 -9 10 9 23 16 29 16 6 0 30 15 54 33 24 18 59 42 78 54 19 12 45 33 58 47
12 14 26 26 32 26 5 0 16 15 24 34 9 22 27 40 48 50 31 15 74 46 118 87 9 9
28 19 41 22 13 4 40 21 59 39 52 49 117 91 129 83 22 -13 10 -42 -35 -80 -26
-22 -61 -53 -78 -69 -17 -15 -59 -41 -93 -57 -34 -16 -79 -47 -100 -68 -62
-63 -229 -181 -373 -265 -36 -21 -69 -44 -73 -52 -4 -8 -16 -14 -25 -14 -10 0
-35 -12 -57 -27 -46 -32 -97 -60 -175 -99 -30 -15 -68 -37 -85 -49 -16 -13
-50 -31 -75 -42 -25 -11 -63 -37 -85 -57 -22 -21 -56 -46 -77 -57 -20 -10 -46
-32 -58 -49 -41 -58 -75 -88 -124 -110 -28 -12 -67 -33 -88 -47 -20 -14 -52
-33 -70 -42 -18 -9 -45 -35 -60 -57 -16 -24 -41 -46 -60 -54 -87 -32 -116 -46
-150 -72 -20 -16 -46 -31 -57 -33 -27 -5 -79 -33 -88 -48 -4 -6 -28 -25 -52
-42 -24 -16 -50 -39 -58 -52 -8 -12 -27 -25 -43 -28 -16 -3 -34 -13 -41 -21
-6 -8 -16 -14 -22 -14 -6 0 -28 -12 -49 -26 -26 -18 -38 -34 -38 -50 0 -13 4
-24 9 -24 5 0 33 20 63 45 30 25 62 45 70 45 9 0 21 7 29 16 7 8 29 24 48 34
20 10 58 39 84 64 31 30 63 50 92 58 25 7 57 22 71 35 15 12 64 41 110 63 78
38 134 81 134 105 0 14 50 45 145 90 44 20 82 40 85 44 3 4 17 14 33 24 15 10
27 23 27 29 0 24 52 77 102 103 29 15 65 38 80 50 42 36 144 95 162 95 9 0 16
4 16 9 0 5 14 12 30 16 17 4 30 11 30 16 0 5 5 9 12 9 6 0 46 23 89 50 43 28
85 50 93 50 8 0 27 11 42 25 14 13 31 22 37 18 6 -3 2 -11 -9 -19 -10 -8 -30
-22 -44 -31 -13 -10 -43 -34 -65 -54 -22 -20 -67 -50 -101 -68 -33 -17 -81
-49 -105 -69 -25 -20 -74 -53 -109 -72 -35 -19 -75 -47 -90 -61 -14 -15 -51
-41 -82 -58 -31 -18 -67 -42 -80 -54 -12 -12 -41 -35 -63 -50 -22 -15 -55 -40
-72 -56 -119 -105 -302 -227 -385 -257 -10 -4 -18 -10 -18 -14 0 -5 -30 -23
-67 -42 -38 -18 -147 -86 -244 -151 -97 -64 -180 -117 -185 -117 -6 0 -23 -13
-39 -30 -16 -16 -35 -30 -43 -30 -12 0 -67 -33 -82 -50 -3 -3 -17 -11 -32 -19
-16 -8 -28 -18 -28 -23 0 -4 -4 -8 -9 -8 -14 0 -161 -102 -161 -111 0 -5 -6
-9 -12 -9 -7 0 -47 -28 -88 -61 -41 -34 -84 -65 -95 -70 -29 -13 -50 -27 -143
-96 -46 -35 -88 -63 -93 -63 -5 0 -18 5 -28 12 -16 10 -17 14 -6 25 8 7 18 13
24 13 6 0 15 9 21 20 6 11 16 20 23 20 7 0 34 20 60 44 27 24 60 47 74 51 30
7 71 35 134 90 88 78 144 120 184 140 22 11 59 32 82 48 24 15 48 27 54 27 6
0 38 16 71 36 60 37 95 75 83 94 -10 17 -37 11 -42 -10 -3 -10 -24 -29 -47
-41 -22 -11 -68 -36 -101 -55 -33 -18 -88 -47 -123 -65 -34 -17 -67 -39 -72
-50 -6 -10 -16 -19 -24 -19 -7 0 -44 -27 -82 -61 -38 -33 -94 -73 -125 -89
-30 -15 -70 -42 -88 -59 -18 -17 -36 -31 -38 -31 -3 0 -30 -21 -60 -47 -44
-36 -57 -43 -64 -32 -5 8 -9 19 -9 25 0 7 -7 15 -16 18 -24 9 -6 26 27 26 17
0 29 5 29 13 0 8 24 26 53 40 30 14 60 33 67 42 7 8 18 15 24 15 7 0 25 14 42
31 73 78 162 134 252 158 23 7 42 15 42 20 0 11 143 161 154 161 7 0 64 35
204 128 29 19 57 43 63 53 12 24 165 126 270 180 46 24 93 52 104 62 11 10 39
23 62 30 24 6 55 21 69 34 15 13 34 23 43 23 9 0 32 16 51 35 19 19 39 35 45
35 5 0 22 10 36 23 36 32 65 47 93 47 13 0 29 7 37 16 7 8 25 22 39 29 35 18
69 46 142 117 33 32 94 78 136 103 42 26 109 66 147 90 39 25 90 54 115 67 25
12 69 39 98 60 29 22 72 46 95 54 59 21 87 41 87 64 0 21 -15 27 -25 10 -3 -5
-17 -10 -29 -10 -13 0 -29 -7 -36 -15 -7 -8 -18 -15 -25 -15 -6 0 -41 -19 -76
-42 -136 -89 -150 -98 -160 -98 -41 0 58 103 110 115 18 4 35 13 38 21 5 15
44 36 114 63 25 10 54 26 65 35 79 73 111 96 134 96 24 0 79 39 147 105 47 46
71 64 182 140 57 39 122 88 144 110 48 45 109 94 118 95 4 0 9 -10 13 -22z
m180 -104 c25 -14 48 -30 51 -35 4 -5 15 -9 25 -9 17 0 80 -56 80 -71 0 -3
-26 -31 -57 -62 -43 -42 -60 -54 -72 -47 -18 10 -63 -15 -114 -62 -18 -16 -57
-43 -87 -60 -30 -18 -86 -57 -125 -88 -38 -32 -85 -65 -102 -76 -18 -10 -33
-22 -33 -25 0 -4 -24 -21 -53 -38 -29 -17 -62 -40 -73 -52 -22 -25 -147 -109
-162 -109 -5 0 -20 -11 -33 -25 -30 -32 -153 -124 -199 -149 -19 -10 -52 -32
-73 -48 -20 -16 -61 -40 -90 -54 -28 -13 -71 -37 -94 -52 -72 -47 -138 -91
-149 -100 -5 -5 -26 -17 -46 -26 -20 -10 -44 -26 -54 -37 -9 -10 -22 -19 -28
-19 -6 0 -29 -16 -51 -35 -22 -20 -53 -43 -68 -51 -15 -8 -36 -22 -45 -30 -9
-8 -62 -45 -117 -81 -55 -36 -109 -74 -120 -84 -11 -10 -37 -25 -58 -34 -20
-8 -49 -26 -64 -40 -54 -48 -118 -93 -144 -98 -14 -4 -38 -18 -53 -32 -15 -14
-31 -25 -35 -25 -5 0 -31 -18 -57 -40 -27 -22 -77 -54 -111 -70 -35 -17 -63
-35 -63 -40 0 -5 -15 -16 -32 -25 -18 -8 -67 -42 -108 -75 -41 -33 -78 -60
-83 -60 -4 0 -25 -11 -47 -25 -22 -14 -46 -25 -54 -25 -8 0 -19 -6 -23 -13 -9
-14 -79 -67 -88 -67 -4 0 -24 -13 -45 -30 -21 -16 -45 -30 -53 -30 -9 0 -19
-5 -22 -10 -4 -6 -23 -21 -43 -34 -21 -13 -49 -35 -63 -48 -14 -13 -40 -30
-57 -37 -17 -7 -33 -18 -35 -25 -3 -7 -46 -41 -96 -75 -86 -57 -131 -75 -131
-51 0 10 -86 53 -170 85 -25 9 -52 23 -60 30 -8 7 -34 18 -58 25 -24 6 -62 22
-85 34 -23 13 -60 29 -82 36 -22 7 -48 19 -58 28 -18 16 -144 72 -161 72 -5 0
-17 6 -25 13 -9 7 -43 24 -76 36 -33 13 -67 30 -76 38 -9 7 -39 21 -67 31 -27
10 -56 23 -64 28 -7 6 -41 21 -75 34 -35 12 -63 26 -63 30 0 5 -17 14 -37 20
-21 7 -74 29 -118 51 -45 21 -85 39 -90 39 -4 0 -16 6 -24 14 -9 7 -45 23 -81
35 -36 12 -90 33 -120 48 -181 85 -220 102 -270 118 -30 10 -62 23 -70 30 -12
11 -49 26 -70 30 -3 0 -19 8 -37 18 -17 9 -57 26 -88 38 -31 11 -55 23 -53 25
10 9 136 -31 164 -52 17 -13 41 -24 53 -24 12 0 53 -16 91 -35 38 -19 75 -35
83 -35 7 0 30 -9 52 -20 22 -11 44 -20 51 -20 6 0 22 -9 35 -19 14 -10 45 -25
69 -32 25 -7 47 -16 50 -19 5 -5 52 -25 203 -84 37 -14 77 -26 90 -26 37 0
101 -24 252 -95 39 -18 88 -38 110 -45 22 -7 56 -24 75 -36 19 -13 40 -24 47
-24 8 0 21 -4 31 -9 51 -28 210 -101 219 -101 6 0 24 -6 40 -14 149 -73 180
-86 195 -86 10 0 40 -16 67 -35 26 -19 55 -35 62 -35 8 0 34 -16 58 -35 44
-35 74 -44 86 -25 3 6 14 10 24 10 10 0 33 18 51 40 18 22 40 40 47 40 7 0 13
4 13 9 0 9 58 48 93 63 9 4 17 12 17 18 0 5 5 10 10 10 6 0 20 9 32 20 12 11
28 20 35 20 7 0 13 4 13 9 0 7 61 50 123 88 39 23 101 69 129 96 16 15 36 27
44 27 8 0 14 5 14 10 0 6 6 10 13 10 7 0 26 14 42 30 16 17 34 30 41 30 6 0
43 24 80 53 38 28 85 60 104 69 44 22 65 36 111 71 20 15 40 27 43 27 12 0
120 72 160 106 22 19 46 34 53 34 7 0 13 5 13 10 0 6 8 10 18 10 10 0 22 4 28
9 9 10 94 60 189 111 28 15 73 41 101 56 29 16 87 62 129 102 43 39 83 72 90
72 6 0 20 9 30 20 10 11 23 20 30 20 7 0 20 8 29 19 9 10 56 45 104 77 48 32
93 64 100 71 7 7 20 13 28 13 8 0 14 4 14 10 0 5 15 16 33 24 18 7 46 25 62
40 15 14 32 26 36 26 5 0 31 16 58 35 26 19 53 35 59 35 6 0 15 6 19 13 29 45
240 194 288 203 21 4 38 16 49 35 9 16 27 34 39 41 12 6 57 38 101 70 43 32
82 58 87 58 4 0 23 14 41 31 39 36 204 149 218 149 14 0 82 39 102 58 16 16
16 21 1 79 -15 61 -13 93 5 93 5 0 30 -12 56 -26z m-166 -133 c-13 -17 -27
-30 -33 -30 -5 -1 -32 -18 -60 -39 -113 -84 -156 -110 -183 -111 -21 -1 -20 1
11 29 19 17 41 30 48 30 21 0 130 70 174 112 48 46 78 52 43 9z m323 -108 c6
-61 -2 -109 -18 -121 -50 -36 -156 -102 -163 -102 -5 0 -24 -13 -42 -28 -18
-16 -45 -32 -60 -36 -18 -4 -28 -13 -28 -25 0 -12 -20 -29 -60 -50 -32 -17
-82 -51 -111 -74 -72 -58 -100 -75 -126 -76 -16 -1 -23 -7 -23 -20 0 -12 -9
-23 -22 -27 -13 -3 -61 -35 -108 -69 -47 -34 -120 -79 -162 -99 -53 -25 -78
-43 -78 -55 0 -15 -49 -61 -66 -61 -11 0 -134 -84 -134 -92 0 -15 -83 -68
-105 -68 -13 0 -29 -8 -36 -19 -19 -25 -228 -177 -256 -185 -13 -4 -23 -12
-23 -17 0 -5 -15 -17 -33 -26 -68 -37 -102 -59 -141 -94 -23 -20 -56 -40 -73
-44 -18 -3 -39 -14 -46 -23 -14 -20 -72 -62 -85 -62 -5 0 -19 -11 -32 -25 -13
-14 -27 -25 -31 -25 -7 0 -70 -39 -94 -58 -5 -4 -24 -14 -42 -21 -18 -7 -38
-20 -44 -28 -7 -7 -36 -25 -65 -38 -29 -13 -56 -30 -61 -38 -20 -35 -173 -132
-195 -125 -12 4 -41 -16 -87 -63 -14 -14 -46 -39 -71 -54 -25 -15 -70 -49
-100 -75 -30 -26 -74 -57 -97 -68 -23 -12 -44 -26 -48 -32 -3 -5 -23 -17 -43
-26 -20 -10 -62 -38 -92 -63 -30 -26 -67 -52 -82 -59 -16 -6 -28 -16 -28 -22
0 -5 -5 -10 -12 -10 -6 0 -26 -11 -44 -25 -19 -14 -55 -36 -81 -48 -60 -28
-129 -72 -140 -89 -8 -12 -47 -38 -58 -38 -3 0 -5 30 -4 68 l0 67 45 35 c25
19 54 43 64 53 11 9 22 17 25 17 15 0 203 133 218 155 10 14 24 25 32 25 8 0
40 18 71 40 32 22 61 40 66 40 5 0 25 16 45 35 20 20 47 38 59 41 12 3 25 12
28 20 3 8 12 14 21 14 8 0 15 5 15 10 0 6 9 10 20 10 11 0 28 9 38 21 9 11 36
28 58 39 23 10 51 26 61 36 10 11 42 35 71 54 29 19 52 38 52 42 0 3 13 9 29
13 16 3 32 13 35 21 3 8 13 14 21 14 16 0 87 48 93 63 2 4 25 19 52 32 54 27
126 74 184 119 22 17 55 39 75 49 20 11 66 41 102 68 37 27 69 49 72 49 8 0
143 93 214 147 53 42 113 82 171 118 10 6 33 22 52 36 19 15 54 37 78 49 23
12 42 26 42 30 0 5 24 20 54 33 30 14 82 43 116 66 34 23 63 41 65 41 6 0 95
60 150 102 28 21 54 38 59 38 4 0 16 11 27 24 10 13 32 29 49 36 16 7 30 16
30 21 0 5 5 9 11 9 7 0 35 18 63 41 62 49 154 109 168 109 6 0 19 12 31 26 19
24 146 125 188 150 10 6 27 18 36 26 10 8 26 18 36 21 9 4 17 11 17 17 0 5 10
10 23 10 12 0 31 7 41 15 11 8 27 15 35 15 9 1 41 21 71 45 61 50 69 53 71 28z
m-6242 -63 c24 -17 53 -44 63 -60 11 -20 26 -30 41 -30 13 0 32 -9 42 -20 10
-11 24 -20 32 -20 7 0 13 -5 13 -10 0 -6 8 -14 18 -17 9 -4 31 -20 47 -35 17
-16 41 -31 55 -34 14 -4 46 -19 73 -35 26 -16 53 -29 61 -29 7 0 19 -7 26 -15
7 -8 19 -15 28 -15 8 0 23 -6 31 -14 9 -7 61 -31 116 -54 146 -59 195 -82 195
-91 0 -4 6 -8 13 -8 7 0 39 -12 71 -27 32 -15 60 -25 63 -22 3 3 17 -4 31 -14
13 -11 32 -20 41 -21 9 0 30 -9 46 -19 17 -10 59 -34 95 -52 182 -94 230 -121
230 -129 0 -5 7 -9 15 -9 9 0 32 -11 53 -24 20 -13 55 -30 77 -37 22 -7 72
-27 110 -45 112 -52 236 -104 249 -104 7 0 27 -11 45 -24 18 -14 52 -28 74
-32 23 -3 71 -21 107 -38 36 -18 85 -39 110 -46 25 -8 56 -21 70 -31 14 -9 75
-34 135 -54 61 -21 134 -49 163 -63 l52 -25 0 -55 c0 -46 -2 -53 -16 -48 -9 4
-37 11 -63 18 -25 6 -50 14 -56 18 -5 4 -25 11 -43 15 -18 4 -73 27 -122 51
-48 24 -93 44 -98 44 -5 0 -30 11 -54 25 -25 14 -70 34 -100 44 -30 10 -63 23
-74 28 -10 6 -35 17 -54 25 -114 49 -142 63 -152 75 -6 7 -17 13 -25 13 -8 0
-31 7 -51 17 -21 9 -71 31 -112 50 -41 19 -82 39 -90 44 -8 5 -59 32 -114 59
-54 27 -104 54 -110 59 -6 5 -36 19 -66 31 -30 11 -82 34 -115 49 -33 16 -71
32 -85 36 -14 4 -40 16 -57 27 -18 11 -54 27 -80 37 -27 9 -68 27 -93 39 -70
34 -252 102 -271 102 -10 0 -21 5 -24 10 -8 12 -115 63 -170 80 -22 7 -49 18
-60 25 -11 6 -36 15 -56 19 -20 3 -53 21 -75 39 -21 19 -46 36 -55 39 -9 4
-31 30 -47 60 -37 63 -93 104 -121 88 -41 -22 -89 -92 -111 -163 -12 -40 -29
-86 -36 -104 -24 -55 -53 -184 -60 -273 -12 -149 -11 -249 1 -254 7 -2 17 -25
24 -50 13 -53 38 -71 89 -62 30 4 41 0 73 -27 72 -62 91 -77 99 -77 4 0 13 -7
20 -15 7 -9 20 -15 29 -13 27 3 146 -43 161 -64 7 -9 91 -38 111 -38 9 0 19
-7 23 -15 3 -8 10 -15 16 -15 14 0 135 -46 170 -64 14 -8 42 -19 63 -25 20 -7
37 -17 37 -22 0 -5 7 -9 16 -9 9 0 28 -6 42 -14 33 -17 204 -98 250 -117 17
-8 32 -17 32 -21 0 -3 23 -14 51 -23 29 -10 95 -39 148 -65 110 -55 150 -72
206 -90 22 -7 63 -23 91 -36 28 -13 55 -24 59 -24 9 0 29 -9 180 -80 44 -20
116 -54 160 -74 44 -20 91 -44 105 -52 26 -16 59 -31 125 -59 22 -10 47 -23
55 -31 9 -7 54 -25 100 -40 47 -15 92 -32 100 -39 8 -6 64 -35 123 -64 l109
-53 -6 -56 c-3 -32 -5 -63 -6 -71 0 -18 -50 -6 -70 17 -21 23 -74 52 -95 52
-9 0 -30 11 -47 25 -16 14 -37 25 -45 25 -9 0 -58 20 -110 45 -51 25 -95 45
-98 45 -6 0 -24 8 -155 68 -30 13 -66 28 -80 33 -63 20 -115 41 -134 54 -11 8
-28 15 -38 15 -10 0 -18 5 -18 10 0 6 -12 15 -26 20 -15 6 -39 20 -55 31 -16
11 -37 19 -47 17 -27 -4 -111 34 -117 53 -4 10 -28 25 -55 34 -28 9 -56 25
-63 35 -7 10 -31 26 -52 36 -22 9 -68 30 -101 45 -34 16 -67 29 -73 29 -7 0
-26 7 -43 16 -25 13 -36 14 -50 5 -14 -9 -19 -9 -22 1 -13 41 -17 48 -29 48
-8 0 -45 14 -83 31 -37 17 -84 33 -103 35 -20 3 -45 13 -56 23 -31 29 -61 41
-120 51 -36 6 -64 18 -82 35 -16 14 -34 23 -41 20 -8 -3 -41 6 -75 19 -74 29
-111 40 -113 35 -1 -2 -10 3 -20 12 -11 9 -33 21 -51 28 -17 7 -34 19 -37 27
-3 8 -14 14 -25 14 -11 0 -23 5 -26 10 -3 6 -15 10 -26 10 -24 0 -155 68 -204
106 -63 48 -160 135 -164 147 -2 6 -19 26 -37 44 -19 19 -34 38 -34 44 0 6
-16 30 -35 53 -19 24 -35 47 -35 53 0 5 -5 14 -12 21 -31 31 -46 154 -49 388
-1 88 16 151 37 133 17 -14 15 -18 19 58 4 69 33 122 106 193 22 21 39 43 39
49 0 6 8 15 18 18 9 4 30 17 45 30 41 34 100 31 156 -7z m-331 -94 c-7 -8 -15
-12 -17 -11 -5 6 10 25 20 25 5 0 4 -6 -3 -14z m377 -151 c14 -13 25 -33 25
-43 0 -11 7 -25 15 -32 19 -15 20 -40 2 -40 -8 0 -22 9 -32 20 -10 11 -24 20
-32 20 -7 0 -16 7 -19 15 -4 8 -15 15 -25 15 -10 0 -19 7 -19 15 0 8 4 15 9
15 5 0 11 9 14 20 7 27 33 25 62 -5z m5225 -35 c-8 -5 -17 -7 -19 -4 -3 3 1 9
9 14 8 5 17 7 19 4 3 -3 -1 -9 -9 -14z m-5266 -75 c17 -8 55 -28 85 -45 30
-16 58 -30 62 -30 5 0 30 -13 56 -29 27 -16 73 -34 103 -41 30 -7 72 -26 94
-42 21 -15 44 -28 51 -28 19 0 70 -28 89 -49 10 -11 32 -23 50 -27 17 -3 49
-17 72 -29 22 -12 56 -26 75 -30 19 -4 48 -17 64 -30 41 -30 76 -48 100 -51
58 -7 182 -37 195 -47 25 -20 77 -47 118 -61 22 -8 67 -33 100 -55 33 -23 65
-41 71 -41 13 0 53 -21 61 -32 3 -4 28 -13 55 -19 28 -7 57 -18 65 -24 8 -5
37 -21 63 -35 27 -14 60 -35 73 -47 14 -13 29 -23 35 -23 5 0 9 -4 9 -9 0 -5
22 -11 48 -13 27 -3 77 -19 112 -36 35 -18 69 -32 75 -32 7 0 24 -9 39 -21 14
-11 54 -29 88 -39 35 -10 96 -32 137 -49 41 -16 78 -28 83 -24 5 3 7 16 3 30
-3 14 -2 23 2 21 20 -10 102 -48 136 -62 42 -19 45 -30 18 -65 -18 -24 -19
-24 -69 -8 -28 10 -62 17 -75 17 -13 0 -42 13 -63 28 -21 15 -61 36 -89 46
-27 11 -62 27 -77 37 -14 11 -37 19 -50 19 -13 0 -62 16 -108 35 -46 19 -94
35 -106 35 -11 0 -40 14 -64 31 -23 17 -58 33 -78 36 -20 4 -51 17 -70 30 -19
12 -41 23 -48 23 -8 0 -51 17 -97 39 -46 21 -101 41 -122 45 -21 4 -52 17 -69
29 -47 33 -69 46 -96 57 -14 6 -36 17 -50 25 -14 8 -61 32 -105 54 -164 78
-254 109 -353 119 -46 5 -78 14 -91 26 -23 21 -41 14 -34 -13 5 -19 32 -31 83
-37 42 -5 134 -27 145 -35 6 -4 28 -10 50 -14 22 -4 60 -17 85 -28 117 -52
137 -61 165 -82 17 -12 48 -28 70 -35 22 -7 54 -23 72 -36 17 -13 35 -24 39
-24 4 0 15 -7 24 -15 10 -9 48 -24 86 -35 72 -21 102 -33 144 -61 14 -9 42
-22 62 -28 20 -7 42 -18 48 -26 6 -7 25 -17 41 -20 16 -4 48 -17 72 -29 38
-20 84 -37 112 -41 35 -5 77 -21 121 -46 28 -16 59 -29 69 -29 24 0 162 -67
204 -99 23 -17 48 -26 80 -28 25 -1 51 -2 56 -3 6 0 18 -7 27 -14 16 -12 17
-17 3 -64 -9 -28 -14 -57 -13 -64 4 -15 -39 -15 -92 0 -19 6 -62 18 -95 27
-33 9 -74 24 -90 34 -17 10 -44 21 -60 25 -17 4 -43 18 -60 30 -31 24 -74 42
-89 38 -5 -2 -16 3 -25 11 -26 22 -123 74 -163 86 -20 7 -77 34 -125 62 -48
27 -94 49 -101 49 -7 0 -21 5 -31 12 -23 14 -53 4 -45 -17 4 -8 18 -15 34 -15
16 0 32 -4 35 -10 3 -5 13 -10 21 -10 9 0 35 -16 58 -35 24 -19 48 -35 53 -35
6 0 30 -11 55 -24 25 -13 59 -27 76 -31 17 -3 53 -24 81 -46 29 -23 60 -39 76
-39 14 0 43 -13 63 -29 20 -16 55 -34 77 -41 22 -7 51 -19 65 -27 14 -7 79
-29 145 -48 105 -29 121 -32 132 -19 9 12 13 6 22 -36 6 -28 11 -53 11 -55 0
-12 -32 -3 -71 20 -24 14 -58 25 -76 25 -17 0 -44 7 -60 15 -90 47 -123 52
-123 21 0 -15 27 -29 100 -51 30 -9 64 -21 75 -25 11 -5 43 -17 70 -25 78 -25
115 -45 115 -60 0 -8 -3 -15 -6 -15 -25 0 -160 47 -206 71 -10 5 -27 9 -38 9
-12 0 -33 9 -48 19 -15 11 -52 28 -82 37 -30 9 -64 24 -75 33 -29 24 -81 51
-97 51 -7 0 -26 7 -42 15 -16 9 -31 13 -33 11 -9 -8 -118 53 -140 78 -28 32
-118 75 -173 82 -63 8 -126 29 -164 54 -29 18 -65 30 -121 38 -85 12 -217 62
-295 112 -56 36 -115 61 -124 53 -14 -14 -4 -34 21 -44 42 -16 97 -42 103 -49
14 -17 111 -69 141 -75 19 -3 48 -13 65 -21 17 -7 61 -18 98 -23 40 -6 85 -20
112 -36 24 -14 48 -24 53 -20 5 3 11 0 13 -6 3 -10 50 -23 128 -34 30 -5 57
-19 105 -57 73 -57 117 -82 164 -94 31 -8 69 -22 85 -30 16 -7 34 -14 41 -14
6 0 21 -9 33 -20 25 -23 88 -60 103 -60 10 0 173 -58 224 -79 11 -5 30 -9 42
-9 11 0 40 -12 62 -26 22 -14 52 -26 65 -26 18 0 24 -4 20 -15 -4 -8 -1 -15 5
-15 12 0 45 -59 37 -68 -3 -3 -14 2 -23 10 -10 9 -29 19 -42 23 -14 4 -45 20
-70 35 -26 16 -66 34 -91 41 -25 7 -52 17 -60 23 -35 25 -61 36 -89 36 -16 0
-34 7 -41 15 -7 8 -18 15 -25 15 -7 0 -18 7 -25 15 -7 8 -19 15 -28 15 -15 0
-26 5 -227 101 -152 73 -189 89 -208 89 -8 0 -41 14 -73 30 -31 17 -76 35 -98
41 -23 5 -48 11 -56 13 -8 2 -37 9 -65 16 -56 13 -84 25 -137 57 -21 13 -45
23 -53 23 -8 0 -32 11 -53 24 -20 14 -61 32 -90 41 -29 10 -55 21 -58 26 -3 5
-16 9 -30 9 -13 0 -24 5 -24 10 0 6 -11 10 -24 10 -14 0 -28 5 -31 10 -3 6
-15 10 -25 10 -10 0 -39 11 -63 24 -25 13 -58 26 -73 30 -16 4 -49 16 -74 27
-75 34 -84 37 -125 44 -22 3 -67 19 -100 34 -33 16 -76 32 -95 36 -19 4 -49
18 -67 31 -17 13 -55 29 -85 35 -29 6 -65 20 -80 30 -14 11 -33 16 -42 13 -9
-4 -18 0 -22 9 -4 13 -26 20 -89 32 -5 1 -18 3 -27 3 -14 2 -18 11 -18 37 0
19 1 35 3 35 7 0 114 -43 122 -49 22 -17 145 -81 156 -81 6 0 25 -6 42 -14 18
-8 46 -17 62 -19 75 -13 148 -37 197 -65 29 -17 80 -40 113 -53 33 -12 65 -25
70 -29 6 -4 34 -13 63 -19 29 -6 66 -18 83 -26 31 -17 49 -13 49 9 0 22 -24
36 -76 42 -48 6 -129 37 -139 54 -3 4 -29 14 -57 20 -29 7 -63 23 -75 35 -20
20 -114 55 -160 60 -10 1 -25 4 -33 8 -8 3 -48 15 -88 26 -40 11 -87 29 -105
40 -18 11 -54 31 -82 43 -146 67 -150 70 -152 111 -1 37 0 38 24 32 24 -6 85
-46 108 -71 6 -6 29 -16 51 -22 23 -7 47 -19 54 -27 7 -8 21 -15 30 -15 10 0
20 -5 22 -11 2 -5 24 -13 48 -15 46 -5 150 -51 150 -65 0 -14 102 -55 185 -74
44 -10 96 -27 115 -37 19 -10 50 -18 69 -18 58 0 109 -22 154 -65 23 -23 57
-46 74 -49 18 -4 42 -15 55 -25 27 -21 161 -71 189 -71 10 0 19 -4 19 -9 0
-16 58 -33 117 -35 114 -4 189 -29 333 -112 41 -23 95 -50 120 -60 25 -9 53
-24 62 -32 9 -7 22 -11 27 -7 6 3 11 2 11 -4 0 -6 29 -23 63 -40 35 -16 73
-41 84 -55 25 -32 53 -34 53 -5 0 28 -47 73 -93 88 -20 7 -37 16 -37 19 0 7
-13 13 -105 52 -27 11 -97 45 -155 74 -58 29 -116 57 -130 61 -14 4 -30 14
-35 22 -11 15 -86 30 -205 40 -54 4 -85 12 -110 29 -20 13 -58 30 -85 39 -28
8 -78 28 -113 45 -34 16 -65 30 -68 30 -3 0 -17 14 -31 30 -22 26 -70 56 -108
66 -68 18 -149 37 -185 45 -121 23 -206 56 -245 92 -16 15 -41 30 -55 33 -14
3 -36 10 -50 16 -14 6 -42 12 -63 13 -21 1 -45 9 -55 18 -9 8 -54 34 -99 57
-45 23 -88 48 -94 56 -23 28 21 15 124 -37 56 -28 134 -59 173 -68 39 -10 96
-34 126 -54 56 -36 112 -58 178 -72 19 -4 43 -15 54 -24 10 -9 20 -15 22 -13
2 1 27 -4 56 -13 28 -8 63 -15 77 -15 14 0 58 -13 96 -29 39 -16 88 -34 110
-41 22 -7 55 -23 73 -37 17 -13 47 -31 65 -39 17 -8 39 -18 47 -23 76 -46 179
-61 214 -32 33 27 18 37 -48 33 -55 -4 -68 -1 -87 17 -13 12 -36 21 -54 21
-21 0 -48 12 -76 33 -52 39 -159 92 -209 102 -19 4 -41 11 -50 15 -43 21 -67
28 -90 26 -14 -2 -40 3 -59 10 -18 8 -42 14 -52 14 -10 0 -34 9 -54 20 -20 11
-43 20 -53 20 -10 0 -26 6 -37 14 -11 7 -37 16 -57 19 -21 3 -52 17 -70 30
-18 14 -53 30 -78 37 -95 25 -141 43 -220 87 -14 7 -50 25 -80 39 -133 61
-125 52 -128 123 -2 35 2 69 7 74 15 15 53 -5 122 -63 20 -16 41 -30 45 -30
18 0 88 -42 114 -68 54 -55 105 -82 161 -88 75 -7 151 -30 237 -70 40 -19 76
-34 79 -34 3 0 24 -9 47 -19 51 -24 78 -35 91 -36 6 0 17 -5 25 -10 7 -5 42
-10 77 -11 34 -2 76 -10 92 -19 17 -8 36 -15 44 -15 8 0 20 -6 27 -14 6 -8 42
-25 78 -37 37 -12 71 -25 77 -30 5 -5 16 -9 25 -9 9 0 33 -9 55 -20 22 -11 45
-20 52 -20 8 0 61 -25 119 -56 107 -56 146 -64 152 -31 3 13 -3 17 -25 17 -16
0 -37 6 -48 14 -44 30 -96 56 -145 70 -29 9 -58 20 -64 25 -6 4 -38 18 -71 30
-66 25 -90 35 -212 92 -62 29 -100 40 -155 45 -48 4 -94 16 -133 34 -33 15
-86 36 -117 46 -32 10 -58 21 -58 25 0 11 -49 28 -125 44 -166 33 -173 36
-260 106 -34 26 -86 59 -118 73 -31 15 -57 31 -57 36 0 6 -6 10 -13 10 -7 0
-21 9 -30 21 -18 20 -18 20 30 13 47 -6 105 -40 131 -76 25 -35 98 -75 182
-101 123 -38 150 -42 150 -23 0 8 -5 18 -12 22 -11 7 -95 30 -148 41 -49 9
-76 26 -160 100 -20 18 -59 39 -86 49 -27 9 -63 26 -79 39 -25 18 -32 20 -43
9 -7 -8 -8 -15 -2 -19 6 -3 10 -11 10 -17 0 -7 -4 -7 -13 1 -8 6 -17 8 -20 4
-13 -12 -7 15 13 58 11 24 20 55 20 68 0 20 3 22 27 16 15 -3 41 -13 57 -20z
m4781 -25 c-3 -5 -11 -10 -16 -10 -6 0 -7 5 -4 10 3 6 11 10 16 10 6 0 7 -4 4
-10z m-4505 -66 c0 -2 -7 -4 -15 -4 -8 0 -15 4 -15 10 0 5 7 7 15 4 8 -4 15
-8 15 -10z m128 -30 c31 -14 80 -36 107 -49 28 -12 86 -35 130 -51 44 -15 94
-36 110 -46 17 -10 41 -18 55 -18 14 0 41 -11 60 -24 19 -12 53 -29 75 -36 22
-7 65 -25 95 -41 30 -16 75 -37 100 -47 25 -11 66 -29 92 -41 26 -11 52 -21
57 -21 6 0 33 -13 61 -30 28 -16 54 -30 58 -30 9 0 108 -51 152 -78 19 -12 43
-22 53 -22 9 0 17 -4 17 -9 0 -5 15 -14 33 -21 17 -7 68 -30 112 -51 45 -22
84 -39 88 -39 4 0 25 -11 46 -24 21 -14 57 -30 81 -36 23 -6 50 -15 59 -20 18
-10 238 -114 261 -124 8 -3 -2 -3 -24 0 -21 3 -63 17 -94 31 -30 14 -73 31
-95 39 -22 8 -65 28 -95 44 -31 17 -69 30 -85 30 -16 0 -40 9 -54 20 -14 11
-41 22 -62 26 -20 4 -49 16 -66 28 -16 12 -52 32 -80 45 -27 14 -61 33 -74 43
-13 10 -33 18 -45 18 -18 0 -122 44 -166 71 -8 5 -31 18 -50 29 -19 11 -48 29
-65 40 -16 10 -38 19 -47 19 -9 1 -41 15 -70 32 -33 19 -76 34 -114 40 -33 5
-70 11 -80 15 -41 14 -164 77 -164 84 0 4 -26 15 -57 25 -32 11 -62 23 -68 27
-5 4 -17 8 -28 8 -10 0 -33 11 -51 25 -18 14 -39 25 -47 25 -8 0 -19 4 -24 9
-15 14 -146 82 -185 97 l-35 13 33 0 c18 1 59 -11 90 -25z m4242 17 c0 -10
-61 -44 -67 -37 -3 3 56 45 65 46 1 0 2 -4 2 -9z m-4793 -247 c-3 -3 -12 -4
-19 -1 -8 3 -5 6 6 6 11 1 17 -2 13 -5z m48 -22 c-3 -3 -11 0 -18 7 -9 10 -8
11 6 5 10 -3 15 -9 12 -12z m3730 -208 c-34 -26 -55 -36 -55 -25 0 13 41 41
60 41 11 -1 10 -4 -5 -16z m-121 -83 c-21 -16 -43 -27 -48 -24 -5 3 0 10 10
16 11 6 23 16 27 24 4 7 18 13 29 13 18 0 15 -5 -18 -29z m-164 -121 c0 -5
-19 -22 -42 -36 -24 -15 -54 -40 -67 -55 -25 -30 -45 -37 -56 -18 -8 12 15 31
73 59 24 12 53 30 65 41 24 22 27 23 27 9z m230 -10 c0 -5 -19 -22 -41 -36
-23 -14 -51 -36 -63 -49 -12 -12 -36 -30 -55 -40 -19 -9 -59 -37 -90 -61 -31
-24 -62 -44 -69 -44 -15 0 -85 -50 -91 -65 -2 -5 -28 -35 -58 -66 -54 -57 -86
-77 -158 -99 -38 -12 -68 -35 -140 -107 -18 -18 -36 -33 -41 -33 -5 -1 -25
-14 -44 -30 -19 -17 -41 -30 -50 -30 -9 0 -34 -13 -56 -30 -43 -32 -66 -37
-82 -17 -8 10 3 27 49 70 32 32 59 64 59 71 0 8 8 16 18 19 22 7 70 37 96 60
12 10 48 35 81 56 170 107 224 144 264 180 24 22 63 47 85 57 114 48 307 148
350 182 32 25 36 26 36 12z m-410 -156 c0 -1 -21 -18 -47 -36 -27 -18 -59 -44
-73 -58 -14 -14 -54 -43 -90 -64 -36 -22 -66 -43 -68 -48 -2 -4 -10 -8 -17 -8
-8 0 -29 -13 -47 -29 -18 -15 -64 -50 -103 -76 -38 -27 -98 -77 -132 -113 -40
-40 -64 -59 -67 -51 -21 68 -22 66 79 165 88 87 99 94 135 94 32 0 52 9 97 44
32 24 67 53 77 65 11 11 23 21 27 21 4 0 42 24 84 53 64 44 83 52 111 49 19
-2 34 -6 34 -8z m-552 -160 c18 -8 32 -20 32 -25 0 -5 8 -9 18 -9 16 -1 16 -1
-1 -11 -10 -6 -36 -30 -59 -55 -22 -24 -45 -44 -51 -44 -6 0 -21 -10 -34 -22
l-23 -21 0 21 c0 29 28 98 58 145 14 20 26 37 27 37 1 0 16 -7 33 -16z"/>
<path d="M4253 7852 c-12 -9 -29 -34 -38 -54 -15 -38 -28 -47 -40 -28 -3 6
-22 10 -41 10 -28 0 -36 -5 -45 -27 -6 -16 -11 -38 -11 -50 0 -20 -4 -22 -42
-17 -33 5 -47 1 -68 -16 -16 -12 -28 -27 -28 -33 0 -7 16 -36 35 -66 l35 -53
-20 -28 c-46 -65 -15 -117 75 -128 41 -4 45 -7 39 -26 -10 -35 -30 -44 -77
-35 -23 5 -56 12 -73 15 -27 5 -33 12 -44 55 -17 60 -31 75 -59 60 -26 -15
-42 -14 -39 2 1 6 -1 24 -5 40 -13 50 -78 31 -97 -29 -13 -37 -10 -37 -72 -17
-12 4 -21 -3 -28 -21 -5 -15 -17 -26 -29 -26 -59 0 -167 -92 -141 -122 5 -7
21 -26 35 -41 29 -32 29 -31 13 -56 -9 -15 -8 -24 5 -45 22 -33 22 -36 -8 -36
-40 0 -124 -47 -135 -76 -6 -14 -10 -27 -10 -29 0 -2 18 -18 41 -35 36 -29 43
-31 66 -21 36 16 44 3 27 -44 -20 -58 -18 -121 5 -144 23 -23 71 -17 78 10 9
32 33 31 39 -1 15 -71 81 -94 110 -37 21 42 19 40 41 29 11 -6 25 -7 31 -3 13
8 34 110 25 124 -2 4 10 7 27 7 44 0 67 15 75 49 4 21 17 35 43 48 20 10 42
29 49 43 l12 24 10 -28 c15 -37 14 -56 -4 -90 -8 -15 -15 -38 -15 -50 0 -14
-10 -26 -32 -35 -44 -19 -65 -38 -96 -86 -33 -52 -38 -164 -8 -207 18 -27 18
-29 -5 -85 -25 -66 -78 -123 -112 -123 -13 0 -33 -9 -45 -20 -12 -11 -26 -20
-31 -20 -6 0 -23 -19 -39 -43 -37 -52 -106 -81 -205 -83 -54 -1 -75 -7 -107
-28 -22 -14 -49 -26 -61 -26 -36 0 -101 -82 -154 -196 -25 -55 -60 -68 -172
-65 -33 1 -52 10 -95 44 -29 24 -69 49 -88 57 -19 8 -37 17 -40 21 -3 3 -22
15 -42 26 -41 22 -60 21 -168 -12 -30 -9 -66 -19 -80 -22 -39 -9 -100 -54
-100 -73 0 -33 23 -41 61 -20 19 10 45 24 59 32 16 8 63 13 128 13 88 0 105
-3 113 -17 6 -10 15 -18 20 -18 6 0 32 -19 59 -41 34 -28 56 -40 69 -36 11 2
28 -1 38 -7 55 -37 212 -39 250 -3 10 9 27 33 38 54 18 36 33 58 73 111 73 97
111 122 184 122 21 0 51 6 66 14 15 7 52 16 82 19 30 4 66 15 80 25 73 54 132
93 135 90 9 -9 -32 -42 -66 -54 -18 -6 -39 -45 -39 -72 0 -9 -11 -37 -25 -61
-34 -59 -33 -74 5 -66 29 6 42 -7 19 -20 -23 -15 -164 -14 -187 1 -16 11 -27
12 -42 4 -22 -12 -80 -121 -80 -151 0 -37 20 -18 50 47 29 64 31 66 57 58 16
-5 60 -10 98 -11 39 -1 77 -2 87 -2 11 -1 15 -7 11 -20 -6 -24 17 -39 31 -20
14 19 108 59 138 59 13 0 34 -12 47 -25 13 -14 27 -25 31 -25 4 0 41 11 81 24
58 19 75 29 77 45 2 12 -1 21 -7 21 -11 0 -51 -20 -61 -30 -3 -3 -24 -6 -47
-8 -33 -3 -44 1 -56 19 -15 21 -32 22 -81 3 -9 -3 -16 -1 -16 5 0 6 6 11 13
11 20 0 55 45 59 76 4 38 -17 41 -32 4 -17 -41 -47 -60 -83 -53 -28 5 -28 6
-9 27 10 11 33 50 51 86 27 53 117 160 134 160 15 0 13 -46 -3 -69 -20 -28
-35 -71 -25 -71 3 0 21 16 39 35 29 31 38 34 79 33 50 -2 67 6 49 24 -8 8 -6
17 8 36 24 30 28 112 6 112 -24 0 -41 -29 -29 -49 18 -28 -9 -54 -58 -55 -49
-1 -57 11 -29 44 22 25 25 36 11 44 -16 10 -39 -5 -66 -44 -21 -30 -34 -39
-63 -43 -49 -6 -61 3 -28 20 14 8 26 22 26 33 0 14 7 20 23 20 49 0 97 177 73
271 -12 50 14 134 58 181 26 29 36 34 40 22 3 -8 -1 -31 -9 -50 -8 -19 -11
-34 -7 -34 3 0 -4 -7 -16 -16 -24 -17 -29 -40 -9 -47 9 -3 7 -10 -6 -25 -17
-19 -17 -24 -3 -95 9 -41 20 -87 26 -101 6 -17 6 -35 0 -52 -12 -31 -13 -64
-1 -64 4 0 16 20 25 45 10 25 23 45 30 45 7 0 27 -13 45 -30 l34 -29 -22 -37
c-15 -25 -19 -40 -12 -47 25 -25 76 65 67 120 -3 22 0 33 10 37 20 8 17 34 -6
46 -11 6 -20 15 -20 21 0 6 -9 18 -20 27 -12 10 -21 26 -21 37 0 43 9 102 24
150 17 55 16 97 0 102 -17 6 -27 -17 -25 -53 3 -35 -10 -49 -51 -59 -32 -8
-34 -2 -7 25 22 22 27 79 9 97 -6 6 -10 37 -9 70 3 91 2 115 -11 154 -9 30 -9
40 4 60 23 35 17 67 -21 100 -23 20 -43 29 -68 29 -41 0 -77 17 -68 31 7 12
127 3 154 -11 35 -19 49 -10 80 53 18 34 34 64 36 66 5 5 54 -28 54 -37 0 -4
-14 -22 -30 -41 -17 -18 -30 -40 -30 -47 0 -7 -9 -28 -19 -45 l-20 -32 26 -48
c23 -45 24 -55 18 -133 -6 -72 -4 -93 14 -145 12 -34 21 -75 21 -91 0 -23 5
-30 20 -30 24 0 70 -21 70 -32 0 -4 8 -8 18 -8 27 0 62 77 62 134 0 53 10 60
94 71 52 7 84 32 115 92 43 83 77 133 88 129 6 -3 16 8 21 24 9 25 7 31 -19
54 -16 14 -29 35 -29 46 0 25 11 25 40 0 13 -11 29 -20 35 -20 22 0 27 33 9
65 -16 30 -16 33 2 53 26 31 52 28 60 -5 19 -91 51 -108 69 -38 16 63 30 82
52 69 14 -9 17 -22 15 -53 -3 -36 -1 -41 17 -41 12 0 21 6 21 16 0 8 4 13 9 9
5 -3 16 3 23 13 8 11 28 19 51 20 51 4 49 -19 -8 -76 -26 -25 -44 -51 -41 -59
8 -20 36 -28 56 -16 17 12 67 6 75 -8 10 -15 -61 -75 -111 -93 -27 -11 -55
-24 -63 -30 -11 -8 -13 -8 -7 2 13 22 -3 31 -35 20 -47 -16 -54 6 -17 53 21
26 29 45 26 65 -3 27 -6 29 -43 28 -22 -1 -65 -8 -95 -16 -48 -13 -55 -18 -55
-39 0 -19 6 -25 28 -27 44 -5 35 -21 -65 -105 -45 -38 -58 -55 -58 -77 0 -44
3 -45 213 -82 37 -7 67 -16 67 -20 0 -18 -35 -21 -204 -22 -177 -1 -181 -1
-192 -23 -6 -13 -13 -20 -16 -17 -7 7 -48 -18 -48 -29 0 -5 -18 -46 -40 -92
-45 -95 -45 -95 -25 -135 13 -26 18 -28 40 -20 18 7 32 5 54 -7 26 -15 39 -16
123 -5 131 16 167 4 256 -81 46 -46 56 -51 90 -48 20 1 44 9 52 17 40 37 82
66 117 80 21 8 47 26 58 38 11 13 35 26 53 29 33 7 33 6 30 -26 -3 -30 -5 -32
-48 -35 -38 -2 -49 -8 -65 -32 -11 -17 -28 -30 -38 -30 -59 0 -80 -55 -47
-121 18 -34 19 -43 8 -50 -20 -13 -25 -11 -31 10 -3 12 -15 21 -33 23 -18 2
-33 11 -39 25 -11 27 -45 43 -90 43 -24 0 -35 5 -35 15 0 11 -11 15 -39 15
-29 0 -46 7 -69 29 -18 18 -46 32 -69 36 -21 3 -53 10 -71 15 -19 5 -46 5 -63
0 -23 -7 -35 -5 -46 5 -19 20 -25 19 -46 -5 -9 -11 -25 -20 -36 -20 -23 0 -54
-44 -58 -83 -5 -46 -49 -111 -97 -141 -40 -25 -96 -78 -96 -91 0 -3 -12 -24
-26 -47 -20 -31 -28 -60 -32 -108 -5 -74 -12 -87 -62 -117 -57 -34 -102 -44
-211 -46 -99 -2 -106 -4 -149 -34 -25 -17 -53 -40 -62 -50 -21 -23 -38 -86
-38 -140 0 -24 -2 -43 -4 -43 -17 0 -66 24 -67 33 -4 41 5 84 18 94 13 10 13
15 4 27 -10 11 -8 22 8 53 24 47 57 83 76 83 8 0 15 9 15 20 0 26 -43 27 -67
1 -56 -60 -73 -83 -75 -99 -3 -29 -9 -125 -10 -166 -3 -55 28 -79 95 -74 48 3
51 2 89 -43 39 -46 39 -47 28 -90 -7 -25 -25 -56 -41 -71 -23 -21 -29 -36 -29
-67 0 -22 5 -43 10 -46 6 -3 10 -21 10 -39 0 -39 32 -73 82 -87 20 -5 52 -20
72 -34 46 -31 62 -31 70 -2 8 30 -15 77 -37 77 -14 0 -137 114 -137 128 0 7
51 81 60 87 5 3 10 31 10 62 0 57 -18 102 -70 173 -32 43 -35 77 -9 93 10 6
19 17 19 22 0 6 15 25 33 43 25 24 42 32 69 32 20 0 40 -4 43 -10 8 -12 85
-13 85 -1 0 8 73 47 135 71 32 12 98 89 115 134 5 15 10 45 10 67 0 56 21 90
72 118 23 14 57 39 75 58 17 18 39 33 48 33 8 0 29 -21 45 -47 52 -86 50 -85
92 -71 21 6 46 19 56 28 10 9 34 20 53 24 44 8 111 58 146 109 19 27 31 36 42
31 9 -4 32 -9 51 -12 31 -4 80 -36 80 -51 0 -3 -18 -15 -40 -25 -46 -22 -93
-86 -83 -113 4 -10 20 -30 36 -44 28 -26 29 -27 12 -58 -20 -39 -16 -90 8
-105 13 -8 24 -7 46 6 l29 16 24 -46 c31 -61 61 -67 104 -20 16 18 33 41 37
52 7 18 9 17 31 -5 55 -56 96 -89 110 -89 8 0 27 10 42 23 21 18 27 33 28 68
l2 44 48 6 c33 3 54 12 66 26 16 20 20 21 57 8 30 -11 49 -11 82 -3 61 15 101
74 70 105 -7 7 -2 15 15 27 15 9 26 23 26 31 0 16 25 21 34 6 9 -13 113 13
136 34 11 10 25 36 31 57 5 22 17 42 25 45 8 3 14 18 14 35 0 23 4 29 15 24
26 -10 63 12 90 52 14 21 41 46 59 55 42 20 53 49 32 82 -9 14 -12 25 -6 25
21 0 50 41 50 72 0 17 10 45 24 62 34 46 40 73 22 101 -12 19 -25 25 -51 25
-29 0 -35 4 -35 21 0 34 -19 59 -46 59 -26 0 -71 -23 -91 -48 -14 -17 -33 -7
-33 18 0 24 -24 32 -55 18 -19 -8 -27 -7 -40 6 -9 9 -23 16 -30 16 -18 0 -66
-20 -85 -36 -13 -11 -15 -3 -15 60 l0 73 36 0 c52 0 118 46 119 84 0 9 -11 28
-25 43 -14 15 -25 34 -25 42 0 30 -29 82 -49 89 -15 4 -21 15 -21 35 0 42 -20
80 -46 86 -14 4 -31 21 -41 42 -15 32 -23 37 -50 36 -27 -2 -33 2 -38 26 -3
16 -13 31 -22 34 -20 8 -44 -13 -99 -91 -62 -87 -82 -86 -44 0 12 26 23 69 26
97 4 44 1 54 -20 75 -14 14 -32 25 -41 25 -8 0 -15 9 -15 20 0 21 -44 70 -62
70 -5 0 -18 -5 -29 -10 -15 -8 -19 -7 -19 4 0 24 -45 70 -62 63 -26 -10 -78
-93 -87 -139 -10 -56 -5 -68 26 -68 22 0 25 3 20 28 -5 26 30 122 44 122 12 0
18 -43 9 -61 -12 -21 -4 -45 17 -53 10 -4 27 7 48 31 27 31 36 36 46 26 19
-18 16 -77 -4 -97 -22 -22 -22 -45 0 -53 11 -4 26 4 45 26 16 18 32 30 35 27
7 -7 -6 -108 -17 -125 -7 -12 -14 -8 -39 17 -24 26 -35 31 -55 26 -21 -5 -27
-2 -35 19 -6 14 -21 33 -35 42 -23 15 -27 15 -67 -5 -42 -22 -42 -22 -36 -1 3
11 -1 25 -9 32 -8 6 -14 17 -14 23 0 6 -12 24 -25 39 -29 33 -68 34 -73 2 -2
-17 -11 -20 -49 -21 -42 -1 -51 -6 -80 -40 l-34 -38 -30 32 c-57 61 -88 31
-90 -86 l0 -67 -14 50 c-7 28 -22 56 -34 64 -13 8 -21 24 -21 41 0 15 -6 33
-14 39 -21 17 -100 25 -125 12 -25 -14 -27 -5 -5 20 9 10 19 45 23 79 9 76 26
97 60 74 17 -12 22 -23 18 -42 -5 -28 1 -52 13 -52 5 0 24 14 42 30 38 35 68
39 68 11 0 -11 -4 -23 -10 -26 -15 -9 -12 -42 4 -48 14 -6 66 34 66 50 0 8 47
33 62 33 13 0 9 -65 -7 -104 -8 -20 -20 -36 -25 -36 -14 0 -12 -26 3 -38 22
-18 41 8 72 97 21 60 19 87 -7 111 -25 23 -63 20 -83 -6 -9 -13 -14 -10 -33
15 -16 22 -31 31 -52 31 -16 0 -32 -4 -35 -10 -12 -19 -36 -10 -66 25 -56 63
-87 45 -120 -67 -13 -45 -30 -60 -44 -38 -3 6 -1 25 5 43 9 24 9 39 1 61 -10
25 -15 28 -42 22 -17 -3 -42 -15 -56 -26 -27 -21 -59 -27 -48 -9 12 19 -24 89
-45 89 -3 0 -15 -8 -27 -18z m32 -129 c0 -39 3 -75 7 -79 9 -9 48 24 48 41 0
15 65 85 79 85 14 0 14 -35 0 -63 -17 -32 -61 -77 -76 -77 -7 0 -29 -16 -49
-36 -33 -31 -40 -34 -59 -24 -43 23 -75 -17 -75 -94 0 -37 -90 -77 -116 -51
-18 18 -18 34 2 56 29 32 25 69 -12 106 -19 19 -32 38 -29 43 9 14 67 0 92
-23 22 -20 23 -20 43 -2 26 24 25 33 -5 61 -32 30 -33 54 -1 54 18 0 27 -8 35
-30 5 -16 16 -30 24 -30 15 0 39 50 52 108 5 24 12 32 23 30 14 -3 17 -16 17
-75z m175 -100 c-1 -18 -40 -53 -59 -53 -29 0 -26 11 12 37 35 23 47 27 47 16z
m-117 -94 c6 -46 -9 -89 -30 -89 -7 0 -23 -16 -34 -35 -26 -43 -39 -45 -39 -5
0 17 -7 42 -16 55 -8 13 -14 34 -12 47 3 19 6 15 17 -19 8 -23 20 -44 27 -47
18 -7 34 25 34 69 0 68 44 88 53 24z m727 -26 c0 -27 6 -53 15 -63 12 -13 13
-22 3 -48 -7 -19 -19 -32 -29 -32 -10 0 -24 -3 -33 -6 -24 -9 -20 21 5 45 19
18 21 27 15 75 -3 30 -3 61 0 70 11 28 24 6 24 -41z m-460 15 c0 -5 -16 -24
-35 -42 -19 -19 -35 -38 -35 -44 0 -20 47 -25 72 -8 12 9 28 16 35 16 17 0 17
-44 1 -71 -11 -17 -10 -23 10 -39 l22 -18 -29 -15 c-34 -17 -46 -9 -82 51 -21
36 -37 41 -46 15 -3 -10 -18 -31 -32 -46 l-26 -28 -6 23 c-3 13 1 47 8 76 15
59 10 94 -13 85 -7 -3 -14 -10 -14 -17 0 -20 -46 -70 -58 -62 -19 12 -14 37
14 63 14 13 24 29 21 36 -6 20 24 37 44 24 17 -11 26 -8 89 23 17 8 60 -8 60
-22z m360 2 c11 -7 15 -25 14 -65 -2 -66 -17 -89 -38 -60 -12 17 -17 18 -42 6
-15 -7 -34 -21 -42 -32 -16 -24 -31 -24 -49 -1 -33 42 -55 122 -34 122 10 0
31 -54 31 -80 0 -11 7 -17 21 -16 15 1 26 13 38 43 17 44 57 93 75 93 6 0 18
-5 26 -10z m268 -83 c2 -16 -4 -49 -12 -75 -15 -42 -15 -47 0 -62 14 -14 17
-13 35 9 10 13 19 29 19 37 0 7 10 22 22 33 16 16 25 18 35 10 18 -16 16 -33
-8 -81 -18 -35 -19 -42 -6 -55 12 -12 17 -10 40 16 14 17 28 31 31 31 14 0 4
-54 -15 -80 -33 -43 -3 -86 31 -45 19 23 30 18 30 -13 0 -34 -43 -78 -71 -74
-14 2 -19 -3 -19 -19 0 -21 -1 -21 -19 -5 -14 13 -24 14 -44 7 -23 -9 -28 -7
-46 23 -11 18 -45 54 -75 81 -53 48 -54 50 -40 77 8 15 14 56 14 93 0 52 4 69
20 85 11 11 20 25 20 31 0 6 12 9 28 7 21 -2 28 -9 30 -31z m-1474 -24 c9 -30
9 -107 1 -127 -6 -13 -2 -30 9 -49 18 -33 8 -58 -14 -32 -22 27 -63 18 -81
-18 -20 -39 -35 -38 -93 6 -24 18 -55 41 -70 51 -33 24 -33 39 0 61 37 24 71
13 82 -28 10 -40 35 -46 50 -13 8 18 8 34 0 56 -13 38 -4 49 20 27 10 -10 23
-17 28 -17 13 0 30 30 39 68 7 35 21 42 29 15z m1793 -54 c-13 -50 -18 -56
-66 -82 -52 -28 -72 -23 -26 7 14 9 25 24 25 33 0 18 73 118 78 105 1 -5 -4
-33 -11 -63z m-1217 -9 c11 -11 31 -20 45 -20 18 0 25 -5 25 -20 0 -11 -6 -20
-12 -20 -7 0 -30 -26 -50 -58 -44 -68 -56 -144 -25 -150 11 -2 31 8 47 23 l27
26 7 -40 c6 -38 9 -41 37 -41 21 0 39 10 61 33 22 23 32 28 35 18 3 -7 14 -22
24 -32 23 -23 24 -35 5 -46 -7 -4 -20 -22 -29 -39 -14 -27 -24 -32 -85 -44
-59 -11 -73 -18 -96 -47 -19 -23 -27 -46 -28 -72 -1 -55 -11 -68 -41 -52 -37
20 -50 73 -52 211 -1 95 -5 133 -18 157 -19 36 -22 69 -7 78 6 4 22 24 36 46
13 21 31 39 39 39 8 0 16 6 16 13 1 6 2 17 4 22 1 6 3 16 3 23 3 17 9 15 32
-8z m1326 5 c4 -8 2 -21 -4 -28 -5 -6 -13 -27 -17 -46 l-7 -34 -23 29 c-25 31
-20 55 14 81 21 17 30 16 37 -2z m-1800 -18 c18 -40 -4 -59 -50 -41 -13 5 -12
10 6 35 26 35 30 35 44 6z m1877 -58 c8 -29 -2 -49 -29 -60 -29 -10 -31 -30
-6 -53 18 -15 20 -15 37 4 24 27 39 25 53 -5 10 -22 9 -25 -7 -25 -10 0 -24
-6 -30 -14 -18 -22 3 -57 32 -52 23 4 47 -10 47 -26 0 -17 -72 -40 -106 -33
-18 3 -41 2 -51 -3 -10 -5 -28 -14 -40 -20 -36 -19 -48 -14 -26 11 30 32 37
88 18 134 -17 41 -12 121 6 92 11 -18 42 -1 48 27 8 44 45 59 54 23z m-1188
-9 c10 -12 25 -18 32 -16 9 4 12 -1 8 -17 -3 -12 1 -42 10 -66 14 -40 14 -47
1 -60 -14 -13 -16 -12 -21 5 -25 76 -47 84 -83 29 -32 -50 -52 -46 -52 9 0 24
-3 51 -6 60 -4 10 -1 16 9 16 8 0 28 14 44 30 33 36 35 36 58 10z m1023 -37
c-2 -17 -12 -32 -24 -37 -12 -5 -26 -18 -33 -27 -9 -16 -6 -20 29 -29 51 -14
71 -47 50 -80 -7 -12 -13 -11 -35 10 -22 21 -29 23 -46 12 -31 -20 -39 -6 -33
61 5 52 11 67 35 90 16 15 36 27 45 27 11 0 14 -8 12 -27z m-1681 -81 c4 -9
-6 -25 -28 -43 -42 -35 -49 -36 -49 -5 0 14 -5 28 -11 32 -8 5 -4 13 11 24 26
19 69 15 77 -8z m110 -3 c16 -16 -5 -92 -24 -85 -8 4 -26 9 -39 12 -29 7 -29
10 -4 52 20 32 47 41 67 21z m-266 -19 c15 0 19 -7 19 -34 0 -18 -7 -39 -15
-46 -8 -7 -15 -19 -15 -27 0 -24 26 -25 64 -2 28 16 40 19 49 10 6 -6 33 -11
59 -11 26 0 48 -4 48 -10 0 -15 -79 -35 -91 -23 -15 15 -49 4 -49 -17 0 -9 11
-22 25 -28 27 -13 34 -32 11 -32 -25 0 -46 12 -46 26 0 8 -10 14 -24 14 -25 0
-25 -1 -19 -70 6 -74 -9 -100 -21 -35 -5 26 -13 36 -33 41 -34 9 -44 -11 -26
-53 14 -35 10 -87 -7 -98 -12 -8 -36 41 -44 90 -14 82 -18 95 -32 95 -18 0
-44 -52 -44 -88 0 -29 -31 -68 -43 -55 -13 12 -7 43 18 103 42 99 28 141 -33
104 -27 -15 -32 -15 -51 -2 -20 14 -20 16 -5 29 12 10 41 14 91 12 62 -1 75 2
83 17 8 16 4 24 -25 46 -58 44 -41 73 20 33 54 -34 57 -34 84 0 14 18 27 28
29 22 2 -6 12 -11 23 -11z m1129 11 c0 -5 -6 -14 -14 -20 -11 -9 -15 -7 -19 9
-4 15 0 20 14 20 10 0 19 -4 19 -9z m329 -45 c14 -16 17 -68 7 -113 -7 -29 -5
-33 13 -33 14 0 25 11 35 34 31 74 92 50 83 -33 -4 -34 -12 -49 -36 -68 -17
-14 -31 -31 -31 -40 0 -11 -5 -13 -17 -7 -10 5 -37 8 -60 7 -36 0 -43 3 -43
18 0 12 -7 19 -20 19 -28 0 -38 -30 -16 -46 17 -12 16 -14 -3 -51 -11 -21 -22
-46 -25 -56 -3 -9 -17 -22 -31 -27 -22 -8 -30 -6 -50 18 -25 28 -37 68 -13 44
19 -19 46 -14 64 13 16 24 16 27 -2 40 -10 8 -25 15 -33 15 -9 0 -11 8 -7 24
4 16 1 26 -9 30 -8 3 -15 14 -15 25 0 31 57 38 104 12 20 -12 41 -21 46 -21
16 0 11 40 -5 46 -17 7 -22 104 -5 104 6 0 10 6 10 14 0 16 26 46 39 46 5 0
14 -6 20 -14z m283 -124 c11 -2 22 6 29 22 20 43 37 40 45 -10 3 -25 4 -61 1
-80 -3 -18 -2 -34 3 -34 5 0 15 -2 22 -5 9 -4 22 9 37 35 22 39 58 59 80 45
14 -8 14 -62 1 -70 -16 -10 -12 -65 5 -65 19 0 19 -14 -1 -31 -8 -7 -24 -30
-35 -51 -11 -21 -24 -38 -29 -38 -19 0 -20 21 0 57 11 21 20 45 20 55 0 25
-37 41 -77 35 -29 -5 -35 -3 -43 18 -17 46 -70 62 -115 36 -16 -10 -36 -16
-42 -14 -17 6 -17 63 0 63 7 0 18 21 25 47 7 25 21 52 30 59 15 11 18 8 22
-29 3 -29 10 -43 22 -45z m-603 15 c11 -2 32 1 46 9 19 10 31 11 44 2 13 -8
25 -7 49 6 34 18 62 21 62 7 0 -5 3 -16 6 -25 5 -14 3 -14 -25 0 -27 13 -33
13 -61 -1 -17 -9 -41 -32 -52 -51 -15 -25 -27 -34 -46 -34 -26 0 -171 36 -179
44 -2 2 18 26 44 53 l48 50 22 -27 c13 -15 31 -30 42 -33z m604 -196 c-3 -60
-2 -62 20 -56 12 4 32 18 44 31 23 26 63 33 63 11 0 -15 -55 -50 -90 -57 -19
-4 -25 -12 -25 -30 0 -23 4 -25 45 -27 25 -1 51 -2 58 -2 21 -2 13 -27 -13
-39 -14 -7 -44 -15 -65 -18 -22 -4 -40 -10 -40 -14 0 -23 15 -40 35 -40 49 0
55 -48 8 -69 -21 -10 -30 -8 -58 9 -37 23 -53 13 -33 -19 17 -28 3 -37 -28
-20 -25 13 -28 12 -61 -26 -49 -56 -63 -91 -51 -128 7 -18 7 -32 1 -36 -5 -3
-26 -19 -46 -34 l-36 -29 -33 37 c-60 68 -62 78 -23 114 19 17 38 31 43 31 13
0 71 30 77 40 3 4 14 6 24 3 13 -3 27 4 43 24 13 15 42 47 66 70 47 47 59 93
20 72 -13 -6 -45 -32 -72 -58 l-48 -46 5 58 c5 52 4 57 -14 57 -11 0 -27 -7
-35 -15 -17 -16 -34 -20 -34 -7 0 15 47 53 61 50 23 -5 23 39 0 47 -43 13
-106 -45 -117 -107 -6 -36 -25 -56 -68 -71 -18 -7 -18 -6 -2 15 9 13 23 37 31
55 8 18 21 36 29 40 7 4 16 18 20 30 5 16 2 23 -14 28 -49 15 -44 117 6 129
30 8 64 -16 64 -45 0 -26 36 -44 53 -27 10 9 12 22 5 52 -5 22 -5 43 0 48 15
15 43 -4 49 -33 3 -16 10 -29 15 -29 14 0 45 33 52 56 7 21 43 45 61 40 6 -2
9 -30 8 -65z m352 -31 c-6 -45 -5 -50 12 -50 25 0 51 20 55 44 1 11 9 21 17
24 10 3 12 -6 6 -47 -6 -47 -5 -51 13 -51 13 0 34 19 58 53 42 58 62 77 81 77
19 0 16 -45 -6 -81 -36 -58 -4 -79 44 -29 32 34 65 40 65 12 0 -31 -30 -61
-73 -73 -61 -18 -71 -28 -51 -50 10 -11 27 -19 38 -19 17 0 18 -2 6 -10 -8 -5
-31 -6 -51 -4 -32 5 -38 2 -44 -16 -8 -26 -11 -22 48 -48 49 -22 55 -42 13
-42 -12 0 -31 7 -42 15 -26 19 -60 19 -68 -1 -7 -18 18 -52 46 -63 16 -6 16
-8 -2 -31 -33 -44 -130 -20 -130 32 0 11 -8 18 -20 18 -11 0 -20 -5 -20 -12 0
-7 -5 -6 -12 4 -7 8 -22 20 -33 26 -19 10 -19 11 7 21 50 19 65 78 21 83 l-28
3 33 18 c43 23 44 51 2 42 -37 -8 -60 8 -60 42 0 13 -7 40 -15 60 -15 36 -15
37 17 70 19 19 42 33 56 33 23 0 24 -2 17 -50z m-905 -27 c3 -3 -11 -19 -30
-36 -36 -32 -60 -69 -60 -93 0 -8 -4 -14 -10 -14 -5 0 -10 -14 -10 -31 0 -24
-3 -29 -13 -21 -12 10 -91 13 -227 9 -75 -2 -130 17 -130 44 0 28 43 88 63 89
10 0 30 13 45 29 23 26 35 30 87 33 75 4 278 -3 285 -9z m56 -78 c10 -24 -73
-125 -102 -125 -29 0 -29 6 -4 64 13 32 25 46 38 46 11 0 25 7 32 15 16 19 29
19 36 0z m-876 -2 c0 -10 -72 -83 -82 -83 -17 0 -6 26 24 57 29 30 58 43 58
26z m1610 -32 c0 -8 10 -25 22 -38 12 -13 20 -25 17 -27 -2 -2 -33 0 -68 5
-49 7 -67 6 -72 -3 -7 -10 -11 -10 -21 0 -11 11 -8 17 12 33 14 10 35 22 48
25 12 4 27 15 33 27 9 16 13 17 20 6 5 -8 9 -20 9 -28z m-611 15 c6 -7 8 -22
5 -32 -12 -31 -65 -95 -75 -88 -5 3 -9 29 -9 58 0 48 2 53 28 63 37 15 38 15
51 -1z m-990 -160 c6 -4 11 -14 11 -23 0 -9 8 -22 17 -29 10 -7 15 -15 12 -18
-9 -9 -79 43 -79 59 0 9 -9 15 -21 15 -19 0 -21 4 -15 32 10 49 27 52 47 9 9
-21 22 -42 28 -45z m872 33 c-2 -35 1 -54 10 -59 10 -7 10 -11 0 -24 -19 -23
-36 -20 -71 12 l-30 27 46 48 c25 26 46 47 47 47 1 0 0 -23 -2 -51z m629 10
c0 -6 11 -8 28 -5 15 3 52 2 82 -3 l55 -8 -35 -15 c-19 -9 -38 -14 -42 -11
-16 9 -48 -9 -48 -27 0 -17 61 -50 95 -50 24 0 17 -29 -9 -42 -17 -7 -37 -8
-63 -1 -21 5 -44 8 -51 5 -18 -6 -15 -43 5 -57 18 -14 13 -16 -92 -40 -28 -6
-29 -6 -13 12 22 24 34 123 19 151 -9 16 -8 23 2 29 8 4 22 23 32 41 19 32 35
42 35 21z m-112 -121 c17 -17 15 -39 -8 -68 -21 -27 -26 -60 -10 -60 24 0 6
-27 -30 -43 l-40 -18 -24 28 c-16 17 -23 35 -20 46 4 11 -1 24 -11 31 -22 16
-17 70 8 74 12 3 17 -3 17 -21 0 -32 28 -43 46 -20 7 10 14 22 14 27 0 9 30
35 41 36 3 0 10 -5 17 -12z m-903 -38 c3 -5 15 -10 27 -10 17 0 19 -2 7 -16
-7 -8 -25 -22 -41 -30 -27 -14 -32 -13 -63 6 -38 24 -41 30 -23 48 15 15 84
16 93 2z m123 -108 c-23 -24 -88 -62 -108 -62 -6 0 -30 -9 -52 -20 -23 -11
-47 -20 -53 -20 -13 0 -75 79 -75 96 0 6 7 18 16 25 14 11 18 11 28 -2 17 -22
63 -49 84 -49 10 0 32 11 48 25 16 14 33 25 38 25 4 0 17 12 28 26 l20 25 24
-22 24 -23 -22 -24z m1102 54 c14 -1 35 -6 48 -10 22 -7 23 -9 6 -27 -12 -13
-30 -19 -60 -19 -24 0 -46 -5 -49 -11 -10 -15 24 -49 49 -49 34 0 -4 -30 -48
-37 -32 -5 -38 -3 -43 16 -6 24 -19 27 -30 6 -5 -9 -17 -12 -31 -8 -21 5 -32
23 -14 23 5 0 16 15 26 33 16 31 32 59 50 85 6 10 18 12 40 7 17 -3 42 -7 56
-9z m-212 -78 c-2 -6 -23 -18 -46 -26 -28 -9 -42 -19 -42 -31 0 -19 38 -41 73
-41 12 0 28 -4 36 -9 21 -14 -6 -26 -59 -26 -41 0 -45 -2 -45 -25 0 -22 5 -25
38 -28 70 -6 57 -62 -14 -62 -30 0 -39 4 -39 18 0 9 -5 24 -10 32 -8 13 -11
12 -23 -4 -11 -15 -17 -17 -35 -7 -26 14 -26 15 -7 45 19 29 10 54 -21 62 -40
10 -29 34 15 34 23 0 44 6 51 15 12 15 105 63 123 64 5 1 7 -4 5 -11z m-270
-35 c-2 -19 -12 -28 -38 -37 -25 -8 -35 -17 -35 -31 0 -17 10 -22 62 -30 70
-11 87 -22 49 -30 -14 -3 -37 -7 -51 -10 -29 -6 -32 -21 -8 -47 15 -17 15 -18
-5 -18 -11 0 -24 5 -27 10 -9 14 -27 12 -49 -5 -19 -15 -19 -16 7 -43 21 -22
27 -38 27 -71 0 -38 -2 -42 -22 -39 -15 2 -23 10 -23 23 0 12 -11 25 -27 33
-21 10 -28 20 -28 42 0 16 5 32 10 35 19 12 50 84 50 115 0 28 -2 31 -22 24
-30 -9 -38 -23 -25 -44 13 -22 -26 -82 -48 -73 -15 5 -19 -4 -16 -44 1 -11 -6
-29 -17 -40 -10 -10 -27 -30 -37 -45 -9 -16 -23 -28 -31 -28 -22 0 -36 39 -29
78 4 24 2 38 -7 43 -21 14 -27 11 -58 -23 -16 -17 -32 -30 -35 -27 -6 7 34 91
50 104 7 5 16 20 19 32 8 27 -23 40 -52 22 -20 -12 -52 -7 -52 9 0 5 11 21 25
36 34 37 88 34 93 -4 5 -32 30 -60 54 -60 22 0 22 -3 3 -40 -20 -38 -10 -62
23 -58 22 3 26 8 28 38 0 19 8 51 16 70 19 46 9 85 -20 84 -32 -1 -27 22 7 34
20 7 32 7 40 -1 9 -9 16 -8 31 1 16 10 21 8 34 -10 18 -26 41 -19 63 20 12 21
25 29 45 30 26 1 29 -3 26 -25z m-1581 -78 c-4 -36 -27 -69 -61 -87 -17 -9
-18 -7 -12 28 5 26 18 48 39 67 17 15 33 27 34 27 2 0 2 -16 0 -35z m1653
-136 c0 -14 -50 -23 -62 -11 -6 6 -8 18 -5 26 5 12 12 13 37 5 16 -6 30 -15
30 -20z m-1655 -48 c-15 -14 -55 -23 -55 -13 0 14 7 17 36 20 17 1 24 -1 19
-7z"/>
<path d="M3732 7663 c5 -26 38 -29 38 -4 0 15 -6 21 -21 21 -14 0 -19 -5 -17
-17z"/>
<path d="M3550 7580 c0 -13 7 -20 20 -20 18 0 19 3 10 20 -6 11 -15 20 -20 20
-6 0 -10 -9 -10 -20z"/>
<path d="M3274 7339 c-8 -14 11 -33 25 -25 16 10 13 36 -3 36 -8 0 -18 -5 -22
-11z"/>
<path d="M3230 7136 c0 -10 9 -16 21 -16 24 0 21 23 -4 28 -10 2 -17 -3 -17
-12z"/>
<path d="M3087 7074 c-9 -10 12 -46 23 -39 6 3 15 15 20 26 9 16 7 19 -13 19
-13 0 -27 -3 -30 -6z"/>
<path d="M3210 6980 c0 -11 7 -20 15 -20 8 0 15 6 15 14 0 8 -7 16 -15 20 -10
4 -15 -1 -15 -14z"/>
<path d="M2917 6903 c-12 -11 -8 -23 8 -23 8 0 15 7 15 15 0 16 -12 20 -23 8z"/>
<path d="M3180 6840 c0 -11 7 -20 15 -20 8 0 15 9 15 20 0 11 -7 20 -15 20 -8
0 -15 -9 -15 -20z"/>
<path d="M3102 6823 c2 -10 10 -18 18 -18 8 0 16 8 18 18 2 12 -3 17 -18 17
-15 0 -20 -5 -18 -17z"/>
<path d="M2747 6794 c-14 -14 -7 -35 11 -32 9 2 17 10 17 17 0 16 -18 25 -28
15z"/>
<path d="M2933 6774 c-8 -20 8 -36 26 -25 15 10 8 41 -9 41 -6 0 -13 -7 -17
-16z"/>
<path d="M3321 6746 c-12 -14 -5 -26 16 -26 15 0 18 26 4 34 -5 3 -14 0 -20
-8z"/>
<path d="M2803 6708 c2 -7 10 -13 17 -13 7 0 15 6 18 13 2 7 -5 12 -18 12 -13
0 -20 -5 -17 -12z"/>
<path d="M2608 6669 c-21 -12 -24 -39 -4 -39 7 0 19 7 26 15 17 21 1 37 -22
24z"/>
<path d="M2712 6658 c5 -15 37 -18 41 -3 1 6 -9 12 -22 13 -16 3 -22 -1 -19
-10z"/>
<path d="M3200 6646 c0 -18 17 -29 30 -21 8 5 7 11 -1 21 -15 18 -29 18 -29 0z"/>
<path d="M2954 6615 c-4 -9 -3 -19 0 -23 9 -8 42 12 39 24 -4 16 -33 16 -39
-1z"/>
<path d="M4221 6596 c-12 -14 6 -63 42 -117 20 -30 16 -61 -15 -119 -10 -19
-18 -40 -18 -46 0 -7 -7 -14 -15 -18 -8 -3 -15 -12 -15 -21 0 -8 -6 -15 -12
-15 -18 0 -104 -91 -113 -117 -14 -48 11 -27 180 148 33 34 55 93 55 146 0 48
-4 57 -36 89 -28 28 -34 42 -30 60 7 26 -5 32 -23 10z"/>
<path d="M2784 6586 c-4 -10 -2 -22 4 -28 8 -8 13 -7 18 6 4 10 2 22 -4 28 -8
8 -13 7 -18 -6z"/>
<path d="M2544 6579 c-10 -17 13 -36 27 -22 12 12 4 33 -11 33 -5 0 -12 -5
-16 -11z"/>
<path d="M6511 6576 c-11 -13 -11 -20 -3 -28 15 -15 24 -5 20 23 -3 21 -4 21
-17 5z"/>
<path d="M2620 6554 c0 -9 5 -14 12 -12 18 6 21 28 4 28 -9 0 -16 -7 -16 -16z"/>
<path d="M2440 6546 c0 -9 5 -16 10 -16 6 0 10 4 10 9 0 6 -4 13 -10 16 -5 3
-10 -1 -10 -9z"/>
<path d="M3043 6529 c-25 -9 -30 -24 -12 -35 13 -7 43 19 38 34 -3 6 -13 6
-26 1z"/>
<path d="M2734 6519 c-10 -17 13 -36 27 -22 12 12 4 33 -11 33 -5 0 -12 -5
-16 -11z"/>
<path d="M3472 6518 c6 -18 22 -20 43 -3 19 14 18 14 -13 15 -22 0 -32 -4 -30
-12z"/>
<path d="M3662 6518 c6 -18 28 -21 28 -4 0 9 -7 16 -16 16 -9 0 -14 -5 -12
-12z"/>
<path d="M2605 6509 c-10 -15 1 -23 20 -15 9 3 13 10 10 16 -8 13 -22 13 -30
-1z"/>
<path d="M2355 6490 c-7 -12 2 -30 16 -30 5 0 9 9 9 20 0 21 -15 27 -25 10z"/>
<path d="M2854 6444 c3 -9 6 -17 6 -20 0 -2 7 -1 15 2 23 9 18 34 -6 34 -15 0
-19 -4 -15 -16z"/>
<path d="M3184 6449 c-8 -14 11 -33 25 -25 16 10 13 36 -3 36 -8 0 -18 -5 -22
-11z"/>
<path d="M2533 6434 c-8 -21 13 -42 28 -27 13 13 5 43 -11 43 -6 0 -13 -7 -17
-16z"/>
<path d="M2403 6425 c-3 -9 -3 -18 0 -22 10 -10 37 6 37 22 0 20 -29 20 -37 0z"/>
<path d="M3324 6429 c-9 -16 18 -30 33 -17 7 6 10 14 7 19 -7 13 -31 11 -40
-2z"/>
<path d="M2666 6421 c-7 -11 18 -33 27 -24 4 3 7 12 7 20 0 15 -26 18 -34 4z"/>
<path d="M6254 6409 c-6 -10 11 -28 27 -29 15 0 17 29 3 34 -21 8 -22 8 -30
-5z"/>
<path d="M2245 6391 c-7 -12 12 -24 25 -16 11 7 4 25 -10 25 -5 0 -11 -4 -15
-9z"/>
<path d="M2960 6388 c0 -22 17 -41 29 -34 16 10 13 33 -5 40 -22 8 -24 8 -24
-6z"/>
<path d="M2484 6376 c-8 -21 3 -49 16 -41 5 3 10 15 10 25 0 25 -18 36 -26 16z"/>
<path d="M2334 6357 c-8 -22 11 -46 26 -31 7 7 5 17 -4 30 -14 18 -15 18 -22
1z"/>
<path d="M2602 6338 c5 -15 37 -18 41 -3 1 6 -9 12 -22 13 -16 3 -22 -1 -19
-10z"/>
<path d="M2720 6335 c0 -8 7 -15 15 -15 8 0 15 7 15 15 0 8 -7 15 -15 15 -8 0
-15 -7 -15 -15z"/>
<path d="M2827 6343 c-12 -11 -8 -23 7 -23 7 0 19 7 26 15 10 12 9 15 -7 15
-11 0 -23 -3 -26 -7z"/>
<path d="M3165 6340 c-8 -12 20 -24 35 -15 5 3 10 10 10 16 0 12 -37 12 -45
-1z"/>
<path d="M3588 6343 c-20 -5 -23 -18 -8 -28 12 -7 40 12 40 26 0 9 -4 10 -32
2z"/>
<path d="M2412 6333 c-15 -6 -6 -23 14 -23 8 0 14 7 14 15 0 15 -6 17 -28 8z"/>
<path d="M2127 6313 c-13 -12 -7 -23 13 -23 11 0 20 7 20 15 0 15 -21 21 -33
8z"/>
<path d="M2566 6305 c4 -8 10 -15 15 -15 5 0 9 7 9 15 0 8 -7 15 -15 15 -9 0
-12 -6 -9 -15z"/>
<path d="M2865 6300 c-4 -7 -3 -16 3 -22 14 -14 45 -2 40 15 -6 16 -34 21 -43
7z"/>
<path d="M3413 6303 c-15 -6 -18 -43 -3 -43 9 0 30 31 30 44 0 7 -10 7 -27 -1z"/>
<path d="M2010 6281 c0 -6 5 -13 10 -16 6 -3 10 1 10 9 0 9 -4 16 -10 16 -5 0
-10 -4 -10 -9z"/>
<path d="M2220 6264 c-10 -12 -8 -14 14 -14 28 0 35 14 12 23 -8 3 -20 -1 -26
-9z"/>
<path d="M2347 6264 c-9 -10 4 -34 19 -34 8 0 14 4 14 9 0 12 -26 32 -33 25z"/>
<path d="M2530 6250 c0 -13 5 -20 13 -17 6 2 12 10 12 17 0 7 -6 15 -12 18 -8
2 -13 -5 -13 -18z"/>
<path d="M3241 6259 c-20 -8 -21 -12 -11 -25 12 -13 15 -13 28 0 21 21 12 35
-17 25z"/>
<path d="M2440 6250 c0 -5 6 -10 14 -10 8 0 18 5 21 10 3 6 -3 10 -14 10 -12
0 -21 -4 -21 -10z"/>
<path d="M2601 6246 c-12 -14 -5 -26 16 -26 15 0 18 26 4 34 -5 3 -14 0 -20
-8z"/>
<path d="M1963 6235 c-3 -9 -3 -18 0 -22 10 -10 37 6 37 22 0 20 -29 20 -37 0z"/>
<path d="M2070 6236 c0 -9 7 -16 16 -16 17 0 14 22 -4 28 -7 2 -12 -3 -12 -12z"/>
<path d="M2750 6235 c0 -10 7 -15 18 -13 21 4 19 22 -2 26 -10 2 -16 -3 -16
-13z"/>
<path d="M6227 6233 c-13 -12 -7 -33 8 -33 8 0 15 9 15 20 0 20 -11 26 -23 13z"/>
<path d="M2196 6215 c-3 -9 1 -18 10 -22 19 -7 39 11 30 26 -10 16 -33 13 -40
-4z"/>
<path d="M2273 6213 c-7 -2 -13 -9 -13 -14 0 -14 26 -10 40 6 10 12 10 15 -1
14 -8 0 -20 -3 -26 -6z"/>
<path d="M2370 6197 c0 -28 6 -32 28 -19 9 7 8 13 -8 27 -20 18 -20 18 -20 -8z"/>
<path d="M2814 6209 c-9 -16 12 -33 31 -25 14 5 15 9 5 21 -15 18 -26 19 -36
4z"/>
<path d="M3040 6205 c0 -8 7 -15 15 -15 8 0 15 7 15 15 0 8 -7 15 -15 15 -8 0
-15 -7 -15 -15z"/>
<path d="M2040 6200 c-8 -5 -11 -12 -8 -16 10 -9 38 3 38 16 0 12 -10 13 -30
0z"/>
<path d="M2110 6195 c0 -10 7 -15 18 -13 21 4 19 22 -2 26 -10 2 -16 -3 -16
-13z"/>
<path d="M2685 6200 c-3 -5 3 -10 14 -10 12 0 21 5 21 10 0 6 -6 10 -14 10 -8
0 -18 -4 -21 -10z"/>
<path d="M2490 6180 c0 -5 5 -10 10 -10 6 0 10 5 10 10 0 6 -4 10 -10 10 -5 0
-10 -4 -10 -10z"/>
<path d="M5990 6170 c0 -13 7 -20 20 -20 23 0 26 10 8 28 -18 18 -28 15 -28
-8z"/>
<path d="M1837 6173 c-14 -13 -7 -33 11 -33 24 0 32 8 25 26 -5 15 -25 19 -36
7z"/>
<path d="M2620 6166 c0 -9 7 -16 16 -16 17 0 14 22 -4 28 -7 2 -12 -3 -12 -12z"/>
<path d="M2895 6170 c-10 -16 16 -43 28 -31 11 11 2 41 -12 41 -5 0 -13 -5
-16 -10z"/>
<path d="M1992 6148 c2 -13 8 -23 13 -23 6 0 11 10 13 23 2 15 -2 22 -13 22
-11 0 -15 -7 -13 -22z"/>
<path d="M2725 6159 c-4 -6 -4 -13 -1 -16 8 -8 36 5 36 17 0 13 -27 13 -35 -1z"/>
<path d="M2296 6151 c-7 -11 18 -33 27 -24 4 3 7 12 7 20 0 15 -26 18 -34 4z"/>
<path d="M2130 6135 c0 -10 10 -15 30 -15 35 0 40 15 8 24 -34 9 -38 8 -38 -9z"/>
<path d="M1937 6133 c-12 -11 -8 -23 8 -23 8 0 15 7 15 15 0 16 -12 20 -23 8z"/>
<path d="M2246 6123 c-9 -22 10 -41 25 -26 13 13 5 43 -10 43 -5 0 -12 -8 -15
-17z"/>
<path d="M2440 6125 c0 -10 7 -15 18 -13 21 4 19 22 -2 26 -10 2 -16 -3 -16
-13z"/>
<path d="M4026 6124 c-3 -9 -6 -25 -6 -36 0 -20 -1 -20 -18 -5 -24 22 -27 22
-68 -10 -35 -29 -43 -60 -22 -81 9 -9 9 -12 0 -12 -7 0 -12 -10 -12 -21 0 -20
3 -21 55 -15 95 11 113 36 100 141 -7 55 -17 69 -29 39z m-2 -79 c3 -8 1 -26
-4 -40 -7 -19 -17 -25 -41 -25 -25 0 -29 3 -21 13 6 7 9 23 6 34 -4 15 -1 23
13 26 33 9 41 7 47 -8z"/>
<path d="M2042 6103 c4 -21 33 -25 33 -3 0 8 -8 16 -18 18 -14 3 -18 -1 -15
-15z"/>
<path d="M2341 6106 c-14 -17 -1 -28 19 -16 11 7 12 12 4 20 -8 8 -14 7 -23
-4z"/>
<path d="M2560 6110 c0 -5 7 -10 15 -10 8 0 15 5 15 10 0 6 -7 10 -15 10 -8 0
-15 -4 -15 -10z"/>
<path d="M3040 6105 c0 -8 7 -15 15 -15 8 0 15 7 15 15 0 8 -7 15 -15 15 -8 0
-15 -7 -15 -15z"/>
<path d="M1892 6098 c-14 -14 -16 -38 -3 -38 15 0 30 25 22 38 -5 9 -10 9 -19
0z"/>
<path d="M2177 6104 c-14 -14 -7 -35 11 -32 9 2 17 10 17 17 0 16 -18 25 -28
15z"/>
<path d="M2677 6103 c-11 -10 -8 -43 3 -43 15 0 24 30 13 41 -5 5 -12 6 -16 2z"/>
<path d="M1946 6091 c-3 -5 1 -14 8 -20 16 -13 32 2 21 19 -8 12 -22 13 -29 1z"/>
<path d="M1820 6070 c0 -13 5 -20 13 -17 6 2 12 10 12 17 0 7 -6 15 -12 18 -8
2 -13 -5 -13 -18z"/>
<path d="M2407 6084 c-8 -8 3 -34 14 -34 4 0 13 9 19 20 9 17 8 20 -8 20 -10
0 -21 -3 -25 -6z"/>
<path d="M2110 6075 c0 -16 26 -55 37 -55 16 0 17 14 3 41 -9 16 -40 28 -40
14z"/>
<path d="M2767 6074 c-8 -8 1 -24 14 -24 5 0 9 7 9 15 0 15 -12 20 -23 9z"/>
<path d="M2277 6050 c-6 -23 10 -37 24 -23 10 10 2 43 -11 43 -4 0 -10 -9 -13
-20z"/>
<path d="M2900 6055 c0 -8 9 -15 20 -15 11 0 20 7 20 15 0 8 -9 15 -20 15 -11
0 -20 -7 -20 -15z"/>
<path d="M1760 6045 c0 -10 7 -15 18 -13 21 4 19 22 -2 26 -10 2 -16 -3 -16
-13z"/>
<path d="M6005 6050 c-8 -13 14 -42 26 -34 5 3 9 14 9 25 0 20 -24 26 -35 9z"/>
<path d="M1950 6036 c0 -9 7 -16 16 -16 17 0 14 22 -4 28 -7 2 -12 -3 -12 -12z"/>
<path d="M2010 6034 c-11 -13 -10 -19 8 -36 26 -27 34 -21 26 20 -7 36 -15 39
-34 16z"/>
<path d="M2510 6029 c0 -11 5 -17 10 -14 6 3 10 13 10 21 0 8 -4 14 -10 14 -5
0 -10 -9 -10 -21z"/>
<path d="M1721 6022 c-8 -16 -7 -21 5 -26 18 -7 31 21 16 36 -7 7 -13 4 -21
-10z"/>
<path d="M2201 6013 c-13 -29 -9 -38 14 -30 16 7 21 42 6 51 -4 3 -13 -6 -20
-21z"/>
<path d="M2344 6016 c-4 -10 -2 -22 4 -28 8 -8 13 -7 18 6 4 10 2 22 -4 28 -8
8 -13 7 -18 -6z"/>
<path d="M2807 6016 c-7 -16 1 -26 20 -26 7 0 13 9 13 20 0 23 -25 27 -33 6z"/>
<path d="M3313 5992 c-29 -27 -45 -53 -56 -90 -9 -28 -25 -61 -36 -74 -19 -20
-20 -23 -4 -40 22 -24 39 -9 48 44 9 53 37 98 77 125 27 18 50 23 123 25 73 2
90 6 93 19 4 21 -35 29 -132 29 -68 0 -73 -1 -113 -38z"/>
<path d="M2083 6006 c3 -7 0 -19 -6 -25 -14 -14 11 -15 32 -2 18 11 7 41 -15
41 -10 0 -14 -6 -11 -14z"/>
<path d="M1921 5996 c-14 -17 -1 -28 19 -16 11 7 12 12 4 20 -8 8 -14 7 -23
-4z"/>
<path d="M2290 5996 c0 -9 5 -16 10 -16 6 0 10 4 10 9 0 6 -4 13 -10 16 -5 3
-10 -1 -10 -9z"/>
<path d="M1780 5990 c-8 -5 -11 -12 -8 -16 10 -9 38 3 38 16 0 12 -10 13 -30
0z"/>
<path d="M1820 5985 c0 -10 7 -15 18 -13 21 4 19 22 -2 26 -10 2 -16 -3 -16
-13z"/>
<path d="M2967 5983 c-8 -7 11 -33 24 -33 5 0 9 9 9 20 0 19 -20 27 -33 13z"/>
<path d="M4360 5976 c0 -10 9 -16 21 -16 24 0 21 23 -4 28 -10 2 -17 -3 -17
-12z"/>
<path d="M1612 5966 c1 -10 8 -17 13 -17 15 1 12 24 -3 29 -9 3 -13 -2 -10
-12z"/>
<path d="M2106 5963 c-12 -12 -6 -33 9 -33 8 0 15 6 15 14 0 17 -14 28 -24 19z"/>
<path d="M4664 5955 c-8 -20 8 -38 30 -33 25 5 24 19 -1 35 -20 14 -23 14 -29
-2z"/>
<path d="M5763 5954 c-8 -21 13 -42 28 -27 13 13 5 43 -11 43 -6 0 -13 -7 -17
-16z"/>
<path d="M1651 5951 c-17 -11 -7 -41 14 -41 9 0 15 9 15 25 0 27 -6 30 -29 16z"/>
<path d="M1938 5921 c-41 -42 -46 -56 -23 -65 11 -4 19 3 25 20 6 14 17 32 25
40 12 13 21 44 13 44 -2 0 -20 -17 -40 -39z"/>
<path d="M4547 5946 c-7 -16 1 -26 20 -26 7 0 13 9 13 20 0 23 -25 27 -33 6z"/>
<path d="M1849 5940 c-1 -5 -2 -14 -3 -19 0 -5 -4 -13 -8 -17 -13 -12 -9 -24
6 -24 11 0 46 50 46 67 0 8 -40 2 -41 -7z"/>
<path d="M2142 5934 c4 -21 22 -23 26 -1 2 10 -3 17 -13 17 -10 0 -15 -6 -13
-16z"/>
<path d="M2184 5939 c-8 -14 11 -33 25 -25 6 4 11 14 11 22 0 16 -26 19 -36 3z"/>
<path d="M1714 5929 c-8 -14 11 -33 25 -25 16 10 13 36 -3 36 -8 0 -18 -5 -22
-11z"/>
<path d="M2020 5919 c0 -14 25 -39 39 -39 17 0 13 21 -6 36 -22 16 -33 17 -33
3z"/>
<path d="M1537 5903 c-14 -13 -6 -33 12 -33 19 0 35 23 24 34 -8 8 -28 8 -36
-1z"/>
<path d="M1600 5896 c0 -8 4 -17 9 -20 10 -7 23 19 14 28 -11 11 -23 6 -23 -8z"/>
<path d="M1772 5898 c-8 -8 -9 -15 -1 -25 9 -10 8 -13 -4 -13 -22 0 -41 -92
-22 -103 11 -6 12 -13 3 -32 -16 -35 3 -76 31 -68 12 3 18 9 15 14 -3 5 5 9
16 9 16 0 20 5 16 15 -3 8 -1 15 5 15 18 0 23 -33 6 -45 -10 -7 -17 -20 -17
-29 0 -19 2 -19 34 -5 20 10 25 19 24 45 -1 21 -6 34 -15 34 -20 0 -16 51 7
80 17 22 19 23 25 7 8 -20 35 -23 35 -4 0 7 14 26 30 42 32 31 39 55 15 55 -9
0 -15 -9 -15 -25 0 -18 -5 -25 -19 -25 -11 0 -21 -6 -23 -12 -3 -8 -9 -4 -17
10 -12 22 -12 22 -32 3 -12 -11 -28 -17 -41 -13 -17 4 -19 2 -11 -12 15 -28 4
-76 -18 -76 -23 0 -24 8 -2 32 16 18 16 19 -5 25 -29 7 -28 19 6 48 l27 24
-20 21 c-16 15 -23 18 -33 8z"/>
<path d="M2100 5886 c-5 -13 -5 -37 -1 -53 9 -34 41 -45 41 -14 0 12 -4 21
-10 21 -5 0 -10 9 -10 19 0 11 5 23 10 26 15 9 12 25 -5 25 -9 0 -20 -11 -25
-24z"/>
<path d="M1690 5875 c0 -9 -10 -15 -25 -15 -27 0 -32 -9 -14 -27 9 -9 41 -4
77 13 1 1 0 8 -4 17 -8 21 -34 30 -34 12z"/>
<path d="M4376 5874 c-4 -10 -2 -22 3 -27 7 -7 13 -5 17 7 4 10 2 22 -3 27 -7
7 -13 5 -17 -7z"/>
<path d="M2184 5869 c-11 -18 13 -34 31 -19 8 7 15 16 15 21 0 13 -38 11 -46
-2z"/>
<path d="M1302 5848 c3 -7 13 -15 24 -17 16 -3 17 -1 5 13 -16 19 -34 21 -29
4z"/>
<path d="M1395 5849 c-10 -15 1 -22 24 -14 12 3 19 11 16 16 -8 12 -32 11 -40
-2z"/>
<path d="M2023 5846 c-25 -12 -29 -26 -12 -43 7 -7 1 -12 -20 -16 -34 -7 -42
-27 -12 -27 25 0 51 26 51 52 0 11 8 22 20 25 11 3 17 9 14 14 -6 11 -12 10
-41 -5z"/>
<path d="M2471 5816 c-78 -56 -74 -51 -66 -75 9 -29 31 -26 75 9 41 32 60 36
108 19 19 -7 35 -22 43 -42 12 -28 39 -58 139 -154 21 -19 37 -24 85 -25 33 0
75 3 93 7 19 4 37 3 45 -4 8 -6 35 -12 60 -13 l47 -3 -5 -35 c-11 -75 -17 -96
-29 -112 -12 -17 -16 -17 -70 2 l-57 19 -77 -26 c-42 -14 -83 -31 -91 -37 -38
-30 -71 -168 -48 -199 12 -17 14 -17 38 2 20 15 28 33 32 68 9 81 82 117 159
77 39 -20 111 -11 138 18 25 27 50 80 50 106 0 11 9 40 19 65 21 48 25 115 9
135 -14 16 -43 15 -58 -3 -16 -19 -57 -19 -94 0 -36 19 -71 19 -100 -1 -15 -9
-26 -11 -30 -5 -4 6 -13 8 -20 5 -7 -3 -19 2 -26 11 -7 8 -21 15 -32 15 -29 0
-88 63 -88 93 0 16 -10 31 -27 43 -15 9 -34 25 -43 35 -11 12 -97 49 -115 49
-1 0 -29 -20 -64 -44z"/>
<path d="M2265 5839 c-12 -19 5 -23 22 -6 16 16 16 17 1 17 -9 0 -20 -5 -23
-11z"/>
<path d="M1450 5826 c0 -8 7 -16 15 -20 10 -4 15 1 15 14 0 11 -7 20 -15 20
-8 0 -15 -6 -15 -14z"/>
<path d="M1517 5834 c-14 -15 -6 -34 14 -34 14 0 19 5 17 17 -3 18 -20 27 -31
17z"/>
<path d="M2170 5811 c0 -11 4 -21 9 -21 18 0 21 18 6 30 -13 10 -15 9 -15 -9z"/>
<path d="M4271 5821 c-16 -10 -6 -31 15 -31 8 0 14 9 14 20 0 22 -7 25 -29 11z"/>
<path d="M1613 5804 c-9 -23 13 -40 32 -24 8 7 15 19 15 26 0 19 -39 18 -47
-2z"/>
<path d="M1697 5803 c-13 -12 -7 -33 8 -33 8 0 15 9 15 20 0 20 -11 26 -23 13z"/>
<path d="M1290 5774 c-9 -10 -10 -18 -2 -26 12 -12 32 -2 32 17 0 21 -16 26
-30 9z"/>
<path d="M3420 5744 c-38 -41 -42 -50 -36 -83 3 -20 6 -46 6 -58 0 -13 6 -23
14 -23 17 0 27 45 13 59 -16 16 1 57 38 95 19 20 35 41 35 46 0 23 -30 7 -70
-36z"/>
<path d="M2216 5764 c-16 -15 -13 -34 4 -34 12 0 50 32 50 42 0 14 -38 8 -54
-8z"/>
<path d="M1364 5756 c-9 -24 12 -44 28 -28 10 10 8 16 -5 29 -15 15 -17 15
-23 -1z"/>
<path d="M1894 5745 c-20 -30 -14 -39 27 -41 35 -2 46 15 29 45 -15 28 -36 26
-56 -4z"/>
<path d="M2027 5763 c-14 -13 -6 -20 19 -17 41 4 55 24 18 24 -17 0 -34 -3
-37 -7z"/>
<path d="M2100 5760 c0 -5 5 -10 11 -10 6 0 8 -8 4 -19 -4 -14 0 -21 14 -26
12 -3 25 -3 31 0 17 11 11 37 -10 42 -11 3 -17 9 -14 14 3 5 -4 9 -15 9 -12 0
-21 -4 -21 -10z"/>
<path d="M4460 5755 c-9 -11 -10 -19 -2 -27 13 -13 28 -4 35 22 6 24 -15 27
-33 5z"/>
<path d="M4600 5755 c-13 -16 -7 -45 10 -45 5 0 10 14 10 30 0 34 -3 36 -20
15z"/>
<path d="M1537 5753 c-2 -5 -4 -23 -5 -40 -2 -25 2 -33 14 -33 12 0 15 7 12
25 -3 14 -2 25 2 25 4 0 10 7 14 15 3 10 -1 15 -14 15 -10 0 -21 -3 -23 -7z"/>
<path d="M1621 5746 c-8 -10 -8 -16 2 -25 16 -13 27 -5 27 21 0 21 -13 23 -29
4z"/>
<path d="M1681 5751 c-14 -9 -9 -41 7 -41 15 0 34 28 27 40 -8 12 -16 13 -34
1z"/>
<path d="M1457 5730 c-4 -15 0 -20 14 -20 12 0 19 7 19 20 0 11 -6 20 -14 20
-7 0 -16 -9 -19 -20z"/>
<path d="M5503 5734 c-8 -21 13 -42 28 -27 13 13 5 43 -11 43 -6 0 -13 -7 -17
-16z"/>
<path d="M2312 5726 c1 -10 8 -17 13 -17 15 1 12 24 -3 29 -9 3 -13 -2 -10
-12z"/>
<path d="M4730 5716 c0 -9 7 -16 16 -16 17 0 14 22 -4 28 -7 2 -12 -3 -12 -12z"/>
<path d="M2037 5713 c-4 -3 -2 -12 5 -20 6 -7 8 -16 5 -20 -4 -3 -2 -14 4 -25
10 -19 11 -19 30 -2 17 16 22 16 30 4 8 -13 12 -12 24 4 8 11 15 23 15 28 0 8
-29 13 -62 10 -10 -1 -18 5 -18 13 0 15 -21 20 -33 8z"/>
<path d="M2495 5710 c-4 -6 -3 -16 3 -22 6 -6 12 -6 17 2 4 6 3 16 -3 22 -6 6
-12 6 -17 -2z"/>
<path d="M1650 5702 c0 -5 7 -15 15 -22 12 -10 19 -10 27 -2 14 14 11 17 -19
26 -13 4 -23 3 -23 -2z"/>
<path d="M1578 5694 c-11 -10 3 -34 19 -34 8 0 13 7 11 17 -3 18 -20 27 -30
17z"/>
<path d="M1986 5671 c3 -16 1 -31 -4 -35 -14 -9 -3 -46 14 -46 8 0 14 -10 14
-25 0 -32 -8 -31 -43 1 -21 20 -27 32 -22 48 15 45 17 76 6 76 -6 0 -11 -9
-11 -20 0 -13 -7 -20 -18 -20 -30 0 -35 -13 -12 -30 18 -14 19 -19 10 -47
l-11 -31 -35 20 c-19 11 -34 26 -34 34 0 18 -14 18 -30 -1 -17 -21 15 -58 42
-49 12 4 18 1 16 -8 -4 -17 51 -20 71 -4 11 8 15 8 18 -1 3 -7 13 -13 24 -13
10 0 19 -4 19 -10 0 -5 6 -10 14 -10 15 0 17 -46 2 -68 -11 -19 17 -47 39 -38
9 3 13 11 10 16 -4 6 -1 18 6 26 9 11 8 18 -6 34 -10 11 -16 23 -13 26 10 9
48 -29 48 -48 0 -10 6 -18 13 -18 6 0 12 -13 13 -30 1 -17 4 -33 7 -36 4 -5
42 10 55 21 2 2 -4 15 -13 29 -9 14 -14 30 -10 35 3 6 -3 19 -15 31 -11 11
-20 23 -20 27 0 4 5 2 12 -5 12 -12 68 -17 68 -6 0 3 -7 12 -15 21 -19 18 -14
39 8 35 24 -4 32 19 11 31 -17 10 -60 18 -96 18 -10 0 -18 6 -18 12 0 8 -3 9
-8 1 -4 -6 -15 -13 -24 -17 -10 -3 -18 -11 -18 -17 0 -16 31 -24 49 -13 28 17
43 4 21 -20 -11 -11 -18 -28 -15 -38 3 -9 -13 1 -36 22 -33 31 -39 41 -30 52
9 11 8 17 -5 27 -8 8 -13 22 -10 33 6 22 -13 57 -31 57 -8 0 -11 -10 -7 -29z"/>
<path d="M1377 5684 c-4 -4 -7 -16 -7 -26 0 -20 25 -25 36 -7 8 13 -19 43 -29
33z"/>
<path d="M2546 5681 c-4 -5 3 -15 15 -21 18 -10 20 -9 17 6 -4 20 -23 30 -32
15z"/>
<path d="M3299 5662 c-18 -31 -8 -75 24 -106 9 -10 17 -26 17 -36 0 -28 17
-34 30 -10 9 16 6 30 -14 70 -14 27 -24 61 -23 76 3 37 -15 40 -34 6z"/>
<path d="M2244 5669 c-11 -18 13 -34 31 -19 8 7 15 16 15 21 0 13 -38 11 -46
-2z"/>
<path d="M2400 5655 c0 -8 9 -15 20 -15 11 0 20 7 20 15 0 8 -9 15 -20 15 -11
0 -20 -7 -20 -15z"/>
<path d="M5155 5660 c-7 -12 2 -30 16 -30 5 0 9 9 9 20 0 21 -15 27 -25 10z"/>
<path d="M2170 5650 c-13 -8 -12 -11 5 -24 23 -18 55 -21 55 -6 0 6 -7 10 -15
10 -8 0 -15 7 -15 15 0 17 -9 19 -30 5z"/>
<path d="M4240 5640 c0 -11 5 -20 10 -20 6 0 10 9 10 20 0 11 -4 20 -10 20 -5
0 -10 -9 -10 -20z"/>
<path d="M1480 5630 c0 -19 20 -27 33 -13 8 7 -11 33 -24 33 -5 0 -9 -9 -9
-20z"/>
<path d="M2327 5644 c-12 -12 -8 -24 8 -24 8 0 15 -4 15 -10 0 -5 9 -10 20
-10 25 0 27 25 3 34 -10 3 -23 8 -29 11 -5 3 -13 2 -17 -1z"/>
<path d="M3776 5631 c-3 -5 1 -14 10 -21 11 -10 18 -10 27 -1 9 9 9 14 -3 21
-19 12 -27 12 -34 1z"/>
<path d="M4050 5625 c0 -8 7 -15 15 -15 8 0 15 7 15 15 0 8 -7 15 -15 15 -8 0
-15 -7 -15 -15z"/>
<path d="M4380 5630 c0 -14 26 -23 41 -15 8 6 7 10 -2 16 -19 12 -39 11 -39
-1z"/>
<path d="M4837 5634 c-15 -15 -6 -24 23 -24 17 0 30 5 30 10 0 6 -4 10 -9 10
-5 0 -16 2 -23 5 -8 3 -17 2 -21 -1z"/>
<path d="M1600 5612 c0 -25 16 -37 23 -18 3 8 -1 20 -9 26 -11 10 -14 9 -14
-8z"/>
<path d="M1654 5614 c3 -9 6 -17 6 -20 0 -2 7 -1 15 2 23 9 18 34 -6 34 -15 0
-19 -4 -15 -16z"/>
<path d="M1740 5623 c0 -5 4 -14 9 -21 7 -11 9 -11 14 1 3 8 3 18 0 21 -9 8
-23 7 -23 -1z"/>
<path d="M1520 5590 c-11 -20 -9 -21 17 -18 17 2 28 9 28 18 0 23 -32 23 -45
0z"/>
<path d="M1876 5601 c-6 -10 22 -37 29 -29 8 7 -5 38 -15 38 -5 0 -11 -4 -14
-9z"/>
<path d="M2470 5584 c0 -9 7 -14 17 -12 25 5 28 28 4 28 -12 0 -21 -6 -21 -16z"/>
<path d="M3900 5580 c0 -19 11 -26 23 -14 8 8 -3 34 -14 34 -5 0 -9 -9 -9 -20z"/>
<path d="M5254 5589 c-10 -17 13 -36 27 -22 12 12 4 33 -11 33 -5 0 -12 -5
-16 -11z"/>
<path d="M1416 5574 c-8 -21 -1 -28 19 -20 9 3 15 11 13 18 -7 19 -25 20 -32
2z"/>
<path d="M1727 5574 c-8 -8 1 -24 14 -24 5 0 9 7 9 15 0 15 -12 20 -23 9z"/>
<path d="M2602 5568 c-16 -16 -15 -28 3 -28 8 0 15 9 15 20 0 23 -2 24 -18 8z"/>
<path d="M4180 5565 c0 -8 9 -15 20 -15 11 0 20 2 20 5 0 2 -9 9 -20 15 -16 9
-20 8 -20 -5z"/>
<path d="M2255 5560 c-3 -5 1 -10 9 -10 10 0 16 -9 16 -25 0 -28 17 -34 27
-10 3 9 -3 25 -12 35 -20 22 -31 25 -40 10z"/>
<path d="M2317 5545 c6 -17 25 -15 31 3 2 7 -5 12 -17 12 -14 0 -19 -5 -14
-15z"/>
<path d="M5040 5545 c0 -8 6 -15 14 -15 8 0 16 7 20 15 4 10 -1 15 -14 15 -11
0 -20 -7 -20 -15z"/>
<path d="M1495 5540 c-7 -12 2 -30 16 -30 12 0 12 27 0 35 -5 3 -12 1 -16 -5z"/>
<path d="M1662 5530 c1 -13 9 -25 16 -28 17 -5 15 23 -4 39 -14 11 -15 10 -12
-11z"/>
<path d="M2445 5540 c-7 -12 2 -30 16 -30 5 0 9 9 9 20 0 21 -15 27 -25 10z"/>
<path d="M2514 5528 c-4 -5 0 -17 9 -25 13 -14 16 -13 26 5 9 16 7 21 -9 25
-11 3 -23 1 -26 -5z"/>
<path d="M3781 5531 c-13 -8 -13 -12 -1 -26 13 -16 15 -16 27 1 20 27 3 43
-26 25z"/>
<path d="M4020 5521 c0 -11 4 -21 9 -21 18 0 21 18 6 30 -13 10 -15 9 -15 -9z"/>
<path d="M4487 5524 c-26 -14 -29 -34 -4 -34 12 0 42 39 35 45 -2 2 -16 -3
-31 -11z"/>
<path d="M1760 5516 c0 -21 20 -30 33 -17 9 9 8 14 -3 21 -21 14 -30 12 -30
-4z"/>
<path d="M4102 5514 c1 -9 9 -19 16 -22 9 -3 13 2 10 14 -1 9 -9 19 -16 22 -9
3 -13 -2 -10 -14z"/>
<path d="M4690 5517 c0 -21 12 -28 27 -16 19 16 16 29 -7 29 -11 0 -20 -6 -20
-13z"/>
<path d="M2230 5501 c0 -12 6 -21 16 -21 9 0 14 7 12 17 -5 25 -28 28 -28 4z"/>
<path d="M1587 5503 c-12 -11 -8 -23 8 -23 8 0 15 7 15 15 0 16 -12 20 -23 8z"/>
<path d="M2364 5499 c-3 -6 -1 -16 5 -22 8 -8 17 -5 33 11 l22 22 -26 0 c-15
0 -30 -5 -34 -11z"/>
<path d="M1900 5480 c-12 -23 -6 -40 15 -40 16 0 23 18 17 43 -6 23 -19 22
-32 -3z"/>
<path d="M1640 5476 c0 -23 17 -28 34 -10 21 21 20 24 -9 24 -15 0 -25 -6 -25
-14z"/>
<path d="M1815 5480 c-9 -14 4 -52 16 -45 12 8 12 55 0 55 -6 0 -13 -5 -16
-10z"/>
<path d="M2298 5476 c-20 -20 -21 -25 -9 -44 11 -19 34 10 29 39 -3 22 -4 22
-20 5z"/>
<path d="M4385 5481 c-8 -15 3 -31 21 -31 9 0 14 7 12 17 -4 20 -24 28 -33 14z"/>
<path d="M5154 5479 c-10 -17 13 -36 27 -22 12 12 4 33 -11 33 -5 0 -12 -5
-16 -11z"/>
<path d="M1954 5469 c-3 -6 -2 -15 4 -21 12 -12 55 8 47 23 -8 12 -42 12 -51
-2z"/>
<path d="M2667 5473 c-13 -12 -7 -33 8 -33 8 0 15 9 15 20 0 20 -11 26 -23 13z"/>
<path d="M3930 5472 c0 -5 6 -16 13 -27 16 -20 33 -5 23 20 -6 16 -36 21 -36
7z"/>
<path d="M4167 5465 c-7 -16 8 -29 23 -20 10 6 2 35 -10 35 -4 0 -10 -7 -13
-15z"/>
<path d="M4830 5470 c-8 -6 -25 -10 -37 -10 -26 0 -40 -17 -25 -32 10 -10 65
12 77 33 10 15 2 19 -15 9z"/>
<path d="M1711 5451 c-6 -10 -7 -21 -4 -25 9 -8 33 14 33 30 0 20 -18 17 -29
-5z"/>
<path d="M2410 5461 c0 -5 -9 -7 -20 -4 -22 6 -28 -14 -7 -23 18 -6 67 13 67
26 0 5 -9 10 -20 10 -11 0 -20 -4 -20 -9z"/>
<path d="M2740 5455 c0 -17 18 -19 38 -6 11 7 10 10 -3 15 -26 10 -35 7 -35
-9z"/>
<path d="M2180 5447 c0 -21 12 -28 27 -16 19 16 16 29 -7 29 -11 0 -20 -6 -20
-13z"/>
<path d="M2463 5440 c-3 -11 -12 -20 -19 -20 -8 0 -14 -7 -14 -15 0 -8 7 -15
15 -15 8 0 15 7 15 15 0 8 7 15 15 15 8 0 15 9 15 20 0 11 -5 20 -11 20 -6 0
-13 -9 -16 -20z"/>
<path d="M2860 5446 c0 -18 16 -29 30 -21 13 8 1 35 -16 35 -8 0 -14 -6 -14
-14z"/>
<path d="M4247 5453 c-14 -13 -6 -33 13 -33 22 0 23 1 14 24 -7 17 -16 20 -27
9z"/>
<path d="M1750 5431 c0 -10 30 -24 37 -17 3 3 2 9 -2 15 -8 13 -35 15 -35 2z"/>
<path d="M3348 5432 c-14 -3 -17 -13 -17 -50 1 -26 -6 -64 -14 -84 -13 -32
-20 -37 -49 -36 -18 0 -58 -4 -88 -8 -49 -8 -57 -13 -72 -43 -27 -54 -35 -58
-65 -29 -41 37 -108 52 -157 34 -45 -16 -51 -24 -60 -89 -8 -49 3 -77 29 -77
14 0 37 54 28 64 -12 12 21 36 48 36 26 0 97 -34 110 -52 3 -5 19 -10 35 -11
25 -2 32 4 55 48 30 60 56 67 131 35 75 -32 97 -13 127 113 6 26 11 57 11 68
0 15 4 19 16 15 9 -3 25 -6 37 -6 32 0 47 -13 53 -44 3 -18 -2 -36 -14 -51
-17 -21 -18 -32 -10 -72 5 -27 11 -68 14 -93 5 -42 13 -60 46 -101 13 -16 98
-56 171 -80 38 -13 66 -6 74 18 6 18 -27 43 -56 43 -35 0 -107 39 -144 78 -34
36 -51 128 -35 189 18 67 21 128 6 139 -28 22 -174 54 -210 46z"/>
<path d="M4047 5433 c-4 -3 -7 -10 -7 -14 0 -11 29 -19 35 -10 6 11 -20 33
-28 24z"/>
<path d="M4922 5426 c1 -10 8 -17 13 -17 15 1 12 24 -3 29 -9 3 -13 -2 -10
-12z"/>
<path d="M2506 5422 c-9 -15 18 -62 37 -62 9 0 17 4 17 9 0 16 -48 63 -54 53z"/>
<path d="M2582 5419 c2 -6 8 -10 13 -10 5 0 11 4 13 10 2 6 -4 11 -13 11 -9 0
-15 -5 -13 -11z"/>
<path d="M4575 5420 c-7 -12 2 -30 16 -30 5 0 9 9 9 20 0 21 -15 27 -25 10z"/>
<path d="M1920 5410 c0 -19 -3 -25 -19 -37 -14 -10 -14 -12 4 -18 11 -4 28
-11 37 -16 10 -5 20 -9 24 -9 8 0 -6 63 -18 78 -12 15 -28 16 -28 2z"/>
<path d="M2230 5404 c0 -9 5 -14 12 -12 18 6 21 28 4 28 -9 0 -16 -7 -16 -16z"/>
<path d="M2322 5403 c5 -26 38 -29 38 -4 0 15 -6 21 -21 21 -14 0 -19 -5 -17
-17z"/>
<path d="M3860 5411 c0 -13 26 -32 33 -24 14 13 6 33 -13 33 -11 0 -20 -4 -20
-9z"/>
<path d="M2285 5402 c-6 -4 -10 -14 -10 -22 0 -8 -10 -16 -23 -18 -31 -5 -48
-38 -25 -51 17 -9 17 -10 1 -16 -20 -8 -14 -25 8 -25 11 0 15 9 12 33 -3 30
-1 32 30 32 29 0 32 2 32 32 0 33 -9 46 -25 35z"/>
<path d="M2640 5396 c0 -9 5 -16 10 -16 6 0 10 4 10 9 0 6 -4 13 -10 16 -5 3
-10 -1 -10 -9z"/>
<path d="M4492 5394 c1 -9 9 -19 16 -22 9 -3 13 2 10 14 -1 9 -9 19 -16 22 -9
3 -13 -2 -10 -14z"/>
<path d="M1834 5389 c-3 -6 -1 -16 5 -22 13 -13 42 0 49 21 5 15 -44 16 -54 1z"/>
<path d="M2366 5385 c-4 -10 3 -20 19 -27 31 -14 40 -6 23 21 -15 25 -33 27
-42 6z"/>
<path d="M3961 5374 c-21 -15 -20 -34 2 -34 15 0 39 37 28 44 -4 3 -18 -2 -30
-10z"/>
<path d="M4130 5361 c-14 -4 -25 -13 -25 -21 0 -20 24 -24 31 -6 3 9 12 16 20
16 8 0 14 5 14 10 0 11 -4 11 -40 1z"/>
<path d="M2070 5344 c0 -9 5 -14 12 -12 18 6 21 28 4 28 -9 0 -16 -7 -16 -16z"/>
<path d="M2640 5344 c0 -9 5 -14 12 -12 18 6 21 28 4 28 -9 0 -16 -7 -16 -16z"/>
<path d="M2692 5348 c6 -18 28 -21 28 -4 0 9 -7 16 -16 16 -9 0 -14 -5 -12
-12z"/>
<path d="M3846 5353 c-11 -11 -6 -23 9 -23 8 0 15 4 15 9 0 13 -16 22 -24 14z"/>
<path d="M4215 5350 c-7 -12 2 -30 16 -30 5 0 9 9 9 20 0 21 -15 27 -25 10z"/>
<path d="M1987 5336 c-7 -19 18 -42 28 -26 8 13 -1 40 -14 40 -5 0 -11 -6 -14
-14z"/>
<path d="M2124 5335 c-8 -21 3 -34 26 -28 27 7 36 23 19 34 -21 13 -39 11 -45
-6z"/>
<path d="M4321 5337 c-12 -15 -5 -27 16 -27 7 0 13 9 13 20 0 23 -13 26 -29 7z"/>
<path d="M2350 5330 c-27 -4 -36 -10 -38 -27 -2 -16 2 -23 12 -23 9 0 16 5 16
11 0 5 4 8 9 5 8 -5 48 31 40 37 -2 2 -20 0 -39 -3z"/>
<path d="M5030 5321 c0 -24 18 -37 31 -24 13 13 1 43 -17 43 -8 0 -14 -9 -14
-19z"/>
<path d="M2430 5321 c0 -5 7 -14 16 -22 13 -10 17 -10 24 1 5 8 6 18 4 22 -7
11 -44 10 -44 -1z"/>
<path d="M4942 5313 c4 -21 33 -25 33 -3 0 8 -8 16 -18 18 -14 3 -18 -1 -15
-15z"/>
<path d="M4401 5306 c-9 -10 -9 -16 -1 -21 17 -10 37 12 24 25 -8 8 -15 6 -23
-4z"/>
<path d="M2055 5301 c-10 -18 17 -23 33 -7 15 15 15 16 -5 16 -12 0 -24 -4
-28 -9z"/>
<path d="M4646 5281 c-15 -16 -15 -20 -1 -31 12 -10 16 -8 25 15 5 14 10 28
10 31 0 10 -18 2 -34 -15z"/>
<path d="M2375 5279 c-9 -13 -2 -20 22 -23 10 -2 18 -9 18 -16 0 -7 6 -15 13
-17 7 -3 12 5 12 21 0 16 -6 26 -15 26 -8 0 -15 5 -15 10 0 13 -27 13 -35 -1z"/>
<path d="M3994 5278 c-6 -9 7 -38 16 -38 22 0 40 14 40 30 0 13 -7 17 -26 16
-14 0 -28 -4 -30 -8z"/>
<path d="M4220 5275 c0 -9 9 -15 25 -15 16 0 25 6 25 15 0 9 -9 15 -25 15 -16
0 -25 -6 -25 -15z"/>
<path d="M4310 5267 c0 -27 13 -36 26 -16 3 6 -1 18 -10 27 -15 15 -16 14 -16
-11z"/>
<path d="M4500 5276 c0 -8 7 -16 15 -20 10 -4 15 1 15 14 0 11 -7 20 -15 20
-8 0 -15 -6 -15 -14z"/>
<path d="M4746 5275 c4 -8 12 -15 20 -15 8 0 14 7 14 15 0 8 -9 15 -20 15 -13
0 -18 -5 -14 -15z"/>
<path d="M2497 5273 c-12 -11 -8 -23 8 -23 8 0 15 7 15 15 0 16 -12 20 -23 8z"/>
<path d="M2557 5266 c-6 -15 1 -26 15 -26 4 0 8 9 8 20 0 23 -15 27 -23 6z"/>
<path d="M2632 5258 c2 -13 8 -23 13 -23 6 0 11 10 13 23 2 15 -2 22 -13 22
-11 0 -15 -7 -13 -22z"/>
<path d="M3810 5259 c0 -24 23 -21 28 4 2 10 -3 17 -12 17 -10 0 -16 -9 -16
-21z"/>
<path d="M2104 5255 c-8 -20 2 -32 25 -30 31 2 37 14 15 30 -24 18 -33 19 -40
0z"/>
<path d="M2172 5253 c5 -25 28 -28 28 -4 0 12 -6 21 -16 21 -9 0 -14 -7 -12
-17z"/>
<path d="M2276 5237 c-16 -12 -16 -14 -2 -26 13 -11 17 -11 22 3 10 26 1 38
-20 23z"/>
<path d="M3942 5238 c6 -18 28 -21 28 -4 0 9 -7 16 -16 16 -9 0 -14 -5 -12
-12z"/>
<path d="M4115 5224 c-11 -8 -28 -13 -37 -10 -14 3 -18 -2 -18 -20 0 -17 6
-24 20 -24 11 0 20 7 20 15 0 8 6 15 14 15 17 0 40 26 29 33 -5 3 -17 -1 -28
-9z"/>
<path d="M4205 5231 c-6 -11 20 -33 28 -24 4 3 7 10 7 14 0 11 -29 19 -35 10z"/>
<path d="M3900 5215 c0 -18 24 -30 40 -20 8 5 8 11 -1 21 -15 19 -39 18 -39
-1z"/>
<path d="M2213 5208 c2 -7 0 -21 -5 -30 -9 -19 5 -24 35 -12 12 4 12 10 3 30
-11 24 -42 35 -33 12z"/>
<path d="M2370 5205 c0 -8 5 -15 10 -15 6 0 10 7 10 15 0 8 -4 15 -10 15 -5 0
-10 -7 -10 -15z"/>
<path d="M2461 5206 c-14 -17 0 -29 23 -20 11 4 16 1 16 -10 0 -9 6 -16 14
-16 8 0 13 8 11 18 -1 9 2 23 8 30 12 15 -5 16 -20 1 -8 -8 -13 -8 -17 0 -10
15 -21 14 -35 -3z"/>
<path d="M4843 5210 c-15 -6 -21 -15 -17 -25 9 -22 26 -18 47 10 19 27 11 31
-30 15z"/>
<path d="M4442 5198 c3 -7 13 -15 22 -16 12 -3 17 1 14 10 -3 7 -13 15 -22 16
-12 3 -17 -1 -14 -10z"/>
<path d="M2310 5186 c0 -9 5 -16 10 -16 6 0 10 4 10 9 0 6 -4 13 -10 16 -5 3
-10 -1 -10 -9z"/>
<path d="M2570 5170 c0 -11 7 -20 15 -20 8 0 15 9 15 20 0 11 -7 20 -15 20 -8
0 -15 -9 -15 -20z"/>
<path d="M3827 5183 c-13 -12 -7 -33 8 -33 8 0 15 9 15 20 0 20 -11 26 -23 13z"/>
<path d="M4201 5180 c-16 -9 -6 -30 15 -30 15 0 20 25 6 34 -4 2 -14 1 -21 -4z"/>
<path d="M4580 5165 c0 -8 7 -15 15 -15 9 0 12 6 9 15 -4 8 -10 15 -15 15 -5
0 -9 -7 -9 -15z"/>
<path d="M3932 5144 c2 -11 11 -20 22 -22 13 -3 17 1 14 14 -2 11 -11 20 -22
22 -13 3 -17 -1 -14 -14z"/>
<path d="M3994 5149 c-8 -14 18 -31 30 -19 9 9 0 30 -14 30 -5 0 -12 -5 -16
-11z"/>
<path d="M2432 5130 c-19 -31 -15 -40 18 -40 32 0 40 14 14 24 -13 5 -14 9 -4
21 10 12 10 15 -1 15 -8 0 -20 -9 -27 -20z"/>
<path d="M4272 5133 c4 -21 33 -25 33 -3 0 8 -8 16 -18 18 -14 3 -18 -1 -15
-15z"/>
<path d="M4395 5141 c-11 -18 4 -30 33 -27 15 2 27 9 27 17 0 17 -50 25 -60
10z"/>
<path d="M2313 5125 c-8 -22 -1 -26 36 -19 25 5 29 9 20 20 -15 19 -48 18 -56
-1z"/>
<path d="M2534 5129 c-3 -6 -1 -16 5 -22 9 -9 14 -8 21 3 9 15 4 30 -10 30 -5
0 -12 -5 -16 -11z"/>
<path d="M2600 5121 c-7 -13 -7 -22 0 -26 13 -8 30 3 30 20 0 23 -18 27 -30 6z"/>
<path d="M4102 5124 c4 -20 34 -41 44 -31 8 8 -24 47 -38 47 -5 0 -8 -7 -6
-16z"/>
<path d="M4670 5121 c-14 -27 -13 -41 5 -41 10 0 15 10 15 30 0 35 -5 38 -20
11z"/>
<path d="M4527 5123 c-11 -10 -8 -43 3 -43 6 0 10 7 10 15 0 8 5 15 10 15 6 0
10 5 10 10 0 11 -23 14 -33 3z"/>
<path d="M4164 5089 c-10 -17 13 -36 27 -22 12 12 4 33 -11 33 -5 0 -12 -5
-16 -11z"/>
<path d="M3920 5080 c0 -5 9 -10 20 -10 11 0 20 5 20 10 0 6 -9 10 -20 10 -11
0 -20 -4 -20 -10z"/>
<path d="M4012 5078 c6 -18 28 -21 28 -4 0 9 -7 16 -16 16 -9 0 -14 -5 -12
-12z"/>
<path d="M2515 5070 c-3 -5 6 -12 20 -16 29 -7 41 -1 30 15 -8 14 -42 14 -50
1z"/>
<path d="M2670 5072 c0 -19 23 -31 42 -21 27 15 22 29 -12 29 -16 0 -30 -4
-30 -8z"/>
<path d="M4064 5068 c-9 -15 22 -42 40 -35 9 4 16 13 16 21 0 16 -48 28 -56
14z"/>
<path d="M4240 5061 c0 -14 5 -19 15 -14 17 6 15 25 -3 31 -7 2 -12 -5 -12
-17z"/>
<path d="M4310 5060 c0 -19 11 -26 23 -14 8 8 -3 34 -14 34 -5 0 -9 -9 -9 -20z"/>
<path d="M3321 5061 c-17 -11 -7 -45 12 -39 13 5 23 48 10 48 -4 0 -14 -4 -22
-9z"/>
<path d="M4370 5056 c0 -8 5 -18 10 -21 6 -3 10 1 10 9 0 8 -4 18 -10 21 -5 3
-10 -1 -10 -9z"/>
<path d="M3160 5035 c0 -21 28 -31 43 -16 9 9 8 14 -3 21 -22 14 -40 12 -40
-5z"/>
<path d="M3230 5030 c0 -11 4 -20 9 -20 13 0 32 26 24 33 -13 14 -33 6 -33
-13z"/>
<path d="M2612 5018 c-18 -18 -15 -28 8 -28 13 0 20 7 20 20 0 23 -10 26 -28
8z"/>
<path d="M3952 5004 c4 -21 22 -23 26 -1 2 10 -3 17 -13 17 -10 0 -15 -6 -13
-16z"/>
<path d="M2912 4994 c4 -21 22 -23 26 -1 2 10 -3 17 -13 17 -10 0 -15 -6 -13
-16z"/>
<path d="M3011 4997 c-9 -11 -8 -17 5 -28 13 -11 17 -10 25 2 17 28 -9 51 -30
26z"/>
<path d="M3082 4998 c6 -18 28 -21 28 -4 0 9 -7 16 -16 16 -9 0 -14 -5 -12
-12z"/>
<path d="M4022 4998 c7 -19 38 -22 38 -4 0 10 -9 16 -21 16 -12 0 -19 -5 -17
-12z"/>
<path d="M4260 4995 c0 -16 9 -19 34 -9 25 9 19 24 -9 24 -16 0 -25 -6 -25
-15z"/>
<path d="M4662 4999 c2 -6 8 -10 13 -10 5 0 11 4 13 10 2 6 -4 11 -13 11 -9 0
-15 -5 -13 -11z"/>
<path d="M4387 4993 c-4 -3 -7 -17 -7 -30 0 -20 -5 -23 -36 -23 -41 0 -43 -21
-3 -31 30 -7 80 41 72 72 -5 20 -15 24 -26 12z"/>
<path d="M3367 4984 c-14 -15 -6 -34 14 -34 14 0 19 5 17 17 -3 18 -20 27 -31
17z"/>
<path d="M4105 4981 c-8 -15 3 -31 21 -31 9 0 14 7 12 17 -4 20 -24 28 -33 14z"/>
<path d="M4473 4974 c-9 -23 11 -38 26 -20 13 16 7 36 -10 36 -5 0 -12 -7 -16
-16z"/>
<path d="M4225 4969 c-4 -6 -2 -16 4 -22 6 -6 11 -19 11 -28 0 -22 19 -34 32
-21 6 6 4 20 -6 40 -19 36 -32 46 -41 31z"/>
<path d="M4600 4961 c0 -12 6 -21 16 -21 9 0 14 7 12 17 -5 25 -28 28 -28 4z"/>
<path d="M2765 4960 c-7 -12 2 -30 16 -30 5 0 9 9 9 20 0 21 -15 27 -25 10z"/>
<path d="M4177 4964 c-4 -4 -7 -18 -7 -31 0 -18 5 -24 18 -21 10 2 17 12 17
27 0 24 -15 37 -28 25z"/>
<path d="M4532 4953 c2 -10 10 -18 18 -18 22 0 18 29 -3 33 -14 3 -18 -1 -15
-15z"/>
<path d="M3264 4949 c-10 -17 13 -36 27 -22 12 12 4 33 -11 33 -5 0 -12 -5
-16 -11z"/>
<path d="M3094 4915 c-18 -39 -14 -51 12 -41 9 3 14 12 10 21 -3 9 0 15 9 15
8 0 15 9 15 20 0 32 -28 23 -46 -15z"/>
<path d="M3200 4931 c-14 -27 9 -40 27 -16 17 24 17 35 -2 35 -8 0 -19 -9 -25
-19z"/>
<path d="M3480 4935 c0 -8 7 -15 15 -15 8 0 15 7 15 15 0 8 -7 15 -15 15 -8 0
-15 -7 -15 -15z"/>
<path d="M2870 4925 c-14 -16 -6 -35 16 -35 8 0 14 10 14 25 0 28 -12 32 -30
10z"/>
<path d="M3925 4930 c-3 -6 1 -13 10 -16 19 -8 30 0 20 15 -8 14 -22 14 -30 1z"/>
<path d="M4050 4931 c-8 -6 -27 -7 -42 -4 -37 7 -39 -24 -3 -33 14 -3 25 -12
25 -20 0 -22 41 -17 47 6 6 24 19 26 27 5 7 -20 32 -19 40 0 3 10 -1 18 -12
22 -9 4 -21 12 -25 20 -9 15 -36 17 -57 4z"/>
<path d="M3330 4914 c0 -9 5 -14 12 -12 18 6 21 28 4 28 -9 0 -16 -7 -16 -16z"/>
<path d="M3400 4911 c0 -20 26 -36 35 -21 8 13 -6 40 -21 40 -8 0 -14 -9 -14
-19z"/>
<path d="M3014 4899 c-7 -12 12 -29 34 -29 15 0 16 12 0 28 -15 15 -25 15 -34
1z"/>
<path d="M3265 4891 c-7 -22 10 -71 25 -71 5 0 7 13 4 30 -5 22 -2 31 11 36
13 5 14 9 3 15 -21 14 -36 10 -43 -10z"/>
<path d="M3612 4893 c4 -21 33 -25 33 -3 0 8 -8 16 -18 18 -14 3 -18 -1 -15
-15z"/>
<path d="M3340 4876 c0 -16 37 -32 48 -21 7 7 -25 35 -40 35 -4 0 -8 -6 -8
-14z"/>
<path d="M4265 4864 c-11 -18 -14 -29 -7 -36 15 -15 43 -2 36 17 -3 8 -1 15 5
15 6 0 11 7 11 15 0 24 -26 17 -45 -11z"/>
<path d="M4442 4873 c5 -25 28 -28 28 -4 0 12 -6 21 -16 21 -9 0 -14 -7 -12
-17z"/>
<path d="M4170 4865 c0 -8 7 -15 15 -15 8 0 15 7 15 15 0 8 -7 15 -15 15 -8 0
-15 -7 -15 -15z"/>
<path d="M2937 4856 c-6 -16 19 -30 28 -16 3 5 13 6 22 3 10 -4 14 -2 11 7 -6
19 -54 24 -61 6z"/>
<path d="M3177 4853 c5 -12 2 -15 -10 -10 -12 5 -17 1 -17 -13 0 -16 7 -20 35
-20 47 0 66 32 29 49 -34 15 -44 14 -37 -6z"/>
<path d="M3417 4854 c3 -8 15 -14 27 -12 11 2 31 -7 44 -18 13 -13 32 -20 45
-18 12 2 17 2 10 -2 -16 -8 -5 -34 16 -34 42 1 44 17 5 54 -31 28 -45 35 -66
30 -14 -3 -29 0 -33 5 -3 6 -17 11 -30 11 -18 0 -23 -4 -18 -16z"/>
<path d="M3550 4862 c0 -14 11 -21 26 -15 8 3 11 9 8 14 -7 11 -34 12 -34 1z"/>
<path d="M3690 4852 c0 -25 35 -56 55 -48 14 5 12 11 -12 36 -32 35 -43 37
-43 12z"/>
<path d="M3796 4861 c-7 -10 22 -37 30 -28 9 8 -3 37 -15 37 -5 0 -12 -4 -15
-9z"/>
<path d="M3903 4854 c-3 -9 0 -20 8 -24 15 -10 39 6 39 26 0 19 -39 18 -47 -2z"/>
<path d="M3107 4853 c-4 -3 -7 -12 -7 -20 0 -15 26 -18 34 -4 7 11 -18 33 -27
24z"/>
<path d="M3600 4846 c0 -21 21 -31 31 -15 14 22 11 29 -11 29 -11 0 -20 -6
-20 -14z"/>
<path d="M4116 4852 c-8 -13 11 -35 23 -28 16 10 14 36 -3 36 -8 0 -17 -4 -20
-8z"/>
<path d="M4384 4846 c-4 -10 -2 -22 4 -28 8 -8 13 -7 18 6 4 10 2 22 -4 28 -8
8 -13 7 -18 -6z"/>
<path d="M4221 4841 c-10 -6 -10 -10 -1 -16 13 -8 24 -1 19 14 -3 6 -10 7 -18
2z"/>
<path d="M3325 4831 c-3 -6 3 -20 13 -31 14 -16 26 -19 46 -14 30 7 36 27 7
22 -10 -2 -28 5 -39 15 -13 12 -22 15 -27 8z"/>
<path d="M3983 4833 c-7 -2 -13 -17 -13 -33 0 -15 -7 -33 -15 -40 -21 -17 -19
-30 5 -30 11 0 20 -6 20 -14 0 -8 8 -17 18 -21 16 -7 15 -8 -3 -15 -12 -5 -24
-3 -30 4 -17 19 -84 46 -100 40 -10 -4 -15 0 -15 10 0 9 -7 16 -15 16 -30 0
-14 -31 25 -47 39 -17 54 -43 25 -43 -8 0 -15 -7 -15 -15 0 -8 8 -15 17 -15
13 0 14 -3 5 -12 -7 -7 -22 -13 -35 -13 -18 0 -23 -6 -25 -37 -2 -28 1 -38 11
-38 10 0 13 -7 10 -20 -3 -13 1 -22 11 -26 24 -9 32 3 19 26 -10 15 -8 22 12
42 29 30 48 75 35 83 -17 10 -11 25 10 25 22 0 25 -12 10 -41 -15 -27 24 -88
58 -89 20 0 14 26 -10 44 -16 12 -19 18 -10 22 6 3 12 14 12 24 0 10 7 21 16
24 9 3 14 12 11 20 -3 8 2 16 12 19 12 3 18 15 19 41 1 38 -16 50 -25 16 -7
-28 -22 -25 -34 7 -9 24 -7 30 15 46 14 10 26 24 26 31 0 12 -35 18 -57 9z"/>
<path d="M4076 4811 c-4 -6 -16 -11 -27 -11 -10 0 -19 -6 -19 -13 0 -11 12
-12 60 -4 33 5 60 14 60 18 0 5 -6 9 -12 9 -7 0 -23 3 -34 6 -12 3 -25 1 -28
-5z"/>
<path d="M3117 4804 c-8 -8 3 -34 14 -34 5 0 9 9 9 20 0 19 -11 26 -23 14z"/>
<path d="M3291 4796 c-10 -12 -8 -17 8 -25 26 -14 31 -14 31 3 0 24 -26 38
-39 22z"/>
<path d="M3782 4798 c6 -18 28 -21 28 -4 0 9 -7 16 -16 16 -9 0 -14 -5 -12
-12z"/>
<path d="M3030 4791 c0 -10 29 -36 33 -30 1 2 9 12 16 22 12 15 10 17 -18 17
-17 0 -31 -4 -31 -9z"/>
<path d="M3435 4790 c-7 -12 2 -30 16 -30 5 0 9 9 9 20 0 21 -15 27 -25 10z"/>
<path d="M3480 4779 c0 -24 23 -21 28 4 2 10 -3 17 -12 17 -10 0 -16 -9 -16
-21z"/>
<path d="M3660 4780 c0 -20 -1 -20 -17 -4 -13 13 -18 14 -21 4 -3 -7 3 -19 12
-25 20 -15 20 -29 1 -45 -8 -7 -15 -21 -15 -31 0 -14 7 -19 28 -19 37 0 43 7
31 37 -6 17 -6 30 2 39 6 7 9 23 7 35 -4 30 -28 37 -28 9z"/>
<path d="M3870 4791 c0 -12 26 -32 33 -25 9 10 -4 34 -19 34 -8 0 -14 -4 -14
-9z"/>
<path d="M4165 4791 c-3 -5 -1 -12 5 -16 12 -7 30 2 30 16 0 12 -27 12 -35 0z"/>
<path d="M4271 4776 c-9 -11 -9 -19 1 -35 23 -37 37 -33 36 10 0 41 -16 51
-37 25z"/>
<path d="M4347 4771 c3 -12 12 -21 20 -21 20 0 12 34 -9 38 -12 2 -15 -2 -11
-17z"/>
<path d="M3733 4753 c-3 -10 -10 -21 -15 -24 -13 -9 9 -59 26 -59 8 0 16 -6
19 -12 4 -10 7 -10 18 0 12 11 12 14 -1 22 -9 6 -15 24 -15 46 0 40 -21 58
-32 27z"/>
<path d="M4097 4756 c-11 -27 -9 -34 13 -46 17 -9 20 -8 20 8 0 10 -6 26 -13
36 -13 18 -14 18 -20 2z"/>
<path d="M4220 4760 c-13 -9 -13 -11 0 -20 18 -11 39 5 24 20 -6 6 -15 6 -24
0z"/>
<path d="M3226 4751 c-4 -6 5 -13 21 -17 15 -4 35 -17 44 -28 10 -12 20 -18
24 -14 13 13 -6 46 -29 52 -13 3 -31 8 -39 12 -8 3 -18 1 -21 -5z"/>
<path d="M3175 4740 c-3 -5 3 -10 14 -10 12 0 21 5 21 10 0 6 -6 10 -14 10 -8
0 -18 -4 -21 -10z"/>
<path d="M3400 4731 c0 -16 6 -21 25 -21 14 0 25 -5 25 -11 0 -8 5 -8 15 1 21
17 19 27 -7 33 -13 2 -31 8 -40 12 -14 5 -18 2 -18 -14z"/>
<path d="M3560 4720 c0 -11 6 -20 14 -20 21 0 31 21 15 31 -22 14 -29 11 -29
-11z"/>
<path d="M3344 4715 c-7 -17 4 -37 17 -30 12 8 12 45 -1 45 -6 0 -13 -7 -16
-15z"/>
<path d="M4144 4695 c-14 -14 -29 -25 -34 -25 -15 0 -12 -17 5 -23 14 -6 75
46 75 64 0 16 -20 9 -46 -16z"/>
<path d="M3500 4681 c0 -11 -4 -22 -8 -25 -4 -3 -6 -21 -4 -40 3 -27 9 -36 23
-36 15 0 18 5 12 33 -3 17 -7 34 -9 36 -2 2 1 10 7 17 11 14 4 34 -12 34 -5 0
-9 -9 -9 -19z"/>
<path d="M3805 4691 c-9 -16 3 -31 26 -31 14 0 19 6 17 17 -4 20 -33 29 -43
14z"/>
<path d="M4235 4689 c-7 -10 10 -28 28 -29 12 0 8 17 -7 29 -11 9 -16 9 -21 0z"/>
<path d="M3400 4675 c0 -9 5 -15 11 -13 6 2 11 8 11 13 0 5 -5 11 -11 13 -6 2
-11 -4 -11 -13z"/>
<path d="M3562 4670 c-13 -11 -21 -24 -17 -30 4 -7 16 -2 31 12 40 38 28 53
-14 18z"/>
<path d="M3680 4644 c-6 -6 -7 -14 -3 -17 11 -7 63 4 63 13 0 14 -50 18 -60 4z"/>
<path d="M3372 4633 c4 -21 33 -25 33 -3 0 8 -8 16 -18 18 -14 3 -18 -1 -15
-15z"/>
<path d="M3764 4629 c-11 -18 11 -31 41 -23 26 7 27 8 10 20 -23 17 -41 18
-51 3z"/>
<path d="M4020 4622 c0 -18 18 -32 42 -32 5 0 8 10 6 23 -4 29 -48 38 -48 9z"/>
<path d="M3590 4605 c-10 -12 -9 -16 4 -21 22 -8 46 2 46 21 0 19 -34 20 -50
0z"/>
<path d="M4136 4612 c-4 -7 -16 -12 -27 -12 -21 0 -23 -8 -10 -29 7 -11 13
-10 31 7 12 11 20 26 18 33 -3 10 -6 10 -12 1z"/>
<path d="M3662 4598 c6 -18 28 -21 28 -4 0 9 -7 16 -16 16 -9 0 -14 -5 -12
-12z"/>
<path d="M3700 4534 c-14 -37 5 -58 26 -29 8 11 13 26 12 34 -5 26 -28 23 -38
-5z"/>
<path d="M3913 4553 c-16 -6 -17 -33 -2 -33 17 0 49 20 49 30 0 10 -26 12 -47
3z"/>
<path d="M4057 4553 c-12 -11 -8 -23 8 -23 8 0 15 7 15 15 0 16 -12 20 -23 8z"/>
<path d="M3607 4543 c-12 -11 -8 -23 8 -23 8 0 15 7 15 15 0 16 -12 20 -23 8z"/>
<path d="M3787 4533 c-13 -12 -7 -61 7 -66 20 -8 26 2 26 40 0 31 -16 44 -33
26z"/>
<path d="M3933 4485 c-3 -9 -3 -18 0 -22 10 -10 37 6 37 22 0 20 -29 20 -37 0z"/>
<path d="M4005 4470 c-4 -7 -1 -16 6 -21 17 -10 26 8 11 23 -6 6 -12 6 -17 -2z"/>
<path d="M3870 4434 c0 -20 21 -28 32 -13 7 11 11 11 15 2 2 -7 14 -13 24 -13
16 0 18 4 10 17 -11 21 -81 27 -81 7z"/>
<path d="M5122 4793 c5 -26 38 -29 38 -4 0 15 -6 21 -21 21 -14 0 -19 -5 -17
-17z"/>
<path d="M2860 4310 c0 -11 4 -20 10 -20 5 0 23 -13 40 -30 17 -16 36 -30 43
-30 7 0 17 -4 23 -9 5 -5 27 -11 49 -14 22 -2 53 -10 68 -16 16 -6 39 -11 51
-11 13 0 41 -13 64 -29 46 -34 155 -91 174 -91 7 0 61 -25 121 -56 86 -43 112
-53 118 -42 5 7 7 18 6 23 -5 16 -184 99 -262 123 -11 3 -51 25 -89 50 -39 24
-83 46 -100 49 -16 3 -39 11 -50 18 -12 7 -49 16 -83 20 -50 6 -72 14 -114 46
-60 44 -69 47 -69 19z"/>
</g>
</svg>
