<svg height="3496pt" preserveAspectRatio="xMidYMid meet" viewBox="0 0 2480 3496" width="2480pt" xmlns="http://www.w3.org/2000/svg"><g transform="matrix(.1 0 0 -.1 0 3496)"><path d="m11624 26855c-10-16-13-32-8-47 4-13 8-79 9-148 2-125 19-377 30-436 3-18 7-220 10-450 3-300 8-445 19-509 8-49 19-128 25-175 7-47 17-116 22-155 6-38 10-89 10-112-2-56 26-332 45-451 9-51 12-101 9-110-4-9-9-195-11-413l-3-397 30-118c16-66 34-153 40-194 19-149 25-185 33-198 5-8 10-73 12-145 2-73 6-147 10-165 4-19 1-51-6-73-9-26-10-42-3-51 9-11 19-102 27-243 3-44 29-202 52-310 8-38 16-119 19-180 3-60 9-153 14-205s14-149 20-215c14-165 21-213 36-249 7-17 15-74 19-127 3-53 12-118 20-145s22-93 32-147c16-90 16-99 1-114s-14-19 3-52c22-45 43-233 34-317-5-49-2-73 15-118 25-68 27-123 5-154-17-25-16-37 16-127 14-41 19-73 16-100-10-65-7-83 15-128 22-41 35-171 30-296-1-25 5-54 14-67 18-28 19-64 3-99-9-21-8-32 5-61 9-19 17-46 17-60s6-37 14-52c7-15 21-58 29-97 9-38 21-90 27-115s9-97 8-159l-3-114-30-16c-17-9-46-28-65-43-19-14-52-33-72-41-20-9-44-27-54-42-9-15-40-41-69-59-65-42-168-145-219-219-22-31-47-59-57-62-10-4-37-46-63-102-39-81-46-104-46-157 0-39 8-77 20-105 15-33 20-65 20-135 1-108 11-160 40-195 11-14 28-39 38-56 9-16 36-49 60-71 23-23 42-50 42-60 0-26 10-39 45-57 17-8 43-29 59-46 17-17 34-31 39-31s37-17 70-37c34-21 93-55 132-75 154-81 147-79 305-83 80-3 172-6 205-7 81-4 240 24 293 51 24 12 51 20 60 17s67-8 127-11c80-4 124-1 160 9 28 8 95 26 150 39s125 35 155 47c120 50 150 60 174 60 15 0 42 14 63 34 21 18 51 36 67 40s40 20 55 37c14 16 32 29 41 29 16 0 72 78 95 134 8 18 31 48 53 67 23 20 53 63 73 104l34 70v185c-1 207-9 258-61 367-28 59-42 77-78 98-24 14-59 43-77 65-19 22-39 40-45 40s-19 9-28 19c-10 11-28 22-41 25-14 4-29 16-35 27-12 21-128 79-160 79-10 0-23 7-30 15s-24 15-38 15-45 12-70 26c-34 20-52 24-78 20-30-6-39-2-77 33-24 23-60 47-79 55s-50 32-67 52c-28 31-32 41-26 73 5 28 2 41-9 51-9 7-16 23-16 36 0 31-44 219-64 270-8 21-19 70-25 107-5 38-23 95-40 129s-31 70-31 80-9 51-19 91c-11 39-27 127-35 195-8 67-18 127-21 132-7 12-34 239-32 270 2 14-8 61-21 105s-31 107-39 140-25 101-38 150c-13 50-29 124-35 165s-18 102-25 135-11 72-8 87c3 17-1 37-9 50s-18 37-21 53c-3 17-17 93-32 170-14 77-28 147-31 155-14 34-33 127-34 159 0 38-15 100-36 148-8 17-19 53-24 80-5 26-15 64-21 83-7 19-15 69-19 110-10 94-22 147-43 190-9 18-17 38-17 44 0 7-16 43-36 81-38 73-41 85-64 335-6 58-17 134-26 170-8 36-22 124-29 195-25 228-33 279-55 350-12 39-27 135-35 217-7 80-18 155-23 165-14 27-92 392-92 433 0 14-9 54-20 88-11 35-20 81-20 102 0 22-7 65-16 97s-19 76-23 98c-8 42-35 147-51 201-6 17-10 47-10 66 0 20-9 65-20 100-11 34-20 75-20 90 0 35-28 156-42 182-22 41-46 162-57 286-5 58-15 99-31 130-26 51-49 138-50 189 0 44-17 138-40 221-19 67-24 97-35 210-15 144-36 234-62 261-26 28-34 90-52 386-6 108-7 112-36 137-38 32-60 33-81 1zm159-897c2-38 1-65-4-62s-9 35-9 71c0 83 6 79 13-9zm28-100c11-20 34-132 59-288 5-30 14-71 21-90 17-56 50-210 58-275 4-33 13-73 19-88 17-41 16-88-2-81-8 3-17 17-21 32-8 33-25 45-42 30-19-15-16-66 8-138 15-48 19-77 15-119-4-31-2-90 4-131 5-41 14-124 20-185 6-65 19-129 30-157 24-56 50-175 50-226 0-36 12-99 45-229 8-35 21-89 29-120 8-32 21-83 29-113 9-30 17-68 19-85 5-48 33-39 31 10 0 22-2 72-3 110-2 39-9 85-16 104-8 18-14 50-14 70 0 37-24 146-68 306-17 64-27 132-33 235-4 80-10 170-14 200l-5 55 25-70c57-153 92-290 125-495 34-206 60-341 81-429 12-47 23-99 25-114 2-16 7-34 11-40 5-7 11-43 15-82 16-152 26-214 47-300 12-49 26-124 31-165 18-149 29-216 39-245 5-16 15-68 21-115 7-47 16-107 21-135 5-27 13-81 18-120 4-38 20-119 34-180 29-122 47-235 47-294 0-40 42-165 65-191 7-8 23-51 35-95 13-44 27-85 31-90 8-11 27-137 35-231 2-28 15-84 28-125 43-132 104-436 110-549 3-47 2-76-1-65-8 29-25 47-35 37-5-5 0-48 12-102 11-52 20-112 20-135 0-68 32-284 45-301 22-31 37-6 30 48-4 28-11 84-16 127-4 42-13 99-18 126-5 28-12 64-16 80l-5 30 14-30c8-16 27-84 42-150s38-143 50-170c27-62 41-134 49-250 4-49 11-106 15-125 13-50 49-287 59-385 5-46 18-107 29-137 11-29 26-89 32-133 7-44 19-93 27-108 27-53 72-228 72-282 0-49-3-55-22-55-36 0-67 38-67 84-1 45-18 111-43 168-10 21-17 60-17 88 0 68-22 120-51 120-20 0-21-3-15-59 4-33 15-90 25-128 26-96 56-262 48-269-13-13-37 6-42 33-4 15-10 37-15 48-13 31-20 64-30 145-5 43-32 145-64 239-51 150-83 211-109 211-17 0 2-93 32-155 16-33 32-69 36-80 8-23 31-160 50-295 8-52 18-110 24-128 5-18 7-42 2-53-21-59-85 83-111 250-5 30-16 61-25 70-16 15-17 3-13-168l4-183-50 7c-27 3-53 8-57 10-16 10-30 102-40 260-19 312-24 348-45 390-12 22-24 60-28 85s-20 65-36 90c-34 53-38 73-51 250-15 205-26 310-38 360-18 73-32 215-36 360-9 294-34 527-63 602-6 14-11 35-10 45 0 10-5 50-12 88-7 39-16 102-21 140-17 131-26 180-46 236-12 30-24 75-28 100-4 24-14 64-22 89-9 25-19 77-24 115-4 39-12 90-19 115-6 25-15 77-20 115-4 39-13 90-19 115-27 109-52 313-58 465-2 80-10 147-20 175-18 52-30 125-42 263-6 53-13 107-16 118-4 12-8 58-10 103-1 45-8 108-14 141-7 33-16 105-21 160s-14 123-21 150c-7 28-12 74-11 103 2 33-4 66-13 85-9 18-20 77-25 132-4 55-13 127-19 160-5 33-15 118-21 189s-15 137-21 147c-5 10-9 47-9 82 0 36-7 84-16 108-10 29-19 107-25 224-5 99-14 218-19 265-6 47-14 144-18 215-5 80-14 147-25 175-20 54-22 173-5 230 7 22 14 40 15 40s8-10 14-22zm191-906c3-9 1-26-3-37-6-15-8-11-8 18-1 40 4 48 11 19zm15-144c-3-8-6-5-6 6-1 11 2 17 5 13 3-3 4-12 1-19zm5-360c-9-9-12-7-12 12s3 21 12 12 9-15 0-24zm-136-673-14-70-1 52c0 28 4 55 9 58 6 3 10 16 11 28 0 12 2 17 5 12 2-6-2-42-10-80zm64-284c0-33-7-42-26-34-17 6-18 45-2 61s28 5 28-27zm-30-183v-33l-15 29c-18 35-18 36 0 36 10 0 15-10 15-32zm70-118c0-12-5-17-14-14-8 3-12 13-9 25 6 23 23 15 23-11zm3-159c0-18-8-41-17-49-14-15-17-14-31 3-29 39-11 89 30 83 16-2 20-10 18-37zm24-143c-3-8-6-5-6 6-1 11 2 17 5 13 3-3 4-12 1-19zm10-134c7-18-13-90-27-99-16-10-23 22-16 70 7 46 30 62 43 29zm33-310c0-8-4-12-10-9-5 3-10 13-10 21s5 12 10 9c6-3 10-13 10-21zm-36-90c9-24 7-77-4-94-7-11-10-7-10 17 0 17-4 43-9 56-9 24-6 37 10 37 4 0 10-7 13-16zm104-157c2-37-1-48-17-56-28-15-42 11-29 53 5 17 12 37 14 44 9 29 29 3 32-41zm36-233c8-20 8-119 0-126-10-10-55 43-60 72-4 15-1 37 5 49 14 25 46 28 55 5zm-43-197c8-18 7-33-5-62-9-21-18-36-20-34s-6 30-10 62c-5 47-4 57 9 57 9 0 20-10 26-23zm97-90c12-24 10-32-14-73l-27-46-14 26c-14 27-13 32 13 114 6 20 27 9 42-21zm-55-225c-1-51-14-121-24-128-5-3-14 6-21 20-10 24-4 82 18 155 8 27 28-7 27-47zm136-134c7-68 13-133 15-145 3-19 0-21-16-12-15 8-18 20-16 62 3 47 1 52-17 49-11-2-21-7-23-10-9-23-21-34-31-27-9 5-10 31-6 88 7 86 24 117 65 117 15 0 19-17 29-122zm-114-178c3-11 3-29 0-41-9-29-35-6-35 32 0 34 25 40 35 9zm149-64c3-12 8-41 11-62s11-51 17-66c12-32 5-58-17-58-16 0-18 7-15 56 1 34-26 56-36 29-7-18-35-20-52-3-14 14-16 104-2 113 5 3 18 1 29-5 15-8 23-7 33 5 18 20 25 18 32-9zm-84-204c0-30-24-92-35-92-20 0-23 32-8 84 12 40 16 46 29 36 7-7 14-19 14-28zm133-79c13-8 7-50-9-64-8-7-22-25-30-41-29-56-71-18-60 55 9 56 22 69 60 61 17-3 34-8 39-11zm-93-218c11-13 11-23 0-54-20-62-28-69-46-46-15 20-14 39 6 90 11 29 22 32 40 10zm98-72c15-14 21-35 26-95 6-88 4-90-61-63l-36 15 6 70c3 39 9 75 12 80 9 15 30 12 53-7zm-58-249c0-8-4-14-10-14-5 0-10 9-10 21 0 11 5 17 10 14 6-3 10-13 10-21zm85-92c-6-24-8-25-17-9-5 10-7 30-3 45 6 24 8 25 17 9 5-10 7-30 3-45zm-36-104c7-17 4-28-9-42-23-23-40-13-40 23 0 46 34 59 49 19zm80-69c13-38 14-86 3-93-16-10-52 25-52 49 0 27 19 75 31 75 4 0 12-14 18-31zm-45-155c3-8 12-14 21-14 8 0 15-5 15-10 0-14-39-90-46-90-2 0-16 7-29 16-18 12-25 25-25 48 0 58 47 95 64 50zm76-143c0-32-14-49-25-31-9 15 3 60 15 60 6 0 10-13 10-29zm-113-28c27-24 9-91-21-80-20 8-48 75-41 98 5 16 9 17 28 6 12-7 27-17 34-24zm98-76c20-15 17-47-8-81-12-17-14-17-30-1-20 19-22 66-5 83 15 15 20 15 43-1zm56-134c10-28-1-50-20-39-14 9-14 66-1 66 6 0 15-12 21-27zm-113-49c-5-42-28-43-28-1 0 18 3 37 7 41 12 12 25-11 21-40zm127-89c19-87-2-110-49-54-25 29-35 86-20 102 11 11 65-26 69-48zm-61-129c18-39 20-64 6-86-9-12-15-9-40 20-31 37-38 68-18 88s35 14 52-22zm106-158c0-31-10-40-30-28-16 10-19 67-6 115l8 30 14-45c8-25 14-57 14-72zm-140-10c0-30-25-15-28 17-3 25-2 27 12 16 9-8 16-22 16-33zm86-63c21-32 12-60-15-46-22 12-33 35-25 56 9 22 21 19 40-10zm96-90c14-18 8-35-11-35-22 0-45 25-36 40 8 12 37 9 47-5zm-107-64c-3-11-11-21-16-21-15 0-32 47-25 66 6 16 8 16 27-3 15-14 19-27 14-42zm67-83c-4-18-6-19-14-4-12 22-1 57 11 37 5-7 6-22 3-33zm574-199c4-7 31-9 75-5 59 5 78 2 122-18 29-12 67-37 86-54 18-18 41-32 51-32 9 0 32-10 51-23 20-13 53-24 79-26 25-1 52-9 61-17 8-8 18-14 22-14 7 0 172-75 212-97 17-9 39-24 50-33s40-28 64-41c25-13 55-33 67-44s29-26 38-33 16-21 16-31c0-25-39-20-82 10-23 17-50 24-94 27-50 3-67 9-85 28-12 13-28 24-35 24-6 0-28 20-48 45-21 25-45 45-55 45s-23 11-29 25c-7 14-24 30-39 36-16 6-36 16-47 21-14 7-23 5-40-10-19-19-59-26-121-23-11 1-29 15-40 31-30 45-72 72-139 87-117 28-123 28-184-5-52-28-69-32-172-36-139-6-172-13-199-37-25-24-30-24-55 0-29 27-54 28-109 7-41-15-53-16-75-6-38 17-36 17-42-16-6-37-45-47-55-14-10 31-38 20-51-20-7-21-22-40-38-48-15-7-32-22-39-33s-23-19-39-19c-19 0-31-8-40-24-19-36-140-166-155-166-13 0-103-183-103-210 0-10 7-23 16-31 20-17 54-83 54-107 0-17-6-18-50-14l-50 5v-32c0-19 6-34 15-37 8-4 15-12 15-20 0-24-17-15-30 16-7 18-22 33-37 36-13 4-30 19-38 35-19 36-19 146 0 179 8 14 15 39 15 55 0 36 8 48 38 64 12 6 22 18 22 26 0 9 14 29 30 47 17 17 30 34 30 38 0 18 71 78 110 93 35 14 56 32 92 81s55 66 80 71c18 4 47 20 63 35 17 16 52 38 79 50 26 11 61 29 76 40 16 11 36 20 46 20 9 0 25 7 34 15 31 28 129 44 248 41 63-1 116 2 119 7s26 7 52 4c37-5 55-1 91 18 49 26 85 31 96 14zm-24-260c3-30 6-82 7-116 1-71 8-93 27-93 11 0 14 25 14 125 0 113 2 125 19 135 11 5 22 10 24 10 12 0 36-84 48-167 7-51 16-93 20-93 24 0 30 34 23 141-6 93-5 111 7 107 30-10 39-52 39-181 0-97 3-128 12-125 14 5 37 104 38 165 0 23 3 44 8 46 12 7 72-22 73-36 3-81 19-171 33-185 30-30 41 0 41 114 0 82 3 107 15 115 23 15 65 3 101-30 32-30 33-32 20-63-7-18-20-58-28-88-9-30-29-69-45-85-15-17-28-38-28-47 0-26 29-29 51-7 24 24 69 121 69 148 0 10 10 30 21 45 20 26 22 26 40 10 14-12 19-31 19-67 0-53-34-171-57-198-17-20-17-58 1-65 8-3 16-18 20-35 7-35 13-36 60-4 20 14 41 25 46 25 26 0 72 85 55 102-7 7-85-32-85-41 0-4-11-13-25-19s-25-9-25-5c0 18 62 201 73 215s28 16 98 14c78-2 87-5 130-37 60-44 78-95 60-172-6-29-12-74-14-100-2-41-6-51-29-65-39-23-45-9-19 52 12 29 19 60 15 69-8 21-13 21-33 3-21-20-35-10-55 39-24 57-39 28-26-51 15-91 12-128-12-159-21-27-23-27-92-20-73 7-86 14-86 53 0 15-6 22-20 22-18 0-20-7-20-60 0-62-15-74-35-28-6 12-48 48-95 79-47 32-98 68-113 79-16 13-36 20-47 17-10-3-27 1-37 8-25 17-125 45-162 45-18 0-48 7-67 15-32 13-38 13-60-1-20-14-27-14-40-3-14 12-20 9-44-19-24-29-32-32-79-32-67 0-88 12-107 60-10 24-21 37-29 34-22-9-24-40-4-84 10-23 16-46 13-51-8-14-40-11-54 6-18 22-43 18-71-11-39-41-57-48-85-29-14 9-37 15-52 13-25-3-27-6-24-44 2-28-5-56-23-91-26-52-39-63-81-63-26 0-33-27-13-47 9-9 8-23-2-57-13-45-14-46-46-40-41 8-50-10-28-52 21-40 19-67-7-83-19-12-23-11-34 4-7 9-16 43-20 74-10 88-50 144-113 161-38 10-39 11-43 68-3 31-7 63-9 70-2 8 3 19 12 25 13 8 28 3 69-23 50-32 53-33 66-15 23 31 22 33-62 98-61 47-155 163-148 182 3 8 10 15 14 15 11 0 78-55 152-126 65-62 90-75 103-54 7 12-46 79-127 161-40 40-58 66-58 83 0 32 14 33 43 3 12-12 34-29 49-36 16-8 35-26 44-40 10-14 34-43 55-64 22-21 39-43 39-48s5-9 10-9c16 0 12 27-10 72-11 23-20 47-20 54 0 6-12 19-26 29-14 9-32 32-40 50-7 18-25 42-39 53-24 19-34 42-18 42 4 0 24-18 44-40 43-46 79-54 79-16 0 14-12 34-29 48-16 14-32 34-35 45-8 24 16 53 44 53 10 0 20 5 22 12 5 15 44-22 81-78 15-23 39-46 52-52 24-11 25-10 25 26 0 29-7 45-30 67-32 31-54 81-39 90 16 11 66-55 83-109 9-28 26-57 37-64 37-23 54 12 22 44-39 38-53 70-53 122 0 66 15 68 73 9 47-47 67-84 93-172 5-16 17-31 27-33 21-4 22 16 2 54-36 69-42 184-10 184 12 0 55-49 55-64 0-3 14-36 31-73 26-57 33-65 40-48 4 11 8 33 8 48 1 33-27 137-40 152-5 5-9 17-9 27 0 44 37-4 98-129 18-37 24-39 41-19 10 11 9 21-2 43-19 38-30 100-18 107 5 4 38 9 73 11 34 3 67 10 72 15 19 19 31 3 38-51zm168-557c0-4-7-18-17-31-15-23-17-23-30-6-16 24-17 52 0 58 14 5 47-10 47-21zm-125-121c34-32 70-34 102-7 31 26 83 44 83 30 0-5-9-23-19-40-18-30-24-32-96-39-75-7-196 8-221 27-6 4-9 19-7 32 3 13-3 38-12 56-18 35-10 54 21 48 11-2 21-16 25-37 4-18 17-43 29-55l21-21 20 24c14 17 18 32 14 52-4 16-3 39 2 51 6 18 9 8 13-39 4-45 11-68 25-82zm-229 3c18-55 18-56-1-70-10-8-29-14-41-14-15 0-26-10-35-32-7-18-26-45-41-60-38-35-36-56 5-60 26-2 33-8 35-29 3-22-4-30-38-48-23-12-46-19-51-16-12 8-12 42 1 66 9 16 7 19-10 19-28 0-25 11 15 49 42 40 45 69 10 130-30 52-31 67-6 81 31 16 39 12 67-35 26-45 49-56 72-33 22 22 14 53-18 65-22 8-30 18-30 35 0 61 38 33 66-48zm528 38c8-13-27-82-41-82-17 0-17 44-1 70 13 21 33 26 42 12zm769-26c37-29 8-139-45-167-19-10-20-9-14 28 3 21 9 64 12 96 7 59 15 67 47 43zm-102-137c-2-57-7-110-11-118-10-19-80-43-80-27 1 31 28 96 47 112 12 11 25 31 28 46 5 21 2 27-14 33-26 8-28 40-3 54 33 20 37 7 33-100zm-1429 65c10-17 15-39 12-48-6-15-8-15-23-1-9 8-27 23-40 34-16 12-22 23-18 35 10 27 48 15 69-20zm848-8c0-51-20-76-45-56-20 16-19 22 6 64 28 48 39 45 39-8zm-943-59c15-13 40-31 56-40 33-21 34-37 5-64-21-20-72-24-97-8-14 8-33 92-26 114 8 27 27 27 62-2zm488 7c49-13 69-13 110-4 28 7 63 10 80 8 48-5 57-39 69-241 11-210 10-215-64-190-59 19-67 29-75 86-7 47-2 55 38 48 17-3 47 21 47 37 0 9-7 30-15 46-8 15-15 36-15 46 0 18-71 90-106 107-32 16-83 7-135-26-55-34-69-37-87-19-28 28-1 88 48 107 34 13 38 13 105-5zm329-50c4-14 4-29 0-35-9-16-33 22-34 55 0 23 3 26 14 17 8-7 17-23 20-37zm223-21c-3-10-5-4-5 12 0 17 2 24 5 18 2-7 2-21 0-30zm127-73c-6-40-8-43-16-23-6 13-7 42-3 70 7 44 8 46 17 23 5-14 6-45 2-70zm-1814 70c0-5-4-10-10-10-5 0-10 5-10 10 0 6 5 10 10 10 6 0 10-4 10-10zm244-10h32v-57c0-32 3-73 8-90 7-26 5-33-7-33-27 0-39 26-32 73 7 42 5 46-29 73-37 30-48 51-20 40 9-3 30-6 48-6zm1375-21c15-42 14-84-1-97-7-6-28-14-47-19-24-6-39-19-56-48-12-22-26-39-31-38-5 2-10 42-12 90-3 84-2 86 16 70 31-28 50-20 71 28 23 53 45 58 60 14zm352-15c21-25-8-128-38-132-29-4-55 46-51 96 3 37 5 39 69 51 4 0 12-6 20-15zm-807-50c5-37 2-53-14-79-11-18-20-39-20-48s-12-25-27-37c-36-28-51-12-65 74-11 65-10 68 13 89 27 25 67 45 90 46 12 1 18-12 23-45zm-552-56c-5-21-6-21-13-2-13 33-11 48 5 35 8-7 12-21 8-33zm342-30c17-23 22-124 8-144-21-31-72-25-72 9 0 11-7 28-15 37-9 10-20 31-25 49-8 28-6 32 15 37 13 3 29 12 36 20 17 20 36 17 53-8zm-204-52c0-19 10-47 25-67 13-19 38-62 55-97s37-65 45-68c7-3 34 6 59 21l46 27v-44-44l-55-18c-41-13-71-15-110-11l-54 7-21 67c-11 36-29 80-40 96-29 44-26 106 6 144 30 37 44 32 44-13zm1044 5c-4-20-12-43-19-51-6-8-24-36-39-62-44-77-59-64-46 39 13 100 12 97 50 103 61 9 61 10 54-29zm-1638 0c18-11 45-36 60-56 37-47 76-69 93-52 10 9 16 7 29-12 10-13 30-37 45-52 33-33 34-72 1-77-11-2-37 11-58 28-22 16-46 30-56 30-31 0-190 167-190 200 0 16 42 11 76-9zm402-25c5-23-25-20-38 3-5 11-10 25-10 32 0 17 44-14 48-35zm1338-19c26 10 14-12-13-24-32-15-37-12-28 17 5 15 10 19 17 12 6-6 17-8 24-5zm-310-48c3-6-6-35-21-65-24-47-31-54-57-54-28 0-30 2-25 28 4 15 9 41 13 59 6 31 16 38 66 42 9 0 20-4 24-10zm-1012-81c7-7 18-35 26-61 11-42 11-50-1-58-10-6-16-2-22 14-5 12-15 35-23 50-25 51-13 87 20 55zm602-3c4-8 3-26 0-40-5-19-13-25-35-25-29 0-41 15-41 50 0 28 66 41 76 15zm187-34c16-16-3-31-38-31-37 0-50 12-41 37 5 12 14 14 38 9 18-3 36-10 41-15z"/><path d="m12210 23051c0-27 5-73 11-103 6-29 15-78 20-108 6-30 17-77 26-105 8-27 17-86 20-130s10-88 15-98 13-75 18-145c11-147 26-236 49-274 32-57 48-23 33 70-6 37-16 121-22 187s-18 147-26 180-18 98-23 145c-13 112-30 184-75 303-14 37-26 79-26 92s-4 27-10 30c-6 4-10-13-10-44z"/><path d="m12421 21831c-16-29-13-57 9-101 22-43 29-47 48-28 18 18 15 68-6 108-23 41-37 48-51 21z"/><path d="m12591 21161c-21-13-8-69 28-128 54-88 79-184 101-393 6-58 18-128 26-156s18-82 23-120 16-89 25-114 16-60 16-78c0-37 47-179 62-188 21-13 31 14 18 48-13 36-32 137-55 288-19 131-25 160-45 200-10 20-21 57-25 84s-14 61-21 75c-9 16-14 59-14 110 0 123-25 244-69 341-16 36-44 48-70 31z"/><path d="m12670 20427c0-14 8-42 17-63 12-26 20-79 24-159 12-223 40-406 65-434 22-24 44-5 44 38 0 40-45 284-55 301-8 14-11 30-25 152-6 58-18 123-25 145-15 45-45 58-45 20z"/><path d="m13902 25705c-46-20-56-48-43-131 16-103 29-162 42-186 6-12 15-80 20-152s13-158 18-191c34-222 43-279 52-350 25-206 39-334 39-380 1-27 7-68 16-90 8-22 19-101 25-175s19-172 30-217c10-45 19-96 19-113s7-44 15-60 20-75 26-132 19-129 30-161 19-85 19-120c0-56 23-147 51-198 5-9 11-64 13-121 4-83 9-114 27-147 31-61 41-111 44-229 3-99 16-216 35-312 5-25 14-97 20-160 23-241 43-406 55-440 7-22 10-71 7-130-3-73 0-104 12-134 9-22 16-66 16-102 0-35 6-81 13-101 34-94 47-143 47-172 0-17 9-48 21-70 21-41 51-248 82-580 14-142 17-156 45-195 20-28 31-58 35-96 4-30 15-121 26-202 11-82 23-201 26-265 4-65 15-154 25-198s18-96 19-115c0-81 11-188 21-214 5-15 10-48 10-74 0-25 4-71 10-101 5-31 14-90 19-131s14-100 20-130c7-30 16-84 22-120 14-82 44-183 64-213 9-15 15-44 14-78-1-31 2-65 6-78 9-31-14-152-34-175-9-10-33-25-53-33-21-8-38-19-38-24s-6-9-14-9c-7 0-19-6-25-14-7-8-20-12-30-9-13 3-22-6-36-37-18-41-43-65-129-129-27-19-46-41-46-52 0-24-54-144-69-153-6-4-11-17-11-29 0-13-7-33-17-46-9-13-18-49-20-80-4-78-12-121-22-121-5 0-20-25-35-55-46-98-32-228 36-327 10-14 18-37 18-51s11-38 24-54c13-15 31-44 41-63 24-48 100-130 144-157 20-13 72-41 116-63 44-23 87-45 95-50s29-15 45-23c17-8 64-33 105-54 42-22 91-43 110-46 98-18 243-47 310-62 41-8 85-13 97-10s25 1 28-5c3-5 17-10 31-10 13 0 33-9 43-19 16-16 22-17 38-6 28 20 67 25 223 30 233 8 391 31 487 72 17 7 35 13 40 13 6 0 18 9 28 20s29 20 41 20c16 0 28 10 39 29 20 39 52 61 90 61 22 0 37 9 58 34 15 19 27 44 27 54 0 11 8 30 18 43s24 39 32 57c7 18 25 39 39 47 38 20 62 50 119 150 56 99 71 162 79 320 3 73 0 102-17 155-12 36-25 99-30 140-14 106-25 149-48 173-11 12-27 37-36 54-9 18-29 40-44 50-50 31-72 56-78 90-4 20-16 41-30 49-13 9-32 31-43 50s-29 37-38 41c-10 3-36 25-58 48-44 44-229 135-277 135-14 0-28 6-31 14-4 9-32 16-86 20-44 4-83 12-87 17-3 6-20 9-37 7-30-3-33 0-43 37-6 22-16 53-22 68-7 15-15 40-18 55-10 42-32 107-58 170-13 31-29 94-35 140-7 45-19 99-28 120-20 49-43 137-43 168 0 14-9 42-20 64s-20 50-20 63-9 32-19 41c-10 10-21 34-24 54s-10 69-15 108c-6 47-18 83-35 110-16 23-29 61-33 94-3 30-15 71-26 90-24 41-47 129-58 220-7 56-28 128-97 330-8 25-17 61-20 80s-16 63-29 97-24 79-24 101-11 65-25 96-28 75-31 99c-4 23-15 61-25 84-10 22-21 63-25 90-3 26-13 64-20 83s-22 67-32 105c-11 39-29 88-41 110-11 22-21 56-21 76s-7 50-15 65c-8 16-15 39-15 51 0 13-6 40-14 60-23 63-56 201-56 235 0 11-13 48-29 82-15 34-31 79-34 101-6 39-29 119-88 302-16 52-29 115-29 143 0 36-8 66-27 103-30 56-52 126-53 169 0 14-9 47-20 73s-20 57-20 71c0 13-16 85-36 161s-38 152-40 168c-8 50-27 109-41 126-8 9-18 38-23 65-17 97-41 210-50 240-6 17-10 40-10 53 0 12-8 36-17 54s-20 51-25 75c-4 23-12 61-18 85-5 23-14 65-20 92-31 154-81 346-111 433-16 46-29 103-29 126 0 40-32 138-52 161-4 5-8 27-8 50-1 22-8 58-16 80-9 22-20 63-25 90-5 28-18 70-28 95-63 153-85 239-103 400-10 82-15 100-40 128-15 18-28 40-28 50 0 9-13 44-28 77-16 33-35 85-42 115-8 30-17 60-21 65-3 6-10 28-14 50-7 40-29 90-43 98-4 3-22-1-40-8zm170-608c9-7 21-33 28-57 7-25 20-61 30-80 12-24 19-72 24-157 7-117 48-304 74-336 6-7 13-28 17-47s16-47 26-62c25-35 44-90 53-153 4-27 20-102 36-165s35-158 44-210 20-117 25-145c5-27 12-68 14-90l5-40-18 40c-10 22-19 56-19 76-1 22-8 43-20 53-18 17-19 16-26-12-3-17 1-63 9-104 8-40 18-101 22-136 7-70 25-88 74-78 33 6 41-9 65-114 8-36 26-105 40-155 14-49 32-125 39-168l13-79-23 6c-20 5-26 1-35-21-6-16-8-44-6-63 14-100 28-172 41-202 8-18 25-78 39-133s30-113 36-130c27-77 41-149 50-253 8-92 14-120 33-148 15-23 30-34 43-32 26 4 32 48 11 80-22 34-43 140-51 258-4 63-13 112-21 124-9 13-14 46-14 86 0 58-3 69-25 88-13 12-27 34-31 49-3 15-10 41-15 57s-9 59-8 95c1 61 2 63 10 31 6-19 18-53 28-75 23-49 35-93 50-170 7-33 16-74 22-91 5-17 9-45 9-62 0-18 4-40 9-50 16-32 49-127 59-172s43-185 64-270c12-53 59-202 99-315 15-44 37-134 49-200s32-156 46-200c13-44 28-103 34-132 5-29 21-75 35-102 17-35 28-80 36-148 8-73 17-108 36-141 26-44 35-77 53-188 8-52 32-114 70-185 5-9 12-34 16-55 3-22 10-46 15-55 9-17 23-89 40-199 10-67 30-139 56-200 8-19 19-64 24-99s19-85 30-110c25-56 46-131 64-233 8-46 26-97 44-130 17-30 31-62 31-70s9-44 20-78c23-71 70-321 70-370 0-21 10-44 29-66 20-22 33-52 40-91 18-89 32-144 48-188 29-77 42-139 32-157-9-17-68-26-134-20-11 1-55 2-97 2h-76l-10 33c-13 42-30 138-36 203-7 75-48 168-76 172-21 3-22 1-17-50 2-29 10-124 17-211 8-97 10-161 4-166-19-19-53 7-59 46-4 21-15 63-26 93-20 57-45 185-59 305-5 39-16 86-24 106s-24 83-36 140c-11 57-32 126-45 152-14 28-25 67-25 90-1 53-10 95-50 227-17 58-40 158-51 222s-26 135-34 159c-8 23-15 56-15 74s-4 45-9 61-14 67-21 114c-6 47-20 121-30 165-27 118-40 197-40 236 0 19-9 58-20 87-12 32-20 76-20 117 0 35-7 84-15 108-8 25-19 101-24 170-5 78-14 135-24 153-8 16-23 72-31 124-32 186-70 355-92 409-8 18-14 55-14 82 0 26-4 58-9 71-31 78-43 139-71 373-5 39-13 97-19 130-5 33-15 85-20 117-5 31-20 87-32 125-12 37-25 91-29 118-9 60-40 176-50 190-4 6-13 35-20 65-17 79-48 180-67 219-8 19-19 75-24 125-4 50-13 116-19 146-12 63-28 186-39 310-5 54-21 124-44 193-21 60-37 113-37 119 0 5-7 24-15 41-28 59-56 181-66 282-5 55-14 136-20 180-5 44-13 109-18 145-4 36-12 76-18 90s-16 84-22 157c-12 133-21 176-47 225-8 14-17 47-20 72-6 41-5 46 12 46 11 0 26-6 36-13zm408-2692c5-14 12-54 16-90 6-57 5-65-9-59-26 10-44 65-39 122 4 56 17 67 32 27zm61-276c10-36 10-139 0-139-15 0-41 66-41 103 0 66 26 89 41 36zm73-469c11-11 25-85 25-135v-40l-32 36c-31 36-57 98-57 139 0 17 4 19 28 14 15-4 31-10 36-14zm128-523c8-13 11-77 3-77-11 0-75 75-75 88 0 18 60 9 72-11zm4-173c34-37 44-57 49-96 4-27 4-52 1-55-9-9-66 48-66 64 0 8-11 31-25 51-25 36-31 63-18 75 11 11 15 9 59-39zm58-277c12-57 13-117 2-117-16 1-51 32-65 57-12 23-15 105-5 116 11 11 64-33 68-56zm23-249c30-33 40-57 47-116l7-54-25 19c-37 27-86 173-58 173 5 0 18-10 29-22zm94-382c6-30 9-62 5-72-6-16-8-15-28 2-11 11-27 33-34 51-15 35-19 105-7 117 14 14 51-43 64-98zm55-296c6-33 8-62 6-65-3-3-20 11-39 30-27 28-33 42-33 78 0 24 3 47 7 51 16 15 48-37 59-94zm24-215c0-8-2-15-4-15s-6 7-10 15c-3 8-1 15 4 15 6 0 10-7 10-15zm49-201c15-19 21-41 21-75 0-27-3-49-7-49-48 1-89 150-42 150 4 0 17-12 28-26zm-119-130c0-8-4-12-10-9-5 3-10 10-10 16 0 5 5 9 10 9 6 0 10-7 10-16zm198-198c2-28 0-37-10-34-19 6-58 67-58 90 0 20 0 20 33 1 26-15 33-26 35-57zm-163 13c8-23 1-34-14-24-13 8-15 45-2 45 5 0 13-9 16-21zm25-209c21-57 14-83-13-55-18 17-37 77-37 115 0 22 2 23 15 9 8-8 24-39 35-69zm162 29c16-9 48-64 48-84 0-24-77 29-80 55-6 41 0 46 32 29zm85-298c6-24-1-24-32 1-5 5-22 17-37 29-20 14-28 29-28 50 0 26 3 29 24 23 14-3 27-1 32 7 6 11 19-23 41-110zm-192 38 15-27-30 11c-29 11-41 31-32 55 5 17 28-1 47-39zm213-178c8-5 12-22 10-46l-3-37-27 22c-29 22-37 55-15 63 18 8 21 8 35-2zm-110-280c2-13-2-37-10-54l-13-32-6 45c-3 25-4 51-1 58 7 19 27 8 30-17zm1074-123c32-11 63-26 69-34s20-14 30-14c44 0 120-23 141-44 13-12 46-39 75-59 29-21 55-46 58-56s30-35 59-57c30-21 62-53 72-71 9-18 21-33 25-33 10 0 49-74 49-93 0-8 16-34 35-58 50-63 114-279 99-336-3-11-1-24 5-27 14-9 14-90 0-135-21-67-58-140-91-178-19-21-42-56-52-78-24-49-34-26-17 40 6 24 11 55 11 68 0 14 6 30 14 36 16 13 14 107-6 297-7 75-8 124-1 150 6 24 6 51 1 69-38 130-48 165-58 202-6 24-21 53-33 67-26 27-106 66-138 66-12 0-41 19-68 46-46 47-101 74-150 74-15 0-36 7-48 15-19 13-23 13-37-1-22-22-20-30 17-64 23-21 42-29 69-30 29 0 45-9 82-45 26-25 59-47 74-51 50-10 72-27 99-73 14-25 39-62 55-82 37-49 38-86 1-95-16-4-41-16-56-27-16-10-30-17-33-14s0 24 6 47c13 47 7 60-18 42-9-7-29-17-44-23-32-13-53-65-43-108 5-25 0-36-30-70-42-46-43-74-4-79 22-3 29-11 39-47 12-43 9-75-8-75-4 0-31 21-59 48-44 40-55 59-79 130-15 45-31 82-35 82-22 0-41-35-34-64 9-37 13-73 21-183 6-76 5-82-15-93-26-13-41-6-41 21 0 11-7 31-16 44-9 14-17 48-18 77-1 48-3 53-26 57-18 2-32-5-50-28-15-17-40-34-58-37-30-6-33-4-47 30-18 42-52 62-90 52-34-9-41-29-22-69 9-18 17-57 19-87l3-55-42-3-42-3-7 46c-4 30-3 50 5 58 6 6 11 22 11 35v25l-91-6c-49-4-100-12-112-19-12-6-35-13-51-15-18-2-39-14-51-29s-42-34-67-44l-46-17-11 36c-15 48-75 111-105 111-12 0-33-9-46-20s-28-20-35-20c-6 0-20-12-32-27-17-24-160-109-168-101-18 19-34 87-29 119 6 36 4 39-22 50-16 6-49 12-74 14-25 1-56 8-70 14-28 14-63 63-74 104-9 36 7 35 64-3 25-16 50-30 55-30 6 0 23-7 39-15 40-21 110-21 141-1 13 9 28 31 33 49 8 30 11 32 59 35 55 3 88 27 77 55-4 13-20 16-67 16-48-1-82 7-152 34-127 50-153 65-170 98-9 16-20 29-25 29-6 0-20 11-32 25s-27 25-34 25-16 4-19 10c-8 13 13 50 29 50 7 0 26 15 42 33 17 17 47 47 66 65 45 40 248 139 315 152 26 6 57 12 68 15s36 8 55 11c19 4 44 13 56 20 18 13 81 28 159 41 17 2 121 6 233 8 112 1 206 5 209 9 13 13 199-6 255-26zm-1518-448c21-8 26-16 26-42 0-36-20-100-50-158-21-41-62-207-63-255 0-16 3-44 7-60 7-29 6-31-21-30h-28l1-64 1-65-23 30c-13 16-24 36-24 45s-7 30-16 47c-22 45-15 82 19 101 25 14 29 22 32 74 4 76 24 155 47 189 10 14 18 37 18 50 0 25 24 120 34 137 9 13 9 13 40 1zm127-126c9-8 23-17 31-18 7-2 26-8 41-14 16-7 33-12 38-12s17-4 27-8c9-5 31-15 47-23 41-20 39-43-4-47-53-5-75 4-133 56-29 27-61 51-70 55-20 7-24 27-6 27 6 0 19-7 29-16zm1883-97c-3-9-22-21-41-26s-50-21-68-35c-38-29-45-31-45-13 0 21 60 77 83 77 12 0 31 7 41 15 23 17 40 6 30-18zm26-102c0-34-28-59-70-63-19-2-39-8-44-13-15-14-36-11-36 5 0 8 12 21 28 29 15 8 42 22 59 31 18 10 35 21 38 27 11 17 25 9 25-16zm-1860-126c50-11 50-11 50-50 0-22 8-54 17-72 32-60 40-110 31-198-11-98-21-115-41-68-8 19-21 40-30 47-24 21-32 88-13 117 27 41 21 60-24 74-44 13-50 20-61 70-5 20-11 48-15 64-7 32 3 34 86 16zm468-79 3-65-21 23c-24 26-52 28-70 7-15-18-36-20-45-4-9 13 95 109 115 106 11-2 16-19 18-67zm1304 50c0-3-16-22-35-43-35-37-58-36-37 2 17 33 70 63 72 41zm-909-60c11-48-4-84-43-104-29-14-33-14-50 2-16 15-25 63-21 108 2 17 42 33 76 31 25-2 31-7 38-37zm359 18c7-22-8-203-19-222-9-16-14-11-42 37-24 43-31 66-31 109 0 57 8 72 45 81 35 8 43 7 47-5zm642-27c7-11-14-111-26-127-5-7-25-15-46-19-20-4-44-13-53-21-15-13-17-12-23 11-9 35 18 77 80 126 53 41 60 44 68 30zm-347-33c-3-8-6-5-6 6-1 11 2 17 5 13 3-3 4-12 1-19zm-837-34c0-44-1-46-42-63-86-37-88-37-88 7s21 69 73 88c54 20 57 18 57-32zm-381 2c13-16 23-91 27-211l2-80-9 59c-9 61-22 86-45 86-8 0-14 5-14 10 0 6-11 16-25 22-31 14-32 37-2 88 23 41 46 50 66 26zm1281-83c0-24-7-60-15-80-23-54-19-79 15-103 26-18 30-28 30-66 0-25-5-66-11-91-9-35-18-47-40-55-19-7-29-17-31-36-4-33-51-63-69-45-10 10-7 17 12 32 13 10 35 39 49 64 23 44 23 47 7 65-20 22-22 43-5 60 9 9 13 62 14 170 1 86 2 159 3 161s10-4 21-14c14-13 20-31 20-62zm-596 35c3-7 7-37 10-65 5-51 4-53-19-53-21 0-55 23-55 36 0 3 9 25 20 50 20 44 37 56 44 32zm371-82c4-17 10-98 14-181 4-82 10-157 14-166 10-20-18-86-42-99-24-12-27-8-35 53-6 37-4 48 8 53 25 9 26 31 4 60-20 25-22 40-24 188-1 89 1 165 4 170 8 14 49-42 57-78zm-1453 56c3-4 25-45 48-92 22-47 45-93 50-102 6-10 10-24 10-32 0-7 9-20 20-27 11-8 21-25 22-39 3-20-2-24-27-27-59-5-175 138-175 216 0 16-9 38-20 51s-20 34-20 48c0 23 2 24 43 18 23-4 45-10 49-14zm891 4c3-8 18-16 34-18 35-4 45-41 15-57-17-9-24-5-46 24-26 33-34 65-17 65 5 0 11-6 14-14zm-109-63c3-10 8-39 12-65 6-46 5-48-19-48-39 0-48-20-41-91 7-67 42-139 68-139 8 0 18-9 21-20 6-17 22-25 47-21 11 1 21-45 14-67-14-43-67-28-70 19-1 17-12 30-38 44-21 11-55 42-75 69-37 48-38 50-41 151-4 120 3 139 61 165 53 24 55 24 61 3zm1076-67c0-2-12-25-27-52l-28-49-3 48c-4 57 11 82 39 66 10-5 19-11 19-13zm-578-92c11-49 22-130 25-180 4-87 3-93-19-108-51-36-70-8-38 58l21 45-23 31c-20 28-23 43-23 128 0 164 22 174 57 26zm-157 13c1-29 5-82 9-118l8-66-33-5c-19-3-39-3-45-1-15 6-34 71-33 113 1 19-2 47-6 62-6 23-2 30 36 57 52 38 64 30 64-42zm-175 19c0-20-19-31-32-18-6 6-7 15-4 21 10 16 36 13 36-3zm-616-129c19-88 2-120-46-83-19 14-24 75-12 148l7 37 19-25c11-13 25-48 32-77zm1498-18c-4-4-17-10-29-14-19-5-23-3-23 17 0 13 6 30 12 36 10 10 16 8 30-10 9-13 14-26 10-29zm-1241-86c7-7 9-23 5-37-6-25-7-26-31-10-32 21-35 65-5 61 11-2 25-8 31-14zm537-67c7-35-34-58-66-38-17 11-4 42 22 52 27 11 40 7 44-14z"/><path d="m14964 21186c-5-14 4-80 31-211 31-155 35-178 35-205 0-16 5-32 10-35 6-3 10-16 10-27 0-12 4-35 10-52 26-85 52-210 62-305 11-100 14-107 46-139 41-42 52-69 52-133 0-39 7-60 33-99 39-61 59-72 45-27-6 18-15 40-19 49-5 10-9 26-9 36 0 11-12 66-26 123-15 58-28 144-30 194-3 50-7 113-9 140-3 28-8 91-11 140-6 87-20 131-52 167-19 22-32 14-32-19 0-21-3-23-14-14-17 14-32 76-46 186-6 44-14 105-18 136-10 78-52 137-68 95z"/><path d="m15337 19392c-21-23-21-50-3-99 22-62 36-130 36-177 0-59 26-192 46-238 15-33 18-36 40-26 30 14 30 29 3 86-18 35-23 70-28 187-4 80-11 149-18 156-6 8-19 40-29 72-10 31-21 57-24 57-4 0-14-8-23-18z"/><path d="m15504 19205c-13-32 44-366 71-418 18-36 32-109 45-252 8-81 17-132 30-156 11-20 19-52 18-72-2-45 4-51 36-43 52 13 53 63 6 171-10 22-23 83-29 137-6 53-19 116-29 140-25 57-49 166-57 253-14 145-70 295-91 240z"/><path d="m15860 17898c-13-20-18-41-14-53 3-11 10-59 15-108 8-75 43-234 54-246 2-2 18 2 36 8s33 10 34 9c0-2 6-15 13-30 14-35 40-36 48-3 3 14 11 25 16 25 7 0 8 21 3 58-4 31-8 84-8 117-2 59-1 60 26 63 16 2 39-4 53-13 23-15 25-15 34 11 19 50 3 68-90 95-25 7-62 12-83 10-46-3-67 12-67 49 0 25-15 40-41 40-5 0-18-15-29-32zm128-249c0-89-8-91-32-10-19 66-20 108-3 114 24 9 35-24 35-104z"/><path d="m15714 17885c-15-23-15-31-4-68 22-74 40-171 41-222 0-27 6-79 13-115l12-65h35 34l-2 80c-1 91-22 203-52 289-12 33-21 69-21 81 0 21-17 45-32 45-4 0-15-11-24-25z"/><path d="m15300 17865c-19-13-42-24-50-24-8-1-28-14-45-30-16-16-52-40-79-54-39-21-57-25-96-20-27 3-59 3-72 0-27-7-78-50-78-65 0-19 32-22 62-6 23 12 46 15 81 11 56-7 125 12 174 49 17 13 36 24 42 24 5 0 23 12 41 26 23 20 37 25 58 20 67-17 79-17 95-2 24 25 2 74-38 81-16 4-37 8-45 10s-31-7-50-20z"/><path d="m15608 17871c-10-16-14-17-25-5-26 26-67 17-88-18-17-28-19-48-17-132 3-96 13-202 30-315 8-50 36-91 62-91 24 0 42 35 36 69-36 237-44 365-22 386 11 12 14-3 20-98 13-230 17-249 58-275 30-19 34-20 50-5 23 20 23 35-1 81-15 30-21 74-29 219-6 100-13 187-17 193-10 17-44 12-57-9z"/><path d="m16042 17409c-12-5-22-14-22-21 0-21 31-60 44-55 6 3 20-1 31-9 10-8 29-14 41-14s27-6 34-14c9-12 17-13 36-4 32 15 33 54 2 63-13 4-32 16-43 26-25 23-94 38-123 28z"/><path d="m15807 17355c-26-7-53-17-60-22s-32-15-57-22-55-17-68-22-32-9-43-9-38-9-60-21c-86-43-3-82 85-40 23 12 50 21 59 21 10 0 25 4 35 9 9 5 49 17 87 26 84 19 145 44 145 60 0 35-42 42-123 20z"/><path d="m10335 21332c-11-1-45-9-75-17s-76-17-102-20c-25-3-52-13-58-20-7-9-30-15-54-15-22 0-54-8-71-17-100-55-160-83-174-83-25 0-93-35-115-59-10-11-32-23-49-27-33-7-93-47-115-76-7-10-31-22-54-29-39-10-55-23-129-105-55-62-117-113-166-137-33-17-59-40-74-64-12-21-37-53-56-71-21-21-38-53-49-90-9-31-29-78-45-103-16-26-34-73-40-105-22-124-41-204-50-210-14-8-10-64 7-114 16-43 39-132 51-195 3-16 12-38 21-48 15-17 23-53 38-173 5-36 18-66 45-105 21-30 54-77 73-105 29-43 44-54 94-72 32-12 62-22 66-22s22-11 40-25 37-25 43-25c5 0 20-11 33-25s34-25 48-25c13 0 35-9 49-20 18-14 41-20 78-20 35 0 57-5 65-15 15-18 34-19 59-3 15 9 25 9 45 0 22-10 31-8 58 8l32 19 41-45c23-25 48-64 55-87 8-23 17-46 22-51 4-6 8-20 8-33 0-12 4-32 9-45 51-125 91-214 151-327 38-74 70-137 70-140s13-13 29-23c20-11 43-42 69-95 43-87 142-317 161-375 7-21 28-63 47-95 18-31 34-61 34-67 0-14 83-174 114-220 14-21 31-56 36-76 6-21 16-43 24-49 13-11 48-96 90-216 60-172 89-251 97-260 5-5 9-16 9-25 0-22 45-107 70-133 21-22 39-64 85-198 13-36 35-89 49-117s32-71 39-94c69-221 105-318 129-349 15-20 28-44 28-54 0-9 18-51 39-93s44-93 50-112 21-46 33-60c25-27 66-90 86-130 7-14 28-52 46-85 49-86 62-114 77-162 6-24 20-50 31-59 10-10 18-23 18-30s6-19 14-26c7-8 21-30 31-48 10-19 26-46 36-59 11-13 19-31 19-39s18-38 39-66c22-28 55-87 75-131 19-44 55-119 80-167s46-94 46-101c0-8 9-26 20-40s20-34 20-45c0-10 26-59 58-108s78-136 102-194c42-100 112-243 130-265 16-20 67-123 73-147 4-14 22-47 40-74s39-65 47-84c7-19 26-60 41-90 15-31 35-99 45-150 17-98 38-139 103-209 17-18 35-49 40-69 5-21 17-65 26-100s29-82 45-104c17-23 30-46 30-53s14-37 30-68c17-31 30-65 30-76s11-32 24-48c13-15 29-46 37-68 7-22 32-69 55-105 43-67 184-341 184-359 0-5 7-22 15-38 7-15 45-90 82-166s76-153 85-170c9-18 17-42 18-54 0-12 13-44 28-70s40-82 56-125c15-42 36-84 46-93s24-31 31-48c7-18 22-45 34-62 11-16 38-63 58-102 21-40 52-95 70-122 47-73 66-107 112-199 42-82 124-182 151-182 7 0 21-11 30-25 18-28 29-30 67-12 32 14 42 39 28 66-6 11-11 39-11 63 0 36-5 47-30 68-20 17-33 40-41 75-6 28-15 64-20 81s-9 43-9 58c0 30-13 60-40 91-18 22-40 89-40 126 0 13-9 30-20 37s-20 21-20 31c0 11-4 23-10 26-5 3-10 21-10 40 0 18-9 54-20 80s-20 55-20 66c0 10-12 44-26 76-33 75-63 158-75 206-5 21-18 50-28 65-11 15-22 45-26 67-3 22-23 76-44 120s-48 105-61 135c-12 30-32 71-45 91s-28 54-34 75c-6 22-22 55-35 75-15 22-31 68-40 119-9 46-27 104-41 128s-25 48-25 53c0 14-47 110-80 164-17 28-33 57-36 65s-10 24-15 35c-4 11-15 45-24 75s-23 68-31 83c-7 16-14 40-14 53 0 26-23 78-46 104-7 9-22 58-34 110s-30 109-41 127-29 62-39 99c-11 37-30 88-43 113-14 25-30 71-36 101-14 68-58 193-82 238-11 18-19 38-19 44s-7 19-15 28c-14 16-28 67-42 155-3 22-17 53-29 68-13 16-27 41-30 55-4 15-14 36-24 47-41 49-60 93-60 143 0 28-4 54-10 57-5 3-10 18-10 32 0 27-52 204-76 260-8 17-14 36-14 41s-11 30-25 53c-14 24-25 54-25 66 0 22-27 91-59 153-9 19-23 54-29 78-30 107-37 129-54 157-10 17-18 39-18 50s-9 35-20 53-20 40-20 50-4 22-9 27c-5 6-21 51-35 101-31 105-73 217-110 290-14 29-26 64-26 79 0 49-31 135-64 179-25 31-35 57-39 97-17 149-21 165-47 204-21 31-29 57-35 118-5 57-10 77-21 77-8 0-17 8-21 18-3 9-12 24-19 32-6 8-17 35-24 60-6 25-20 60-30 77-11 18-24 51-30 73s-24 54-40 71c-16 18-34 53-40 78-23 103-49 183-64 199-8 10-20 51-26 92-6 40-15 80-22 87-6 7-12 35-14 61-3 45-14 74-74 192-15 30-31 75-35 99-7 41-45 129-71 161-6 8-14 31-18 51-8 46-33 96-52 107-8 4-27 44-43 87-15 44-38 100-49 124-12 25-22 55-22 68s-11 41-25 63-25 45-25 51c0 7-11 22-25 35s-25 32-25 44c0 27-74 172-101 196-32 29-56 83-64 144-4 30-17 87-30 125-12 39-31 105-41 149l-19 78 27 22c15 11 36 41 48 66 35 76 47 93 77 105 26 11 46 40 97 142 6 12 18 24 27 26 21 6 79 179 79 234 0 21 7 49 17 62 14 21 15 32 3 105-7 44-14 173-16 286-3 173-7 213-24 259-10 30-27 64-37 75-26 31-43 63-43 83 0 10-9 29-20 43s-20 35-20 47c0 30-26 53-59 53-16 0-44 13-66 30-21 17-41 30-45 30s-30 20-58 45c-59 53-113 75-191 76-31 0-92 6-136 12-44 7-89 11-100 9zm116-122c10-6 28-14 39-20 11-5 31-10 45-10s39-7 55-15 31-11 34-6 27 6 53 3c76-8 160-75 199-158 9-19 29-42 45-51 53-32 132-233 91-233-4 0-15 22-25 48-21 60-48 96-95 125-23 15-41 38-52 67-30 76-142 145-265 162-38 5-92 16-119 25-46 15-51 15-82-2-29-16-39-17-72-6-27 9-49 10-82 2-25-5-63-8-85-5-37 5-43 2-80-35-21-23-46-41-55-41-21-1-59-31-73-60-10-20-23-26-64-31-29-4-67-16-85-28-37-23-72-40-135-66-23-10-44-23-47-31-3-7-31-25-63-41-32-15-60-31-61-36-2-4-22-17-45-28-22-12-48-30-57-42-9-11-32-25-50-31-21-7-36-19-40-32-6-26-69-96-128-142-28-22-45-46-52-71-5-20-23-49-39-65s-34-48-41-74-17-51-21-57c-4-5-9-23-12-40-2-18-5-8-6 26-1 45 4 62 24 89 17 23 25 47 25 76 0 107 113 244 227 276 18 5 33 14 33 20 0 12 80 121 93 126 4 2 26 19 48 38 23 19 52 37 65 40 14 4 29 15 35 25 5 11 15 19 21 19s26 11 44 25 75 46 126 71c51 26 105 55 120 65 14 11 35 19 46 19 12 0 24 5 28 11 13 21 89 49 135 49 31 0 55 7 72 20 14 11 38 20 54 21 15 0 44 7 63 15 38 15 176 11 211-6zm182-189c14-5 30-22 36-38 6-15 23-44 37-63 31-43 28-70-11-89-75-36-63-40-102 37-31 64-38 137-13 152 19 12 23 12 53 1zm-267-11c28 0 46-68 42-160-3-82-5-88-33-113-25-22-28-28-15-37 8-5 20-8 27-5 8 2 15-10 19-31 4-20 12-38 19-41 22-8 55 16 55 40 0 37 23 61 52 54 20-5 28-16 37-51 19-75 15-105-14-112-16-4-32-1-43 8-32 27-104 40-163 30-29-6-58-8-63-5-11 7-1 245 12 270 5 10 10 46 10 81 2 71 7 86 29 78 8-3 21-6 29-6zm-200-15c10-8 29-15 42-15h23l-6-172c-7-192-10-201-73-213-58-11-62 2-62 206 0 98 3 184 6 193 8 20 44 21 70 1zm-158-245c2-132 0-155-14-171-21-23-50-25-58-3-3 9-6 80-6 159v144l28 14c15 8 32 14 37 13 6-2 11-64 13-156zm504 71c2-13-3-26-9-28-9-3-13 7-13 33 0 41 17 37 22-5zm-657-43c8-52 9-280 1-315-11-43-27-56-58-44-17 6-27 20-31 40-4 18-13 31-22 31-18 0-16-6-20 90-2 41-6 96-10 122-11 68 9 96 72 101 27 2 51 4 55 5s10-13 13-30zm1020-43c5-17 15-36 22-43 18-19 26-53 15-64-7-7-16 1-26 27-9 21-16 41-16 46 0 20-38 7-48-16-6-14-15-25-20-25-13 0-32 47-32 79 0 27 2 28 47 27 43-1 48-4 58-31zm-1211-57c3-13 6-60 6-105v-83l-32-14c-19-8-37-10-42-5-6 5-18 9-28 9-23 0-38 30-38 74 0 42 8 66 24 66 6 0 27 18 46 40 40 45 55 49 64 18zm1028-15c21-19 23-34 6-51-19-19-48 4-48 38s14 38 42 13zm-1242-151c0-18-26-32-58-32-22 0-32 4-30 13 6 17 88 35 88 19zm1394-29c22-78 15-123-20-123-10 0-14 16-14 63 0 35 3 67 7 70 11 12 21 8 27-10zm-860-8c-4-8-8-15-10-15s-4 7-4 15 4 15 10 15c5 0 7-7 4-15zm504-55c2-30 9-61 15-69 7-8 17-82 23-175 6-89 17-179 24-201 6-22 18-85 25-140s20-113 29-130c9-16 16-38 16-47 0-25 28-127 51-188 12-30 27-71 35-90 7-19 13-48 14-65 0-16 9-50 20-74s20-55 20-70c0-14 11-44 25-66 13-22 25-51 25-65 0-15 4-30 9-35 5-6 19-44 32-85 18-61 31-83 66-115 27-26 45-53 49-75 4-19 20-59 36-88 15-30 28-62 28-71 0-23 43-145 57-163 16-20 43-88 43-110 0-11 13-45 29-76s34-79 40-106c7-27 20-60 31-74 25-32 25-54 0-70-14-8-20-23-20-47 0-42 19-53 62-37 27 10 29 9 50-31 33-63 48-108 48-149 0-20 15-69 35-110 20-43 37-100 41-133 4-36 16-72 30-93 13-19 26-50 30-71 8-50 31-109 59-152 13-20 29-56 36-80s18-51 25-59c6-8 22-44 34-80s31-79 41-96c11-18 23-51 28-75 15-77 41-163 51-173 5-5 10-20 10-33s9-32 19-42c11-11 25-39 31-63 7-24 20-61 31-83 22-44 59-186 59-225 0-32 35-126 61-161 10-15 19-34 19-44 0-22 60-174 81-205 32-48 119-278 119-318 0-7 4-20 9-30 48-94 91-203 91-233 0-19 47-127 65-149 7-8 15-33 18-55s9-51 12-65c6-24 6-24-9-6-20 25-46 14-46-20s-22-27-34 12c-8 26-23 63-86 209-26 59-50 123-69 185-10 30-38 83-62 116-47 64-51 71-90 193-13 41-34 87-47 102-23 28-71 157-72 192 0 24-38 97-50 97-6 0-10 12-10 26 0 15-12 36-29 52-15 15-31 40-35 55-9 40-41 33-42-10-2-52 26-115 71-163 35-38 45-58 58-119 10-40 17-79 17-87 0-7 14-35 30-61 17-26 30-54 30-62s13-37 29-65c15-28 38-80 51-116 12-36 30-76 40-90 34-51 100-182 100-200 0-10 4-21 9-24 4-3 11-25 15-48s11-47 17-54c5-6 22-50 39-97 31-91 108-212 140-222 27-9 40 2 40 31 0 55 59 35 63-22 2-23-2-28-16-26-29 5-36-35-17-102 8-34 24-75 33-93s17-54 17-80c0-45 33-136 62-171 16-19 27 2 29 53 0 22 3 33 6 25 20-55 45-97 63-108 27-16 59-87 60-129 0-17 5-35 10-38 6-3 10-20 10-36 0-18-4-28-10-24-5 3-10 14-10 24 0 18-33 35-44 23-13-13-4-60 19-97 14-22 25-48 25-58 0-9 14-47 30-84 17-36 30-72 30-80 0-7 13-37 28-66 15-28 34-79 42-112 19-83 26-96 53-90 33 8 43-4 61-75 9-36 21-67 26-68 14-5 50-76 50-99 0-10 12-40 26-68 30-59 97-255 90-262-3-3 1-17 8-32 8-14 17-48 21-74 4-27 18-60 30-75 24-29 98-171 110-212 10-36 53-137 81-192 13-27 24-55 24-64s22-54 50-100c50-84 84-166 77-187-2-6 6-25 18-42 11-17 27-51 34-76 7-24 17-53 22-64 19-46 49-150 49-172 0-14 5-33 11-44 9-19 9-19-10-10-11 6-25 27-32 46s-16 35-19 35c-4 0-13 19-20 43-8 23-24 63-37 89s-30 69-39 95-24 57-34 68c-18 21-60 130-60 157 0 8-8 26-18 39s-29 51-42 84-33 74-45 90c-12 17-31 55-41 85s-31 74-47 98c-15 23-33 57-39 75-9 29-17 49-68 162-10 22-22 51-26 65-4 13-15 36-26 51-17 23-26 47-45 128-3 14-22 45-41 70-34 45-78 132-111 221-9 25-33 70-52 100-48 74-84 155-110 248-22 79-55 136-107 186-20 19-33 43-37 70-6 37-22 75-69 161-9 17-16 39-16 50 0 12-4 25-9 30-5 6-28 46-51 90s-55 100-70 125-33 63-40 85-20 58-30 80c-11 22-29 63-41 90-13 28-35 66-51 86-16 19-39 65-52 102-14 36-48 102-76 146s-58 104-66 133c-9 30-29 69-45 87-16 19-29 41-29 49 0 16-16 69-31 107-4 11-21 54-37 96s-42 96-58 120c-17 24-38 64-48 89-9 25-28 68-41 95-13 28-32 72-41 98-10 27-23 51-31 54-7 3-13 10-13 17 0 10-23 58-75 156-7 14-21 49-30 79s-25 61-36 70c-12 10-42 81-74 176-31 88-64 172-75 187-25 35-39 70-51 131-5 26-27 79-50 117-22 38-45 84-49 102-15 62-63 193-97 268-44 93-63 146-63 173 0 11-6 28-14 36-7 9-23 48-34 86-13 44-31 80-48 95-27 26-64 93-64 117 0 8-9 31-19 51-11 20-25 57-32 82-8 25-26 70-41 100s-28 60-28 67c0 21-40 105-64 134-13 15-26 45-30 66-9 53-24 89-62 153-33 55-70 152-125 330-17 52-35 109-41 125-5 17-18 57-28 90-9 33-29 83-43 110-14 28-35 80-48 118-12 37-27 67-33 67s-23 22-38 49c-15 26-34 54-42 60-8 7-18 34-22 59-4 33-16 57-39 82-18 19-38 53-45 75s-28 69-46 104c-19 35-34 73-34 83s-10 32-21 48c-15 20-22 45-24 84-1 45-7 62-28 84-14 15-35 48-46 73-10 26-24 50-29 53-6 3-13 20-17 36-5 23-17 36-48 51-23 11-53 34-67 51-21 28-25 43-27 125l-3 93h53c33 0 67 7 92 20 22 11 53 19 70 18 35-2 75 10 75 22 0 4 16 8 35 8s54 9 77 20c24 12 61 24 83 28s53 16 68 26c17 12 52 22 88 25 33 3 62 9 64 14 3 4 22 6 43 5l37-2zm492 25c0-8-7-15-15-15s-15 7-15 15 7 15 15 15 15-7 15-15zm-242-27c2-9-2-35-8-57-8-30-16-41-30-41-24 0-50 47-50 90 0 30 1 31 42 28 31-2 44-8 46-20zm-1268-36c0-9 9-30 20-47 36-54 36-180 0-180-19 0-35 65-21 87 16 25 14 31-14 64-27 31-33 72-13 92 14 14 28 6 28-16zm208-9c25-56 10-88-36-76-16 4-26-5-46-36-14-22-26-46-26-53 0-9-3-8-10 2-5 8-10 38-10 65 0 28-1 63-3 79-2 32 12 40 83 44 29 2 37-2 48-25zm1349-30c-6-69-35-201-55-258-18-49-43-68-64-47-15 15 10 93 38 114 18 14 24 29 24 56 0 20 4 53 9 72s12 52 16 73c4 24 11 37 21 37 13 0 15-9 11-47zm-1749 5c7-7 12-20 12-30 0-14-8-18-34-18-44 0-56 18-26 42 26 21 32 22 48 6zm62-12c0-8-7-17-16-20-25-10-30 2-8 19 24 18 24 18 24 1zm1500-89c0-29-34-62-55-53-27 10-30 38-6 58 33 26 61 24 61-5zm-1620-27c0-15-38-87-49-94-10-7-34 81-26 95 8 12 75 12 75-1zm148-34c4-48-5-58-45-50-25 5-32 12-36 38-6 37 15 58 53 54 21-3 25-9 28-42zm-132-222c-9-23-43-16-65 12-27 34-26 53 1 63 19 7 27 3 46-26 13-19 21-41 18-49zm192 58c7-9 11-26 10-37-2-16-12-21-44-23-40-3-42-2-48 33-4 19-4 40-1 46 9 14 67 1 83-19zm-348-111c0-28 10-51 24-51 6-1 31-18 55-39 51-45 50-66-4-95-35-19-36-19-50 0-8 10-15 24-15 30 0 7-9 31-20 55-19 44-26 100-13 112 12 13 23 7 23-12zm1730-10c0-10-7-24-15-31-16-13-18-8-9 28 8 27 24 29 24 3zm-1270-53c48-52 33-62-41-27-64 29-66 59-6 68 4 0 26-18 47-41zm-206 10c28-40 12-77-28-62-15 6-36 47-36 69 0 24 47 18 64-7zm178-144c4-3 8-16 8-30 0-28-23-31-82-11-50 18-57 26-33 44 19 13 82 12 107-3zm-213-65c31-39 16-61-24-35-32 21-42 45-24 57 20 12 21 12 48-22zm681-328c12-24 13-101 1-101s-18 17-26 74c-8 49 5 63 25 27zm200-377c0-30-25-50-44-35-17 14-31 85-21 101 10 17 65-39 65-66zm118-86c13-11 17-58 4-58s-62 55-62 69c0 13 35 7 58-11zm-46-176c-3-9-9-7-19 8-12 17-13 24-2 37 12 14 14 13 20-8 3-13 4-30 1-37zm108-34c-1-13-7-36-14-53-12-30-13-30-24-8-12 21-8 46 11 71 15 19 27 14 27-10zm75-220c9-22 10-39 4-50-14-26-25-22-39 11-9 23-9 33 2 50 7 12 14 21 16 21s9-15 17-32zm-18-200c-3-7-5-2-5 12s2 19 5 13c2-7 2-19 0-25zm113-58c0-11 8-35 17-54 14-30 14-40 4-63l-13-28-19 24c-19 23-25 83-13 128 7 26 24 21 24-7zm10-281c0-6-4-7-10-4-5 3-10 11-10 16 0 6 5 7 10 4 6-3 10-11 10-16zm91-162c-18-18-24 19-9 53l13 31 3-37c2-20-1-41-7-47zm298-478c25-27 33-69 14-69-21 0-93 59-93 76 0 22 56 17 79-7zm257-675c22-42 38-114 25-114-5 0-11 14-15 31-3 18-17 42-31 55s-25 34-25 49c0 37 20 27 46-21zm89-264c3-5-1-10-9-10-9 0-16 5-16 10 0 6 4 10 9 10 6 0 13-4 16-10zm256-508c7-35 3-38-23-18-18 13-23 37-11 50 13 13 28-1 34-32zm64-168c14-15 25-30 25-35 0-17-22-20-39-5-10 9-22 16-28 16-11 0-23 22-23 41s42 8 65-17zm952-1149c3-47 2-49-11-25-7 14-16 38-20 53-6 24-4 28 11 25 14-2 19-14 20-53zm22-112c0-25-1-26-9-8-12 27-12 35 0 35 6 0 10-12 9-27zm1118-2935c-3-7-5-2-5 12s2 19 5 13c2-7 2-19 0-25z"/><path d="m10316 20314c-43-7-96-20-118-29-28-11-44-12-58-5-38 20-96 4-141-41-23-23-76-25-101-2-24 22-63 5-72-33-6-22-3-32 16-46 32-25 68-33 89-19 10 6 26 11 36 11 9 0 41 14 71 31 43 24 62 29 89 24 18-3 49-1 67 6 23 8 38 9 51 2 13-8 30-7 58 3 22 8 52 14 67 14 56 0 109 77 64 94-19 7-17 7-118-10z"/><path d="m10349 19972c-61-64-116-92-182-92-60 0-80-10-75-36 2-13 12-19 31-19 36-1 44-15 53-92 4-43 11-63 20-63 8 0 20-16 28-35 11-26 21-35 39-35 16 0 34-12 51-35 15-19 32-35 38-35 7 0 22-10 35-22 20-19 25-20 34-8 5 8 7 32 3 52-7 44 9 78 36 78 35 0 25 45-13 68-30 17-35 26-40 73-11 91-8 172 8 193 8 11 15 28 15 38 0 32-33 19-81-30zm-31-164c3-43 1-46-25-51-33-6-31-8-39 30-5 24-1 36 16 53 30 30 45 21 48-32z"/><path d="m10437 19409c-40-23-13-143 48-209 27-30 85-137 85-158 0-8 12-34 28-58 32-52 65-57 70-10 2 16-1 33-7 39s-11 17-11 25-14 42-32 76c-17 33-38 74-46 89-8 16-24 33-37 39-22 10-33 34-55 125-12 49-19 55-43 42z"/><path d="m10294 19395c-4-8 1-30 9-48 8-17 21-52 27-77 7-25 18-52 25-60 8-8 28-47 45-85 17-39 36-79 43-90 6-11 19-38 29-60 33-72 46-90 66-93 38-6 32 28-23 136-30 59-65 125-78 147-12 22-33 67-45 100-40 104-51 124-72 135-16 9-22 8-26-5z"/><path d="m10727 18823c-7-12 20-107 53-184 16-39 30-87 30-106 0-35 37-133 50-133 4 0 12-18 19-40 6-22 23-47 37-56 13-9 31-33 40-53s29-63 44-96c16-33 31-69 33-80 3-11 15-45 27-75 11-30 28-75 36-100 9-25 29-72 45-105s34-88 39-122c11-68 75-213 95-213 17 0 45 33 45 54 0 9-7 27-15 40-9 13-20 52-26 87s-21 82-34 104c-52 86-92 182-100 239-4 26-18 59-30 74s-26 43-30 62-11 40-15 45c-19 25-71 127-88 173-11 27-40 77-66 110-43 57-64 108-86 215-4 21-17 48-28 60s-28 41-37 65c-16 40-28 51-38 35z"/><path d="m10692 18548c-18-18-15-46 6-57 11-6 27-32 36-58s24-61 32-78c19-36 36-90 53-165 14-60 45-157 67-206 15-34 82-96 98-91 5 2 14 10 20 19 13 21-46 142-80 164-23 16-37 49-54 129-5 22-13 59-18 83-5 23-16 50-24 60-8 9-22 40-30 67-22 68-61 139-79 143-8 1-20-3-27-10z"/><path d="m11017 17793c-10-10-8-61 4-107 25-97 33-122 41-130 4-6 8-18 8-28s9-35 20-55c11-21 20-51 20-68 0-31 60-167 78-179 16-10 26 14 24 54-2 35-68 252-103 342-11 26-19 55-19 65s-9 29-20 43-20 30-20 36c0 15-25 36-33 27z"/><path d="m11296 17684c-4-10-2-22 3-27 14-14 43 0 39 20-4 24-34 28-42 7z"/><path d="m11374 17436c-8-34 12-68 39-64 26 4 36 50 16 74-18 22-48 17-55-10z"/><path d="m11426 17229c-17-21-17-23 5-65 25-50 41-55 57-19 17 37 15 69-6 88-24 22-34 21-56-4z"/><path d="m11477 17103c-4-3-7-25-7-48 0-32 6-46 25-63 29-25 55-29 55-7 0 11-18 91-25 111-2 7-43 13-48 7z"/><path d="m11430 16915c-8-9-10-28-6-52 7-35 19-65 81-198 13-27 27-70 30-95 4-25 18-65 31-90s26-57 29-72 13-34 22-44c16-15 17-15 23 1 8 23-15 150-34 190-8 17-19 48-24 70-10 39-36 108-73 193-11 23-19 51-19 61 0 16-29 51-42 51-3 0-11-7-18-15z"/><path d="m11565 16858c-4-20 0-47 9-70 9-21 16-48 16-60 0-13 12-43 25-68 48-87 82-165 90-205 3-21 15-45 26-53 10-7 19-19 19-26 0-8 6-19 14-25 51-42-2 146-100 356-13 29-27 67-31 85-10 53-32 98-48 98-8 0-17-14-20-32z"/><path d="m8460 17845c-14-8-34-15-45-15s-46-14-78-30-75-32-95-36-59-18-87-31c-188-92-280-142-308-169-18-17-47-40-66-50-18-10-42-24-52-30-21-12-109-92-109-100 0-2-16-20-35-40-19-19-44-52-54-72-11-21-31-43-46-50-16-7-34-30-45-56-11-24-27-49-36-57-27-22-104-193-110-245-3-27-14-74-24-104-27-83-34-222-14-282 9-27 14-57 11-68-2-10 2-55 9-101s14-103 14-126c0-51 23-113 65-171 16-24 37-54 45-66 46-66 69-89 109-107 24-10 49-19 56-19 6 0 22-11 35-25s31-25 40-25c10 0 34-11 54-25s40-25 44-25 13-9 20-20c8-14 23-20 50-20 20-1 55-8 77-16s73-17 114-20c40-2 79-8 85-12 20-13 228-11 251 3 11 7 41 15 67 19 43 5 49 3 66-22 11-15 23-38 27-52s26-47 50-75c52-63 171-228 194-270 18-34 47-73 97-133 17-20 46-61 64-89 17-29 35-53 40-53 4 0 28-42 53-93 26-52 54-100 62-107 9-8 26-33 37-57s34-54 50-66c55-40 100-91 119-134 11-23 31-48 46-55 28-14 32-19 64-91 14-30 31-52 46-58 13-5 27-19 32-31 5-13 19-32 31-43s32-43 45-72c13-28 33-57 45-63 11-6 20-17 20-24s17-33 38-57c22-25 46-68 56-99 14-44 26-61 62-89 25-18 52-48 60-66 7-18 22-35 34-38 13-3 22-17 26-37 4-18 19-40 35-53 16-11 29-26 29-31 0-6 17-33 38-61 21-27 46-70 55-94 10-24 28-52 41-62 12-10 37-48 55-84 22-44 59-93 112-147 43-45 79-86 79-92 0-7 20-44 45-84s45-76 45-81 16-31 36-57 42-62 50-79c7-17 21-38 30-46 10-8 32-36 50-64 19-27 61-84 94-125s68-91 79-111c11-19 27-41 35-48 9-8 16-19 16-26 0-33 81-174 118-206 22-19 57-65 78-104 33-62 57-98 122-185 10-14 35-52 54-85 20-33 59-86 87-118s51-64 51-72 9-19 20-25 30-30 41-53c12-23 37-60 56-82 101-118 123-147 123-159 0-7 11-23 25-36s25-30 25-37c0-21 52-114 66-120 8-3 31-33 51-67 20-33 60-86 88-116 52-57 95-114 95-126 0-4 8-16 17-26 10-11 26-34 38-52 30-50 127-175 179-230 25-27 46-54 46-58 0-14 172-203 198-218 12-8 22-18 22-24s19-34 41-61c23-28 48-65 56-84s29-51 46-72c17-20 36-52 42-70 7-21 27-44 51-61 39-26 51-42 98-128 14-25 34-56 45-70 60-73 92-118 105-146 16-37 106-150 134-170 10-7 25-26 31-42 7-16 23-35 37-42 27-15 72-81 103-151 11-25 37-61 58-81 62-58 133-135 133-143 0-7 37-52 115-140 62-70 71-79 110-110 20-16 43-42 50-56 19-36 214-234 250-253 17-8 48-33 69-56 22-22 43-40 47-40 27 0 52 91 29 105-5 3-10 16-10 28s-9 33-20 47-20 30-20 36c0 5-13 31-30 57-17 27-30 61-30 79 0 24-12 42-58 87-32 31-71 81-86 111-43 86-59 113-89 142-15 15-27 35-27 45s-8 32-18 48c-10 17-21 41-25 55-7 28-110 167-138 187-9 7-24 31-33 53s-31 55-49 73c-18 17-39 52-46 77-15 49-60 119-77 120-6 0-16 12-23 28-7 15-30 54-51 87s-42 72-45 88c-5 16-14 27-25 27-19 0-56 50-91 121-14 31-32 51-53 60-29 14-125 140-126 166 0 6-11 20-24 30s-27 30-31 43c-4 14-18 36-31 50-24 26-74 130-74 154 0 8-31 45-68 83-56 55-70 76-75 109-4 23-14 47-22 54s-15 18-15 25-7 18-15 25c-9 7-25 34-37 59-23 52-62 115-93 151-12 14-30 45-40 70-11 25-33 63-51 85-17 22-41 60-53 85-30 65-85 157-108 183-11 12-29 38-38 57-10 19-28 48-41 63-13 16-24 37-24 47s-5 22-10 25c-20 12-86 121-98 161-6 22-23 56-37 75-13 19-38 60-54 91-17 31-35 59-41 63-5 3-25 34-45 69-19 35-44 71-55 81s-20 22-20 27c0 4-16 32-35 61-19 28-37 68-41 87s-19 52-35 72-29 40-29 45c0 4-9 19-20 33s-20 32-20 40c0 9-27 45-61 80-33 36-72 87-86 114s-31 56-39 64c-8 7-14 17-14 22s-18 27-41 48c-26 26-63 83-104 165-35 69-72 134-82 145s-36 49-58 86c-23 39-52 72-71 82-35 19-73 86-88 156-3 14-22 47-41 72s-46 68-60 96-41 67-59 88c-18 20-47 58-65 85-18 26-40 55-51 65-10 9-30 43-44 74-15 32-44 83-66 114-21 31-45 72-51 93-7 20-20 47-31 61-10 14-29 57-43 95-14 39-37 87-50 107-14 21-25 42-25 47s-18 33-41 62c-22 30-43 66-46 82-3 15-10 30-14 33-5 3-9 16-9 29s-5 27-10 30c-6 4-26 38-45 76-19 37-46 76-60 85s-25 21-25 26-13 28-30 51c-16 23-41 75-55 116-29 83-69 166-85 176-5 3-10 21-10 40s-7 40-16 47c-92 74-144 144-144 195 0 23-7 37-24 48-14 9-33 41-46 75-12 33-33 71-46 85s-24 38-24 53c0 16-15 45-35 71-19 24-35 51-35 59 0 9-19 41-43 71-40 51-56 90-72 177-3 17-17 42-31 54-13 13-24 34-24 46s-13 52-30 89c-36 81-37 98-6 123 14 10 28 32 32 48 3 16 13 40 21 53s29 69 46 125c24 77 31 117 29 169-1 47 3 76 13 91 14 21 14 30-1 82-17 60-18 72-15 134 1 19-3 82-9 140-9 79-18 116-37 152-15 27-29 48-33 48s-12 19-19 43c-14 46-37 77-58 77-13 0-188 171-245 238-18 22-35 32-54 32-15 0-55 13-88 30-61 29-89 34-266 45-64 4-91 1-110-10zm-130-169c0-30-87-96-126-96-38 0-108-22-117-37-4-7-24-20-45-30-20-9-50-27-65-40-16-13-34-23-42-23-42 0-185-97-185-125 0-18-70-72-102-80-17-4-29-16-33-32-7-28-49-83-132-172-45-47-53-52-53-33 0 30 45 100 74 113 12 6 36 35 52 65s33 54 37 54 14 15 22 34 23 37 33 40 26 19 35 36c10 16 34 39 55 50 21 12 42 30 47 42 6 11 28 29 50 40s47 24 55 29 33 18 54 30c21 11 51 32 65 45 14 14 37 27 51 31 14 3 31 10 38 16 7 5 15 7 18 4 4-3 30 6 58 21s71 30 96 33 48 7 53 7c4 1 7-9 7-22zm183-2c6-6-35-44-47-44s-6 38 7 43c18 8 33 8 40 1zm183-134c1-25 6-63 12-85 35-135 52-186 75-232 39-75 35-92-18-97-21-3-25 2-31 38-4 23-6 56-5 75 1 18-2 38-8 45-24 30-84 267-73 294 2 7 14 12 26 10 18-3 21-10 22-48zm132 38c6-7 10-24 10-38s16-72 36-129c20-58 39-123 43-145 3-23 11-47 17-55 32-40 47-145 23-154-21-8-34 5-42 43-4 19-13 46-20 60s-15 42-19 64c-4 21-18 48-32 61s-28 42-34 71c-5 27-17 78-25 114-31 127-31 120 3 120 16 0 34-6 40-12zm-257-86c4-19 14-48 22-65 34-70 56-207 34-207-35 0-77 65-77 118 0 39-17 92-46 145-19 35-10 49 29 45 27-3 32-8 38-36zm-121-22c0-17 9-59 19-93 26-84 38-217 19-217-13 0-107 230-121 295-2 9 59 45 76 45 4 0 7-14 7-30zm587-74c30-14 46-29 59-58 10-22 38-56 62-76 40-33 42-37 26-49-10-7-30-13-46-13-23 0-28 4-28 25 0 36-1 39-12 53-33 39-70-17-44-66 21-40 20-69-2-81-15-8-20-3-33 32-32 84-43 123-45 157-1 19-5 64-9 100l-7 65 19-35c12-23 33-42 60-54zm-710-26c7-46 20-85 38-112 33-50 45-115 22-124-21-7-57 13-57 32 0 8-13 48-28 87-66 166-67 184-7 186 18 1 22-9 32-69zm-147 4c0-8 11-40 25-71 25-54 55-164 58-213 3-41-26-35-56 12-15 24-30 54-33 68-20 97-57 159-87 147-31-12-17-74 43-187 10-20 21-57 25-82 7-47 7-47-26-56-33-8-34-8-40 27-4 19-18 44-31 55-14 12-28 29-31 38-7 20-37 14-37-7 0-7 9-41 19-76l20-62-26-34c-24-31-27-32-38-16-13 21-65 182-65 204 0 8-13 30-30 49-25 30-31 33-40 20-15-22-7-63 35-170 21-52 40-112 43-133 3-27 16-49 39-72 37-36 36-60-2-69-13-3-30-8-38-11-22-9-77 140-77 211 0 17-9 43-20 57s-23 39-26 57c-9 41-42 60-61 34-15-21-17-43-4-77 6-14 17-60 26-104 9-43 25-96 35-119 23-46 26-84 8-102-22-22-36-12-48 36-6 26-25 68-41 95-16 26-29 51-29 56s-11 16-25 25c-24 16-25 15-31-9-9-35-1-67 41-172 22-56 35-107 35-135 0-43-1-45-24-41-30 6-50 45-66 131-7 34-16 62-19 62-17 0-51 43-51 65 0 35 65 170 104 213 18 20 38 52 45 70 8 18 27 40 42 49 21 13 29 25 29 45 0 26 3 28 37 28 37 0 112 41 148 80 10 11 24 20 30 20 7 0 18 6 24 14 7 8 27 18 44 21 31 6 40 9 97 33 36 15 50 14 50-4zm1100-253c0-27-3-29-51-35-59-8-81 3-63 32 9 14 40 24 102 31 7 0 12-11 12-28zm-530-69c0-22 9-65 20-97s20-69 20-83 23-58 50-99c28-40 50-80 50-88 0-18 21-65 30-65 10 0 46-71 65-130 16-49 49-123 76-173 5-9 19-42 30-73 12-31 40-77 63-103 42-47 126-196 126-224 0-8 13-31 29-51s37-62 47-94c10-31 25-68 34-82 55-82 140-237 140-254 0-8 7-19 15-26 16-13 65-109 65-127 0-5 14-22 30-38 17-16 30-37 30-46 0-10 5-21 10-24 6-3 10-21 10-39 0-26 9-42 43-73 74-70 94-99 117-164 13-35 29-73 36-84 8-11 14-28 14-39 0-10 6-24 14-30s38-55 65-110c28-54 62-114 77-133 14-19 30-49 35-67 5-19 20-50 34-70 13-19 29-53 36-75 10-35 29-65 73-113 9-10 16-21 16-25 0-5 14-26 30-47 17-22 30-46 30-53 0-24 111-244 147-291 19-25 45-67 58-92 13-26 42-65 64-86 21-22 54-66 71-99 18-33 39-65 47-72 20-16 83-124 116-201 28-65 58-111 112-172 35-39 105-152 105-169 0-14 26-57 51-86 17-19 29-42 119-227 23-49 46-88 50-88 5 0 18-15 29-32 11-18 31-44 44-58s34-52 46-84 35-75 51-95c29-34 40-81 21-81-5 0-21 14-36 32-22 26-30 30-44 21-25-16-56 11-77 67-9 25-30 56-47 69-16 13-36 39-43 57-16 37-18 58-6 50 4-2 14-1 22 4 11 7 10 11-3 25-10 9-17 22-17 29 0 8-7 19-14 26-8 6-23 35-32 63-19 59-57 129-81 148-13 11-18 10-30-6-14-20-15-19-38 9-28 34-35 76-24 127 11 48-2 82-41 116-17 14-37 41-46 61-8 19-22 41-32 48s-24 31-32 54-21 47-30 53c-9 7-31 41-49 76s-49 91-70 125c-20 33-40 69-44 79-5 14-16 17-44 15-36-3-39-1-66 52-16 30-41 73-55 95s-42 72-62 110c-48 93-112 193-127 199-19 8-16-41 4-75 10-16 21-29 25-29s8-7 8-16c0-29 199-412 226-435 11-9 21-9 39-1 23 11 26 8 64-57 22-37 47-73 55-80 40-33 59-82 57-147-1-57 2-70 29-109 16-24 30-48 30-52 0-5 8-27 19-49 10-21 24-57 32-79 14-42 47-94 86-134 13-13 23-31 23-39 0-9 6-23 14-31 8-9 27-40 41-70 15-29 35-61 44-70 26-26 55-71 92-141 18-36 51-80 71-99 21-18 38-38 38-43 0-10 47-77 65-93 7-5 18-21 25-35 18-35 82-132 97-147 6-7 19-13 29-13 19 0 43-28 44-51 0-8 13-33 30-55 16-21 30-43 30-48 0-13 101-178 126-206 12-14 30-43 39-65s31-56 49-75c42-45 63-77 106-158 56-106 120-135 120-55v38l25-30c14-16 34-46 44-66 11-19 27-42 36-49 10-8 27-37 40-65 12-28 28-57 36-65 25-25 74-102 104-162 15-32 38-64 50-72s25-27 28-43c3-15 26-55 51-88s46-65 46-72 13-27 29-45c26-31 36-53 59-133 6-20 16-31 31-33 12-2 33-21 47-42s31-41 38-43c7-3 21-31 31-62 10-32 26-65 37-74s29-34 40-56 29-48 39-58c10-9 23-36 29-60 7-23 28-62 49-87 20-25 44-57 54-72 9-14 26-29 37-33 11-3 20-12 20-18 0-7 17-34 38-62 21-27 57-89 80-137 27-55 53-94 70-105 38-25 56-49 89-118 15-33 34-64 41-68 6-4 12-18 12-30-1-21-2-20-29 9-16 18-33 38-37 45-5 8-22 23-38 34-16 12-52 57-80 102-65 103-162 230-187 244-10 5-19 14-19 19 0 9-36 66-66 105-8 11-34 50-58 87-24 36-55 77-70 90-16 13-40 51-54 85-22 50-37 68-77 96-30 20-60 51-75 79-14 24-37 59-52 77-16 18-28 40-28 50 0 9-13 32-30 51-16 19-29 41-30 48 0 7-17 30-37 52-21 22-49 59-62 84-12 24-50 72-83 106s-65 75-72 91c-6 15-32 50-57 76s-66 75-91 108-58 71-72 84c-14 14-26 29-26 33 0 5-20 34-45 65-25 30-45 58-45 62s-11 13-24 20c-13 8-35 30-48 50-14 20-41 61-61 91s-46 69-57 85c-84 126-110 166-110 174 0 5-20 31-45 59-25 27-45 54-45 59 0 6-13 25-30 44-41 47-96 133-119 183-10 24-37 60-59 80-22 21-64 80-94 133-29 52-61 103-71 114s-30 43-43 72c-34 72-62 115-112 174-24 28-56 77-71 110-15 32-35 64-44 72-10 7-17 18-17 23s-9 21-20 35-20 34-20 44c0 15-29 63-128 212-14 21-33 42-42 47-15 8-90 122-90 136 0 3-14 26-32 52-17 25-45 73-61 106-16 34-35 68-42 76-8 8-21 36-29 62-9 25-31 69-50 96-19 29-36 70-40 96s-13 46-19 46c-19 0-117 103-146 154-14 24-44 71-65 103-22 32-50 78-63 103-56 106-119 199-140 209-13 6-32 31-42 55-11 24-28 50-40 58-20 14-51 87-51 121 0 10-18 46-40 79-22 34-40 72-40 84s-7 24-15 28c-8 3-15 13-15 22 0 10-7 26-17 36-9 10-21 27-27 37s-20 31-31 46c-12 17-19 45-20 73v46l-47 14c-27 7-48 19-48 26 0 46-133 232-193 270-29 19-54 45-68 73-13 25-36 55-51 68-16 14-36 41-44 62s-19 47-24 58-16 37-24 57c-8 21-26 43-39 49-16 7-27 23-31 41-7 36-91 158-109 158-19 1-78 85-91 130-6 22-35 66-62 98-28 31-58 72-67 89-10 18-25 38-35 45s-24 29-31 48c-8 19-27 52-42 72-16 20-34 49-40 65-25 63-35 79-61 111-16 18-28 41-28 51s-7 32-15 47c-16 32-122 144-136 144-5 0-9 6-9 14s-22 41-48 73c-59 70-62 78-52 128 6 32 8 34 9 12 1-19 8-30 24-36 26-10 116 2 126 16 3 6 22 14 41 18s57 21 83 37c32 21 61 31 87 31 22 0 45 6 51 13 6 8 30 14 53 14 22 1 52 7 66 15s41 15 60 15 42 5 50 10c25 16 30 12 30-28zm347-4c-3-8-6-5-6 6-1 11 2 17 5 13 3-3 4-12 1-19zm198-90c9-45-14-61-45-33-27 25-26 63 3 74 28 11 34 5 42-41zm-308 10c-3-8-6-5-6 6-1 11 2 17 5 13 3-3 4-12 1-19zm-1591-60c-15-21-16-22-16-2 0 11 6 26 12 32 19 19 22-4 4-30zm1742-12c-2-11-8-21-15-23-15-5-26 31-17 59 6 21 7 21 21 2 7-10 12-28 11-38zm-98-42c0-16-16-19-25-4-8 13 4 32 16 25 5-4 9-13 9-21zm270-53c0-28-4-52-9-55-10-6-22 70-14 90 11 30 23 12 23-35zm-122-18c3-22-28-40-48-28-12 7-13 38-3 49 15 14 48 1 51-21zm-108-42c0-27-53-64-68-49-16 16-15 28 6 49 24 25 62 25 62 0zm-1573-83c11-13 23-34 26-48s8-34 12-46c5-16 0-25-21-39-16-10-39-19-51-21-21-2-23 1-23 49 0 73 11 127 25 127 6 0 21-10 32-22zm629-44c4-15 2-30-5-37-17-16-41 17-41 55 0 26 2 28 20 18 11-6 23-22 26-36zm-162 19c8-28 10-142 3-150-4-3-7 5-7 18s-9 48-20 77-18 57-15 63c10 15 33 10 39-8zm-154-37c0-8-5-18-11-22-14-8-33 11-25 25 10 16 36 13 36-3zm76-113c5-29 3-39-11-50-27-19-33-17-40 16-7 31 11 71 32 71 7 0 15-16 19-37zm-529-69c1-54 1-56-8-24-21 71-23 93-8 88 10-3 15-24 16-64zm810 19c-3-10-5-4-5 12 0 17 2 24 5 18 2-7 2-21 0-30zm-422-9c7-39 2-48-32-58-19-6-23-2-29 28-8 47 0 66 30 66 19 0 25-6 31-36zm-157-1c26-56 2-127-30-88-34 42-49 55-64 55-14 0-16-7-11-44 4-24 13-62 20-84 16-46 14-52-20-52-31 0-39 25-41 127-2 88 3 99 48 95 14-2 37 1 50 7 35 14 34 14 48-16zm604-123c5-53-7-72-23-38-12 27-6 78 10 78 5 0 11-18 13-40zm115-2c-3-8-6-5-6 6-1 11 2 17 5 13 3-3 4-12 1-19zm-699-42c3-13-1-17-14-14-11 2-20 11-22 22-3 13 1 17 14 14 11-2 20-11 22-22zm360-15c5-30-15-52-28-31-5 8-10 25-10 38 0 32 34 25 38-7zm-118-52c0-22-25-48-47-49-7 0-18 10-24 22-10 18-8 24 7 35 29 21 64 17 64-8zm-159-59c11-37 10-43-7-59-12-12-40-21-76-24-51-5-60-3-73 16-27 39-20 57 24 57 30 0 41 5 46 19 3 11 14 22 23 24 43 11 51 7 63-33zm772-81c31-56 12-112-28-79-21 17-30 77-15 95 17 21 23 19 43-16zm-723-61c0-7-7-22-15-32-12-16-18-17-28-7-9 10-7 16 13 31 30 23 30 23 30 8zm920-193c18-22-1-60-40-80s-50-13-50 35c0 33 4 40 28 48 38 15 48 14 62-3zm100-145c35-44 36-73 3-78-28-4-59 57-54 106 2 22 19 13 51-28zm-120-66c0-36-8-42-28-22-15 15-15 41 0 56 17 17 28 5 28-34zm155-144c0-33-40-41-50-11-9 28 2 43 28 39 16-2 22-10 22-28zm165-140c0-41-17-55-51-45-28 9-26 69 3 89 30 21 48 4 48-44zm106-227c-10-10-19 5-10 18 6 11 8 11 12 0 2-7 1-15-2-18zm201-210c-25-75-34-93-57-107-24-14-27-13-38 4-13 21-17 102-5 113 3 4 29 7 56 7 42 0 49-2 44-17zm60-80c-3-10-5-4-5 12 0 17 2 24 5 18 2-7 2-21 0-30zm13-185c0-32-6-34-32-11-23 20-23 32-1 49 22 15 33 2 33-38zm128 2c17-28 6-43-26-35-30 7-43 22-35 42s47 16 61-7zm12-175c0-8-4-15-10-15-5 0-10 7-10 15s5 15 10 15c6 0 10-7 10-15zm271-375c7-22 20-47 31-56 24-22 25-67 1-62-10 2-19 13-21 24-2 12-13 26-26 32-16 7-25 22-29 48-4 20-4 41-1 46 13 20 34 5 45-32zm181-145c9-19 8-31-2-52l-13-28-8 25c-19 65-1 108 23 55zm5-157c-3-8-6-5-6 6-1 11 2 17 5 13 3-3 4-12 1-19zm155-97c7-14 24-42 39-61 48-65 62-150 24-150-16 0-65 99-65 132 0 11-8 32-18 46-19 28-42 86-42 106 1 13 43-37 62-73zm137-305c7-8 11-27 9-43l-3-28-23 35c-12 19-22 38-22 43 0 12 27 8 39-7zm164-274c6-32 0-43-8-16-4 10-11 27-16 36-6 13-5 16 5 12 8-3 16-17 19-32zm697-508c0-8-4-12-10-9-5 3-10 10-10 16 0 5 5 9 10 9 6 0 10-7 10-16zm-7-511c28-27 36-53 16-53-23 0-79 71-79 98l1 27 17-23c9-13 29-35 45-49zm421 5c8-13 17-34 21-48s15-34 25-45c9-11 34-54 55-95 54-105 56-110 49-110-12 0-72 69-79 92-5 12-16 34-26 48s-19 36-21 49c-2 14-15 38-30 54-30 34-43 77-22 77 8 0 20-10 28-22zm-328-156c18-44 18-46-5-23s-41 55-41 72c0 20 30-11 46-49zm577-260c40-52 81-112 92-132 29-53 54-95 103-167 52-78 57-116 7-58-19 22-35 45-35 51 0 5-13 23-30 39-16 15-38 47-49 71s-30 53-42 66c-38 41-138 205-139 226 0 23 18 4 93-96zm-444 56c1-5-3-8-9-8-5 0-10 12-9 28 0 24 1 25 9 7 5-11 9-23 9-27zm698-480c-3-8-6-5-6 6-1 11 2 17 5 13 3-3 4-12 1-19zm-177-224c8-16 21-33 28-37 6-4 12-14 12-21s9-21 20-31 20-25 20-34c0-10-5-7-16 9-10 14-22 30-28 35-46 40-107 116-101 125 10 16 46-10 65-46zm120-182c-7-3-16 2-21 9-16 25-9 32 12 13 13-12 16-20 9-22zm250-296c0-5 12-22 26-37s24-33 22-40c-3-8-17 2-39 25-38 43-44 51-54 86l-7 25 26-24c14-14 26-29 26-35zm1240-1472c0-7 11-21 25-32 13-11 30-32 36-48 7-16 34-51 60-79 48-50 77-112 48-103-8 2-23 20-34 39-46 79-61 98-82 104-13 3-30 19-38 35-9 17-34 58-55 92-51 78-51 93 0 43 22-21 40-45 40-51z"/><path d="m8531 16969c-24-5-55-16-70-26-14-9-46-20-71-24-100-17-145-35-155-63-11-32 2-60 31-64 60-9 65-12 54-32-18-34-11-58 40-118 28-33 50-64 50-70 0-5 16-22 36-37 33-25 38-26 46-11 13 23 35 20 70-9 65-55 90-4 34 69-19 25-38 56-41 68-4 13-18 35-31 49-38 40-57 119-29 119 10 0 15-10 15-30 0-31 31-84 61-107 9-7 35-43 58-81 22-37 54-81 71-97l29-28 6 25c4 14 0 41-9 63-22 52-21 69 4 62 26-7 40 18 30 53-4 14-26 64-48 111-22 46-43 97-47 112-7 35-48 77-72 76-10-1-38-5-62-10zm79-130c0-5-7-9-15-9-15 0-20 12-9 23 8 8 24-1 24-14z"/><path d="m9090 15949c0-27 21-101 32-113 4-6 8-16 8-24s19-34 43-57c63-63 117-134 117-154 0-10 12-37 28-62 15-24 32-53 38-63 6-11 16-22 22-24 20-6 14 54-8 90-11 18-20 42-20 53s-14 43-30 70c-16 28-30 56-30 64s-16 33-35 57c-19 23-35 50-35 59 0 26-51 85-92 106l-38 19z"/><path d="m9045 15767c-4-15 1-36 13-58 11-19 28-60 39-92 13-44 28-66 56-89 21-17 44-43 53-59 19-37 63-41 66-6 3 47-4 62-65 129-39 45-71 93-87 132-19 46-31 62-47 64-17 2-24-3-28-21z"/><path d="m9305 15351c-8-15 3-31 21-31 9 0 14 7 12 17-4 20-24 28-33 14z"/><path d="m9485 15291c-3-11 2-39 13-63s30-67 42-95c12-29 26-53 31-53 4 0 10-10 14-22 8-30 24-67 41-98 7-14 21-41 30-60s20-43 25-52c5-10 9-29 9-43 0-23 28-60 123-158 20-21 37-44 37-51s13-32 28-57c56-88 96-155 121-203 26-49 43-60 49-32 4 18-64 166-76 166-10 0-42 65-42 86 0 8-18 44-40 80s-40 69-40 74c0 4-18 28-40 53s-40 50-40 56-4 11-9 11-12 8-16 19c-3 10-17 31-30 45-14 15-25 35-25 44 0 30-30 103-55 137-14 17-25 41-25 53 0 11-4 24-10 27-5 3-10 16-10 28 0 29-60 121-82 125-9 2-19-5-23-17z"/><path d="m9353 15236c7-45 30-93 63-131 14-16 32-46 40-65s28-52 44-72c17-20 30-43 30-51 0-7 14-26 30-42 17-16 30-35 30-42 0-18 19-51 53-91 15-18 27-42 27-52 0-11 5-20 10-20 13 0 13 44 1 84-5 17-15 50-22 74s-20 49-29 55c-9 7-22 28-30 47-7 19-26 49-42 65-18 20-28 42-28 62 0 21-13 47-38 80-21 26-44 62-51 79-12 31-46 54-78 54-12 0-14-7-10-34z"/></g></svg>