<?xml version="1.0" encoding="UTF-8" standalone="no"?>
<svg id="svg2" xmlns:rdf="http://www.w3.org/1999/02/22-rdf-syntax-ns#" xmlns="http://www.w3.org/2000/svg" height="961pt" width="1249pt" version="1.1" xmlns:cc="http://creativecommons.org/ns#" xmlns:dc="http://purl.org/dc/elements/1.1/" viewBox="0 0 1249 961">
<path id="path40" d="m832.51 827.26c5.26 2.74-11.63 18.59-15.22 19 3.83-7.1 8.95-13.86 15.22-19zm-44.03-3.84c3.67-1.24-0.63 5.53-1.4 5.55-9.03 10.57-16.1 23.43-27.26 31.8 7-13.85 18-26.19 28.66-37.35zm-18.15-6.11c1.73-0.54 2.85 0.58 2.44 2.33-23.39 21.52-37.4 52.19-61.59 72.47 16.39-26.92 36.99-52.57 59.15-74.8zm47.14-0.95c1.37-0.66 1.63-0.36 0.79 0.9-10.08 13.93-20.24 27.84-29.94 42.04-1.05 3.18-7.15 5.19-4.86 0.37 10.3-15.11 20.12-31.48 34.01-43.31zm-572.87-88.03c10.62-0.6-7.32 10.5-6.89 15.41-8.74 1.9 2.65-12.44 6.89-15.41zm744.95-459.94c9.21-0.12-5.44 11.62-8.55 5.61 1.38-3.68 6.46-2.11 8.55-5.61zm24.96-38.09c3.23-1.42 3.12 3.88 0.82 4.78-12.36 11.18-21.4 27-36.22 34.9 8.97-15.07 23.33-26.94 35.4-39.68zm13.57-24.81c1.94 0.39-0.62 5.12-2.04 6.53-14.61 13.36-24.13 32.42-41.12 42.9 12.92-17.55 27.11-34.86 43.16-49.43zm-43.1-2.47c9.47-6.94 13.62-20.66 24.04-25.83-7.11 14.51-22.58 24.87-30.27 39.78-4.13-5.1 3.54-9.88 6.23-13.95zm108.5-48.75c4.72-0.87 1.54 5.25-0.6 6.67-7.37 6.14-11.38 17.42-20.67 20.8 4.64-10.5 13.75-18.94 21.27-27.47zm-44.12-5.8c-9.53 22.95-40.33 42.2-45.44 68.34-12.31 18.75-27.07 35.68-41.43 52.85-3.11 1.94-4.47 0.47-2.61-2.63 8.53-11.37 17.96-22.17 27.01-33.17 9.54-14.23 13.83-33.22 28.79-43.18 10.53-14.46 20.27-30.57 33.68-42.21zm80.04-58.16c3.36-1.78 5.08 3.82 1.52 4.52-37 27.93-61.94 68.32-97.11 97.99 31.16-34.5 57.59-75.07 95.59-102.51zm33.05-10.94c1.88-1.27 4.07 1.42 3.08 3.16-11.14 7.05-16.5 20.4-27.27 27.95-1.66 0.87-4.91 0.45-3.98-2.08 8.36-10.5 17.22-21.19 28.17-29.03zm18.76-0.82c1.21 8.66-16.29 12.41-18.1 22.59 4.91-1.87 9.81-14.28 14.98-6.18-23.53 24.35-45.03 52.37-75.24 67.76 10.21-15.23 28.4-25.11 39.12-40.44-3.23 1.43-6.75-2.19-3.42-4.67 13.42-13.71 23.22-33.42 42.66-39.06zm-27.77-4.27c6.92 1.48-6.41 9.05-8.06 11.97 1.51 8.01-9.43 17.01-17.19 19.51 6.9-10.43 14.75-23.52 25.25-31.48zm7.92-35.84c5.47 4.16 10.08 0.79 15.16 0.02-1.84 7.51-12.76 11.7-17.91 17.54-6.57-3.89 10.16-8.24 3.28-12.86-8.34 5.6-15.72 12.85-25.38 16.36-31.78 24.95-52.01 62.46-85.54 85.38 34.27-37.22 64.49-81.61 110.39-106.44zm25.38-2.12c2.87 3 8.32-2.71 9.18 2.5-5.71 4.73-9.33 15.11-17.38 14.82-8.33-5.37 2.27-14.88 8.2-17.32zm-43.67-3.34c14.43-4.35 26.04-18.22 42.69-12.82 2.02 9.11-14.95-0.31-15.29 8.37-30.03 3.46-50.45 27.34-72.44 45.51-21.35 31.38-49.98 57.71-73.42 87.59-5.64 4.73-8.61 12.7-15.59 15.56 24.23-29.85 47.59-59.9 73.68-88.48 14.92-23.47 38.81-38.95 60.37-55.73zm27.6-32.98h13.44c15.49 1.77 30.74 8.08 43.46 17.49 11.89 12.24 19.26 33.02 21.48 51.78v5.37c-7.25 47.34-45.37 80.22-78.95 110.41-61.59 60.92-133.37 111.72-192.6 175.46-11.37 8.71-25.99 1.09-37.64 6.18-15.24 16.69-40.46 35.91-30.45 61.88 14.95 19.58 27.14 41.19 37.46 63.6 27.19 48.74 42.23 105.06 36.85 161.03 1.2 73.52-36.46 141.24-82.3 196.17-42.21 47.29-101 75.62-160.21 95.8-34.58 10-70.73 12.62-106.44 15.83h-7.51c-46.8 0.2-93.13-7.92-137.88-21.4-12.45-5.56-25.92-7.76-39.1-10.74-102.39-35.23-193.58-97.06-273.21-169.78-43.07-45.99-84.63-94.82-111.71-152.24-27.74-53.21-50.33-109.44-59.41-169.01-4.7743-21.3 0.6256-39.14 3.78-62.41 1.89-9.54 4.3-24.84 17.04-24.34 14.23 65.28 40.63 128.18 74.28 186.03 16.62 35.11 45.55 61.98 67.36 93.61 66.57 83.44 157.71 145.55 256.84 184.19 41.78 19.1 87.27 27.25 131.18 38.72 27.65-0.51 55.29 2.95 82.64-2.72 22.79 2.69 42.63-10.78 64.41-14.47 29.29-8.72 54.36-26.62 78.78-44.33 24.07-25.43 45.27-53.96 60.68-85.38 10.18-35.23 25.01-70.62 24.04-107.57 3.78-50.6-4.22-101.48-19.35-149.53-6.6-11.23-10.18-23.9-14.11-36.2-2.26-23.62 14.59-41.74 31.05-56.01 9.88-11.42 20.82-22.12 31.32-32.61-4.68-8.96-6.52-20.45-4.7-30.84 1.97-10.19 14.02-12.83 18.34-21.6 34.27-53.33 79.22-98.49 115.9-150.02-0.98-7.33 10.29-5.48 10.6-13.48 30.36-35.84 60.81-74.8 99.88-100.31 11.62-2.47 22.7-7.46 34.86-8.56m7.72 8.41c-26.78 0.92-51.81 11.62-69.85 32.07-62.33 66.09-116.09 139.43-172.33 210.78-2.15 6.72-4.36 16.62 1.87 21.82 16.33-15.93 24.44-37.67 39.01-55.08-10.74 20.98-22.13 42.31-38.06 60.34 0.82 13.85 15.16 19.88 25.22 26.51 14.35-1.7 17.56-20.01 30.59-23.98 3.47-1.51 5.56-9.79 9.15-6.59-5.25 15.4-20.58 23.64-32.54 33.33-2.16 4.15 4.78 5.82 6.94 2.79 60.11-61.73 128.27-116.54 187.87-179.23-45.17 36.23-89.53 74.21-132.53 113.51-5.94 4.6-11.7 9.64-19.15 11.63-2.19 5.95-10.07 12.78-16.15 9.65 0.61-2.16 12.39-11.45 5.9-8.74-15.4 9.59 2.38-15.11 9.65-8.37 26.35-12.86 45.48-35.77 67.92-54 26.46-25.15 56.13-47.45 78.28-76.69 12.34-12.37 23.72-24.48 31.04-40.81-15.42 1.3 0.57-11.78 3.52-16.51-4.9 1.67-14.51 5.17-7.36-2.32-4.8-6.29 4.1-13.88 9.83-17.42 7.5 0.24-5.83 12.28 1.94 7.15 8.47 1.27-8.1 14.13 1.02 8.76 6.87-4.07 2.12 5.11 7.79 6.31-2.1 10.62-14.14 16.02-17.04 26.46 9.36-8.55 18.66-19.16 25.05-30.68 3.39-4.87-10.15-0.36-5.38-5.6 7.29-12.19-14.07-18.55-8.53-29.46-3.63 1.08-7.26 2.3-11 2.83-1.09-9.41 20.5-5.87 14.81-0.38 0.36 9.11 7.92 4.87 13.01 3.69-0.02 3.15-2.57 5.62-2.72 8.76 6.62-0.61 9.42 10.77 9.17 16.82 8.19 1.03-2.64 15.53 2.94 10.38 3.91-6.44-1.49 8.57 4.92 4.97-6.22 16.04-8.53 33.98-21.41 46.61-36.33 53.29-94 85.96-137.15 132.86-25.88 20.11-46.43 45.53-72.06 65.88-5.93 3.79 3.73 7.53 6.18 3.26 18.12-17.91 38.84-33.22 55.28-52.73 45.37-39.81 95-76.37 134.1-121.95 19.22-15.17 33.82-37.03 37.52-61.46 7.12-12.55-0.22-26.43-2.88-39.18-8.03-21.74-32.38-34.42-54.38-35.99m21.16 57.94c-7.4 5.77 5.11 1.58 0 0m20.21 3.31c-2.59 2.85-6.27 5.29-6.6 9.46 2.7-2.08 7.49-7.87 6.6-9.46m-15.24 19.68c-3.2 0.53-4.33 3.7-4.69 6.51 2.45-0.68 5.95-5.74 4.69-6.51m-20.92 35.03c-31.75 30.29-66.37 60.14-97.75 92.42-22.45 26.19-53.1 44.32-73.56 72.43-8.31 10.42-22.08 15.87-28.91 26.94 10.12-0.33 14.4-10.88 22.24-15.59 47.98-43.55 91.25-92.33 141.74-133.27 8.3-18.44 30.21-25.08 38.4-43.55-0.54 0.16-1.62 0.46-2.16 0.62m-259.63 143c-7.76 6.61-12.78 16.31-20.2 23.56-3.9 1.9-2.74 14.27 1.73 7.48 5.52-10.63 29.75-18 18.47-31.04m2.28 17.82c-8.06 8.78-17.86 16.01-23.15 26.86 3.98 13.25 10.53 27.7 24.86 32.75 9.01-10.9 18.12-21.82 29.16-30.82-13.26-6.52-18.03-22.47-30.87-28.79m62.17 41.16c-12.01 8.05-20.17 20.92-32.19 28.69 16.95 3.45 24.9-17.11 38.46-23.16-2.53-1.07-4.12-5.12-6.27-5.53m-105.74 23.04c-5.52 8.33-16.07 11.77-19.75 21.42-17.22 12.05-21.45 38.86-11.25 56.69 4.01 28.42 18.58 54.73 21.21 83.71 0.36 21.15 9.49 41.94 4.45 63.17-0.73 61.97-12.15 126.96-50.51 177.4-18.56 32.56-49.34 56.32-79.23 76.76-27.64 26.11-44.91 61.95-72.65 87.33 19.61-29.05 39.24-58.16 62.97-83.93-4.86 1.27-9.44 3.51-13.58 6.34-22.7 26.33-45.11 52.97-66.49 80.5-1.89 1.82-6.9 6.98-8.56 5.41 19.02-28.39 44.54-52.92 63.76-81.09-5.15 1.47-10.22 3.34-14.92 5.92-23.76 23.93-43.52 51.88-65.73 77.37-0.18 3.21-5.81 0.21-2.33-1.4 17.85-25.66 38.61-49.63 58.83-73.13-36.21 9.61-73.72 12.59-110.98 12.64-19.33 16.76-35.19 38.95-51.56 57.41 61.05 15.33 127.06 15.98 188.87 2.22 52.58-11.25 104.05-32.93 143.1-70.85 22.75-15.72 35.69-40.4 52.77-61.28 42.96-65.93 56.48-149.96 39.55-226.6-11.5-44.79-33.95-84.49-58.87-123.2-5.36-16.93-5.73-43.07 12.68-51.79 3.33-5.62 19.47-16.77 5.86-19.33-15.08 11.53-26.22 28.28-33.26 46.07-0.89 1.64-4.34 0.85-3.93-1.26 3.33-21.64 18.9-38.55 31.79-55.04-4-6.86-14.03-12.07-22.24-11.46m-863.58 25.7c-14.54 26.39 3.27 53.89 6.35 80.29 2.25 22.61 15.8 42.42 19.7 64.65 0.5 9.13 7.69 16.05 10.17 24.53 1.44 2.67-3.46 1.56-3.53-0.38-23.979-34.967-19.419-63.68-36.05-99.14 4.58 21.2 7.82 42.32 14.91 63.14 7.99 16.25 9.46 36.68 22.04 50.15 7.92 22.7 19.9 43.55 31.6 64.3 19.85 33.29 40.29 67 67.53 94.42 45.79 57.33 108.8 97.65 168.04 139.99 70.2 43.28 148.8 72.29 230.16 85.71 75.71 13.62 155.04 7.96 226.56-21.07 90.4-34.43 162.34-113.47 189.57-206.49 9.5-24.94 4.71-51.79 10.12-77.6-5.8-35.38-6.72-72.24-22.49-105.58-0.14-14.41-14.7-23.19-15.31-36.91-11.12-23.95-28.71-44.12-40.78-67.35-5.12 10.62 4.88 20.68 11.16 28.31 54.72 79.63 71.12 185.57 37.96 276.85-24.37 71.6-78.92 129.44-142.61 168.41-25.19 6.8-47.82 22.87-74.23 26.66-111.56 28.65-229.01 2.41-334-39.03-43.71-22.04-87.75-44.58-127.51-73.49-15.13-15.62-34.94-25.8-49.45-42.02-4.34 3.86-7.19-3.05-9.95-5.65-31.95-24.29-53.69-59.24-81.23-87.73-27.53-42.73-55.89-85.79-74.96-132.66 7.44-1.54 0.7 5.79 7.44 5.78 17.15 43.12 43.89 83.73 72.74 120.7 13.06 23.87 31.61 44.11 50.74 63.19 36.59 28.35 69.5 65.68 111.02 86.04 14.72 12.77 32.38 21.6 48.46 32.52 52.22 26.56 106.66 52.24 164.76 60.99 13.77-19 32.06-34.86 44.44-54.58-7.24-3.42-11.84 3.79-15.99 8.56-12 10.6-18.35 27.64-32.67 35.28 8.36-16.74 22.19-29.84 34.44-43.64 2.21-4.19-5.74-4.17-7.77-2.15-18.47 14.85-31.27 36.91-49.25 51.18 10.29-20.19 27.48-35.95 42.43-52.67 0.19-3.23-6.28-3.5-7.72-0.67-7.67 9.96-18.47 17.47-24.97 28.18-1.31 0.66-5.94 3.21-4.84 0.21 6.5-12.26 17.6-21.4 25.74-32.44-14.8-1.65-19.92 20.17-33.71 24.33 4.75-10.9 18-16.91 22.3-27.13-12.07-6.69-15.08 12.19-23.98 12.56 0.91-4.89 7.74-9.37 10.38-14.66-5.12-5.01-9.05 1.68-13.77 3.27 1.48-2.83 3.74-5.22 4.81-8.25-85.39-27.33-166.51-70.4-237.14-125.95-6.4 1.85-7.74 13.3-15.39 12.5-0.76-6.9 10.74-10.88 10.91-16.97-9.57-14.97-15.88 11.28-25.44 9.47-1.71-8.21 22.11-15.51 9.68-23.89-9.36 1.93-13.2 16.65-23.14 17.39 0.44-11.17 26.78-19.35 11.41-29.53-11.08 7-17.23 22.93-29.23 26.61 3.82-11.75 16.69-19.84 24.43-29.63-22.61-24.45-45.52-48.83-65.95-75.12-8.32-17.91-19.99 10.13-29.06 12.77 1.34-11.72 15.09-18.01 18.57-28.28-9.42-8.87-17.1 19.43-27.42 16.3 3-10.02 16.54-15.62 21.36-24.47-5-14.11-16.26 12.37-23.47 8.83 0.65-9.42 22.66-13.57 13.55-22.79-4.71 0.48-7.51 7.12-12.62 7.53-0.05-5.51 6.08-7.96 8.95-11.89-1.77-4.36-4.2-8.54-5.95-12.97-5.7 3.06-6.76 13.94-13.79 13.72-0.47-6.8 8.79-10.66 11.37-15.36-31.76-53.93-60.28-110.47-76.5-171.32-0.92-1.79-0.53-6.62-3.93-5.86m540.6 488.15c-17.6 16.58-30.72 36.88-47.88 53.96 3.16 2.85 10.31 5.66 13.01 0.67 12.37-17.88 26.89-34.14 42.08-49.66 7.63-5.78-4.12-5.03-7.21-4.97z"/>
</svg>
